<?xml version="1.0" standalone="no"?>
 <!DOCTYPE svg PUBLIC "-//W3C//DTD SVG 1.1//EN" 
 "http://www.w3.org/Graphics/SVG/1.1/DTD/svg11.dtd"> 
<svg
  xmlns:svg="http://www.w3.org/2000/svg"
  xmlns="http://www.w3.org/2000/svg"
  xmlns:xlink="http://www.w3.org/1999/xlink"
  version="1.1"
  width="297.0022mm" height="210.0072mm" viewBox="0.0000 0.0000 297.0022 210.0072">
<title>SVG Image created as AstraControl-F_Fab.svg date 2024/08/22 20:15:12 </title>
  <desc>Image generated by PCBNEW </desc>
<g style="fill:#000000; fill-opacity:1.0000;stroke:#000000; stroke-opacity:1.0000;
stroke-linecap:round; stroke-linejoin:round;"
 transform="translate(0 0) scale(1 1)">
</g>
<g style="fill:none; 
stroke:#000000; stroke-width:0.1200; stroke-opacity:1; 
stroke-linecap:round; stroke-linejoin:round;">
<path d="M199.0750 78.8000
L200.4250 76.7000
" />
<path d="M199.0750 76.7000
L200.4250 78.8000
" />
</g>
<g style="fill:none; 
stroke:#000000; stroke-width:0.1000; stroke-opacity:1; 
stroke-linecap:round; stroke-linejoin:round;">
<path d="M199.1250 76.7500
L200.3750 76.7500
" />
<path d="M199.1250 78.7500
L199.1250 76.7500
" />
<path d="M200.3750 76.7500
L200.3750 78.7500
" />
<path d="M200.3750 78.7500
L199.1250 78.7500
" />
</g>
<g style="fill:none; 
stroke:#000000; stroke-width:0.1200; stroke-opacity:1; 
stroke-linecap:round; stroke-linejoin:round;">
<path d="M172.2500 82.4500
L172.2500 83.0500
" />
<path d="M172.2500 83.0500
L175.4500 83.0500
" />
<path d="M175.4500 82.4500
L172.2500 82.4500
" />
<path d="M175.4500 83.0500
L175.4500 82.4500
" />
<circle cx="173.8500" cy="82.7500" r="1.5000" /> 
</g>
<g style="fill:none; 
stroke:#000000; stroke-width:0.1000; stroke-opacity:1; 
stroke-linecap:round; stroke-linejoin:round;">
<path d="M173.3500 127.2000
L174.1500 127.2000
" />
<path d="M173.3500 128.8000
L173.3500 127.2000
" />
<path d="M174.1500 127.2000
L174.1500 128.8000
" />
<path d="M174.1500 128.8000
L173.3500 128.8000
" />
</g>
<g style="fill:none; 
stroke:#000000; stroke-width:0.1200; stroke-opacity:1; 
stroke-linecap:round; stroke-linejoin:round;">
<path d="M133.1500 140.9500
L133.1500 141.5500
" />
<path d="M133.1500 141.5500
L136.3500 141.5500
" />
<path d="M136.3500 140.9500
L133.1500 140.9500
" />
<path d="M136.3500 141.5500
L136.3500 140.9500
" />
<circle cx="134.7500" cy="141.2500" r="1.5000" /> 
</g>
<g style="fill:none; 
stroke:#000000; stroke-width:0.1000; stroke-opacity:1; 
stroke-linecap:round; stroke-linejoin:round;">
<path d="M147.9300 96.0000
L148.9300 96.0000
" />
<path d="M147.9300 96.5000
L147.9300 96.0000
" />
<path d="M148.9300 96.0000
L148.9300 96.5000
" />
<path d="M148.9300 96.5000
L147.9300 96.5000
" />
</g>
<g style="fill:none; 
stroke:#000000; stroke-width:0.1200; stroke-opacity:1; 
stroke-linecap:round; stroke-linejoin:round;">
<path d="M144.4000 140.9500
L144.4000 141.5500
" />
<path d="M144.4000 141.5500
L147.6000 141.5500
" />
<path d="M147.6000 140.9500
L144.4000 140.9500
" />
<path d="M147.6000 141.5500
L147.6000 140.9500
" />
<circle cx="146.0000" cy="141.2500" r="1.5000" /> 
</g>
<g style="fill:none; 
stroke:#000000; stroke-width:0.1000; stroke-opacity:1; 
stroke-linecap:round; stroke-linejoin:round;">
<path d="M119.0000 144.2500
L119.0000 147.7500
" />
<path d="M119.0000 147.7500
L126.5000 147.7500
" />
<path d="M126.0100 148.0600
L126.8100 148.0600
" />
<path d="M126.5000 144.2500
L119.0000 144.2500
" />
<path d="M126.5000 147.7500
L126.5000 144.2500
" />
<path d="M126.8100 148.0600
L126.8100 147.2600
" />
</g>
<g style="fill:none; 
stroke:#000000; stroke-width:0.1200; stroke-opacity:1; 
stroke-linecap:round; stroke-linejoin:round;">
<path d="M165.8250 131.0500
L167.1750 128.9500
" />
<path d="M165.8250 128.9500
L167.1750 131.0500
" />
</g>
<g style="fill:none; 
stroke:#000000; stroke-width:0.1000; stroke-opacity:1; 
stroke-linecap:round; stroke-linejoin:round;">
<path d="M165.8750 129.0000
L167.1250 129.0000
" />
<path d="M165.8750 131.0000
L165.8750 129.0000
" />
<path d="M167.1250 129.0000
L167.1250 131.0000
" />
<path d="M167.1250 131.0000
L165.8750 131.0000
" />
</g>
<g style="fill:none; 
stroke:#000000; stroke-width:0.1200; stroke-opacity:1; 
stroke-linecap:round; stroke-linejoin:round;">
<path d="M188.9000 127.2000
L188.9000 127.8000
" />
<path d="M188.9000 127.8000
L192.1000 127.8000
" />
<path d="M192.1000 127.2000
L188.9000 127.2000
" />
<path d="M192.1000 127.8000
L192.1000 127.2000
" />
<circle cx="190.5000" cy="127.5000" r="1.5000" /> 
</g>
<g style="fill:none; 
stroke:#000000; stroke-width:0.1000; stroke-opacity:1; 
stroke-linecap:round; stroke-linejoin:round;">
<path d="M199.1250 81.7500
L200.3750 81.7500
" />
<path d="M199.1250 83.7500
L199.1250 81.7500
" />
<path d="M200.3750 81.7500
L200.3750 83.7500
" />
<path d="M200.3750 83.7500
L199.1250 83.7500
" />
</g>
<g style="fill:none; 
stroke:#000000; stroke-width:0.1200; stroke-opacity:1; 
stroke-linecap:round; stroke-linejoin:round;">
<path d="M167.6500 94.9394
L167.6500 95.5394
" />
<path d="M167.6500 95.5394
L170.8500 95.5394
" />
<path d="M170.8500 94.9394
L167.6500 94.9394
" />
<path d="M170.8500 95.5394
L170.8500 94.9394
" />
<circle cx="169.2500" cy="95.2394" r="1.5000" /> 
<path d="M119.4000 93.2000
L119.4000 93.8000
" />
<path d="M119.4000 93.8000
L122.6000 93.8000
" />
<path d="M122.6000 93.2000
L119.4000 93.2000
" />
<path d="M122.6000 93.8000
L122.6000 93.2000
" />
<circle cx="121.0000" cy="93.5000" r="1.5000" /> 
<path d="M162.4000 94.9500
L162.4000 95.5500
" />
<path d="M162.4000 95.5500
L165.6000 95.5500
" />
<path d="M165.6000 94.9500
L162.4000 94.9500
" />
<path d="M165.6000 95.5500
L165.6000 94.9500
" />
<circle cx="164.0000" cy="95.2500" r="1.5000" /> 
<path d="M169.9000 140.9500
L169.9000 141.5500
" />
<path d="M169.9000 141.5500
L173.1000 141.5500
" />
<path d="M173.1000 140.9500
L169.9000 140.9500
" />
<path d="M173.1000 141.5500
L173.1000 140.9500
" />
<circle cx="171.5000" cy="141.2500" r="1.5000" /> 
</g>
<g style="fill:none; 
stroke:#000000; stroke-width:0.1000; stroke-opacity:1; 
stroke-linecap:round; stroke-linejoin:round;">
<path d="M181.2000 128.8500
L182.8000 128.8500
" />
<path d="M181.2000 129.6500
L181.2000 128.8500
" />
<path d="M182.8000 128.8500
L182.8000 129.6500
" />
<path d="M182.8000 129.6500
L181.2000 129.6500
" />
<path d="M158.9750 131.7300
L160.0250 131.7300
" />
<path d="M158.9750 132.2700
L158.9750 131.7300
" />
<path d="M160.0250 131.7300
L160.0250 132.2700
" />
<path d="M160.0250 132.2700
L158.9750 132.2700
" />
</g>
<g style="fill:none; 
stroke:#000000; stroke-width:0.1200; stroke-opacity:1; 
stroke-linecap:round; stroke-linejoin:round;">
<path d="M193.6500 127.4500
L193.6500 128.0500
" />
<path d="M193.6500 128.0500
L196.8500 128.0500
" />
<path d="M196.8500 127.4500
L193.6500 127.4500
" />
<path d="M196.8500 128.0500
L196.8500 127.4500
" />
<circle cx="195.2500" cy="127.7500" r="1.5000" /> 
</g>
<g style="fill:none; 
stroke:#000000; stroke-width:0.1000; stroke-opacity:1; 
stroke-linecap:round; stroke-linejoin:round;">
<path d="M184.9500 79.1300
L184.9500 94.9100
" />
<path d="M184.9500 94.9100
L191.7500 94.9100
" />
<path d="M188.7500 79.1300
L189.7500 80.1300
" />
<path d="M190.7500 79.1300
L189.7500 80.1300
" />
<path d="M191.7500 79.1300
L184.9500 79.1300
" />
<path d="M191.7500 80.3300
L193.4500 80.3300
" />
<path d="M191.7500 94.9100
L191.7500 79.1300
" />
<path d="M193.4500 80.3300
L193.4500 93.7100
" />
<path d="M193.4500 93.7100
L191.7500 93.7100
" />
</g>
<g style="fill:none; 
stroke:#000000; stroke-width:0.1200; stroke-opacity:1; 
stroke-linecap:round; stroke-linejoin:round;">
<path d="M171.4000 116.2000
L171.4000 116.8000
" />
<path d="M171.4000 116.8000
L174.6000 116.8000
" />
<path d="M174.6000 116.2000
L171.4000 116.2000
" />
<path d="M174.6000 116.8000
L174.6000 116.2000
" />
<circle cx="173.0000" cy="116.5000" r="1.5000" /> 
<path d="M162.4000 111.9500
L162.4000 112.5500
" />
<path d="M162.4000 112.5500
L165.6000 112.5500
" />
<path d="M165.6000 111.9500
L162.4000 111.9500
" />
<path d="M165.6000 112.5500
L165.6000 111.9500
" />
<circle cx="164.0000" cy="112.2500" r="1.5000" /> 
<path d="M162.4000 107.4500
L162.4000 108.0500
" />
<path d="M162.4000 108.0500
L165.6000 108.0500
" />
<path d="M165.6000 107.4500
L162.4000 107.4500
" />
<path d="M165.6000 108.0500
L165.6000 107.4500
" />
<circle cx="164.0000" cy="107.7500" r="1.5000" /> 
<path d="M107.4000 107.7000
L107.4000 108.3000
" />
<path d="M107.4000 108.3000
L110.6000 108.3000
" />
<path d="M110.6000 107.7000
L107.4000 107.7000
" />
<path d="M110.6000 108.3000
L110.6000 107.7000
" />
<circle cx="109.0000" cy="108.0000" r="1.5000" /> 
<path d="M109.9000 104.2000
L109.9000 104.8000
" />
<path d="M109.9000 104.8000
L113.1000 104.8000
" />
<path d="M113.1000 104.2000
L109.9000 104.2000
" />
<path d="M113.1000 104.8000
L113.1000 104.2000
" />
<circle cx="111.5000" cy="104.5000" r="1.5000" /> 
</g>
<g style="fill:none; 
stroke:#000000; stroke-width:0.1000; stroke-opacity:1; 
stroke-linecap:round; stroke-linejoin:round;">
<path d="M107.9625 138.6250
L109.9625 138.6250
" />
<path d="M107.9625 139.8750
L107.9625 138.6250
" />
<path d="M109.9625 138.6250
L109.9625 139.8750
" />
<path d="M109.9625 139.8750
L107.9625 139.8750
" />
<path d="M168.4200 85.2500
L169.4200 85.2500
" />
<path d="M168.4200 85.7500
L168.4200 85.2500
" />
<path d="M169.4200 85.2500
L169.4200 85.7500
" />
<path d="M169.4200 85.7500
L168.4200 85.7500
" />
</g>
<g style="fill:none; 
stroke:#000000; stroke-width:0.1200; stroke-opacity:1; 
stroke-linecap:round; stroke-linejoin:round;">
<path d="M175.9000 131.7000
L175.9000 132.3000
" />
<path d="M175.9000 132.3000
L179.1000 132.3000
" />
<path d="M179.1000 131.7000
L175.9000 131.7000
" />
<path d="M179.1000 132.3000
L179.1000 131.7000
" />
<circle cx="177.5000" cy="132.0000" r="1.5000" /> 
<path d="M123.4000 140.9500
L123.4000 141.5500
" />
<path d="M123.4000 141.5500
L126.6000 141.5500
" />
<path d="M126.6000 140.9500
L123.4000 140.9500
" />
<path d="M126.6000 141.5500
L126.6000 140.9500
" />
<circle cx="125.0000" cy="141.2500" r="1.5000" /> 
</g>
<g style="fill:none; 
stroke:#000000; stroke-width:0.1000; stroke-opacity:1; 
stroke-linecap:round; stroke-linejoin:round;">
<path d="M120.5000 129.3750
L122.5000 129.3750
" />
<path d="M120.5000 130.6250
L120.5000 129.3750
" />
<path d="M122.5000 129.3750
L122.5000 130.6250
" />
<path d="M122.5000 130.6250
L120.5000 130.6250
" />
<path d="M116.2500 83.2700
L116.7500 83.2700
" />
<path d="M116.2500 84.2700
L116.2500 83.2700
" />
<path d="M116.7500 83.2700
L116.7500 84.2700
" />
<path d="M116.7500 84.2700
L116.2500 84.2700
" />
</g>
<g style="fill:none; 
stroke:#000000; stroke-width:0.1200; stroke-opacity:1; 
stroke-linecap:round; stroke-linejoin:round;">
<path d="M179.9000 114.4500
L179.9000 115.0500
" />
<path d="M179.9000 115.0500
L183.1000 115.0500
" />
<path d="M183.1000 114.4500
L179.9000 114.4500
" />
<path d="M183.1000 115.0500
L183.1000 114.4500
" />
<circle cx="181.5000" cy="114.7500" r="1.5000" /> 
<path d="M139.4000 79.7000
L139.4000 80.3000
" />
<path d="M139.4000 80.3000
L142.6000 80.3000
" />
<path d="M142.6000 79.7000
L139.4000 79.7000
" />
<path d="M142.6000 80.3000
L142.6000 79.7000
" />
<circle cx="141.0000" cy="80.0000" r="1.5000" /> 
<path d="M107.9500 77.4250
L110.0500 76.0750
" />
<path d="M107.9500 76.0750
L110.0500 77.4250
" />
</g>
<g style="fill:none; 
stroke:#000000; stroke-width:0.1000; stroke-opacity:1; 
stroke-linecap:round; stroke-linejoin:round;">
<path d="M108.0000 76.1250
L110.0000 76.1250
" />
<path d="M108.0000 77.3750
L108.0000 76.1250
" />
<path d="M110.0000 76.1250
L110.0000 77.3750
" />
<path d="M110.0000 77.3750
L108.0000 77.3750
" />
<path d="M170.8000 107.5000
L170.8000 112.5000
" />
<path d="M175.2000 107.5000
L175.2000 112.5000
" />
<circle cx="171.6000" cy="108.0000" r="0.2000" /> 
</g>
<g style="fill:none; 
stroke:#000000; stroke-width:0.0600; stroke-opacity:1; 
stroke-linecap:round; stroke-linejoin:round;">
<circle cx="114.7500" cy="100.5500" r="0.0300" /> 
</g>
<g style="fill:none; 
stroke:#000000; stroke-width:0.1000; stroke-opacity:1; 
stroke-linecap:round; stroke-linejoin:round;">
<path d="M152.3500 107.9500
L152.3500 109.5500
" />
<path d="M152.3500 109.5500
L153.1500 109.5500
" />
<path d="M152.8500 107.9500
L152.3500 107.9500
" />
<path d="M153.1500 108.2500
L152.8500 107.9500
" />
<path d="M153.1500 109.5500
L153.1500 108.2500
" />
<path d="M168.2500 126.0000
L168.2500 130.0000
" />
<path d="M168.2500 130.0000
L172.2500 130.0000
" />
<path d="M172.2500 126.0000
L168.2500 126.0000
" />
<path d="M172.2500 130.0000
L172.2500 126.0000
" />
<path d="M155.4800 85.7150
L156.0200 85.7150
" />
<path d="M155.4800 86.7650
L155.4800 85.7150
" />
<path d="M156.0200 85.7150
L156.0200 86.7650
" />
<path d="M156.0200 86.7650
L155.4800 86.7650
" />
<path d="M117.3750 130.0000
L118.6250 130.0000
" />
<path d="M117.3750 132.0000
L117.3750 130.0000
" />
<path d="M118.6250 130.0000
L118.6250 132.0000
" />
<path d="M118.6250 132.0000
L117.3750 132.0000
" />
<path d="M158.0000 144.3000
L158.0000 147.8000
" />
<path d="M158.0000 147.8000
L165.5000 147.8000
" />
<path d="M165.0100 148.1100
L165.8100 148.1100
" />
<path d="M165.5000 144.3000
L158.0000 144.3000
" />
<path d="M165.5000 147.8000
L165.5000 144.3000
" />
<path d="M165.8100 148.1100
L165.8100 147.3100
" />
</g>
<g style="fill:none; 
stroke:#000000; stroke-width:0.1200; stroke-opacity:1; 
stroke-linecap:round; stroke-linejoin:round;">
<path d="M109.2000 130.6750
L111.3000 129.3250
" />
<path d="M109.2000 129.3250
L111.3000 130.6750
" />
</g>
<g style="fill:none; 
stroke:#000000; stroke-width:0.1000; stroke-opacity:1; 
stroke-linecap:round; stroke-linejoin:round;">
<path d="M109.2500 129.3750
L111.2500 129.3750
" />
<path d="M109.2500 130.6250
L109.2500 129.3750
" />
<path d="M111.2500 129.3750
L111.2500 130.6250
" />
<path d="M111.2500 130.6250
L109.2500 130.6250
" />
</g>
<g style="fill:none; 
stroke:#000000; stroke-width:0.1200; stroke-opacity:1; 
stroke-linecap:round; stroke-linejoin:round;">
<path d="M143.9000 79.7000
L143.9000 80.3000
" />
<path d="M143.9000 80.3000
L147.1000 80.3000
" />
<path d="M147.1000 79.7000
L143.9000 79.7000
" />
<path d="M147.1000 80.3000
L147.1000 79.7000
" />
<circle cx="145.5000" cy="80.0000" r="1.5000" /> 
</g>
<g style="fill:none; 
stroke:#000000; stroke-width:0.1000; stroke-opacity:1; 
stroke-linecap:round; stroke-linejoin:round;">
<path d="M131.0000 144.3000
L131.0000 147.8000
" />
<path d="M131.0000 147.8000
L138.5000 147.8000
" />
<path d="M138.0100 148.1100
L138.8100 148.1100
" />
<path d="M138.5000 144.3000
L131.0000 144.3000
" />
<path d="M138.5000 147.8000
L138.5000 144.3000
" />
<path d="M138.8100 148.1100
L138.8100 147.3100
" />
<path d="M174.8200 106.0000
L175.8200 106.0000
" />
<path d="M174.8200 106.5000
L174.8200 106.0000
" />
<path d="M175.8200 106.0000
L175.8200 106.5000
" />
<path d="M175.8200 106.5000
L174.8200 106.5000
" />
</g>
<g style="fill:none; 
stroke:#000000; stroke-width:0.1200; stroke-opacity:1; 
stroke-linecap:round; stroke-linejoin:round;">
<path d="M162.4000 82.4500
L162.4000 83.0500
" />
<path d="M162.4000 83.0500
L165.6000 83.0500
" />
<path d="M165.6000 82.4500
L162.4000 82.4500
" />
<path d="M165.6000 83.0500
L165.6000 82.4500
" />
<circle cx="164.0000" cy="82.7500" r="1.5000" /> 
</g>
<g style="fill:none; 
stroke:#000000; stroke-width:0.1000; stroke-opacity:1; 
stroke-linecap:round; stroke-linejoin:round;">
<path d="M181.2000 127.1000
L182.8000 127.1000
" />
<path d="M181.2000 127.9000
L181.2000 127.1000
" />
<path d="M182.8000 127.1000
L182.8000 127.9000
" />
<path d="M182.8000 127.9000
L181.2000 127.9000
" />
<path d="M114.4650 131.4800
L115.5150 131.4800
" />
<path d="M114.4650 132.0200
L114.4650 131.4800
" />
<path d="M115.5150 131.4800
L115.5150 132.0200
" />
<path d="M115.5150 132.0200
L114.4650 132.0200
" />
</g>
<g style="fill:none; 
stroke:#000000; stroke-width:0.1200; stroke-opacity:1; 
stroke-linecap:round; stroke-linejoin:round;">
<path d="M167.3125 83.1750
L169.4125 81.8250
" />
<path d="M167.3125 81.8250
L169.4125 83.1750
" />
</g>
<g style="fill:none; 
stroke:#000000; stroke-width:0.1000; stroke-opacity:1; 
stroke-linecap:round; stroke-linejoin:round;">
<path d="M167.3625 81.8750
L169.3625 81.8750
" />
<path d="M167.3625 83.1250
L167.3625 81.8750
" />
<path d="M169.3625 81.8750
L169.3625 83.1250
" />
<path d="M169.3625 83.1250
L167.3625 83.1250
" />
<path d="M171.2350 89.2300
L172.2850 89.2300
" />
<path d="M171.2350 89.7700
L171.2350 89.2300
" />
<path d="M172.2850 89.2300
L172.2850 89.7700
" />
<path d="M172.2850 89.7700
L171.2350 89.7700
" />
</g>
<g style="fill:none; 
stroke:#000000; stroke-width:0.1200; stroke-opacity:1; 
stroke-linecap:round; stroke-linejoin:round;">
<path d="M119.4000 88.6000
L119.4000 89.2000
" />
<path d="M119.4000 89.2000
L122.6000 89.2000
" />
<path d="M122.6000 88.6000
L119.4000 88.6000
" />
<path d="M122.6000 89.2000
L122.6000 88.6000
" />
<circle cx="121.0000" cy="88.9000" r="1.5000" /> 
</g>
<g style="fill:none; 
stroke:#000000; stroke-width:0.1000; stroke-opacity:1; 
stroke-linecap:round; stroke-linejoin:round;">
<path d="M115.4800 111.2500
L116.4800 111.2500
" />
<path d="M115.4800 111.7500
L115.4800 111.2500
" />
<path d="M116.4800 111.2500
L116.4800 111.7500
" />
<path d="M116.4800 111.7500
L115.4800 111.7500
" />
<path d="M152.4800 111.1975
L153.0200 111.1975
" />
<path d="M152.4800 112.2475
L152.4800 111.1975
" />
<path d="M153.0200 111.1975
L153.0200 112.2475
" />
<path d="M153.0200 112.2475
L152.4800 112.2475
" />
<path d="M165.8750 125.0000
L167.1250 125.0000
" />
<path d="M165.8750 127.0000
L165.8750 125.0000
" />
<path d="M167.1250 125.0000
L167.1250 127.0000
" />
<path d="M167.1250 127.0000
L165.8750 127.0000
" />
<path d="M146.0000 129.3750
L148.0000 129.3750
" />
<path d="M146.0000 130.6250
L146.0000 129.3750
" />
<path d="M148.0000 129.3750
L148.0000 130.6250
" />
<path d="M148.0000 130.6250
L146.0000 130.6250
" />
<path d="M149.3750 83.2500
L150.6250 83.2500
" />
<path d="M149.3750 85.2500
L149.3750 83.2500
" />
<path d="M150.6250 83.2500
L150.6250 85.2500
" />
<path d="M150.6250 85.2500
L149.3750 85.2500
" />
<path d="M196.2500 123.5000
L196.7500 123.5000
" />
<path d="M196.2500 124.5000
L196.2500 123.5000
" />
<path d="M196.7500 123.5000
L196.7500 124.5000
" />
<path d="M196.7500 124.5000
L196.2500 124.5000
" />
</g>
<g style="fill:none; 
stroke:#000000; stroke-width:0.1200; stroke-opacity:1; 
stroke-linecap:round; stroke-linejoin:round;">
<path d="M179.9000 88.4500
L179.9000 89.0500
" />
<path d="M179.9000 89.0500
L183.1000 89.0500
" />
<path d="M183.1000 88.4500
L179.9000 88.4500
" />
<path d="M183.1000 89.0500
L183.1000 88.4500
" />
<circle cx="181.5000" cy="88.7500" r="1.5000" /> 
<path d="M176.5500 82.4500
L176.5500 83.0500
" />
<path d="M176.5500 83.0500
L179.7500 83.0500
" />
<path d="M179.7500 82.4500
L176.5500 82.4500
" />
<path d="M179.7500 83.0500
L179.7500 82.4500
" />
<circle cx="178.1500" cy="82.7500" r="1.5000" /> 
</g>
<g style="fill:none; 
stroke:#000000; stroke-width:0.1000; stroke-opacity:1; 
stroke-linecap:round; stroke-linejoin:round;">
<path d="M182.0000 144.3000
L182.0000 147.8000
" />
<path d="M182.0000 147.8000
L189.5000 147.8000
" />
<path d="M189.0100 148.1100
L189.8100 148.1100
" />
<path d="M189.5000 144.3000
L182.0000 144.3000
" />
<path d="M189.5000 147.8000
L189.5000 144.3000
" />
<path d="M189.8100 148.1100
L189.8100 147.3100
" />
<path d="M185.3500 124.4750
L186.1500 124.4750
" />
<path d="M185.3500 126.0750
L185.3500 124.4750
" />
<path d="M186.1500 124.4750
L186.1500 126.0750
" />
<path d="M186.1500 126.0750
L185.3500 126.0750
" />
<path d="M156.0000 100.9800
L156.5000 100.9800
" />
<path d="M156.0000 101.9800
L156.0000 100.9800
" />
<path d="M156.5000 100.9800
L156.5000 101.9800
" />
<path d="M156.5000 101.9800
L156.0000 101.9800
" />
<path d="M185.0000 100.6300
L185.0000 116.4100
" />
<path d="M185.0000 116.4100
L191.8000 116.4100
" />
<path d="M188.8000 100.6300
L189.8000 101.6300
" />
<path d="M190.8000 100.6300
L189.8000 101.6300
" />
<path d="M191.8000 100.6300
L185.0000 100.6300
" />
<path d="M191.8000 101.8300
L193.5000 101.8300
" />
<path d="M191.8000 116.4100
L191.8000 100.6300
" />
<path d="M193.5000 101.8300
L193.5000 115.2100
" />
<path d="M193.5000 115.2100
L191.8000 115.2100
" />
<path d="M125.1917 69.7500
L125.1917 76.5500
" />
<path d="M125.1917 70.7500
L126.1917 71.7500
" />
<path d="M125.1917 72.7500
L126.1917 71.7500
" />
<path d="M125.1917 76.5500
L156.8117 76.5500
" />
<path d="M126.3917 68.0500
L155.6117 68.0500
" />
<path d="M126.3917 69.7500
L126.3917 68.0500
" />
<path d="M155.6117 68.0500
L155.6117 69.7500
" />
<path d="M156.8117 69.7500
L125.1917 69.7500
" />
<path d="M156.8117 76.5500
L156.8117 69.7500
" />
<path d="M185.4750 120.7300
L186.5250 120.7300
" />
<path d="M185.4750 121.2700
L185.4750 120.7300
" />
<path d="M186.5250 120.7300
L186.5250 121.2700
" />
<path d="M186.5250 121.2700
L185.4750 121.2700
" />
<path d="M140.3750 83.2500
L141.6250 83.2500
" />
<path d="M140.3750 85.2500
L140.3750 83.2500
" />
<path d="M141.6250 83.2500
L141.6250 85.2500
" />
<path d="M141.6250 85.2500
L140.3750 85.2500
" />
<circle cx="114.9500" cy="85.7700" r="0.1000" /> 
</g>
<g style="fill:none; 
stroke:#000000; stroke-width:0.0600; stroke-opacity:1; 
stroke-linecap:round; stroke-linejoin:round;">
<circle cx="114.7500" cy="120.5500" r="0.0300" /> 
</g>
<g style="fill:none; 
stroke:#000000; stroke-width:0.1000; stroke-opacity:1; 
stroke-linecap:round; stroke-linejoin:round;">
<path d="M113.4750 91.2300
L114.5250 91.2300
" />
<path d="M113.4750 91.7700
L113.4750 91.2300
" />
<path d="M114.5250 91.2300
L114.5250 91.7700
" />
<path d="M114.5250 91.7700
L113.4750 91.7700
" />
<path d="M174.7650 113.2300
L175.8150 113.2300
" />
<path d="M174.7650 113.7700
L174.7650 113.2300
" />
<path d="M175.8150 113.2300
L175.8150 113.7700
" />
<path d="M175.8150 113.7700
L174.7650 113.7700
" />
</g>
<g style="fill:none; 
stroke:#000000; stroke-width:0.1200; stroke-opacity:1; 
stroke-linecap:round; stroke-linejoin:round;">
<path d="M119.4000 79.9500
L119.4000 80.5500
" />
<path d="M119.4000 80.5500
L122.6000 80.5500
" />
<path d="M122.6000 79.9500
L119.4000 79.9500
" />
<path d="M122.6000 80.5500
L122.6000 79.9500
" />
<circle cx="121.0000" cy="80.2500" r="1.5000" /> 
</g>
<g style="fill:none; 
stroke:#000000; stroke-width:0.1000; stroke-opacity:1; 
stroke-linecap:round; stroke-linejoin:round;">
<path d="M190.1000 130.7000
L190.1000 132.0000
" />
<path d="M190.1000 132.0000
L190.4000 132.3000
" />
<path d="M190.4000 132.3000
L190.9000 132.3000
" />
<path d="M190.9000 130.7000
L190.1000 130.7000
" />
<path d="M190.9000 132.3000
L190.9000 130.7000
" />
<path d="M152.1250 98.0000
L153.3750 98.0000
" />
<path d="M152.1250 100.0000
L152.1250 98.0000
" />
<path d="M153.3750 98.0000
L153.3750 100.0000
" />
<path d="M153.3750 100.0000
L152.1250 100.0000
" />
</g>
<g style="fill:none; 
stroke:#000000; stroke-width:0.1200; stroke-opacity:1; 
stroke-linecap:round; stroke-linejoin:round;">
<path d="M119.4000 84.2986
L119.4000 84.8986
" />
<path d="M119.4000 84.8986
L122.6000 84.8986
" />
<path d="M122.6000 84.2986
L119.4000 84.2986
" />
<path d="M122.6000 84.8986
L122.6000 84.2986
" />
<circle cx="121.0000" cy="84.5986" r="1.5000" /> 
<path d="M162.4000 116.4500
L162.4000 117.0500
" />
<path d="M162.4000 117.0500
L165.6000 117.0500
" />
<path d="M165.6000 116.4500
L162.4000 116.4500
" />
<path d="M165.6000 117.0500
L165.6000 116.4500
" />
<circle cx="164.0000" cy="116.7500" r="1.5000" /> 
<path d="M113.4500 130.6750
L115.5500 129.3250
" />
<path d="M113.4500 129.3250
L115.5500 130.6750
" />
</g>
<g style="fill:none; 
stroke:#000000; stroke-width:0.1000; stroke-opacity:1; 
stroke-linecap:round; stroke-linejoin:round;">
<path d="M113.5000 129.3750
L115.5000 129.3750
" />
<path d="M113.5000 130.6250
L113.5000 129.3750
" />
<path d="M115.5000 129.3750
L115.5000 130.6250
" />
<path d="M115.5000 130.6250
L113.5000 130.6250
" />
</g>
<g style="fill:none; 
stroke:#000000; stroke-width:0.1200; stroke-opacity:1; 
stroke-linecap:round; stroke-linejoin:round;">
<path d="M161.6500 127.7000
L161.6500 128.3000
" />
<path d="M161.6500 128.3000
L164.8500 128.3000
" />
<path d="M164.8500 127.7000
L161.6500 127.7000
" />
<path d="M164.8500 128.3000
L164.8500 127.7000
" />
<circle cx="163.2500" cy="128.0000" r="1.5000" /> 
</g>
<g style="fill:none; 
stroke:#000000; stroke-width:0.1000; stroke-opacity:1; 
stroke-linecap:round; stroke-linejoin:round;">
<path d="M154.7300 99.9750
L155.2700 99.9750
" />
<path d="M154.7300 101.0250
L154.7300 99.9750
" />
<path d="M155.2700 99.9750
L155.2700 101.0250
" />
<path d="M155.2700 101.0250
L154.7300 101.0250
" />
<path d="M115.4800 104.2500
L116.4800 104.2500
" />
<path d="M115.4800 104.7500
L115.4800 104.2500
" />
<path d="M116.4800 104.2500
L116.4800 104.7500
" />
<path d="M116.4800 104.7500
L115.4800 104.7500
" />
<path d="M168.4200 84.0000
L169.4200 84.0000
" />
<path d="M168.4200 84.5000
L168.4200 84.0000
" />
<path d="M169.4200 84.0000
L169.4200 84.5000
" />
<path d="M169.4200 84.5000
L168.4200 84.5000
" />
</g>
<g style="fill:none; 
stroke:#000000; stroke-width:0.1200; stroke-opacity:1; 
stroke-linecap:round; stroke-linejoin:round;">
<path d="M179.9000 110.2000
L179.9000 110.8000
" />
<path d="M179.9000 110.8000
L183.1000 110.8000
" />
<path d="M183.1000 110.2000
L179.9000 110.2000
" />
<path d="M183.1000 110.8000
L183.1000 110.2000
" />
<circle cx="181.5000" cy="110.5000" r="1.5000" /> 
</g>
<g style="fill:none; 
stroke:#000000; stroke-width:0.1000; stroke-opacity:1; 
stroke-linecap:round; stroke-linejoin:round;">
<path d="M150.1000 94.7000
L150.9000 94.7000
" />
<path d="M150.1000 96.3000
L150.1000 94.7000
" />
<path d="M150.9000 94.7000
L150.9000 96.3000
" />
<path d="M150.9000 96.3000
L150.1000 96.3000
" />
<path d="M107.9625 79.1250
L109.9625 79.1250
" />
<path d="M107.9625 80.3750
L107.9625 79.1250
" />
<path d="M109.9625 79.1250
L109.9625 80.3750
" />
<path d="M109.9625 80.3750
L107.9625 80.3750
" />
</g>
<g style="fill:none; 
stroke:#000000; stroke-width:0.1200; stroke-opacity:1; 
stroke-linecap:round; stroke-linejoin:round;">
<path d="M173.9000 102.9500
L173.9000 103.5500
" />
<path d="M173.9000 103.5500
L177.1000 103.5500
" />
<path d="M177.1000 102.9500
L173.9000 102.9500
" />
<path d="M177.1000 103.5500
L177.1000 102.9500
" />
<circle cx="175.5000" cy="103.2500" r="1.5000" /> 
</g>
<g style="fill:none; 
stroke:#000000; stroke-width:0.1000; stroke-opacity:1; 
stroke-linecap:round; stroke-linejoin:round;">
<path d="M155.9800 81.7150
L156.5200 81.7150
" />
<path d="M155.9800 82.7650
L155.9800 81.7150
" />
<path d="M156.5200 81.7150
L156.5200 82.7650
" />
<path d="M156.5200 82.7650
L155.9800 82.7650
" />
<path d="M131.3750 83.2500
L132.6250 83.2500
" />
<path d="M131.3750 85.2500
L131.3750 83.2500
" />
<path d="M132.6250 83.2500
L132.6250 85.2500
" />
<path d="M132.6250 85.2500
L131.3750 85.2500
" />
</g>
<g style="fill:none; 
stroke:#000000; stroke-width:0.1200; stroke-opacity:1; 
stroke-linecap:round; stroke-linejoin:round;">
<path d="M129.9000 121.9500
L129.9000 122.5500
" />
<path d="M129.9000 122.5500
L133.1000 122.5500
" />
<path d="M133.1000 121.9500
L129.9000 121.9500
" />
<path d="M133.1000 122.5500
L133.1000 121.9500
" />
<circle cx="131.5000" cy="122.2500" r="1.5000" /> 
</g>
<g style="fill:none; 
stroke:#000000; stroke-width:0.1000; stroke-opacity:1; 
stroke-linecap:round; stroke-linejoin:round;">
<path d="M140.3750 130.0000
L141.6250 130.0000
" />
<path d="M140.3750 132.0000
L140.3750 130.0000
" />
<path d="M141.6250 130.0000
L141.6250 132.0000
" />
<path d="M141.6250 132.0000
L140.3750 132.0000
" />
</g>
<g style="fill:none; 
stroke:#000000; stroke-width:0.1200; stroke-opacity:1; 
stroke-linecap:round; stroke-linejoin:round;">
<path d="M128.6500 140.9500
L128.6500 141.5500
" />
<path d="M128.6500 141.5500
L131.8500 141.5500
" />
<path d="M131.8500 140.9500
L128.6500 140.9500
" />
<path d="M131.8500 141.5500
L131.8500 140.9500
" />
<circle cx="130.2500" cy="141.2500" r="1.5000" /> 
</g>
<g style="fill:none; 
stroke:#000000; stroke-width:0.1000; stroke-opacity:1; 
stroke-linecap:round; stroke-linejoin:round;">
<circle cx="182.5500" cy="122.5000" r="0.2000" /> 
<path d="M168.0900 69.7500
L168.0900 76.5500
" />
<path d="M168.0900 70.7500
L169.0900 71.7500
" />
<path d="M168.0900 72.7500
L169.0900 71.7500
" />
<path d="M168.0900 76.5500
L183.8700 76.5500
" />
<path d="M169.2900 68.0500
L182.6700 68.0500
" />
<path d="M169.2900 69.7500
L169.2900 68.0500
" />
<path d="M182.6700 68.0500
L182.6700 69.7500
" />
<path d="M183.8700 69.7500
L168.0900 69.7500
" />
<path d="M183.8700 76.5500
L183.8700 69.7500
" />
</g>
<g style="fill:none; 
stroke:#000000; stroke-width:0.1200; stroke-opacity:1; 
stroke-linecap:round; stroke-linejoin:round;">
<path d="M197.9500 136.9250
L200.0500 135.5750
" />
<path d="M197.9500 135.5750
L200.0500 136.9250
" />
</g>
<g style="fill:none; 
stroke:#000000; stroke-width:0.1000; stroke-opacity:1; 
stroke-linecap:round; stroke-linejoin:round;">
<path d="M198.0000 135.6250
L200.0000 135.6250
" />
<path d="M198.0000 136.8750
L198.0000 135.6250
" />
<path d="M200.0000 135.6250
L200.0000 136.8750
" />
<path d="M200.0000 136.8750
L198.0000 136.8750
" />
</g>
<g style="fill:none; 
stroke:#000000; stroke-width:0.1200; stroke-opacity:1; 
stroke-linecap:round; stroke-linejoin:round;">
<path d="M180.9500 131.9250
L183.0500 130.5750
" />
<path d="M180.9500 130.5750
L183.0500 131.9250
" />
</g>
<g style="fill:none; 
stroke:#000000; stroke-width:0.1000; stroke-opacity:1; 
stroke-linecap:round; stroke-linejoin:round;">
<path d="M181.0000 130.6250
L183.0000 130.6250
" />
<path d="M181.0000 131.8750
L181.0000 130.6250
" />
<path d="M183.0000 130.6250
L183.0000 131.8750
" />
<path d="M183.0000 131.8750
L181.0000 131.8750
" />
</g>
<g style="fill:none; 
stroke:#000000; stroke-width:0.1200; stroke-opacity:1; 
stroke-linecap:round; stroke-linejoin:round;">
<path d="M109.9000 111.2000
L109.9000 111.8000
" />
<path d="M109.9000 111.8000
L113.1000 111.8000
" />
<path d="M113.1000 111.2000
L109.9000 111.2000
" />
<path d="M113.1000 111.8000
L113.1000 111.2000
" />
<circle cx="111.5000" cy="111.5000" r="1.5000" /> 
</g>
<g style="fill:none; 
stroke:#000000; stroke-width:0.1000; stroke-opacity:1; 
stroke-linecap:round; stroke-linejoin:round;">
<path d="M108.0000 135.6250
L110.0000 135.6250
" />
<path d="M108.0000 136.8750
L108.0000 135.6250
" />
<path d="M110.0000 135.6250
L110.0000 136.8750
" />
<path d="M110.0000 136.8750
L108.0000 136.8750
" />
<path d="M152.1250 103.7500
L153.3750 103.7500
" />
<path d="M152.1250 105.7500
L152.1250 103.7500
" />
<path d="M153.3750 103.7500
L153.3750 105.7500
" />
<path d="M153.3750 105.7500
L152.1250 105.7500
" />
<path d="M154.7150 131.7300
L155.7650 131.7300
" />
<path d="M154.7150 132.2700
L154.7150 131.7300
" />
<path d="M155.7650 131.7300
L155.7650 132.2700
" />
<path d="M155.7650 132.2700
L154.7150 132.2700
" />
<path d="M125.5000 97.3750
L127.5000 97.3750
" />
<path d="M125.5000 98.6250
L125.5000 97.3750
" />
<path d="M127.5000 97.3750
L127.5000 98.6250
" />
<path d="M127.5000 98.6250
L125.5000 98.6250
" />
<path d="M171.2250 88.2300
L172.2750 88.2300
" />
<path d="M171.2250 88.7700
L171.2250 88.2300
" />
<path d="M172.2750 88.2300
L172.2750 88.7700
" />
<path d="M172.2750 88.7700
L171.2250 88.7700
" />
<path d="M170.0083 144.3000
L170.0083 147.8000
" />
<path d="M170.0083 147.8000
L177.5083 147.8000
" />
<path d="M177.0183 148.1100
L177.8183 148.1100
" />
<path d="M177.5083 144.3000
L170.0083 144.3000
" />
<path d="M177.5083 147.8000
L177.5083 144.3000
" />
<path d="M177.8183 148.1100
L177.8183 147.3100
" />
</g>
<g style="fill:none; 
stroke:#000000; stroke-width:0.1200; stroke-opacity:1; 
stroke-linecap:round; stroke-linejoin:round;">
<path d="M157.4000 90.9500
L157.4000 91.5500
" />
<path d="M157.4000 91.5500
L160.6000 91.5500
" />
<path d="M160.6000 90.9500
L157.4000 90.9500
" />
<path d="M160.6000 91.5500
L160.6000 90.9500
" />
<circle cx="159.0000" cy="91.2500" r="1.5000" /> 
</g>
<g style="fill:none; 
stroke:#000000; stroke-width:0.1000; stroke-opacity:1; 
stroke-linecap:round; stroke-linejoin:round;">
<path d="M142.8750 130.0375
L144.1250 130.0375
" />
<path d="M142.8750 132.0375
L142.8750 130.0375
" />
<path d="M144.1250 130.0375
L144.1250 132.0375
" />
<path d="M144.1250 132.0375
L142.8750 132.0375
" />
</g>
<g style="fill:none; 
stroke:#000000; stroke-width:0.1200; stroke-opacity:1; 
stroke-linecap:round; stroke-linejoin:round;">
<path d="M162.4000 102.9500
L162.4000 103.5500
" />
<path d="M162.4000 103.5500
L165.6000 103.5500
" />
<path d="M165.6000 102.9500
L162.4000 102.9500
" />
<path d="M165.6000 103.5500
L165.6000 102.9500
" />
<circle cx="164.0000" cy="103.2500" r="1.5000" /> 
<path d="M148.4000 79.7000
L148.4000 80.3000
" />
<path d="M148.4000 80.3000
L151.6000 80.3000
" />
<path d="M151.6000 79.7000
L148.4000 79.7000
" />
<path d="M151.6000 80.3000
L151.6000 79.7000
" />
<circle cx="150.0000" cy="80.0000" r="1.5000" /> 
<path d="M148.9000 140.9500
L148.9000 141.5500
" />
<path d="M148.9000 141.5500
L152.1000 141.5500
" />
<path d="M152.1000 140.9500
L148.9000 140.9500
" />
<path d="M152.1000 141.5500
L152.1000 140.9500
" />
<circle cx="150.5000" cy="141.2500" r="1.5000" /> 
<path d="M153.7000 130.6750
L155.8000 129.3250
" />
<path d="M153.7000 129.3250
L155.8000 130.6750
" />
</g>
<g style="fill:none; 
stroke:#000000; stroke-width:0.1000; stroke-opacity:1; 
stroke-linecap:round; stroke-linejoin:round;">
<path d="M153.7500 129.3750
L155.7500 129.3750
" />
<path d="M153.7500 130.6250
L153.7500 129.3750
" />
<path d="M155.7500 129.3750
L155.7500 130.6250
" />
<path d="M155.7500 130.6250
L153.7500 130.6250
" />
<path d="M144.8750 83.2500
L146.1250 83.2500
" />
<path d="M144.8750 85.2500
L144.8750 83.2500
" />
<path d="M146.1250 83.2500
L146.1250 85.2500
" />
<path d="M146.1250 85.2500
L144.8750 85.2500
" />
<path d="M126.7500 130.5200
L127.2500 130.5200
" />
<path d="M126.7500 131.5200
L126.7500 130.5200
" />
<path d="M127.2500 130.5200
L127.2500 131.5200
" />
<path d="M127.2500 131.5200
L126.7500 131.5200
" />
</g>
<g style="fill:none; 
stroke:#000000; stroke-width:0.1200; stroke-opacity:1; 
stroke-linecap:round; stroke-linejoin:round;">
<path d="M164.6500 140.9500
L164.6500 141.5500
" />
<path d="M164.6500 141.5500
L167.8500 141.5500
" />
<path d="M167.8500 140.9500
L164.6500 140.9500
" />
<path d="M167.8500 141.5500
L167.8500 140.9500
" />
<circle cx="166.2500" cy="141.2500" r="1.5000" /> 
</g>
<g style="fill:none; 
stroke:#000000; stroke-width:0.1000; stroke-opacity:1; 
stroke-linecap:round; stroke-linejoin:round;">
<path d="M113.4750 81.7300
L114.5250 81.7300
" />
<path d="M113.4750 82.2700
L113.4750 81.7300
" />
<path d="M114.5250 81.7300
L114.5250 82.2700
" />
<path d="M114.5250 82.2700
L113.4750 82.2700
" />
<path d="M124.4750 129.7300
L125.5250 129.7300
" />
<path d="M124.4750 130.2700
L124.4750 129.7300
" />
<path d="M125.5250 129.7300
L125.5250 130.2700
" />
<path d="M125.5250 130.2700
L124.4750 130.2700
" />
<path d="M109.2350 131.4800
L110.2850 131.4800
" />
<path d="M109.2350 132.0200
L109.2350 131.4800
" />
<path d="M110.2850 131.4800
L110.2850 132.0200
" />
<path d="M110.2850 132.0200
L109.2350 132.0200
" />
</g>
<g style="fill:none; 
stroke:#000000; stroke-width:0.1200; stroke-opacity:1; 
stroke-linecap:round; stroke-linejoin:round;">
<path d="M119.4000 97.7000
L119.4000 98.3000
" />
<path d="M119.4000 98.3000
L122.6000 98.3000
" />
<path d="M122.6000 97.7000
L119.4000 97.7000
" />
<path d="M122.6000 98.3000
L122.6000 97.7000
" />
<circle cx="121.0000" cy="98.0000" r="1.5000" /> 
<path d="M118.9000 140.9500
L118.9000 141.5500
" />
<path d="M118.9000 141.5500
L122.1000 141.5500
" />
<path d="M122.1000 140.9500
L118.9000 140.9500
" />
<path d="M122.1000 141.5500
L122.1000 140.9500
" />
<circle cx="120.5000" cy="141.2500" r="1.5000" /> 
</g>
<g style="fill:none; 
stroke:#000000; stroke-width:0.1000; stroke-opacity:1; 
stroke-linecap:round; stroke-linejoin:round;">
<path d="M189.4650 133.6463
L190.5150 133.6463
" />
<path d="M189.4650 134.1863
L189.4650 133.6463
" />
<path d="M190.5150 133.6463
L190.5150 134.1863
" />
<path d="M190.5150 134.1863
L189.4650 134.1863
" />
<path d="M183.4650 120.7300
L184.5150 120.7300
" />
<path d="M183.4650 121.2700
L183.4650 120.7300
" />
<path d="M184.5150 120.7300
L184.5150 121.2700
" />
<path d="M184.5150 121.2700
L183.4650 121.2700
" />
<circle cx="193.9000" cy="124.5000" r="0.1000" /> 
<path d="M143.0000 144.3000
L143.0000 147.8000
" />
<path d="M143.0000 147.8000
L153.5000 147.8000
" />
<path d="M153.0100 148.1100
L153.8100 148.1100
" />
<path d="M153.5000 144.3000
L143.0000 144.3000
" />
<path d="M153.5000 147.8000
L153.5000 144.3000
" />
<path d="M153.8100 148.1100
L153.8100 147.3100
" />
<path d="M198.0000 138.6250
L200.0000 138.6250
" />
<path d="M198.0000 139.8750
L198.0000 138.6250
" />
<path d="M200.0000 138.6250
L200.0000 139.8750
" />
<path d="M200.0000 139.8750
L198.0000 139.8750
" />
</g>
<g style="fill:none; 
stroke:#000000; stroke-width:0.1200; stroke-opacity:1; 
stroke-linecap:round; stroke-linejoin:round;">
<path d="M174.4000 140.9500
L174.4000 141.5500
" />
<path d="M174.4000 141.5500
L177.6000 141.5500
" />
<path d="M177.6000 140.9500
L174.4000 140.9500
" />
<path d="M177.6000 141.5500
L177.6000 140.9500
" />
<circle cx="176.0000" cy="141.2500" r="1.5000" /> 
</g>
<g style="fill:none; 
stroke:#000000; stroke-width:0.1000; stroke-opacity:1; 
stroke-linecap:round; stroke-linejoin:round;">
<path d="M158.0000 82.1250
L160.0000 82.1250
" />
<path d="M158.0000 83.3750
L158.0000 82.1250
" />
<path d="M160.0000 82.1250
L160.0000 83.3750
" />
<path d="M160.0000 83.3750
L158.0000 83.3750
" />
<path d="M168.3750 116.5000
L169.6250 116.5000
" />
<path d="M168.3750 118.5000
L168.3750 116.5000
" />
<path d="M169.6250 116.5000
L169.6250 118.5000
" />
<path d="M169.6250 118.5000
L168.3750 118.5000
" />
<path d="M158.0000 94.6250
L160.0000 94.6250
" />
<path d="M158.0000 95.8750
L158.0000 94.6250
" />
<path d="M160.0000 94.6250
L160.0000 95.8750
" />
<path d="M160.0000 95.8750
L158.0000 95.8750
" />
</g>
<g style="fill:none; 
stroke:#000000; stroke-width:0.1200; stroke-opacity:1; 
stroke-linecap:round; stroke-linejoin:round;">
<path d="M185.1500 129.7000
L185.1500 130.3000
" />
<path d="M185.1500 130.3000
L188.3500 130.3000
" />
<path d="M188.3500 129.7000
L185.1500 129.7000
" />
<path d="M188.3500 130.3000
L188.3500 129.7000
" />
<circle cx="186.7500" cy="130.0000" r="1.5000" /> 
<path d="M157.4000 86.4500
L157.4000 87.0500
" />
<path d="M157.4000 87.0500
L160.6000 87.0500
" />
<path d="M160.6000 86.4500
L157.4000 86.4500
" />
<path d="M160.6000 87.0500
L160.6000 86.4500
" />
<circle cx="159.0000" cy="86.7500" r="1.5000" /> 
<path d="M157.9500 130.6750
L160.0500 129.3250
" />
<path d="M157.9500 129.3250
L160.0500 130.6750
" />
</g>
<g style="fill:none; 
stroke:#000000; stroke-width:0.1000; stroke-opacity:1; 
stroke-linecap:round; stroke-linejoin:round;">
<path d="M158.0000 129.3750
L160.0000 129.3750
" />
<path d="M158.0000 130.6250
L158.0000 129.3750
" />
<path d="M160.0000 129.3750
L160.0000 130.6250
" />
<path d="M160.0000 130.6250
L158.0000 130.6250
" />
<path d="M124.4750 131.2300
L125.5250 131.2300
" />
<path d="M124.4750 131.7700
L124.4750 131.2300
" />
<path d="M125.5250 131.2300
L125.5250 131.7700
" />
<path d="M125.5250 131.7700
L124.4750 131.7700
" />
</g>
<g style="fill:none; 
stroke:#000000; stroke-width:0.1200; stroke-opacity:1; 
stroke-linecap:round; stroke-linejoin:round;">
<path d="M186.4000 140.9500
L186.4000 141.5500
" />
<path d="M186.4000 141.5500
L189.6000 141.5500
" />
<path d="M189.6000 140.9500
L186.4000 140.9500
" />
<path d="M189.6000 141.5500
L189.6000 140.9500
" />
<circle cx="188.0000" cy="141.2500" r="1.5000" /> 
</g>
<g style="fill:none; 
stroke:#000000; stroke-width:0.1000; stroke-opacity:1; 
stroke-linecap:round; stroke-linejoin:round;">
<path d="M135.8750 83.2500
L137.1250 83.2500
" />
<path d="M135.8750 85.2500
L135.8750 83.2500
" />
<path d="M137.1250 83.2500
L137.1250 85.2500
" />
<path d="M137.1250 85.2500
L135.8750 85.2500
" />
<path d="M147.9300 97.2500
L148.9300 97.2500
" />
<path d="M147.9300 97.7500
L147.9300 97.2500
" />
<path d="M148.9300 97.2500
L148.9300 97.7500
" />
<path d="M148.9300 97.7500
L147.9300 97.7500
" />
</g>
<g style="fill:none; 
stroke:#000000; stroke-width:0.1200; stroke-opacity:1; 
stroke-linecap:round; stroke-linejoin:round;">
<path d="M160.1500 140.9500
L160.1500 141.5500
" />
<path d="M160.1500 141.5500
L163.3500 141.5500
" />
<path d="M163.3500 140.9500
L160.1500 140.9500
" />
<path d="M163.3500 141.5500
L163.3500 140.9500
" />
<circle cx="161.7500" cy="141.2500" r="1.5000" /> 
</g>
<g style="fill:none; 
stroke:#000000; stroke-width:0.1000; stroke-opacity:1; 
stroke-linecap:round; stroke-linejoin:round;">
<path d="M115.5000 108.6250
L117.5000 108.6250
" />
<path d="M115.5000 109.8750
L115.5000 108.6250
" />
<path d="M117.5000 108.6250
L117.5000 109.8750
" />
<path d="M117.5000 109.8750
L115.5000 109.8750
" />
</g>
<g style="fill:none; 
stroke:#000000; stroke-width:0.1500; stroke-opacity:1; 
stroke-linecap:round; stroke-linejoin:round;">
<path d="M147.0300 112.7500
L149.6300 112.7500
" />
<path d="M147.0300 115.3500
L147.0300 112.7500
" />
<path d="M149.6300 112.7500
L149.6300 115.3500
" />
<path d="M149.6300 115.3500
L147.0300 115.3500
" />
</g>
<g style="fill:none; 
stroke:#000000; stroke-width:0.1000; stroke-opacity:1; 
stroke-linecap:round; stroke-linejoin:round;">
<circle cx="148.3300" cy="114.0500" r="0.2000" /> 
</g>
<g style="fill:none; 
stroke:#000000; stroke-width:0.1500; stroke-opacity:1; 
stroke-linecap:round; stroke-linejoin:round;">
<circle cx="148.3300" cy="114.0500" r="1.0000" /> 
</g>
<g style="fill:none; 
stroke:#000000; stroke-width:0.1000; stroke-opacity:1; 
stroke-linecap:round; stroke-linejoin:round;">
<circle cx="149.3300" cy="101.1000" r="0.5000" /> 
</g>
<g style="fill:none; 
stroke:#000000; stroke-width:0.0600; stroke-opacity:1; 
stroke-linecap:round; stroke-linejoin:round;">
<circle cx="150.4400" cy="99.1000" r="0.0300" /> 
</g>
<g style="fill:none; 
stroke:#000000; stroke-width:0.1000; stroke-opacity:1; 
stroke-linecap:round; stroke-linejoin:round;">
<path d="M149.7300 128.9650
L150.2700 128.9650
" />
<path d="M149.7300 130.0150
L149.7300 128.9650
" />
<path d="M150.2700 128.9650
L150.2700 130.0150
" />
<path d="M150.2700 130.0150
L149.7300 130.0150
" />
<path d="M190.2500 123.5000
L190.7500 123.5000
" />
<path d="M190.2500 124.5000
L190.2500 123.5000
" />
<path d="M190.7500 123.5000
L190.7500 124.5000
" />
<path d="M190.7500 124.5000
L190.2500 124.5000
" />
</g>
<g style="fill:none; 
stroke:#000000; stroke-width:0.1200; stroke-opacity:1; 
stroke-linecap:round; stroke-linejoin:round;">
<path d="M134.9000 79.7000
L134.9000 80.3000
" />
<path d="M134.9000 80.3000
L138.1000 80.3000
" />
<path d="M138.1000 79.7000
L134.9000 79.7000
" />
<path d="M138.1000 80.3000
L138.1000 79.7000
" />
<circle cx="136.5000" cy="80.0000" r="1.5000" /> 
</g>
<g style="fill:none; 
stroke:#000000; stroke-width:0.1000; stroke-opacity:1; 
stroke-linecap:round; stroke-linejoin:round;">
<path d="M115.5000 106.1250
L117.5000 106.1250
" />
<path d="M115.5000 107.3750
L115.5000 106.1250
" />
<path d="M117.5000 106.1250
L117.5000 107.3750
" />
<path d="M117.5000 107.3750
L115.5000 107.3750
" />
</g>
<g style="fill:none; 
stroke:#000000; stroke-width:0.1200; stroke-opacity:1; 
stroke-linecap:round; stroke-linejoin:round;">
<path d="M181.9000 140.9500
L181.9000 141.5500
" />
<path d="M181.9000 141.5500
L185.1000 141.5500
" />
<path d="M185.1000 140.9500
L181.9000 140.9500
" />
<path d="M185.1000 141.5500
L185.1000 140.9500
" />
<circle cx="183.5000" cy="141.2500" r="1.5000" /> 
</g>
<g style="fill:none; 
stroke:#000000; stroke-width:0.1000; stroke-opacity:1; 
stroke-linecap:round; stroke-linejoin:round;">
<path d="M170.1800 106.0000
L171.1800 106.0000
" />
<path d="M170.1800 106.5000
L170.1800 106.0000
" />
<path d="M171.1800 106.0000
L171.1800 106.5000
" />
<path d="M171.1800 106.5000
L170.1800 106.5000
" />
</g>
<g style="fill:none; 
stroke:#000000; stroke-width:0.1200; stroke-opacity:1; 
stroke-linecap:round; stroke-linejoin:round;">
<path d="M179.9000 92.9500
L179.9000 93.5500
" />
<path d="M179.9000 93.5500
L183.1000 93.5500
" />
<path d="M183.1000 92.9500
L179.9000 92.9500
" />
<path d="M183.1000 93.5500
L183.1000 92.9500
" />
<circle cx="181.5000" cy="93.2500" r="1.5000" /> 
<path d="M168.9000 102.9500
L168.9000 103.5500
" />
<path d="M168.9000 103.5500
L172.1000 103.5500
" />
<path d="M172.1000 102.9500
L168.9000 102.9500
" />
<path d="M172.1000 103.5500
L172.1000 102.9500
" />
<circle cx="170.5000" cy="103.2500" r="1.5000" /> 
</g>
<g style="fill:none; 
stroke:#000000; stroke-width:0.1000; stroke-opacity:1; 
stroke-linecap:round; stroke-linejoin:round;">
<path d="M149.3750 132.0000
L150.6250 132.0000
" />
<path d="M149.3750 134.0000
L149.3750 132.0000
" />
<path d="M150.6250 132.0000
L150.6250 134.0000
" />
<path d="M150.6250 134.0000
L149.3750 134.0000
" />
</g>
<g style="fill:none; 
stroke:#000000; stroke-width:0.1200; stroke-opacity:1; 
stroke-linecap:round; stroke-linejoin:round;">
<path d="M130.4000 79.7000
L130.4000 80.3000
" />
<path d="M130.4000 80.3000
L133.6000 80.3000
" />
<path d="M133.6000 79.7000
L130.4000 79.7000
" />
<path d="M133.6000 80.3000
L133.6000 79.7000
" />
<circle cx="132.0000" cy="80.0000" r="1.5000" /> 
<path d="M153.4000 140.9500
L153.4000 141.5500
" />
<path d="M153.4000 141.5500
L156.6000 141.5500
" />
<path d="M156.6000 140.9500
L153.4000 140.9500
" />
<path d="M156.6000 141.5500
L156.6000 140.9500
" />
<circle cx="155.0000" cy="141.2500" r="1.5000" /> 
<path d="M139.9000 140.9500
L139.9000 141.5500
" />
<path d="M139.9000 141.5500
L143.1000 141.5500
" />
<path d="M143.1000 140.9500
L139.9000 140.9500
" />
<path d="M143.1000 141.5500
L143.1000 140.9500
" />
<circle cx="141.5000" cy="141.2500" r="1.5000" /> 
</g>
<g style="fill:none; 
stroke:#000000; stroke-width:0.1000; stroke-opacity:1; 
stroke-linecap:round; stroke-linejoin:round;">
<circle cx="165.4500" cy="87.0000" r="0.2500" /> 
<path d="M155.4800 90.2250
L156.0200 90.2250
" />
<path d="M155.4800 91.2750
L155.4800 90.2250
" />
<path d="M156.0200 90.2250
L156.0200 91.2750
" />
<path d="M156.0200 91.2750
L155.4800 91.2750
" />
<path d="M118.0000 71.8500
L121.0000 71.8500
" />
<path d="M118.0000 76.4500
L118.0000 71.8500
" />
<path d="M118.7497 74.6512
L120.2991 74.6512
" />
<path d="M119.4990 73.5006
L118.7497 74.6512
" />
<path d="M119.4990 73.5006
L119.4990 72.5989
" />
<path d="M119.4990 73.5006
L120.2991 74.6512
" />
<path d="M119.4990 74.6512
L119.4990 75.6494
" />
<path d="M120.2991 73.5006
L118.6989 73.5006
" />
<path d="M121.0000 76.4500
L118.0000 76.4500
" />
<path d="M121.0000 76.4500
L121.0000 71.8500
" />
<path d="M184.0000 118.3750
L186.0000 118.3750
" />
<path d="M184.0000 119.6250
L184.0000 118.3750
" />
<path d="M186.0000 118.3750
L186.0000 119.6250
" />
<path d="M186.0000 119.6250
L184.0000 119.6250
" />
</g> 
</svg>
