<?xml version="1.0" standalone="no"?>
 <!DOCTYPE svg PUBLIC "-//W3C//DTD SVG 1.1//EN" 
 "http://www.w3.org/Graphics/SVG/1.1/DTD/svg11.dtd"> 
<svg
  xmlns:svg="http://www.w3.org/2000/svg"
  xmlns="http://www.w3.org/2000/svg"
  xmlns:xlink="http://www.w3.org/1999/xlink"
  version="1.1"
  width="297.0022mm" height="210.0072mm" viewBox="0.0000 0.0000 297.0022 210.0072">
<title>SVG Image created as AstraControl-F_Paste.svg date 2024/08/22 20:15:12 </title>
  <desc>Image generated by PCBNEW </desc>
<g style="fill:#000000; fill-opacity:1.0000;stroke:#000000; stroke-opacity:1.0000;
stroke-linecap:round; stroke-linejoin:round;"
 transform="translate(0 0) scale(1 1)">
<path style="fill:#000000; fill-opacity:1.0000; stroke:none;fill-rule:evenodd;"
d="M 174.0000,126.7750
174.0861,126.7921
174.1591,126.8409
174.2079,126.9139
174.2250,127.0000
174.2250,127.4500
174.2079,127.5361
174.1591,127.6091
174.0861,127.6579
174.0000,127.6750
173.5000,127.6750
173.4139,127.6579
173.3409,127.6091
173.2921,127.5361
173.2750,127.4500
173.2750,127.0000
173.2921,126.9139
173.3409,126.8409
173.4139,126.7921
173.5000,126.7750
Z" /> 
<path style="fill:#000000; fill-opacity:1.0000; stroke:none;fill-rule:evenodd;"
d="M 174.0000,128.3250
174.0861,128.3421
174.1591,128.3909
174.2079,128.4639
174.2250,128.5500
174.2250,129.0000
174.2079,129.0861
174.1591,129.1591
174.0861,129.2079
174.0000,129.2250
173.5000,129.2250
173.4139,129.2079
173.3409,129.1591
173.2921,129.0861
173.2750,129.0000
173.2750,128.5500
173.2921,128.4639
173.3409,128.3909
173.4139,128.3421
173.5000,128.3250
Z" /> 
<path style="fill:#000000; fill-opacity:1.0000; stroke:none;fill-rule:evenodd;"
d="M 149.1900,96.4200
149.1793,96.4736
149.1490,96.5190
149.1036,96.5493
149.0500,96.5600
148.7700,96.5600
148.7164,96.5493
148.6710,96.5190
148.6407,96.4736
148.6300,96.4200
148.6300,96.0800
148.6407,96.0264
148.6710,95.9810
148.7164,95.9507
148.7700,95.9400
149.0500,95.9400
149.1036,95.9507
149.1490,95.9810
149.1793,96.0264
149.1900,96.0800
Z" /> 
<path style="fill:#000000; fill-opacity:1.0000; stroke:none;fill-rule:evenodd;"
d="M 148.2300,96.4200
148.2193,96.4736
148.1890,96.5190
148.1436,96.5493
148.0900,96.5600
147.8100,96.5600
147.7564,96.5493
147.7110,96.5190
147.6807,96.4736
147.6700,96.4200
147.6700,96.0800
147.6807,96.0264
147.7110,95.9810
147.7564,95.9507
147.8100,95.9400
148.0900,95.9400
148.1436,95.9507
148.1890,95.9810
148.2193,96.0264
148.2300,96.0800
Z" /> 
<path style="fill:#000000; fill-opacity:1.0000; stroke:none;fill-rule:evenodd;"
d="M 200.2250,81.1250
200.3207,81.1440
200.4018,81.1982
200.4560,81.2793
200.4750,81.3750
200.4750,82.0500
200.4560,82.1457
200.4018,82.2268
200.3207,82.2810
200.2250,82.3000
199.2750,82.3000
199.1793,82.2810
199.0982,82.2268
199.0440,82.1457
199.0250,82.0500
199.0250,81.3750
199.0440,81.2793
199.0982,81.1982
199.1793,81.1440
199.2750,81.1250
Z" /> 
<path style="fill:#000000; fill-opacity:1.0000; stroke:none;fill-rule:evenodd;"
d="M 200.2250,83.2000
200.3207,83.2190
200.4018,83.2732
200.4560,83.3543
200.4750,83.4500
200.4750,84.1250
200.4560,84.2207
200.4018,84.3018
200.3207,84.3560
200.2250,84.3750
199.2750,84.3750
199.1793,84.3560
199.0982,84.3018
199.0440,84.2207
199.0250,84.1250
199.0250,83.4500
199.0440,83.3543
199.0982,83.2732
199.1793,83.2190
199.2750,83.2000
Z" /> 
<path style="fill:#000000; fill-opacity:1.0000; stroke:none;fill-rule:evenodd;"
d="M 183.2250,129.5000
183.2079,129.5861
183.1591,129.6591
183.0861,129.7079
183.0000,129.7250
182.5500,129.7250
182.4639,129.7079
182.3909,129.6591
182.3421,129.5861
182.3250,129.5000
182.3250,129.0000
182.3421,128.9139
182.3909,128.8409
182.4639,128.7921
182.5500,128.7750
183.0000,128.7750
183.0861,128.7921
183.1591,128.8409
183.2079,128.9139
183.2250,129.0000
Z" /> 
<path style="fill:#000000; fill-opacity:1.0000; stroke:none;fill-rule:evenodd;"
d="M 181.6750,129.5000
181.6579,129.5861
181.6091,129.6591
181.5361,129.7079
181.4500,129.7250
181.0000,129.7250
180.9139,129.7079
180.8409,129.6591
180.7921,129.5861
180.7750,129.5000
180.7750,129.0000
180.7921,128.9139
180.8409,128.8409
180.9139,128.7921
181.0000,128.7750
181.4500,128.7750
181.5361,128.7921
181.6091,128.8409
181.6579,128.9139
181.6750,129.0000
Z" /> 
<path style="fill:#000000; fill-opacity:1.0000; stroke:none;fill-rule:evenodd;"
d="M 160.2800,132.1850
160.2697,132.2367
160.2405,132.2805
160.1967,132.3097
160.1450,132.3200
159.8750,132.3200
159.8233,132.3097
159.7795,132.2805
159.7503,132.2367
159.7400,132.1850
159.7400,131.8150
159.7503,131.7633
159.7795,131.7195
159.8233,131.6903
159.8750,131.6800
160.1450,131.6800
160.1967,131.6903
160.2405,131.7195
160.2697,131.7633
160.2800,131.8150
Z" /> 
<path style="fill:#000000; fill-opacity:1.0000; stroke:none;fill-rule:evenodd;"
d="M 159.2600,132.1850
159.2497,132.2367
159.2205,132.2805
159.1767,132.3097
159.1250,132.3200
158.8550,132.3200
158.8033,132.3097
158.7595,132.2805
158.7303,132.2367
158.7200,132.1850
158.7200,131.8150
158.7303,131.7633
158.7595,131.7195
158.8033,131.6903
158.8550,131.6800
159.1250,131.6800
159.1767,131.6903
159.2205,131.7195
159.2497,131.7633
159.2600,131.8150
Z" /> 
<path style="fill:#000000; fill-opacity:1.0000; stroke:none;fill-rule:evenodd;"
d="M 110.5875,139.7250
110.5685,139.8207
110.5143,139.9018
110.4332,139.9560
110.3375,139.9750
109.6625,139.9750
109.5668,139.9560
109.4857,139.9018
109.4315,139.8207
109.4125,139.7250
109.4125,138.7750
109.4315,138.6793
109.4857,138.5982
109.5668,138.5440
109.6625,138.5250
110.3375,138.5250
110.4332,138.5440
110.5143,138.5982
110.5685,138.6793
110.5875,138.7750
Z" /> 
<path style="fill:#000000; fill-opacity:1.0000; stroke:none;fill-rule:evenodd;"
d="M 108.5125,139.7250
108.4935,139.8207
108.4393,139.9018
108.3582,139.9560
108.2625,139.9750
107.5875,139.9750
107.4918,139.9560
107.4107,139.9018
107.3565,139.8207
107.3375,139.7250
107.3375,138.7750
107.3565,138.6793
107.4107,138.5982
107.4918,138.5440
107.5875,138.5250
108.2625,138.5250
108.3582,138.5440
108.4393,138.5982
108.4935,138.6793
108.5125,138.7750
Z" /> 
<path style="fill:#000000; fill-opacity:1.0000; stroke:none;fill-rule:evenodd;"
d="M 168.1600,85.3300
168.1707,85.2764
168.2010,85.2310
168.2464,85.2007
168.3000,85.1900
168.5800,85.1900
168.6336,85.2007
168.6790,85.2310
168.7093,85.2764
168.7200,85.3300
168.7200,85.6700
168.7093,85.7236
168.6790,85.7690
168.6336,85.7993
168.5800,85.8100
168.3000,85.8100
168.2464,85.7993
168.2010,85.7690
168.1707,85.7236
168.1600,85.6700
Z" /> 
<path style="fill:#000000; fill-opacity:1.0000; stroke:none;fill-rule:evenodd;"
d="M 169.1200,85.3300
169.1307,85.2764
169.1610,85.2310
169.2064,85.2007
169.2600,85.1900
169.5400,85.1900
169.5936,85.2007
169.6390,85.2310
169.6693,85.2764
169.6800,85.3300
169.6800,85.6700
169.6693,85.7236
169.6390,85.7690
169.5936,85.7993
169.5400,85.8100
169.2600,85.8100
169.2064,85.7993
169.1610,85.7690
169.1307,85.7236
169.1200,85.6700
Z" /> 
<path style="fill:#000000; fill-opacity:1.0000; stroke:none;fill-rule:evenodd;"
d="M 119.9000,129.5500
119.9190,129.4543
119.9732,129.3732
120.0543,129.3190
120.1500,129.3000
120.8500,129.3000
120.9457,129.3190
121.0268,129.3732
121.0810,129.4543
121.1000,129.5500
121.1000,130.4500
121.0810,130.5457
121.0268,130.6268
120.9457,130.6810
120.8500,130.7000
120.1500,130.7000
120.0543,130.6810
119.9732,130.6268
119.9190,130.5457
119.9000,130.4500
Z" /> 
<path style="fill:#000000; fill-opacity:1.0000; stroke:none;fill-rule:evenodd;"
d="M 121.9000,129.5500
121.9190,129.4543
121.9732,129.3732
122.0543,129.3190
122.1500,129.3000
122.8500,129.3000
122.9457,129.3190
123.0268,129.3732
123.0810,129.4543
123.1000,129.5500
123.1000,130.4500
123.0810,130.5457
123.0268,130.6268
122.9457,130.6810
122.8500,130.7000
122.1500,130.7000
122.0543,130.6810
121.9732,130.6268
121.9190,130.5457
121.9000,130.4500
Z" /> 
<path style="fill:#000000; fill-opacity:1.0000; stroke:none;fill-rule:evenodd;"
d="M 116.6700,83.0100
116.7236,83.0207
116.7690,83.0510
116.7993,83.0964
116.8100,83.1500
116.8100,83.4300
116.7993,83.4836
116.7690,83.5290
116.7236,83.5593
116.6700,83.5700
116.3300,83.5700
116.2764,83.5593
116.2310,83.5290
116.2007,83.4836
116.1900,83.4300
116.1900,83.1500
116.2007,83.0964
116.2310,83.0510
116.2764,83.0207
116.3300,83.0100
Z" /> 
<path style="fill:#000000; fill-opacity:1.0000; stroke:none;fill-rule:evenodd;"
d="M 116.6700,83.9700
116.7236,83.9807
116.7690,84.0110
116.7993,84.0564
116.8100,84.1100
116.8100,84.3900
116.7993,84.4436
116.7690,84.4890
116.7236,84.5193
116.6700,84.5300
116.3300,84.5300
116.2764,84.5193
116.2310,84.4890
116.2007,84.4436
116.1900,84.3900
116.1900,84.1100
116.2007,84.0564
116.2310,84.0110
116.2764,83.9807
116.3300,83.9700
Z" /> 
<path style="fill:#000000; fill-opacity:1.0000; stroke:none;fill-rule:evenodd;"
d="M 169.4250,107.9000
170.9750,107.9000
170.9750,108.2000
169.4250,108.2000
Z" /> 
<path style="fill:#000000; fill-opacity:1.0000; stroke:none;fill-rule:evenodd;"
d="M 169.4250,108.5500
170.9750,108.5500
170.9750,108.8500
169.4250,108.8500
Z" /> 
<path style="fill:#000000; fill-opacity:1.0000; stroke:none;fill-rule:evenodd;"
d="M 169.4250,109.2000
170.9750,109.2000
170.9750,109.5000
169.4250,109.5000
Z" /> 
<path style="fill:#000000; fill-opacity:1.0000; stroke:none;fill-rule:evenodd;"
d="M 169.4250,109.8500
170.9750,109.8500
170.9750,110.1500
169.4250,110.1500
Z" /> 
<path style="fill:#000000; fill-opacity:1.0000; stroke:none;fill-rule:evenodd;"
d="M 169.4250,110.5000
170.9750,110.5000
170.9750,110.8000
169.4250,110.8000
Z" /> 
<path style="fill:#000000; fill-opacity:1.0000; stroke:none;fill-rule:evenodd;"
d="M 169.4250,111.1500
170.9750,111.1500
170.9750,111.4500
169.4250,111.4500
Z" /> 
<path style="fill:#000000; fill-opacity:1.0000; stroke:none;fill-rule:evenodd;"
d="M 169.4250,111.8000
170.9750,111.8000
170.9750,112.1000
169.4250,112.1000
Z" /> 
<path style="fill:#000000; fill-opacity:1.0000; stroke:none;fill-rule:evenodd;"
d="M 175.0250,111.8000
176.5750,111.8000
176.5750,112.1000
175.0250,112.1000
Z" /> 
<path style="fill:#000000; fill-opacity:1.0000; stroke:none;fill-rule:evenodd;"
d="M 175.0250,111.1500
176.5750,111.1500
176.5750,111.4500
175.0250,111.4500
Z" /> 
<path style="fill:#000000; fill-opacity:1.0000; stroke:none;fill-rule:evenodd;"
d="M 175.0250,110.5000
176.5750,110.5000
176.5750,110.8000
175.0250,110.8000
Z" /> 
<path style="fill:#000000; fill-opacity:1.0000; stroke:none;fill-rule:evenodd;"
d="M 175.0250,109.8500
176.5750,109.8500
176.5750,110.1500
175.0250,110.1500
Z" /> 
<path style="fill:#000000; fill-opacity:1.0000; stroke:none;fill-rule:evenodd;"
d="M 175.0250,109.2000
176.5750,109.2000
176.5750,109.5000
175.0250,109.5000
Z" /> 
<path style="fill:#000000; fill-opacity:1.0000; stroke:none;fill-rule:evenodd;"
d="M 175.0250,108.5500
176.5750,108.5500
176.5750,108.8500
175.0250,108.8500
Z" /> 
<path style="fill:#000000; fill-opacity:1.0000; stroke:none;fill-rule:evenodd;"
d="M 175.0250,107.9000
176.5750,107.9000
176.5750,108.2000
175.0250,108.2000
Z" /> 
<path style="fill:#000000; fill-opacity:1.0000; stroke:none;fill-rule:evenodd;"
d="M 115.0000,99.4750
115.0000,100.2250
114.0000,100.2250
114.0000,99.4750
Z" /> 
<path style="fill:#000000; fill-opacity:1.0000; stroke:none;fill-rule:evenodd;"
d="M 109.0000,99.4750
109.0000,100.2250
108.0000,100.2250
108.0000,99.4750
Z" /> 
<path style="fill:#000000; fill-opacity:1.0000; stroke:none;fill-rule:evenodd;"
d="M 115.0000,95.7250
115.0000,96.4750
114.0000,96.4750
114.0000,95.7250
Z" /> 
<path style="fill:#000000; fill-opacity:1.0000; stroke:none;fill-rule:evenodd;"
d="M 109.0000,95.7250
109.0000,96.4750
108.0000,96.4750
108.0000,95.7250
Z" /> 
<path style="fill:#000000; fill-opacity:1.0000; stroke:none;fill-rule:evenodd;"
d="M 153.0062,107.5250
153.0900,107.5417
153.1609,107.5891
153.2083,107.6600
153.2250,107.7437
153.2250,108.1812
153.2083,108.2650
153.1609,108.3359
153.0900,108.3833
153.0062,108.4000
152.4938,108.4000
152.4100,108.3833
152.3391,108.3359
152.2917,108.2650
152.2750,108.1812
152.2750,107.7437
152.2917,107.6600
152.3391,107.5891
152.4100,107.5417
152.4938,107.5250
Z" /> 
<path style="fill:#000000; fill-opacity:1.0000; stroke:none;fill-rule:evenodd;"
d="M 153.0062,109.1000
153.0900,109.1167
153.1609,109.1641
153.2083,109.2350
153.2250,109.3187
153.2250,109.7562
153.2083,109.8400
153.1609,109.9109
153.0900,109.9583
153.0062,109.9750
152.4938,109.9750
152.4100,109.9583
152.3391,109.9109
152.2917,109.8400
152.2750,109.7562
152.2750,109.3187
152.2917,109.2350
152.3391,109.1641
152.4100,109.1167
152.4938,109.1000
Z" /> 
<path style="fill:#000000; fill-opacity:1.0000; stroke:none;fill-rule:evenodd;"
d="M 172.3000,126.1500
172.3000,129.8500
171.2000,129.8500
171.2000,126.1500
Z" /> 
<path style="fill:#000000; fill-opacity:1.0000; stroke:none;fill-rule:evenodd;"
d="M 169.3000,126.1500
169.3000,129.8500
168.2000,129.8500
168.2000,126.1500
Z" /> 
<path style="fill:#000000; fill-opacity:1.0000; stroke:none;fill-rule:evenodd;"
d="M 155.9350,85.4600
155.9867,85.4703
156.0305,85.4995
156.0597,85.5433
156.0700,85.5950
156.0700,85.8650
156.0597,85.9167
156.0305,85.9605
155.9867,85.9897
155.9350,86.0000
155.5650,86.0000
155.5133,85.9897
155.4695,85.9605
155.4403,85.9167
155.4300,85.8650
155.4300,85.5950
155.4403,85.5433
155.4695,85.4995
155.5133,85.4703
155.5650,85.4600
Z" /> 
<path style="fill:#000000; fill-opacity:1.0000; stroke:none;fill-rule:evenodd;"
d="M 155.9350,86.4800
155.9867,86.4903
156.0305,86.5195
156.0597,86.5633
156.0700,86.6150
156.0700,86.8850
156.0597,86.9367
156.0305,86.9805
155.9867,87.0097
155.9350,87.0200
155.5650,87.0200
155.5133,87.0097
155.4695,86.9805
155.4403,86.9367
155.4300,86.8850
155.4300,86.6150
155.4403,86.5633
155.4695,86.5195
155.5133,86.4903
155.5650,86.4800
Z" /> 
<path style="fill:#000000; fill-opacity:1.0000; stroke:none;fill-rule:evenodd;"
d="M 118.4500,129.4000
118.5457,129.4190
118.6268,129.4732
118.6810,129.5543
118.7000,129.6500
118.7000,130.3500
118.6810,130.4457
118.6268,130.5268
118.5457,130.5810
118.4500,130.6000
117.5500,130.6000
117.4543,130.5810
117.3732,130.5268
117.3190,130.4457
117.3000,130.3500
117.3000,129.6500
117.3190,129.5543
117.3732,129.4732
117.4543,129.4190
117.5500,129.4000
Z" /> 
<path style="fill:#000000; fill-opacity:1.0000; stroke:none;fill-rule:evenodd;"
d="M 118.4500,131.4000
118.5457,131.4190
118.6268,131.4732
118.6810,131.5543
118.7000,131.6500
118.7000,132.3500
118.6810,132.4457
118.6268,132.5268
118.5457,132.5810
118.4500,132.6000
117.5500,132.6000
117.4543,132.5810
117.3732,132.5268
117.3190,132.4457
117.3000,132.3500
117.3000,131.6500
117.3190,131.5543
117.3732,131.4732
117.4543,131.4190
117.5500,131.4000
Z" /> 
<path style="fill:#000000; fill-opacity:1.0000; stroke:none;fill-rule:evenodd;"
d="M 174.5600,106.0800
174.5707,106.0264
174.6010,105.9810
174.6464,105.9507
174.7000,105.9400
174.9800,105.9400
175.0336,105.9507
175.0790,105.9810
175.1093,106.0264
175.1200,106.0800
175.1200,106.4200
175.1093,106.4736
175.0790,106.5190
175.0336,106.5493
174.9800,106.5600
174.7000,106.5600
174.6464,106.5493
174.6010,106.5190
174.5707,106.4736
174.5600,106.4200
Z" /> 
<path style="fill:#000000; fill-opacity:1.0000; stroke:none;fill-rule:evenodd;"
d="M 175.5200,106.0800
175.5307,106.0264
175.5610,105.9810
175.6064,105.9507
175.6600,105.9400
175.9400,105.9400
175.9936,105.9507
176.0390,105.9810
176.0693,106.0264
176.0800,106.0800
176.0800,106.4200
176.0693,106.4736
176.0390,106.5190
175.9936,106.5493
175.9400,106.5600
175.6600,106.5600
175.6064,106.5493
175.5610,106.5190
175.5307,106.4736
175.5200,106.4200
Z" /> 
<path style="fill:#000000; fill-opacity:1.0000; stroke:none;fill-rule:evenodd;"
d="M 183.2250,127.7500
183.2079,127.8361
183.1591,127.9091
183.0861,127.9579
183.0000,127.9750
182.5500,127.9750
182.4639,127.9579
182.3909,127.9091
182.3421,127.8361
182.3250,127.7500
182.3250,127.2500
182.3421,127.1639
182.3909,127.0909
182.4639,127.0421
182.5500,127.0250
183.0000,127.0250
183.0861,127.0421
183.1591,127.0909
183.2079,127.1639
183.2250,127.2500
Z" /> 
<path style="fill:#000000; fill-opacity:1.0000; stroke:none;fill-rule:evenodd;"
d="M 181.6750,127.7500
181.6579,127.8361
181.6091,127.9091
181.5361,127.9579
181.4500,127.9750
181.0000,127.9750
180.9139,127.9579
180.8409,127.9091
180.7921,127.8361
180.7750,127.7500
180.7750,127.2500
180.7921,127.1639
180.8409,127.0909
180.9139,127.0421
181.0000,127.0250
181.4500,127.0250
181.5361,127.0421
181.6091,127.0909
181.6579,127.1639
181.6750,127.2500
Z" /> 
<path style="fill:#000000; fill-opacity:1.0000; stroke:none;fill-rule:evenodd;"
d="M 115.7700,131.9350
115.7597,131.9867
115.7305,132.0305
115.6867,132.0597
115.6350,132.0700
115.3650,132.0700
115.3133,132.0597
115.2695,132.0305
115.2403,131.9867
115.2300,131.9350
115.2300,131.5650
115.2403,131.5133
115.2695,131.4695
115.3133,131.4403
115.3650,131.4300
115.6350,131.4300
115.6867,131.4403
115.7305,131.4695
115.7597,131.5133
115.7700,131.5650
Z" /> 
<path style="fill:#000000; fill-opacity:1.0000; stroke:none;fill-rule:evenodd;"
d="M 114.7500,131.9350
114.7397,131.9867
114.7105,132.0305
114.6667,132.0597
114.6150,132.0700
114.3450,132.0700
114.2933,132.0597
114.2495,132.0305
114.2203,131.9867
114.2100,131.9350
114.2100,131.5650
114.2203,131.5133
114.2495,131.4695
114.2933,131.4403
114.3450,131.4300
114.6150,131.4300
114.6667,131.4403
114.7105,131.4695
114.7397,131.5133
114.7500,131.5650
Z" /> 
<path style="fill:#000000; fill-opacity:1.0000; stroke:none;fill-rule:evenodd;"
d="M 172.5400,89.6850
172.5297,89.7367
172.5005,89.7805
172.4567,89.8097
172.4050,89.8200
172.1350,89.8200
172.0833,89.8097
172.0395,89.7805
172.0103,89.7367
172.0000,89.6850
172.0000,89.3150
172.0103,89.2633
172.0395,89.2195
172.0833,89.1903
172.1350,89.1800
172.4050,89.1800
172.4567,89.1903
172.5005,89.2195
172.5297,89.2633
172.5400,89.3150
Z" /> 
<path style="fill:#000000; fill-opacity:1.0000; stroke:none;fill-rule:evenodd;"
d="M 171.5200,89.6850
171.5097,89.7367
171.4805,89.7805
171.4367,89.8097
171.3850,89.8200
171.1150,89.8200
171.0633,89.8097
171.0195,89.7805
170.9903,89.7367
170.9800,89.6850
170.9800,89.3150
170.9903,89.2633
171.0195,89.2195
171.0633,89.1903
171.1150,89.1800
171.3850,89.1800
171.4367,89.1903
171.4805,89.2195
171.5097,89.2633
171.5200,89.3150
Z" /> 
<path style="fill:#000000; fill-opacity:1.0000; stroke:none;fill-rule:evenodd;"
d="M 115.2200,111.3300
115.2307,111.2764
115.2610,111.2310
115.3064,111.2007
115.3600,111.1900
115.6400,111.1900
115.6936,111.2007
115.7390,111.2310
115.7693,111.2764
115.7800,111.3300
115.7800,111.6700
115.7693,111.7236
115.7390,111.7690
115.6936,111.7993
115.6400,111.8100
115.3600,111.8100
115.3064,111.7993
115.2610,111.7690
115.2307,111.7236
115.2200,111.6700
Z" /> 
<path style="fill:#000000; fill-opacity:1.0000; stroke:none;fill-rule:evenodd;"
d="M 116.1800,111.3300
116.1907,111.2764
116.2210,111.2310
116.2664,111.2007
116.3200,111.1900
116.6000,111.1900
116.6536,111.2007
116.6990,111.2310
116.7293,111.2764
116.7400,111.3300
116.7400,111.6700
116.7293,111.7236
116.6990,111.7690
116.6536,111.7993
116.6000,111.8100
116.3200,111.8100
116.2664,111.7993
116.2210,111.7690
116.1907,111.7236
116.1800,111.6700
Z" /> 
<path style="fill:#000000; fill-opacity:1.0000; stroke:none;fill-rule:evenodd;"
d="M 152.5650,112.5025
152.5133,112.4922
152.4695,112.4630
152.4403,112.4192
152.4300,112.3675
152.4300,112.0975
152.4403,112.0458
152.4695,112.0020
152.5133,111.9728
152.5650,111.9625
152.9350,111.9625
152.9867,111.9728
153.0305,112.0020
153.0597,112.0458
153.0700,112.0975
153.0700,112.3675
153.0597,112.4192
153.0305,112.4630
152.9867,112.4922
152.9350,112.5025
Z" /> 
<path style="fill:#000000; fill-opacity:1.0000; stroke:none;fill-rule:evenodd;"
d="M 152.5650,111.4825
152.5133,111.4722
152.4695,111.4430
152.4403,111.3992
152.4300,111.3475
152.4300,111.0775
152.4403,111.0258
152.4695,110.9820
152.5133,110.9528
152.5650,110.9425
152.9350,110.9425
152.9867,110.9528
153.0305,110.9820
153.0597,111.0258
153.0700,111.0775
153.0700,111.3475
153.0597,111.3992
153.0305,111.4430
152.9867,111.4722
152.9350,111.4825
Z" /> 
<path style="fill:#000000; fill-opacity:1.0000; stroke:none;fill-rule:evenodd;"
d="M 166.9750,124.3750
167.0707,124.3940
167.1518,124.4482
167.2060,124.5293
167.2250,124.6250
167.2250,125.3000
167.2060,125.3957
167.1518,125.4768
167.0707,125.5310
166.9750,125.5500
166.0250,125.5500
165.9293,125.5310
165.8482,125.4768
165.7940,125.3957
165.7750,125.3000
165.7750,124.6250
165.7940,124.5293
165.8482,124.4482
165.9293,124.3940
166.0250,124.3750
Z" /> 
<path style="fill:#000000; fill-opacity:1.0000; stroke:none;fill-rule:evenodd;"
d="M 166.9750,126.4500
167.0707,126.4690
167.1518,126.5232
167.2060,126.6043
167.2250,126.7000
167.2250,127.3750
167.2060,127.4707
167.1518,127.5518
167.0707,127.6060
166.9750,127.6250
166.0250,127.6250
165.9293,127.6060
165.8482,127.5518
165.7940,127.4707
165.7750,127.3750
165.7750,126.7000
165.7940,126.6043
165.8482,126.5232
165.9293,126.4690
166.0250,126.4500
Z" /> 
<path style="fill:#000000; fill-opacity:1.0000; stroke:none;fill-rule:evenodd;"
d="M 148.6000,130.4500
148.5810,130.5457
148.5268,130.6268
148.4457,130.6810
148.3500,130.7000
147.6500,130.7000
147.5543,130.6810
147.4732,130.6268
147.4190,130.5457
147.4000,130.4500
147.4000,129.5500
147.4190,129.4543
147.4732,129.3732
147.5543,129.3190
147.6500,129.3000
148.3500,129.3000
148.4457,129.3190
148.5268,129.3732
148.5810,129.4543
148.6000,129.5500
Z" /> 
<path style="fill:#000000; fill-opacity:1.0000; stroke:none;fill-rule:evenodd;"
d="M 146.6000,130.4500
146.5810,130.5457
146.5268,130.6268
146.4457,130.6810
146.3500,130.7000
145.6500,130.7000
145.5543,130.6810
145.4732,130.6268
145.4190,130.5457
145.4000,130.4500
145.4000,129.5500
145.4190,129.4543
145.4732,129.3732
145.5543,129.3190
145.6500,129.3000
146.3500,129.3000
146.4457,129.3190
146.5268,129.3732
146.5810,129.4543
146.6000,129.5500
Z" /> 
<path style="fill:#000000; fill-opacity:1.0000; stroke:none;fill-rule:evenodd;"
d="M 149.5500,85.8500
149.4543,85.8310
149.3732,85.7768
149.3190,85.6957
149.3000,85.6000
149.3000,84.9000
149.3190,84.8043
149.3732,84.7232
149.4543,84.6690
149.5500,84.6500
150.4500,84.6500
150.5457,84.6690
150.6268,84.7232
150.6810,84.8043
150.7000,84.9000
150.7000,85.6000
150.6810,85.6957
150.6268,85.7768
150.5457,85.8310
150.4500,85.8500
Z" /> 
<path style="fill:#000000; fill-opacity:1.0000; stroke:none;fill-rule:evenodd;"
d="M 149.5500,83.8500
149.4543,83.8310
149.3732,83.7768
149.3190,83.6957
149.3000,83.6000
149.3000,82.9000
149.3190,82.8043
149.3732,82.7232
149.4543,82.6690
149.5500,82.6500
150.4500,82.6500
150.5457,82.6690
150.6268,82.7232
150.6810,82.8043
150.7000,82.9000
150.7000,83.6000
150.6810,83.6957
150.6268,83.7768
150.5457,83.8310
150.4500,83.8500
Z" /> 
<path style="fill:#000000; fill-opacity:1.0000; stroke:none;fill-rule:evenodd;"
d="M 196.6700,123.2400
196.7236,123.2507
196.7690,123.2810
196.7993,123.3264
196.8100,123.3800
196.8100,123.6600
196.7993,123.7136
196.7690,123.7590
196.7236,123.7893
196.6700,123.8000
196.3300,123.8000
196.2764,123.7893
196.2310,123.7590
196.2007,123.7136
196.1900,123.6600
196.1900,123.3800
196.2007,123.3264
196.2310,123.2810
196.2764,123.2507
196.3300,123.2400
Z" /> 
<path style="fill:#000000; fill-opacity:1.0000; stroke:none;fill-rule:evenodd;"
d="M 196.6700,124.2000
196.7236,124.2107
196.7690,124.2410
196.7993,124.2864
196.8100,124.3400
196.8100,124.6200
196.7993,124.6736
196.7690,124.7190
196.7236,124.7493
196.6700,124.7600
196.3300,124.7600
196.2764,124.7493
196.2310,124.7190
196.2007,124.6736
196.1900,124.6200
196.1900,124.3400
196.2007,124.2864
196.2310,124.2410
196.2764,124.2107
196.3300,124.2000
Z" /> 
<path style="fill:#000000; fill-opacity:1.0000; stroke:none;fill-rule:evenodd;"
d="M 185.5000,126.5000
185.4139,126.4829
185.3409,126.4341
185.2921,126.3611
185.2750,126.2750
185.2750,125.8250
185.2921,125.7389
185.3409,125.6659
185.4139,125.6171
185.5000,125.6000
186.0000,125.6000
186.0861,125.6171
186.1591,125.6659
186.2079,125.7389
186.2250,125.8250
186.2250,126.2750
186.2079,126.3611
186.1591,126.4341
186.0861,126.4829
186.0000,126.5000
Z" /> 
<path style="fill:#000000; fill-opacity:1.0000; stroke:none;fill-rule:evenodd;"
d="M 185.5000,124.9500
185.4139,124.9329
185.3409,124.8841
185.2921,124.8111
185.2750,124.7250
185.2750,124.2750
185.2921,124.1889
185.3409,124.1159
185.4139,124.0671
185.5000,124.0500
186.0000,124.0500
186.0861,124.0671
186.1591,124.1159
186.2079,124.1889
186.2250,124.2750
186.2250,124.7250
186.2079,124.8111
186.1591,124.8841
186.0861,124.9329
186.0000,124.9500
Z" /> 
<path style="fill:#000000; fill-opacity:1.0000; stroke:none;fill-rule:evenodd;"
d="M 156.4200,100.7200
156.4736,100.7307
156.5190,100.7610
156.5493,100.8064
156.5600,100.8600
156.5600,101.1400
156.5493,101.1936
156.5190,101.2390
156.4736,101.2693
156.4200,101.2800
156.0800,101.2800
156.0264,101.2693
155.9810,101.2390
155.9507,101.1936
155.9400,101.1400
155.9400,100.8600
155.9507,100.8064
155.9810,100.7610
156.0264,100.7307
156.0800,100.7200
Z" /> 
<path style="fill:#000000; fill-opacity:1.0000; stroke:none;fill-rule:evenodd;"
d="M 156.4200,101.6800
156.4736,101.6907
156.5190,101.7210
156.5493,101.7664
156.5600,101.8200
156.5600,102.1000
156.5493,102.1536
156.5190,102.1990
156.4736,102.2293
156.4200,102.2400
156.0800,102.2400
156.0264,102.2293
155.9810,102.1990
155.9507,102.1536
155.9400,102.1000
155.9400,101.8200
155.9507,101.7664
155.9810,101.7210
156.0264,101.6907
156.0800,101.6800
Z" /> 
<path style="fill:#000000; fill-opacity:1.0000; stroke:none;fill-rule:evenodd;"
d="M 186.7800,121.1850
186.7697,121.2367
186.7405,121.2805
186.6967,121.3097
186.6450,121.3200
186.3750,121.3200
186.3233,121.3097
186.2795,121.2805
186.2503,121.2367
186.2400,121.1850
186.2400,120.8150
186.2503,120.7633
186.2795,120.7195
186.3233,120.6903
186.3750,120.6800
186.6450,120.6800
186.6967,120.6903
186.7405,120.7195
186.7697,120.7633
186.7800,120.8150
Z" /> 
<path style="fill:#000000; fill-opacity:1.0000; stroke:none;fill-rule:evenodd;"
d="M 185.7600,121.1850
185.7497,121.2367
185.7205,121.2805
185.6767,121.3097
185.6250,121.3200
185.3550,121.3200
185.3033,121.3097
185.2595,121.2805
185.2303,121.2367
185.2200,121.1850
185.2200,120.8150
185.2303,120.7633
185.2595,120.7195
185.3033,120.6903
185.3550,120.6800
185.6250,120.6800
185.6767,120.6903
185.7205,120.7195
185.7497,120.7633
185.7600,120.8150
Z" /> 
<path style="fill:#000000; fill-opacity:1.0000; stroke:none;fill-rule:evenodd;"
d="M 140.5500,85.8500
140.4543,85.8310
140.3732,85.7768
140.3190,85.6957
140.3000,85.6000
140.3000,84.9000
140.3190,84.8043
140.3732,84.7232
140.4543,84.6690
140.5500,84.6500
141.4500,84.6500
141.5457,84.6690
141.6268,84.7232
141.6810,84.8043
141.7000,84.9000
141.7000,85.6000
141.6810,85.6957
141.6268,85.7768
141.5457,85.8310
141.4500,85.8500
Z" /> 
<path style="fill:#000000; fill-opacity:1.0000; stroke:none;fill-rule:evenodd;"
d="M 140.5500,83.8500
140.4543,83.8310
140.3732,83.7768
140.3190,83.6957
140.3000,83.6000
140.3000,82.9000
140.3190,82.8043
140.3732,82.7232
140.4543,82.6690
140.5500,82.6500
141.4500,82.6500
141.5457,82.6690
141.6268,82.7232
141.6810,82.8043
141.7000,82.9000
141.7000,83.6000
141.6810,83.6957
141.6268,83.7768
141.5457,83.8310
141.4500,83.8500
Z" /> 
<path style="fill:#000000; fill-opacity:1.0000; stroke:none;fill-rule:evenodd;"
d="M 113.4000,85.5200
114.6000,85.5200
114.6000,86.1200
113.4000,86.1200
Z" /> 
<path style="fill:#000000; fill-opacity:1.0000; stroke:none;fill-rule:evenodd;"
d="M 113.4000,86.4700
114.6000,86.4700
114.6000,87.0700
113.4000,87.0700
Z" /> 
<path style="fill:#000000; fill-opacity:1.0000; stroke:none;fill-rule:evenodd;"
d="M 113.4000,87.4200
114.6000,87.4200
114.6000,88.0200
113.4000,88.0200
Z" /> 
<path style="fill:#000000; fill-opacity:1.0000; stroke:none;fill-rule:evenodd;"
d="M 115.7000,87.4200
116.9000,87.4200
116.9000,88.0200
115.7000,88.0200
Z" /> 
<path style="fill:#000000; fill-opacity:1.0000; stroke:none;fill-rule:evenodd;"
d="M 115.7000,86.4700
116.9000,86.4700
116.9000,87.0700
115.7000,87.0700
Z" /> 
<path style="fill:#000000; fill-opacity:1.0000; stroke:none;fill-rule:evenodd;"
d="M 115.7000,85.5200
116.9000,85.5200
116.9000,86.1200
115.7000,86.1200
Z" /> 
<path style="fill:#000000; fill-opacity:1.0000; stroke:none;fill-rule:evenodd;"
d="M 115.0000,119.4750
115.0000,120.2250
114.0000,120.2250
114.0000,119.4750
Z" /> 
<path style="fill:#000000; fill-opacity:1.0000; stroke:none;fill-rule:evenodd;"
d="M 109.0000,119.4750
109.0000,120.2250
108.0000,120.2250
108.0000,119.4750
Z" /> 
<path style="fill:#000000; fill-opacity:1.0000; stroke:none;fill-rule:evenodd;"
d="M 115.0000,115.7250
115.0000,116.4750
114.0000,116.4750
114.0000,115.7250
Z" /> 
<path style="fill:#000000; fill-opacity:1.0000; stroke:none;fill-rule:evenodd;"
d="M 109.0000,115.7250
109.0000,116.4750
108.0000,116.4750
108.0000,115.7250
Z" /> 
<path style="fill:#000000; fill-opacity:1.0000; stroke:none;fill-rule:evenodd;"
d="M 113.2200,91.3150
113.2303,91.2633
113.2595,91.2195
113.3033,91.1903
113.3550,91.1800
113.6250,91.1800
113.6767,91.1903
113.7205,91.2195
113.7497,91.2633
113.7600,91.3150
113.7600,91.6850
113.7497,91.7367
113.7205,91.7805
113.6767,91.8097
113.6250,91.8200
113.3550,91.8200
113.3033,91.8097
113.2595,91.7805
113.2303,91.7367
113.2200,91.6850
Z" /> 
<path style="fill:#000000; fill-opacity:1.0000; stroke:none;fill-rule:evenodd;"
d="M 114.2400,91.3150
114.2503,91.2633
114.2795,91.2195
114.3233,91.1903
114.3750,91.1800
114.6450,91.1800
114.6967,91.1903
114.7405,91.2195
114.7697,91.2633
114.7800,91.3150
114.7800,91.6850
114.7697,91.7367
114.7405,91.7805
114.6967,91.8097
114.6450,91.8200
114.3750,91.8200
114.3233,91.8097
114.2795,91.7805
114.2503,91.7367
114.2400,91.6850
Z" /> 
<path style="fill:#000000; fill-opacity:1.0000; stroke:none;fill-rule:evenodd;"
d="M 174.5100,113.3150
174.5203,113.2633
174.5495,113.2195
174.5933,113.1903
174.6450,113.1800
174.9150,113.1800
174.9667,113.1903
175.0105,113.2195
175.0397,113.2633
175.0500,113.3150
175.0500,113.6850
175.0397,113.7367
175.0105,113.7805
174.9667,113.8097
174.9150,113.8200
174.6450,113.8200
174.5933,113.8097
174.5495,113.7805
174.5203,113.7367
174.5100,113.6850
Z" /> 
<path style="fill:#000000; fill-opacity:1.0000; stroke:none;fill-rule:evenodd;"
d="M 175.5300,113.3150
175.5403,113.2633
175.5695,113.2195
175.6133,113.1903
175.6650,113.1800
175.9350,113.1800
175.9867,113.1903
176.0305,113.2195
176.0597,113.2633
176.0700,113.3150
176.0700,113.6850
176.0597,113.7367
176.0305,113.7805
175.9867,113.8097
175.9350,113.8200
175.6650,113.8200
175.6133,113.8097
175.5695,113.7805
175.5403,113.7367
175.5300,113.6850
Z" /> 
<path style="fill:#000000; fill-opacity:1.0000; stroke:none;fill-rule:evenodd;"
d="M 190.2437,132.7250
190.1600,132.7083
190.0891,132.6609
190.0417,132.5900
190.0250,132.5062
190.0250,132.0687
190.0417,131.9850
190.0891,131.9141
190.1600,131.8667
190.2437,131.8500
190.7562,131.8500
190.8400,131.8667
190.9109,131.9141
190.9583,131.9850
190.9750,132.0687
190.9750,132.5062
190.9583,132.5900
190.9109,132.6609
190.8400,132.7083
190.7562,132.7250
Z" /> 
<path style="fill:#000000; fill-opacity:1.0000; stroke:none;fill-rule:evenodd;"
d="M 190.2437,131.1500
190.1600,131.1333
190.0891,131.0859
190.0417,131.0150
190.0250,130.9313
190.0250,130.4938
190.0417,130.4100
190.0891,130.3391
190.1600,130.2917
190.2437,130.2750
190.7562,130.2750
190.8400,130.2917
190.9109,130.3391
190.9583,130.4100
190.9750,130.4938
190.9750,130.9313
190.9583,131.0150
190.9109,131.0859
190.8400,131.1333
190.7562,131.1500
Z" /> 
<path style="fill:#000000; fill-opacity:1.0000; stroke:none;fill-rule:evenodd;"
d="M 152.3000,100.6000
152.2043,100.5810
152.1232,100.5268
152.0690,100.4457
152.0500,100.3500
152.0500,99.6500
152.0690,99.5543
152.1232,99.4732
152.2043,99.4190
152.3000,99.4000
153.2000,99.4000
153.2957,99.4190
153.3768,99.4732
153.4310,99.5543
153.4500,99.6500
153.4500,100.3500
153.4310,100.4457
153.3768,100.5268
153.2957,100.5810
153.2000,100.6000
Z" /> 
<path style="fill:#000000; fill-opacity:1.0000; stroke:none;fill-rule:evenodd;"
d="M 152.3000,98.6000
152.2043,98.5810
152.1232,98.5268
152.0690,98.4457
152.0500,98.3500
152.0500,97.6500
152.0690,97.5543
152.1232,97.4732
152.2043,97.4190
152.3000,97.4000
153.2000,97.4000
153.2957,97.4190
153.3768,97.4732
153.4310,97.5543
153.4500,97.6500
153.4500,98.3500
153.4310,98.4457
153.3768,98.5268
153.2957,98.5810
153.2000,98.6000
Z" /> 
<path style="fill:#000000; fill-opacity:1.0000; stroke:none;fill-rule:evenodd;"
d="M 154.8150,101.2800
154.7633,101.2697
154.7195,101.2405
154.6903,101.1967
154.6800,101.1450
154.6800,100.8750
154.6903,100.8233
154.7195,100.7795
154.7633,100.7503
154.8150,100.7400
155.1850,100.7400
155.2367,100.7503
155.2805,100.7795
155.3097,100.8233
155.3200,100.8750
155.3200,101.1450
155.3097,101.1967
155.2805,101.2405
155.2367,101.2697
155.1850,101.2800
Z" /> 
<path style="fill:#000000; fill-opacity:1.0000; stroke:none;fill-rule:evenodd;"
d="M 154.8150,100.2600
154.7633,100.2497
154.7195,100.2205
154.6903,100.1767
154.6800,100.1250
154.6800,99.8550
154.6903,99.8033
154.7195,99.7595
154.7633,99.7303
154.8150,99.7200
155.1850,99.7200
155.2367,99.7303
155.2805,99.7595
155.3097,99.8033
155.3200,99.8550
155.3200,100.1250
155.3097,100.1767
155.2805,100.2205
155.2367,100.2497
155.1850,100.2600
Z" /> 
<path style="fill:#000000; fill-opacity:1.0000; stroke:none;fill-rule:evenodd;"
d="M 116.7400,104.6700
116.7293,104.7236
116.6990,104.7690
116.6536,104.7993
116.6000,104.8100
116.3200,104.8100
116.2664,104.7993
116.2210,104.7690
116.1907,104.7236
116.1800,104.6700
116.1800,104.3300
116.1907,104.2764
116.2210,104.2310
116.2664,104.2007
116.3200,104.1900
116.6000,104.1900
116.6536,104.2007
116.6990,104.2310
116.7293,104.2764
116.7400,104.3300
Z" /> 
<path style="fill:#000000; fill-opacity:1.0000; stroke:none;fill-rule:evenodd;"
d="M 115.7800,104.6700
115.7693,104.7236
115.7390,104.7690
115.6936,104.7993
115.6400,104.8100
115.3600,104.8100
115.3064,104.7993
115.2610,104.7690
115.2307,104.7236
115.2200,104.6700
115.2200,104.3300
115.2307,104.2764
115.2610,104.2310
115.3064,104.2007
115.3600,104.1900
115.6400,104.1900
115.6936,104.2007
115.7390,104.2310
115.7693,104.2764
115.7800,104.3300
Z" /> 
<path style="fill:#000000; fill-opacity:1.0000; stroke:none;fill-rule:evenodd;"
d="M 168.1600,84.0800
168.1707,84.0264
168.2010,83.9810
168.2464,83.9507
168.3000,83.9400
168.5800,83.9400
168.6336,83.9507
168.6790,83.9810
168.7093,84.0264
168.7200,84.0800
168.7200,84.4200
168.7093,84.4736
168.6790,84.5190
168.6336,84.5493
168.5800,84.5600
168.3000,84.5600
168.2464,84.5493
168.2010,84.5190
168.1707,84.4736
168.1600,84.4200
Z" /> 
<path style="fill:#000000; fill-opacity:1.0000; stroke:none;fill-rule:evenodd;"
d="M 169.1200,84.0800
169.1307,84.0264
169.1610,83.9810
169.2064,83.9507
169.2600,83.9400
169.5400,83.9400
169.5936,83.9507
169.6390,83.9810
169.6693,84.0264
169.6800,84.0800
169.6800,84.4200
169.6693,84.4736
169.6390,84.5190
169.5936,84.5493
169.5400,84.5600
169.2600,84.5600
169.2064,84.5493
169.1610,84.5190
169.1307,84.4736
169.1200,84.4200
Z" /> 
<path style="fill:#000000; fill-opacity:1.0000; stroke:none;fill-rule:evenodd;"
d="M 150.2500,96.7250
150.1639,96.7079
150.0909,96.6591
150.0421,96.5861
150.0250,96.5000
150.0250,96.0500
150.0421,95.9639
150.0909,95.8909
150.1639,95.8421
150.2500,95.8250
150.7500,95.8250
150.8361,95.8421
150.9091,95.8909
150.9579,95.9639
150.9750,96.0500
150.9750,96.5000
150.9579,96.5861
150.9091,96.6591
150.8361,96.7079
150.7500,96.7250
Z" /> 
<path style="fill:#000000; fill-opacity:1.0000; stroke:none;fill-rule:evenodd;"
d="M 150.2500,95.1750
150.1639,95.1579
150.0909,95.1091
150.0421,95.0361
150.0250,94.9500
150.0250,94.5000
150.0421,94.4139
150.0909,94.3409
150.1639,94.2921
150.2500,94.2750
150.7500,94.2750
150.8361,94.2921
150.9091,94.3409
150.9579,94.4139
150.9750,94.5000
150.9750,94.9500
150.9579,95.0361
150.9091,95.1091
150.8361,95.1579
150.7500,95.1750
Z" /> 
<path style="fill:#000000; fill-opacity:1.0000; stroke:none;fill-rule:evenodd;"
d="M 110.5875,80.2250
110.5685,80.3207
110.5143,80.4018
110.4332,80.4560
110.3375,80.4750
109.6625,80.4750
109.5668,80.4560
109.4857,80.4018
109.4315,80.3207
109.4125,80.2250
109.4125,79.2750
109.4315,79.1793
109.4857,79.0982
109.5668,79.0440
109.6625,79.0250
110.3375,79.0250
110.4332,79.0440
110.5143,79.0982
110.5685,79.1793
110.5875,79.2750
Z" /> 
<path style="fill:#000000; fill-opacity:1.0000; stroke:none;fill-rule:evenodd;"
d="M 108.5125,80.2250
108.4935,80.3207
108.4393,80.4018
108.3582,80.4560
108.2625,80.4750
107.5875,80.4750
107.4918,80.4560
107.4107,80.4018
107.3565,80.3207
107.3375,80.2250
107.3375,79.2750
107.3565,79.1793
107.4107,79.0982
107.4918,79.0440
107.5875,79.0250
108.2625,79.0250
108.3582,79.0440
108.4393,79.0982
108.4935,79.1793
108.5125,79.2750
Z" /> 
<path style="fill:#000000; fill-opacity:1.0000; stroke:none;fill-rule:evenodd;"
d="M 156.0650,83.0200
156.0133,83.0097
155.9695,82.9805
155.9403,82.9367
155.9300,82.8850
155.9300,82.6150
155.9403,82.5633
155.9695,82.5195
156.0133,82.4903
156.0650,82.4800
156.4350,82.4800
156.4867,82.4903
156.5305,82.5195
156.5597,82.5633
156.5700,82.6150
156.5700,82.8850
156.5597,82.9367
156.5305,82.9805
156.4867,83.0097
156.4350,83.0200
Z" /> 
<path style="fill:#000000; fill-opacity:1.0000; stroke:none;fill-rule:evenodd;"
d="M 156.0650,82.0000
156.0133,81.9897
155.9695,81.9605
155.9403,81.9167
155.9300,81.8650
155.9300,81.5950
155.9403,81.5433
155.9695,81.4995
156.0133,81.4703
156.0650,81.4600
156.4350,81.4600
156.4867,81.4703
156.5305,81.4995
156.5597,81.5433
156.5700,81.5950
156.5700,81.8650
156.5597,81.9167
156.5305,81.9605
156.4867,81.9897
156.4350,82.0000
Z" /> 
<path style="fill:#000000; fill-opacity:1.0000; stroke:none;fill-rule:evenodd;"
d="M 131.5500,85.8500
131.4543,85.8310
131.3732,85.7768
131.3190,85.6957
131.3000,85.6000
131.3000,84.9000
131.3190,84.8043
131.3732,84.7232
131.4543,84.6690
131.5500,84.6500
132.4500,84.6500
132.5457,84.6690
132.6268,84.7232
132.6810,84.8043
132.7000,84.9000
132.7000,85.6000
132.6810,85.6957
132.6268,85.7768
132.5457,85.8310
132.4500,85.8500
Z" /> 
<path style="fill:#000000; fill-opacity:1.0000; stroke:none;fill-rule:evenodd;"
d="M 131.5500,83.8500
131.4543,83.8310
131.3732,83.7768
131.3190,83.6957
131.3000,83.6000
131.3000,82.9000
131.3190,82.8043
131.3732,82.7232
131.4543,82.6690
131.5500,82.6500
132.4500,82.6500
132.5457,82.6690
132.6268,82.7232
132.6810,82.8043
132.7000,82.9000
132.7000,83.6000
132.6810,83.6957
132.6268,83.7768
132.5457,83.8310
132.4500,83.8500
Z" /> 
<path style="fill:#000000; fill-opacity:1.0000; stroke:none;fill-rule:evenodd;"
d="M 140.5500,132.6000
140.4543,132.5810
140.3732,132.5268
140.3190,132.4457
140.3000,132.3500
140.3000,131.6500
140.3190,131.5543
140.3732,131.4732
140.4543,131.4190
140.5500,131.4000
141.4500,131.4000
141.5457,131.4190
141.6268,131.4732
141.6810,131.5543
141.7000,131.6500
141.7000,132.3500
141.6810,132.4457
141.6268,132.5268
141.5457,132.5810
141.4500,132.6000
Z" /> 
<path style="fill:#000000; fill-opacity:1.0000; stroke:none;fill-rule:evenodd;"
d="M 140.5500,130.6000
140.4543,130.5810
140.3732,130.5268
140.3190,130.4457
140.3000,130.3500
140.3000,129.6500
140.3190,129.5543
140.3732,129.4732
140.4543,129.4190
140.5500,129.4000
141.4500,129.4000
141.5457,129.4190
141.6268,129.4732
141.6810,129.5543
141.7000,129.6500
141.7000,130.3500
141.6810,130.4457
141.6268,130.5268
141.5457,130.5810
141.4500,130.6000
Z" /> 
<path style="fill:#000000; fill-opacity:1.0000; stroke:none;fill-rule:evenodd;"
d="M 182.2000,122.8500
181.0000,122.8500
181.0000,122.2500
182.2000,122.2500
Z" /> 
<path style="fill:#000000; fill-opacity:1.0000; stroke:none;fill-rule:evenodd;"
d="M 182.2000,123.8000
181.0000,123.8000
181.0000,123.2000
182.2000,123.2000
Z" /> 
<path style="fill:#000000; fill-opacity:1.0000; stroke:none;fill-rule:evenodd;"
d="M 182.2000,124.7500
181.0000,124.7500
181.0000,124.1500
182.2000,124.1500
Z" /> 
<path style="fill:#000000; fill-opacity:1.0000; stroke:none;fill-rule:evenodd;"
d="M 184.5000,124.7500
183.3000,124.7500
183.3000,124.1500
184.5000,124.1500
Z" /> 
<path style="fill:#000000; fill-opacity:1.0000; stroke:none;fill-rule:evenodd;"
d="M 184.5000,122.8500
183.3000,122.8500
183.3000,122.2500
184.5000,122.2500
Z" /> 
<path style="fill:#000000; fill-opacity:1.0000; stroke:none;fill-rule:evenodd;"
d="M 176.2500,124.1500
178.7500,124.1500
178.7500,125.6500
176.2500,125.6500
Z" /> 
<path style="fill:#000000; fill-opacity:1.0000; stroke:none;fill-rule:evenodd;"
d="M 176.2500,127.8500
178.7500,127.8500
178.7500,129.3500
176.2500,129.3500
Z" /> 
<path style="fill:#000000; fill-opacity:1.0000; stroke:none;fill-rule:evenodd;"
d="M 110.6000,136.7000
110.5810,136.7957
110.5268,136.8768
110.4457,136.9310
110.3500,136.9500
109.6500,136.9500
109.5543,136.9310
109.4732,136.8768
109.4190,136.7957
109.4000,136.7000
109.4000,135.8000
109.4190,135.7043
109.4732,135.6232
109.5543,135.5690
109.6500,135.5500
110.3500,135.5500
110.4457,135.5690
110.5268,135.6232
110.5810,135.7043
110.6000,135.8000
Z" /> 
<path style="fill:#000000; fill-opacity:1.0000; stroke:none;fill-rule:evenodd;"
d="M 108.6000,136.7000
108.5810,136.7957
108.5268,136.8768
108.4457,136.9310
108.3500,136.9500
107.6500,136.9500
107.5543,136.9310
107.4732,136.8768
107.4190,136.7957
107.4000,136.7000
107.4000,135.8000
107.4190,135.7043
107.4732,135.6232
107.5543,135.5690
107.6500,135.5500
108.3500,135.5500
108.4457,135.5690
108.5268,135.6232
108.5810,135.7043
108.6000,135.8000
Z" /> 
<path style="fill:#000000; fill-opacity:1.0000; stroke:none;fill-rule:evenodd;"
d="M 153.2000,103.1500
153.2957,103.1690
153.3768,103.2232
153.4310,103.3043
153.4500,103.4000
153.4500,104.1000
153.4310,104.1957
153.3768,104.2768
153.2957,104.3310
153.2000,104.3500
152.3000,104.3500
152.2043,104.3310
152.1232,104.2768
152.0690,104.1957
152.0500,104.1000
152.0500,103.4000
152.0690,103.3043
152.1232,103.2232
152.2043,103.1690
152.3000,103.1500
Z" /> 
<path style="fill:#000000; fill-opacity:1.0000; stroke:none;fill-rule:evenodd;"
d="M 153.2000,105.1500
153.2957,105.1690
153.3768,105.2232
153.4310,105.3043
153.4500,105.4000
153.4500,106.1000
153.4310,106.1957
153.3768,106.2768
153.2957,106.3310
153.2000,106.3500
152.3000,106.3500
152.2043,106.3310
152.1232,106.2768
152.0690,106.1957
152.0500,106.1000
152.0500,105.4000
152.0690,105.3043
152.1232,105.2232
152.2043,105.1690
152.3000,105.1500
Z" /> 
<path style="fill:#000000; fill-opacity:1.0000; stroke:none;fill-rule:evenodd;"
d="M 177.7250,79.4500
177.7250,80.0500
177.1750,80.0500
177.1750,79.4500
Z" /> 
<path style="fill:#000000; fill-opacity:1.0000; stroke:none;fill-rule:evenodd;"
d="M 176.8750,79.4500
176.8750,80.0500
176.3250,80.0500
176.3250,79.4500
Z" /> 
<path style="fill:#000000; fill-opacity:1.0000; stroke:none;fill-rule:evenodd;"
d="M 174.2750,80.0500
174.2750,79.4500
174.8250,79.4500
174.8250,80.0500
Z" /> 
<path style="fill:#000000; fill-opacity:1.0000; stroke:none;fill-rule:evenodd;"
d="M 175.1250,80.0500
175.1250,79.4500
175.6750,79.4500
175.6750,80.0500
Z" /> 
<path style="fill:#000000; fill-opacity:1.0000; stroke:none;fill-rule:evenodd;"
d="M 156.0200,132.1850
156.0097,132.2367
155.9805,132.2805
155.9367,132.3097
155.8850,132.3200
155.6150,132.3200
155.5633,132.3097
155.5195,132.2805
155.4903,132.2367
155.4800,132.1850
155.4800,131.8150
155.4903,131.7633
155.5195,131.7195
155.5633,131.6903
155.6150,131.6800
155.8850,131.6800
155.9367,131.6903
155.9805,131.7195
156.0097,131.7633
156.0200,131.8150
Z" /> 
<path style="fill:#000000; fill-opacity:1.0000; stroke:none;fill-rule:evenodd;"
d="M 155.0000,132.1850
154.9897,132.2367
154.9605,132.2805
154.9167,132.3097
154.8650,132.3200
154.5950,132.3200
154.5433,132.3097
154.4995,132.2805
154.4703,132.2367
154.4600,132.1850
154.4600,131.8150
154.4703,131.7633
154.4995,131.7195
154.5433,131.6903
154.5950,131.6800
154.8650,131.6800
154.9167,131.6903
154.9605,131.7195
154.9897,131.7633
155.0000,131.8150
Z" /> 
<path style="fill:#000000; fill-opacity:1.0000; stroke:none;fill-rule:evenodd;"
d="M 124.9000,97.5500
124.9190,97.4543
124.9732,97.3732
125.0543,97.3190
125.1500,97.3000
125.8500,97.3000
125.9457,97.3190
126.0268,97.3732
126.0810,97.4543
126.1000,97.5500
126.1000,98.4500
126.0810,98.5457
126.0268,98.6268
125.9457,98.6810
125.8500,98.7000
125.1500,98.7000
125.0543,98.6810
124.9732,98.6268
124.9190,98.5457
124.9000,98.4500
Z" /> 
<path style="fill:#000000; fill-opacity:1.0000; stroke:none;fill-rule:evenodd;"
d="M 126.9000,97.5500
126.9190,97.4543
126.9732,97.3732
127.0543,97.3190
127.1500,97.3000
127.8500,97.3000
127.9457,97.3190
128.0268,97.3732
128.0810,97.4543
128.1000,97.5500
128.1000,98.4500
128.0810,98.5457
128.0268,98.6268
127.9457,98.6810
127.8500,98.7000
127.1500,98.7000
127.0543,98.6810
126.9732,98.6268
126.9190,98.5457
126.9000,98.4500
Z" /> 
<path style="fill:#000000; fill-opacity:1.0000; stroke:none;fill-rule:evenodd;"
d="M 172.5300,88.6850
172.5197,88.7367
172.4905,88.7805
172.4467,88.8097
172.3950,88.8200
172.1250,88.8200
172.0733,88.8097
172.0295,88.7805
172.0003,88.7367
171.9900,88.6850
171.9900,88.3150
172.0003,88.2633
172.0295,88.2195
172.0733,88.1903
172.1250,88.1800
172.3950,88.1800
172.4467,88.1903
172.4905,88.2195
172.5197,88.2633
172.5300,88.3150
Z" /> 
<path style="fill:#000000; fill-opacity:1.0000; stroke:none;fill-rule:evenodd;"
d="M 171.5100,88.6850
171.4997,88.7367
171.4705,88.7805
171.4267,88.8097
171.3750,88.8200
171.1050,88.8200
171.0533,88.8097
171.0095,88.7805
170.9803,88.7367
170.9700,88.6850
170.9700,88.3150
170.9803,88.2633
171.0095,88.2195
171.0533,88.1903
171.1050,88.1800
171.3750,88.1800
171.4267,88.1903
171.4705,88.2195
171.4997,88.2633
171.5100,88.3150
Z" /> 
<path style="fill:#000000; fill-opacity:1.0000; stroke:none;fill-rule:evenodd;"
d="M 143.0250,132.6625
142.9293,132.6435
142.8482,132.5893
142.7940,132.5082
142.7750,132.4125
142.7750,131.7375
142.7940,131.6418
142.8482,131.5607
142.9293,131.5065
143.0250,131.4875
143.9750,131.4875
144.0707,131.5065
144.1518,131.5607
144.2060,131.6418
144.2250,131.7375
144.2250,132.4125
144.2060,132.5082
144.1518,132.5893
144.0707,132.6435
143.9750,132.6625
Z" /> 
<path style="fill:#000000; fill-opacity:1.0000; stroke:none;fill-rule:evenodd;"
d="M 143.0250,130.5875
142.9293,130.5685
142.8482,130.5143
142.7940,130.4332
142.7750,130.3375
142.7750,129.6625
142.7940,129.5668
142.8482,129.4857
142.9293,129.4315
143.0250,129.4125
143.9750,129.4125
144.0707,129.4315
144.1518,129.4857
144.2060,129.5668
144.2250,129.6625
144.2250,130.3375
144.2060,130.4332
144.1518,130.5143
144.0707,130.5685
143.9750,130.5875
Z" /> 
<path style="fill:#000000; fill-opacity:1.0000; stroke:none;fill-rule:evenodd;"
d="M 145.0500,85.8500
144.9543,85.8310
144.8732,85.7768
144.8190,85.6957
144.8000,85.6000
144.8000,84.9000
144.8190,84.8043
144.8732,84.7232
144.9543,84.6690
145.0500,84.6500
145.9500,84.6500
146.0457,84.6690
146.1268,84.7232
146.1810,84.8043
146.2000,84.9000
146.2000,85.6000
146.1810,85.6957
146.1268,85.7768
146.0457,85.8310
145.9500,85.8500
Z" /> 
<path style="fill:#000000; fill-opacity:1.0000; stroke:none;fill-rule:evenodd;"
d="M 145.0500,83.8500
144.9543,83.8310
144.8732,83.7768
144.8190,83.6957
144.8000,83.6000
144.8000,82.9000
144.8190,82.8043
144.8732,82.7232
144.9543,82.6690
145.0500,82.6500
145.9500,82.6500
146.0457,82.6690
146.1268,82.7232
146.1810,82.8043
146.2000,82.9000
146.2000,83.6000
146.1810,83.6957
146.1268,83.7768
146.0457,83.8310
145.9500,83.8500
Z" /> 
<path style="fill:#000000; fill-opacity:1.0000; stroke:none;fill-rule:evenodd;"
d="M 127.1700,130.2600
127.2236,130.2707
127.2690,130.3010
127.2993,130.3464
127.3100,130.4000
127.3100,130.6800
127.2993,130.7336
127.2690,130.7790
127.2236,130.8093
127.1700,130.8200
126.8300,130.8200
126.7764,130.8093
126.7310,130.7790
126.7007,130.7336
126.6900,130.6800
126.6900,130.4000
126.7007,130.3464
126.7310,130.3010
126.7764,130.2707
126.8300,130.2600
Z" /> 
<path style="fill:#000000; fill-opacity:1.0000; stroke:none;fill-rule:evenodd;"
d="M 127.1700,131.2200
127.2236,131.2307
127.2690,131.2610
127.2993,131.3064
127.3100,131.3600
127.3100,131.6400
127.2993,131.6936
127.2690,131.7390
127.2236,131.7693
127.1700,131.7800
126.8300,131.7800
126.7764,131.7693
126.7310,131.7390
126.7007,131.6936
126.6900,131.6400
126.6900,131.3600
126.7007,131.3064
126.7310,131.2610
126.7764,131.2307
126.8300,131.2200
Z" /> 
<path style="fill:#000000; fill-opacity:1.0000; stroke:none;fill-rule:evenodd;"
d="M 113.2200,81.8150
113.2303,81.7633
113.2595,81.7195
113.3033,81.6903
113.3550,81.6800
113.6250,81.6800
113.6767,81.6903
113.7205,81.7195
113.7497,81.7633
113.7600,81.8150
113.7600,82.1850
113.7497,82.2367
113.7205,82.2805
113.6767,82.3097
113.6250,82.3200
113.3550,82.3200
113.3033,82.3097
113.2595,82.2805
113.2303,82.2367
113.2200,82.1850
Z" /> 
<path style="fill:#000000; fill-opacity:1.0000; stroke:none;fill-rule:evenodd;"
d="M 114.2400,81.8150
114.2503,81.7633
114.2795,81.7195
114.3233,81.6903
114.3750,81.6800
114.6450,81.6800
114.6967,81.6903
114.7405,81.7195
114.7697,81.7633
114.7800,81.8150
114.7800,82.1850
114.7697,82.2367
114.7405,82.2805
114.6967,82.3097
114.6450,82.3200
114.3750,82.3200
114.3233,82.3097
114.2795,82.2805
114.2503,82.2367
114.2400,82.1850
Z" /> 
<path style="fill:#000000; fill-opacity:1.0000; stroke:none;fill-rule:evenodd;"
d="M 125.7800,130.1850
125.7697,130.2367
125.7405,130.2805
125.6967,130.3097
125.6450,130.3200
125.3750,130.3200
125.3233,130.3097
125.2795,130.2805
125.2503,130.2367
125.2400,130.1850
125.2400,129.8150
125.2503,129.7633
125.2795,129.7195
125.3233,129.6903
125.3750,129.6800
125.6450,129.6800
125.6967,129.6903
125.7405,129.7195
125.7697,129.7633
125.7800,129.8150
Z" /> 
<path style="fill:#000000; fill-opacity:1.0000; stroke:none;fill-rule:evenodd;"
d="M 124.7600,130.1850
124.7497,130.2367
124.7205,130.2805
124.6767,130.3097
124.6250,130.3200
124.3550,130.3200
124.3033,130.3097
124.2595,130.2805
124.2303,130.2367
124.2200,130.1850
124.2200,129.8150
124.2303,129.7633
124.2595,129.7195
124.3033,129.6903
124.3550,129.6800
124.6250,129.6800
124.6767,129.6903
124.7205,129.7195
124.7497,129.7633
124.7600,129.8150
Z" /> 
<path style="fill:#000000; fill-opacity:1.0000; stroke:none;fill-rule:evenodd;"
d="M 108.9800,131.5650
108.9903,131.5133
109.0195,131.4695
109.0633,131.4403
109.1150,131.4300
109.3850,131.4300
109.4367,131.4403
109.4805,131.4695
109.5097,131.5133
109.5200,131.5650
109.5200,131.9350
109.5097,131.9867
109.4805,132.0305
109.4367,132.0597
109.3850,132.0700
109.1150,132.0700
109.0633,132.0597
109.0195,132.0305
108.9903,131.9867
108.9800,131.9350
Z" /> 
<path style="fill:#000000; fill-opacity:1.0000; stroke:none;fill-rule:evenodd;"
d="M 110.0000,131.5650
110.0103,131.5133
110.0395,131.4695
110.0833,131.4403
110.1350,131.4300
110.4050,131.4300
110.4567,131.4403
110.5005,131.4695
110.5297,131.5133
110.5400,131.5650
110.5400,131.9350
110.5297,131.9867
110.5005,132.0305
110.4567,132.0597
110.4050,132.0700
110.1350,132.0700
110.0833,132.0597
110.0395,132.0305
110.0103,131.9867
110.0000,131.9350
Z" /> 
<path style="fill:#000000; fill-opacity:1.0000; stroke:none;fill-rule:evenodd;"
d="M 189.2100,133.7313
189.2203,133.6797
189.2495,133.6359
189.2933,133.6066
189.3450,133.5963
189.6150,133.5963
189.6667,133.6066
189.7105,133.6359
189.7397,133.6797
189.7500,133.7313
189.7500,134.1013
189.7397,134.1530
189.7105,134.1968
189.6667,134.2261
189.6150,134.2363
189.3450,134.2363
189.2933,134.2261
189.2495,134.1968
189.2203,134.1530
189.2100,134.1013
Z" /> 
<path style="fill:#000000; fill-opacity:1.0000; stroke:none;fill-rule:evenodd;"
d="M 190.2300,133.7313
190.2403,133.6797
190.2695,133.6359
190.3133,133.6066
190.3650,133.5963
190.6350,133.5963
190.6867,133.6066
190.7305,133.6359
190.7597,133.6797
190.7700,133.7313
190.7700,134.1013
190.7597,134.1530
190.7305,134.1968
190.6867,134.2261
190.6350,134.2363
190.3650,134.2363
190.3133,134.2261
190.2695,134.1968
190.2403,134.1530
190.2300,134.1013
Z" /> 
<path style="fill:#000000; fill-opacity:1.0000; stroke:none;fill-rule:evenodd;"
d="M 184.7700,121.1850
184.7597,121.2367
184.7305,121.2805
184.6867,121.3097
184.6350,121.3200
184.3650,121.3200
184.3133,121.3097
184.2695,121.2805
184.2403,121.2367
184.2300,121.1850
184.2300,120.8150
184.2403,120.7633
184.2695,120.7195
184.3133,120.6903
184.3650,120.6800
184.6350,120.6800
184.6867,120.6903
184.7305,120.7195
184.7597,120.7633
184.7700,120.8150
Z" /> 
<path style="fill:#000000; fill-opacity:1.0000; stroke:none;fill-rule:evenodd;"
d="M 183.7500,121.1850
183.7397,121.2367
183.7105,121.2805
183.6667,121.3097
183.6150,121.3200
183.3450,121.3200
183.2933,121.3097
183.2495,121.2805
183.2203,121.2367
183.2100,121.1850
183.2100,120.8150
183.2203,120.7633
183.2495,120.7195
183.2933,120.6903
183.3450,120.6800
183.6150,120.6800
183.6667,120.6903
183.7105,120.7195
183.7397,120.7633
183.7500,120.8150
Z" /> 
<path style="fill:#000000; fill-opacity:1.0000; stroke:none;fill-rule:evenodd;"
d="M 194.2000,124.1000
195.2000,124.1000
195.2000,124.8000
194.2000,124.8000
Z" /> 
<path style="fill:#000000; fill-opacity:1.0000; stroke:none;fill-rule:evenodd;"
d="M 194.2000,123.1500
195.2000,123.1500
195.2000,123.8500
194.2000,123.8500
Z" /> 
<path style="fill:#000000; fill-opacity:1.0000; stroke:none;fill-rule:evenodd;"
d="M 194.2000,122.2000
195.2000,122.2000
195.2000,122.9000
194.2000,122.9000
Z" /> 
<path style="fill:#000000; fill-opacity:1.0000; stroke:none;fill-rule:evenodd;"
d="M 191.8000,122.2000
192.8000,122.2000
192.8000,122.9000
191.8000,122.9000
Z" /> 
<path style="fill:#000000; fill-opacity:1.0000; stroke:none;fill-rule:evenodd;"
d="M 191.8000,124.1000
192.8000,124.1000
192.8000,124.8000
191.8000,124.8000
Z" /> 
<path style="fill:#000000; fill-opacity:1.0000; stroke:none;fill-rule:evenodd;"
d="M 197.3750,138.7750
197.3940,138.6793
197.4482,138.5982
197.5293,138.5440
197.6250,138.5250
198.3000,138.5250
198.3957,138.5440
198.4768,138.5982
198.5310,138.6793
198.5500,138.7750
198.5500,139.7250
198.5310,139.8207
198.4768,139.9018
198.3957,139.9560
198.3000,139.9750
197.6250,139.9750
197.5293,139.9560
197.4482,139.9018
197.3940,139.8207
197.3750,139.7250
Z" /> 
<path style="fill:#000000; fill-opacity:1.0000; stroke:none;fill-rule:evenodd;"
d="M 199.4500,138.7750
199.4690,138.6793
199.5232,138.5982
199.6043,138.5440
199.7000,138.5250
200.3750,138.5250
200.4707,138.5440
200.5518,138.5982
200.6060,138.6793
200.6250,138.7750
200.6250,139.7250
200.6060,139.8207
200.5518,139.9018
200.4707,139.9560
200.3750,139.9750
199.7000,139.9750
199.6043,139.9560
199.5232,139.9018
199.4690,139.8207
199.4500,139.7250
Z" /> 
<path style="fill:#000000; fill-opacity:1.0000; stroke:none;fill-rule:evenodd;"
d="M 160.6000,83.2000
160.5810,83.2957
160.5268,83.3768
160.4457,83.4310
160.3500,83.4500
159.6500,83.4500
159.5543,83.4310
159.4732,83.3768
159.4190,83.2957
159.4000,83.2000
159.4000,82.3000
159.4190,82.2043
159.4732,82.1232
159.5543,82.0690
159.6500,82.0500
160.3500,82.0500
160.4457,82.0690
160.5268,82.1232
160.5810,82.2043
160.6000,82.3000
Z" /> 
<path style="fill:#000000; fill-opacity:1.0000; stroke:none;fill-rule:evenodd;"
d="M 158.6000,83.2000
158.5810,83.2957
158.5268,83.3768
158.4457,83.4310
158.3500,83.4500
157.6500,83.4500
157.5543,83.4310
157.4732,83.3768
157.4190,83.2957
157.4000,83.2000
157.4000,82.3000
157.4190,82.2043
157.4732,82.1232
157.5543,82.0690
157.6500,82.0500
158.3500,82.0500
158.4457,82.0690
158.5268,82.1232
158.5810,82.2043
158.6000,82.3000
Z" /> 
<path style="fill:#000000; fill-opacity:1.0000; stroke:none;fill-rule:evenodd;"
d="M 168.5500,119.1000
168.4543,119.0810
168.3732,119.0268
168.3190,118.9457
168.3000,118.8500
168.3000,118.1500
168.3190,118.0543
168.3732,117.9732
168.4543,117.9190
168.5500,117.9000
169.4500,117.9000
169.5457,117.9190
169.6268,117.9732
169.6810,118.0543
169.7000,118.1500
169.7000,118.8500
169.6810,118.9457
169.6268,119.0268
169.5457,119.0810
169.4500,119.1000
Z" /> 
<path style="fill:#000000; fill-opacity:1.0000; stroke:none;fill-rule:evenodd;"
d="M 168.5500,117.1000
168.4543,117.0810
168.3732,117.0268
168.3190,116.9457
168.3000,116.8500
168.3000,116.1500
168.3190,116.0543
168.3732,115.9732
168.4543,115.9190
168.5500,115.9000
169.4500,115.9000
169.5457,115.9190
169.6268,115.9732
169.6810,116.0543
169.7000,116.1500
169.7000,116.8500
169.6810,116.9457
169.6268,117.0268
169.5457,117.0810
169.4500,117.1000
Z" /> 
<path style="fill:#000000; fill-opacity:1.0000; stroke:none;fill-rule:evenodd;"
d="M 160.6000,95.7000
160.5810,95.7957
160.5268,95.8768
160.4457,95.9310
160.3500,95.9500
159.6500,95.9500
159.5543,95.9310
159.4732,95.8768
159.4190,95.7957
159.4000,95.7000
159.4000,94.8000
159.4190,94.7043
159.4732,94.6232
159.5543,94.5690
159.6500,94.5500
160.3500,94.5500
160.4457,94.5690
160.5268,94.6232
160.5810,94.7043
160.6000,94.8000
Z" /> 
<path style="fill:#000000; fill-opacity:1.0000; stroke:none;fill-rule:evenodd;"
d="M 158.6000,95.7000
158.5810,95.7957
158.5268,95.8768
158.4457,95.9310
158.3500,95.9500
157.6500,95.9500
157.5543,95.9310
157.4732,95.8768
157.4190,95.7957
157.4000,95.7000
157.4000,94.8000
157.4190,94.7043
157.4732,94.6232
157.5543,94.5690
157.6500,94.5500
158.3500,94.5500
158.4457,94.5690
158.5268,94.6232
158.5810,94.7043
158.6000,94.8000
Z" /> 
<path style="fill:#000000; fill-opacity:1.0000; stroke:none;fill-rule:evenodd;"
d="M 125.7800,131.6850
125.7697,131.7367
125.7405,131.7805
125.6967,131.8097
125.6450,131.8200
125.3750,131.8200
125.3233,131.8097
125.2795,131.7805
125.2503,131.7367
125.2400,131.6850
125.2400,131.3150
125.2503,131.2633
125.2795,131.2195
125.3233,131.1903
125.3750,131.1800
125.6450,131.1800
125.6967,131.1903
125.7405,131.2195
125.7697,131.2633
125.7800,131.3150
Z" /> 
<path style="fill:#000000; fill-opacity:1.0000; stroke:none;fill-rule:evenodd;"
d="M 124.7600,131.6850
124.7497,131.7367
124.7205,131.7805
124.6767,131.8097
124.6250,131.8200
124.3550,131.8200
124.3033,131.8097
124.2595,131.7805
124.2303,131.7367
124.2200,131.6850
124.2200,131.3150
124.2303,131.2633
124.2595,131.2195
124.3033,131.1903
124.3550,131.1800
124.6250,131.1800
124.6767,131.1903
124.7205,131.2195
124.7497,131.2633
124.7600,131.3150
Z" /> 
<path style="fill:#000000; fill-opacity:1.0000; stroke:none;fill-rule:evenodd;"
d="M 136.0500,85.8500
135.9543,85.8310
135.8732,85.7768
135.8190,85.6957
135.8000,85.6000
135.8000,84.9000
135.8190,84.8043
135.8732,84.7232
135.9543,84.6690
136.0500,84.6500
136.9500,84.6500
137.0457,84.6690
137.1268,84.7232
137.1810,84.8043
137.2000,84.9000
137.2000,85.6000
137.1810,85.6957
137.1268,85.7768
137.0457,85.8310
136.9500,85.8500
Z" /> 
<path style="fill:#000000; fill-opacity:1.0000; stroke:none;fill-rule:evenodd;"
d="M 136.0500,83.8500
135.9543,83.8310
135.8732,83.7768
135.8190,83.6957
135.8000,83.6000
135.8000,82.9000
135.8190,82.8043
135.8732,82.7232
135.9543,82.6690
136.0500,82.6500
136.9500,82.6500
137.0457,82.6690
137.1268,82.7232
137.1810,82.8043
137.2000,82.9000
137.2000,83.6000
137.1810,83.6957
137.1268,83.7768
137.0457,83.8310
136.9500,83.8500
Z" /> 
<path style="fill:#000000; fill-opacity:1.0000; stroke:none;fill-rule:evenodd;"
d="M 149.1900,97.6700
149.1793,97.7236
149.1490,97.7690
149.1036,97.7993
149.0500,97.8100
148.7700,97.8100
148.7164,97.7993
148.6710,97.7690
148.6407,97.7236
148.6300,97.6700
148.6300,97.3300
148.6407,97.2764
148.6710,97.2310
148.7164,97.2007
148.7700,97.1900
149.0500,97.1900
149.1036,97.2007
149.1490,97.2310
149.1793,97.2764
149.1900,97.3300
Z" /> 
<path style="fill:#000000; fill-opacity:1.0000; stroke:none;fill-rule:evenodd;"
d="M 148.2300,97.6700
148.2193,97.7236
148.1890,97.7690
148.1436,97.7993
148.0900,97.8100
147.8100,97.8100
147.7564,97.7993
147.7110,97.7690
147.6807,97.7236
147.6700,97.6700
147.6700,97.3300
147.6807,97.2764
147.7110,97.2310
147.7564,97.2007
147.8100,97.1900
148.0900,97.1900
148.1436,97.2007
148.1890,97.2310
148.2193,97.2764
148.2300,97.3300
Z" /> 
<path style="fill:#000000; fill-opacity:1.0000; stroke:none;fill-rule:evenodd;"
d="M 118.1000,109.7000
118.0810,109.7957
118.0268,109.8768
117.9457,109.9310
117.8500,109.9500
117.1500,109.9500
117.0543,109.9310
116.9732,109.8768
116.9190,109.7957
116.9000,109.7000
116.9000,108.8000
116.9190,108.7043
116.9732,108.6232
117.0543,108.5690
117.1500,108.5500
117.8500,108.5500
117.9457,108.5690
118.0268,108.6232
118.0810,108.7043
118.1000,108.8000
Z" /> 
<path style="fill:#000000; fill-opacity:1.0000; stroke:none;fill-rule:evenodd;"
d="M 116.1000,109.7000
116.0810,109.7957
116.0268,109.8768
115.9457,109.9310
115.8500,109.9500
115.1500,109.9500
115.0543,109.9310
114.9732,109.8768
114.9190,109.7957
114.9000,109.7000
114.9000,108.8000
114.9190,108.7043
114.9732,108.6232
115.0543,108.5690
115.1500,108.5500
115.8500,108.5500
115.9457,108.5690
116.0268,108.6232
116.0810,108.7043
116.1000,108.8000
Z" /> 
<path style="fill:#000000; fill-opacity:1.0000; stroke:none;fill-rule:evenodd;"
d="M 148.7700,98.6000
149.6700,98.6000
149.6700,100.1000
148.7700,100.1000
Z" /> 
<path style="fill:#000000; fill-opacity:1.0000; stroke:none;fill-rule:evenodd;"
d="M 147.5000,98.6000
148.4000,98.6000
148.4000,100.1000
147.5000,100.1000
Z" /> 
<path style="fill:#000000; fill-opacity:1.0000; stroke:none;fill-rule:evenodd;"
d="M 146.2300,98.6000
147.1300,98.6000
147.1300,100.1000
146.2300,100.1000
Z" /> 
<path style="fill:#000000; fill-opacity:1.0000; stroke:none;fill-rule:evenodd;"
d="M 144.9600,98.6000
145.8600,98.6000
145.8600,100.1000
144.9600,100.1000
Z" /> 
<path style="fill:#000000; fill-opacity:1.0000; stroke:none;fill-rule:evenodd;"
d="M 143.6900,98.6000
144.5900,98.6000
144.5900,100.1000
143.6900,100.1000
Z" /> 
<path style="fill:#000000; fill-opacity:1.0000; stroke:none;fill-rule:evenodd;"
d="M 142.4200,98.6000
143.3200,98.6000
143.3200,100.1000
142.4200,100.1000
Z" /> 
<path style="fill:#000000; fill-opacity:1.0000; stroke:none;fill-rule:evenodd;"
d="M 141.1500,98.6000
142.0500,98.6000
142.0500,100.1000
141.1500,100.1000
Z" /> 
<path style="fill:#000000; fill-opacity:1.0000; stroke:none;fill-rule:evenodd;"
d="M 139.8800,98.6000
140.7800,98.6000
140.7800,100.1000
139.8800,100.1000
Z" /> 
<path style="fill:#000000; fill-opacity:1.0000; stroke:none;fill-rule:evenodd;"
d="M 138.6100,98.6000
139.5100,98.6000
139.5100,100.1000
138.6100,100.1000
Z" /> 
<path style="fill:#000000; fill-opacity:1.0000; stroke:none;fill-rule:evenodd;"
d="M 137.3400,98.6000
138.2400,98.6000
138.2400,100.1000
137.3400,100.1000
Z" /> 
<path style="fill:#000000; fill-opacity:1.0000; stroke:none;fill-rule:evenodd;"
d="M 136.0700,98.6000
136.9700,98.6000
136.9700,100.1000
136.0700,100.1000
Z" /> 
<path style="fill:#000000; fill-opacity:1.0000; stroke:none;fill-rule:evenodd;"
d="M 134.8000,98.6000
135.7000,98.6000
135.7000,100.1000
134.8000,100.1000
Z" /> 
<path style="fill:#000000; fill-opacity:1.0000; stroke:none;fill-rule:evenodd;"
d="M 133.5300,98.6000
134.4300,98.6000
134.4300,100.1000
133.5300,100.1000
Z" /> 
<path style="fill:#000000; fill-opacity:1.0000; stroke:none;fill-rule:evenodd;"
d="M 132.2600,98.6000
133.1600,98.6000
133.1600,100.1000
132.2600,100.1000
Z" /> 
<path style="fill:#000000; fill-opacity:1.0000; stroke:none;fill-rule:evenodd;"
d="M 130.6900,101.5600
130.6900,100.6600
132.1900,100.6600
132.1900,101.5600
Z" /> 
<path style="fill:#000000; fill-opacity:1.0000; stroke:none;fill-rule:evenodd;"
d="M 130.6900,102.8300
130.6900,101.9300
132.1900,101.9300
132.1900,102.8300
Z" /> 
<path style="fill:#000000; fill-opacity:1.0000; stroke:none;fill-rule:evenodd;"
d="M 130.6900,104.1000
130.6900,103.2000
132.1900,103.2000
132.1900,104.1000
Z" /> 
<path style="fill:#000000; fill-opacity:1.0000; stroke:none;fill-rule:evenodd;"
d="M 130.6900,105.3700
130.6900,104.4700
132.1900,104.4700
132.1900,105.3700
Z" /> 
<path style="fill:#000000; fill-opacity:1.0000; stroke:none;fill-rule:evenodd;"
d="M 130.6900,106.6400
130.6900,105.7400
132.1900,105.7400
132.1900,106.6400
Z" /> 
<path style="fill:#000000; fill-opacity:1.0000; stroke:none;fill-rule:evenodd;"
d="M 130.6900,107.9200
130.6900,107.0200
132.1900,107.0200
132.1900,107.9200
Z" /> 
<path style="fill:#000000; fill-opacity:1.0000; stroke:none;fill-rule:evenodd;"
d="M 130.6900,109.1800
130.6900,108.2800
132.1900,108.2800
132.1900,109.1800
Z" /> 
<path style="fill:#000000; fill-opacity:1.0000; stroke:none;fill-rule:evenodd;"
d="M 130.6900,110.4500
130.6900,109.5500
132.1900,109.5500
132.1900,110.4500
Z" /> 
<path style="fill:#000000; fill-opacity:1.0000; stroke:none;fill-rule:evenodd;"
d="M 130.6900,111.7200
130.6900,110.8200
132.1900,110.8200
132.1900,111.7200
Z" /> 
<path style="fill:#000000; fill-opacity:1.0000; stroke:none;fill-rule:evenodd;"
d="M 130.6900,113.0000
130.6900,112.1000
132.1900,112.1000
132.1900,113.0000
Z" /> 
<path style="fill:#000000; fill-opacity:1.0000; stroke:none;fill-rule:evenodd;"
d="M 130.6900,114.2700
130.6900,113.3700
132.1900,113.3700
132.1900,114.2700
Z" /> 
<path style="fill:#000000; fill-opacity:1.0000; stroke:none;fill-rule:evenodd;"
d="M 130.7200,115.5400
130.7200,114.6400
132.2200,114.6400
132.2200,115.5400
Z" /> 
<path style="fill:#000000; fill-opacity:1.0000; stroke:none;fill-rule:evenodd;"
d="M 133.1600,117.6000
132.2600,117.6000
132.2600,116.1000
133.1600,116.1000
Z" /> 
<path style="fill:#000000; fill-opacity:1.0000; stroke:none;fill-rule:evenodd;"
d="M 134.4300,117.6000
133.5300,117.6000
133.5300,116.1000
134.4300,116.1000
Z" /> 
<path style="fill:#000000; fill-opacity:1.0000; stroke:none;fill-rule:evenodd;"
d="M 135.7000,117.6000
134.8000,117.6000
134.8000,116.1000
135.7000,116.1000
Z" /> 
<path style="fill:#000000; fill-opacity:1.0000; stroke:none;fill-rule:evenodd;"
d="M 136.9700,117.6000
136.0700,117.6000
136.0700,116.1000
136.9700,116.1000
Z" /> 
<path style="fill:#000000; fill-opacity:1.0000; stroke:none;fill-rule:evenodd;"
d="M 138.2400,117.6000
137.3400,117.6000
137.3400,116.1000
138.2400,116.1000
Z" /> 
<path style="fill:#000000; fill-opacity:1.0000; stroke:none;fill-rule:evenodd;"
d="M 139.5100,117.6000
138.6100,117.6000
138.6100,116.1000
139.5100,116.1000
Z" /> 
<path style="fill:#000000; fill-opacity:1.0000; stroke:none;fill-rule:evenodd;"
d="M 140.7800,117.6000
139.8800,117.6000
139.8800,116.1000
140.7800,116.1000
Z" /> 
<path style="fill:#000000; fill-opacity:1.0000; stroke:none;fill-rule:evenodd;"
d="M 142.0500,117.6000
141.1500,117.6000
141.1500,116.1000
142.0500,116.1000
Z" /> 
<path style="fill:#000000; fill-opacity:1.0000; stroke:none;fill-rule:evenodd;"
d="M 143.3200,117.6000
142.4200,117.6000
142.4200,116.1000
143.3200,116.1000
Z" /> 
<path style="fill:#000000; fill-opacity:1.0000; stroke:none;fill-rule:evenodd;"
d="M 144.5900,117.6000
143.6900,117.6000
143.6900,116.1000
144.5900,116.1000
Z" /> 
<path style="fill:#000000; fill-opacity:1.0000; stroke:none;fill-rule:evenodd;"
d="M 145.8600,117.6000
144.9600,117.6000
144.9600,116.1000
145.8600,116.1000
Z" /> 
<path style="fill:#000000; fill-opacity:1.0000; stroke:none;fill-rule:evenodd;"
d="M 147.1300,117.6000
146.2300,117.6000
146.2300,116.1000
147.1300,116.1000
Z" /> 
<path style="fill:#000000; fill-opacity:1.0000; stroke:none;fill-rule:evenodd;"
d="M 148.4000,117.6000
147.5000,117.6000
147.5000,116.1000
148.4000,116.1000
Z" /> 
<path style="fill:#000000; fill-opacity:1.0000; stroke:none;fill-rule:evenodd;"
d="M 149.6700,117.6000
148.7700,117.6000
148.7700,116.1000
149.6700,116.1000
Z" /> 
<path style="fill:#000000; fill-opacity:1.0000; stroke:none;fill-rule:evenodd;"
d="M 142.4500,105.6500
142.4500,104.7500
143.3500,104.7500
143.3500,105.6500
Z" /> 
<path style="fill:#000000; fill-opacity:1.0000; stroke:none;fill-rule:evenodd;"
d="M 141.0500,105.6500
141.0500,104.7500
141.9500,104.7500
141.9500,105.6500
Z" /> 
<path style="fill:#000000; fill-opacity:1.0000; stroke:none;fill-rule:evenodd;"
d="M 139.6500,105.6500
139.6500,104.7500
140.5500,104.7500
140.5500,105.6500
Z" /> 
<path style="fill:#000000; fill-opacity:1.0000; stroke:none;fill-rule:evenodd;"
d="M 142.4500,107.0500
142.4500,106.1500
143.3500,106.1500
143.3500,107.0500
Z" /> 
<path style="fill:#000000; fill-opacity:1.0000; stroke:none;fill-rule:evenodd;"
d="M 141.0500,107.0500
141.0500,106.1500
141.9500,106.1500
141.9500,107.0500
Z" /> 
<path style="fill:#000000; fill-opacity:1.0000; stroke:none;fill-rule:evenodd;"
d="M 139.6500,107.0500
139.6500,106.1500
140.5500,106.1500
140.5500,107.0500
Z" /> 
<path style="fill:#000000; fill-opacity:1.0000; stroke:none;fill-rule:evenodd;"
d="M 142.4500,108.4500
142.4500,107.5500
143.3500,107.5500
143.3500,108.4500
Z" /> 
<path style="fill:#000000; fill-opacity:1.0000; stroke:none;fill-rule:evenodd;"
d="M 141.0500,108.4500
141.0500,107.5500
141.9500,107.5500
141.9500,108.4500
Z" /> 
<path style="fill:#000000; fill-opacity:1.0000; stroke:none;fill-rule:evenodd;"
d="M 139.6500,108.4500
139.6500,107.5500
140.5500,107.5500
140.5500,108.4500
Z" /> 
<path style="fill:#000000; fill-opacity:1.0000; stroke:none;fill-rule:evenodd;"
d="M 149.8150,130.2700
149.7633,130.2597
149.7195,130.2305
149.6903,130.1867
149.6800,130.1350
149.6800,129.8650
149.6903,129.8133
149.7195,129.7695
149.7633,129.7403
149.8150,129.7300
150.1850,129.7300
150.2367,129.7403
150.2805,129.7695
150.3097,129.8133
150.3200,129.8650
150.3200,130.1350
150.3097,130.1867
150.2805,130.2305
150.2367,130.2597
150.1850,130.2700
Z" /> 
<path style="fill:#000000; fill-opacity:1.0000; stroke:none;fill-rule:evenodd;"
d="M 149.8150,129.2500
149.7633,129.2397
149.7195,129.2105
149.6903,129.1667
149.6800,129.1150
149.6800,128.8450
149.6903,128.7933
149.7195,128.7495
149.7633,128.7203
149.8150,128.7100
150.1850,128.7100
150.2367,128.7203
150.2805,128.7495
150.3097,128.7933
150.3200,128.8450
150.3200,129.1150
150.3097,129.1667
150.2805,129.2105
150.2367,129.2397
150.1850,129.2500
Z" /> 
<path style="fill:#000000; fill-opacity:1.0000; stroke:none;fill-rule:evenodd;"
d="M 190.3300,124.7600
190.2764,124.7493
190.2310,124.7190
190.2007,124.6736
190.1900,124.6200
190.1900,124.3400
190.2007,124.2864
190.2310,124.2410
190.2764,124.2107
190.3300,124.2000
190.6700,124.2000
190.7236,124.2107
190.7690,124.2410
190.7993,124.2864
190.8100,124.3400
190.8100,124.6200
190.7993,124.6736
190.7690,124.7190
190.7236,124.7493
190.6700,124.7600
Z" /> 
<path style="fill:#000000; fill-opacity:1.0000; stroke:none;fill-rule:evenodd;"
d="M 190.3300,123.8000
190.2764,123.7893
190.2310,123.7590
190.2007,123.7136
190.1900,123.6600
190.1900,123.3800
190.2007,123.3264
190.2310,123.2810
190.2764,123.2507
190.3300,123.2400
190.6700,123.2400
190.7236,123.2507
190.7690,123.2810
190.7993,123.3264
190.8100,123.3800
190.8100,123.6600
190.7993,123.7136
190.7690,123.7590
190.7236,123.7893
190.6700,123.8000
Z" /> 
<path style="fill:#000000; fill-opacity:1.0000; stroke:none;fill-rule:evenodd;"
d="M 114.9000,106.3000
114.9190,106.2043
114.9732,106.1232
115.0543,106.0690
115.1500,106.0500
115.8500,106.0500
115.9457,106.0690
116.0268,106.1232
116.0810,106.2043
116.1000,106.3000
116.1000,107.2000
116.0810,107.2957
116.0268,107.3768
115.9457,107.4310
115.8500,107.4500
115.1500,107.4500
115.0543,107.4310
114.9732,107.3768
114.9190,107.2957
114.9000,107.2000
Z" /> 
<path style="fill:#000000; fill-opacity:1.0000; stroke:none;fill-rule:evenodd;"
d="M 116.9000,106.3000
116.9190,106.2043
116.9732,106.1232
117.0543,106.0690
117.1500,106.0500
117.8500,106.0500
117.9457,106.0690
118.0268,106.1232
118.0810,106.2043
118.1000,106.3000
118.1000,107.2000
118.0810,107.2957
118.0268,107.3768
117.9457,107.4310
117.8500,107.4500
117.1500,107.4500
117.0543,107.4310
116.9732,107.3768
116.9190,107.2957
116.9000,107.2000
Z" /> 
<path style="fill:#000000; fill-opacity:1.0000; stroke:none;fill-rule:evenodd;"
d="M 171.4400,106.4200
171.4293,106.4736
171.3990,106.5190
171.3536,106.5493
171.3000,106.5600
171.0200,106.5600
170.9664,106.5493
170.9210,106.5190
170.8907,106.4736
170.8800,106.4200
170.8800,106.0800
170.8907,106.0264
170.9210,105.9810
170.9664,105.9507
171.0200,105.9400
171.3000,105.9400
171.3536,105.9507
171.3990,105.9810
171.4293,106.0264
171.4400,106.0800
Z" /> 
<path style="fill:#000000; fill-opacity:1.0000; stroke:none;fill-rule:evenodd;"
d="M 170.4800,106.4200
170.4693,106.4736
170.4390,106.5190
170.3936,106.5493
170.3400,106.5600
170.0600,106.5600
170.0064,106.5493
169.9610,106.5190
169.9307,106.4736
169.9200,106.4200
169.9200,106.0800
169.9307,106.0264
169.9610,105.9810
170.0064,105.9507
170.0600,105.9400
170.3400,105.9400
170.3936,105.9507
170.4390,105.9810
170.4693,106.0264
170.4800,106.0800
Z" /> 
<path style="fill:#000000; fill-opacity:1.0000; stroke:none;fill-rule:evenodd;"
d="M 149.5500,134.6000
149.4543,134.5810
149.3732,134.5268
149.3190,134.4457
149.3000,134.3500
149.3000,133.6500
149.3190,133.5543
149.3732,133.4732
149.4543,133.4190
149.5500,133.4000
150.4500,133.4000
150.5457,133.4190
150.6268,133.4732
150.6810,133.5543
150.7000,133.6500
150.7000,134.3500
150.6810,134.4457
150.6268,134.5268
150.5457,134.5810
150.4500,134.6000
Z" /> 
<path style="fill:#000000; fill-opacity:1.0000; stroke:none;fill-rule:evenodd;"
d="M 149.5500,132.6000
149.4543,132.5810
149.3732,132.5268
149.3190,132.4457
149.3000,132.3500
149.3000,131.6500
149.3190,131.5543
149.3732,131.4732
149.4543,131.4190
149.5500,131.4000
150.4500,131.4000
150.5457,131.4190
150.6268,131.4732
150.6810,131.5543
150.7000,131.6500
150.7000,132.3500
150.6810,132.4457
150.6268,132.5268
150.5457,132.5810
150.4500,132.6000
Z" /> 
<path style="fill:#000000; fill-opacity:1.0000; stroke:none;fill-rule:evenodd;"
d="M 110.3400,83.2500
111.4800,83.2500
111.4800,83.8500
110.3400,83.8500
Z" /> 
<path style="fill:#000000; fill-opacity:1.0000; stroke:none;fill-rule:evenodd;"
d="M 110.3400,84.0500
111.4800,84.0500
111.4800,84.6500
110.3400,84.6500
Z" /> 
<path style="fill:#000000; fill-opacity:1.0000; stroke:none;fill-rule:evenodd;"
d="M 110.2900,85.3500
111.4800,85.3500
111.4800,85.6500
110.2900,85.6500
Z" /> 
<path style="fill:#000000; fill-opacity:1.0000; stroke:none;fill-rule:evenodd;"
d="M 110.2900,86.3500
111.4800,86.3500
111.4800,86.6500
110.2900,86.6500
Z" /> 
<path style="fill:#000000; fill-opacity:1.0000; stroke:none;fill-rule:evenodd;"
d="M 110.2900,86.8500
111.4800,86.8500
111.4800,87.1500
110.2900,87.1500
Z" /> 
<path style="fill:#000000; fill-opacity:1.0000; stroke:none;fill-rule:evenodd;"
d="M 110.2900,87.8500
111.4800,87.8500
111.4800,88.1500
110.2900,88.1500
Z" /> 
<path style="fill:#000000; fill-opacity:1.0000; stroke:none;fill-rule:evenodd;"
d="M 110.3400,88.8500
111.4800,88.8500
111.4800,89.4500
110.3400,89.4500
Z" /> 
<path style="fill:#000000; fill-opacity:1.0000; stroke:none;fill-rule:evenodd;"
d="M 110.3400,89.6500
111.4800,89.6500
111.4800,90.2500
110.3400,90.2500
Z" /> 
<path style="fill:#000000; fill-opacity:1.0000; stroke:none;fill-rule:evenodd;"
d="M 110.3400,89.6500
111.4800,89.6500
111.4800,90.2500
110.3400,90.2500
Z" /> 
<path style="fill:#000000; fill-opacity:1.0000; stroke:none;fill-rule:evenodd;"
d="M 110.3400,88.8500
111.4800,88.8500
111.4800,89.4500
110.3400,89.4500
Z" /> 
<path style="fill:#000000; fill-opacity:1.0000; stroke:none;fill-rule:evenodd;"
d="M 110.2900,88.3500
111.4800,88.3500
111.4800,88.6500
110.2900,88.6500
Z" /> 
<path style="fill:#000000; fill-opacity:1.0000; stroke:none;fill-rule:evenodd;"
d="M 110.2900,87.3500
111.4800,87.3500
111.4800,87.6500
110.2900,87.6500
Z" /> 
<path style="fill:#000000; fill-opacity:1.0000; stroke:none;fill-rule:evenodd;"
d="M 110.2900,85.8500
111.4800,85.8500
111.4800,86.1500
110.2900,86.1500
Z" /> 
<path style="fill:#000000; fill-opacity:1.0000; stroke:none;fill-rule:evenodd;"
d="M 110.2900,84.8500
111.4800,84.8500
111.4800,85.1500
110.2900,85.1500
Z" /> 
<path style="fill:#000000; fill-opacity:1.0000; stroke:none;fill-rule:evenodd;"
d="M 110.3400,84.0500
111.4800,84.0500
111.4800,84.6500
110.3400,84.6500
Z" /> 
<path style="fill:#000000; fill-opacity:1.0000; stroke:none;fill-rule:evenodd;"
d="M 110.3400,83.2500
111.4800,83.2500
111.4800,83.8500
110.3400,83.8500
Z" /> 
<path style="fill:#000000; fill-opacity:1.0000; stroke:none;fill-rule:evenodd;"
d="M 163.2500,86.8200
164.7500,86.8200
164.7500,87.3700
163.2500,87.3700
Z" /> 
<path style="fill:#000000; fill-opacity:1.0000; stroke:none;fill-rule:evenodd;"
d="M 163.2500,88.0900
164.7500,88.0900
164.7500,88.6400
163.2500,88.6400
Z" /> 
<path style="fill:#000000; fill-opacity:1.0000; stroke:none;fill-rule:evenodd;"
d="M 163.2500,89.3600
164.7500,89.3600
164.7500,89.9100
163.2500,89.9100
Z" /> 
<path style="fill:#000000; fill-opacity:1.0000; stroke:none;fill-rule:evenodd;"
d="M 163.2500,90.6300
164.7500,90.6300
164.7500,91.1800
163.2500,91.1800
Z" /> 
<path style="fill:#000000; fill-opacity:1.0000; stroke:none;fill-rule:evenodd;"
d="M 168.6500,90.6300
170.1500,90.6300
170.1500,91.1800
168.6500,91.1800
Z" /> 
<path style="fill:#000000; fill-opacity:1.0000; stroke:none;fill-rule:evenodd;"
d="M 168.6500,89.3600
170.1500,89.3600
170.1500,89.9100
168.6500,89.9100
Z" /> 
<path style="fill:#000000; fill-opacity:1.0000; stroke:none;fill-rule:evenodd;"
d="M 168.6500,88.0900
170.1500,88.0900
170.1500,88.6400
168.6500,88.6400
Z" /> 
<path style="fill:#000000; fill-opacity:1.0000; stroke:none;fill-rule:evenodd;"
d="M 168.6500,86.8200
170.1500,86.8200
170.1500,87.3700
168.6500,87.3700
Z" /> 
<path style="fill:#000000; fill-opacity:1.0000; stroke:none;fill-rule:evenodd;"
d="M 155.9350,89.9700
155.9867,89.9803
156.0305,90.0095
156.0597,90.0533
156.0700,90.1050
156.0700,90.3750
156.0597,90.4267
156.0305,90.4705
155.9867,90.4997
155.9350,90.5100
155.5650,90.5100
155.5133,90.4997
155.4695,90.4705
155.4403,90.4267
155.4300,90.3750
155.4300,90.1050
155.4403,90.0533
155.4695,90.0095
155.5133,89.9803
155.5650,89.9700
Z" /> 
<path style="fill:#000000; fill-opacity:1.0000; stroke:none;fill-rule:evenodd;"
d="M 155.9350,90.9900
155.9867,91.0003
156.0305,91.0295
156.0597,91.0733
156.0700,91.1250
156.0700,91.3950
156.0597,91.4467
156.0305,91.4905
155.9867,91.5197
155.9350,91.5300
155.5650,91.5300
155.5133,91.5197
155.4695,91.4905
155.4403,91.4467
155.4300,91.3950
155.4300,91.1250
155.4403,91.0733
155.4695,91.0295
155.5133,91.0003
155.5650,90.9900
Z" /> 
<path style="fill:#000000; fill-opacity:1.0000; stroke:none;fill-rule:evenodd;"
d="M 118.6250,70.6750
120.3750,70.6750
120.3750,73.3250
118.6250,73.3250
Z" /> 
<path style="fill:#000000; fill-opacity:1.0000; stroke:none;fill-rule:evenodd;"
d="M 118.6250,74.9750
120.3750,74.9750
120.3750,77.6250
118.6250,77.6250
Z" /> 
<path style="fill:#000000; fill-opacity:1.0000; stroke:none;fill-rule:evenodd;"
d="M 183.4000,118.5500
183.4190,118.4543
183.4732,118.3732
183.5543,118.3190
183.6500,118.3000
184.3500,118.3000
184.4457,118.3190
184.5268,118.3732
184.5810,118.4543
184.6000,118.5500
184.6000,119.4500
184.5810,119.5457
184.5268,119.6268
184.4457,119.6810
184.3500,119.7000
183.6500,119.7000
183.5543,119.6810
183.4732,119.6268
183.4190,119.5457
183.4000,119.4500
Z" /> 
<path style="fill:#000000; fill-opacity:1.0000; stroke:none;fill-rule:evenodd;"
d="M 185.4000,118.5500
185.4190,118.4543
185.4732,118.3732
185.5543,118.3190
185.6500,118.3000
186.3500,118.3000
186.4457,118.3190
186.5268,118.3732
186.5810,118.4543
186.6000,118.5500
186.6000,119.4500
186.5810,119.5457
186.5268,119.6268
186.4457,119.6810
186.3500,119.7000
185.6500,119.7000
185.5543,119.6810
185.4732,119.6268
185.4190,119.5457
185.4000,119.4500
Z" /> 
</g> 
</svg>
