M48
; DRILL file {KiCad 8.0.3+1} date 2024-08-22T20:15:40+0000
; FORMAT={-:-/ absolute / metric / decimal}
; #@! TF.CreationDate,2024-08-22T20:15:40+00:00
; #@! TF.GenerationSoftware,Kicad,Pcbnew,8.0.3+1
; #@! TF.FileFunction,Plated,1,4,PTH
FMAT,2
METRIC
; #@! TA.AperFunction,Plated,PTH,ViaDrill
T1C0.400
; #@! TA.AperFunction,Plated,PTH,ComponentDrill
T2C0.400
; #@! TA.AperFunction,Plated,PTH,ComponentDrill
T3C0.620
; #@! TA.AperFunction,Plated,PTH,ComponentDrill
T4C0.730
; #@! TA.AperFunction,Plated,PTH,ComponentDrill
T5C0.900
; #@! TA.AperFunction,Plated,PTH,ComponentDrill
T6C1.700
; #@! TA.AperFunction,Plated,PTH,ComponentDrill
T7C5.800
%
G90
G05
T1
X107.5Y-102.25
X107.75Y-94.0
X108.0Y-118.0
X108.25Y-97.5
X108.5Y-122.0
X109.0Y-123.5
X109.25Y-78.25
X109.5Y-137.75
X110.25Y-124.25
X110.5Y-78.25
X110.5Y-137.75
X111.5Y-97.473
X111.5Y-118.0
X111.5Y-124.973
X112.2Y-83.5
X112.2Y-90.0
X112.5Y-75.0
X112.5Y-78.25
X112.5Y-82.0
X112.5Y-91.5
X112.5Y-131.75
X112.519Y-85.25
X112.6Y-88.25
X112.8Y-86.75
X113.25Y-83.5
X113.3Y-90.05
X113.5Y-113.75
X113.75Y-106.25
X114.0Y-102.473
X114.0Y-124.973
X114.0Y-137.473
X114.5Y-75.25
X114.5Y-78.25
X114.5Y-122.0
X115.0Y-72.75
X115.0Y-97.5
X115.0Y-118.0
X115.25Y-94.0
X115.25Y-113.75
X116.25Y-78.25
X116.25Y-80.5
X116.5Y-82.25
X116.5Y-102.473
X116.5Y-117.473
X116.5Y-122.473
X116.5Y-139.973
X116.75Y-94.0
X116.75Y-95.75
X116.75Y-97.5
X116.75Y-119.973
X117.5Y-84.25
X117.5Y-104.5
X117.5Y-111.5
X117.55Y-86.77
X117.6Y-101.8
X118.2Y-103.0
X118.25Y-90.0
X118.25Y-91.5
X118.25Y-93.0
X118.25Y-95.75
X118.25Y-113.75
X120.0Y-119.0
X120.2Y-103.6
X120.75Y-119.775
X122.25Y-77.473
X122.75Y-139.0
X123.0Y-82.25
X123.25Y-72.0
X123.25Y-91.5
X123.75Y-95.25
X124.0Y-77.473
X124.0Y-99.973
X125.25Y-81.75
X125.51Y-129.01
X126.5Y-77.473
X126.75Y-87.25
X127.0Y-129.5
X127.25Y-84.25
X127.5Y-101.5
X127.75Y-95.25
X128.0Y-102.5
X128.25Y-134.5
X128.75Y-78.5
X129.0Y-82.473
X129.0Y-84.973
X129.0Y-144.973
X129.0Y-147.473
X130.25Y-88.25
X130.25Y-90.5
X130.25Y-119.775
X131.25Y-119.0
X132.0Y-86.5
X132.0Y-92.25
X133.0Y-119.75
X134.0Y-87.473
X134.0Y-89.973
X134.0Y-92.473
X134.0Y-104.973
X134.0Y-107.473
X134.0Y-109.973
X134.0Y-112.473
X134.0Y-114.5
X134.25Y-82.0
X134.25Y-94.25
X136.5Y-104.973
X136.5Y-107.473
X136.5Y-109.973
X136.5Y-112.473
X136.5Y-114.5
X137.25Y-143.0
X137.5Y-140.25
X138.5Y-86.75
X138.75Y-82.0
X138.75Y-105.2
X138.75Y-106.6
X138.75Y-108.0
X139.0Y-112.473
X139.0Y-114.5
X139.0Y-143.0
X140.1Y-104.0
X140.1Y-109.0
X141.5Y-104.0
X141.5Y-109.0
X141.5Y-112.473
X141.5Y-114.5
X141.5Y-144.973
X141.5Y-147.473
X142.75Y-125.0
X142.9Y-104.0
X142.9Y-109.0
X143.75Y-119.0
X144.0Y-105.2
X144.0Y-106.6
X144.0Y-108.0
X144.0Y-112.473
X144.0Y-114.5
X144.75Y-119.5
X144.925Y-132.075
X145.5Y-101.0
X145.75Y-119.0
X146.5Y-97.473
X146.5Y-107.473
X146.5Y-109.973
X146.5Y-112.473
X146.5Y-114.5
X146.68Y-101.0
X147.0Y-125.0
X148.25Y-119.0
X148.25Y-125.0
X149.0Y-74.973
X149.0Y-107.473
X149.0Y-109.973
X149.0Y-112.473
X149.0Y-114.5
X149.22Y-118.47
X150.0Y-97.5
X151.0Y-97.25
X151.5Y-129.973
X151.75Y-94.75
X152.75Y-101.5
X152.75Y-102.5
X153.75Y-128.0
X154.0Y-74.973
X154.0Y-81.75
X154.25Y-105.75
X154.25Y-107.962
X154.25Y-117.25
X155.75Y-84.75
X155.75Y-89.25
X156.0Y-75.0
X156.25Y-103.0
X156.25Y-104.973
X156.25Y-107.473
X156.5Y-77.473
X156.5Y-144.973
X156.5Y-147.473
X158.0Y-128.0
X159.0Y-72.473
X159.0Y-74.973
X159.0Y-77.473
X159.0Y-98.5
X159.25Y-114.0
X160.25Y-101.5
X161.5Y-72.473
X161.5Y-74.973
X161.5Y-77.473
X161.5Y-84.973
X161.5Y-92.473
X161.5Y-97.473
X162.0Y-132.5
X164.0Y-72.473
X164.0Y-74.973
X164.0Y-77.473
X164.5Y-132.5
X166.5Y-74.973
X166.5Y-77.473
X166.5Y-87.473
X166.5Y-92.473
X166.5Y-94.973
X166.5Y-97.473
X166.5Y-98.75
X166.5Y-102.473
X166.5Y-123.5
X166.5Y-132.5
X166.5Y-144.973
X166.5Y-147.473
X166.75Y-90.75
X167.5Y-84.25
X167.5Y-85.5
X168.5Y-112.0
X169.0Y-74.973
X169.0Y-77.473
X169.0Y-98.0
X169.0Y-122.473
X169.0Y-132.473
X169.25Y-113.75
X169.4Y-92.0
X171.0Y-120.0
X171.5Y-74.973
X171.5Y-77.473
X171.5Y-92.473
X171.5Y-97.473
X171.5Y-122.473
X172.25Y-106.25
X173.0Y-110.0
X173.25Y-100.0
X173.25Y-101.25
X173.48Y-79.75
X173.75Y-106.25
X173.75Y-113.5
X173.75Y-126.0
X174.0Y-92.473
X174.0Y-93.75
X174.0Y-97.5
X174.0Y-121.25
X175.0Y-119.973
X175.5Y-121.5
X176.5Y-89.973
X176.5Y-92.473
X176.5Y-93.75
X176.5Y-97.5
X176.5Y-117.473
X176.5Y-119.973
X178.47Y-79.75
X178.75Y-122.473
X179.0Y-87.473
X179.0Y-119.973
X179.0Y-142.473
X179.0Y-144.973
X179.5Y-97.5
X179.5Y-103.0
X179.5Y-137.25
X180.25Y-130.0
X181.0Y-138.5
X181.5Y-74.973
X181.5Y-77.473
X181.5Y-79.973
X181.5Y-84.973
X182.5Y-82.5
X182.5Y-121.0
X182.75Y-125.25
X182.75Y-126.25
X184.0Y-77.473
X184.0Y-79.973
X184.0Y-82.473
X184.0Y-84.973
X184.0Y-87.473
X184.0Y-97.473
X184.0Y-99.973
X184.0Y-102.473
X184.0Y-104.973
X184.0Y-107.473
X184.0Y-112.473
X184.0Y-127.5
X184.0Y-129.25
X184.0Y-134.973
X184.5Y-126.0
X184.5Y-131.25
X184.5Y-132.5
X184.5Y-133.75
X186.5Y-72.473
X186.5Y-74.973
X186.5Y-77.473
X186.5Y-79.973
X186.5Y-82.473
X186.5Y-84.973
X186.5Y-87.473
X186.5Y-97.473
X186.5Y-99.973
X186.5Y-102.473
X186.5Y-104.973
X186.5Y-107.473
X186.5Y-112.473
X187.0Y-127.0
X187.5Y-118.5
X187.5Y-119.5
X188.25Y-135.25
X188.5Y-133.916
X189.0Y-74.973
X189.0Y-97.473
X189.0Y-99.973
X190.5Y-122.5
X190.5Y-138.75
X191.5Y-77.473
X191.5Y-97.473
X191.5Y-99.973
X191.5Y-117.473
X191.5Y-119.973
X192.25Y-136.0
X194.0Y-119.25
X195.25Y-141.5
X195.75Y-121.75
X196.5Y-122.5
X197.5Y-137.75
X198.5Y-137.75
X199.0Y-132.473
X199.25Y-80.25
X200.25Y-80.25
T2
X104.8Y-68.0
X104.8Y-148.0
X105.0Y-75.413
X105.0Y-88.423
X105.0Y-94.928
X105.0Y-101.433
X105.0Y-107.939
X105.0Y-114.567
X105.0Y-121.072
X105.0Y-127.577
X105.0Y-134.082
X105.0Y-140.587
X106.9Y-64.363
X106.9Y-71.637
X106.9Y-144.363
X106.9Y-151.637
X111.1Y-64.363
X111.1Y-71.637
X111.1Y-144.363
X111.1Y-151.637
X111.747Y-154.0
X111.747Y-62.0
X113.2Y-68.0
X113.2Y-148.0
X118.252Y-62.0
X118.252Y-154.0
X124.757Y-154.0
X124.757Y-62.0
X131.263Y-62.0
X131.263Y-154.0
X137.768Y-154.0
X137.768Y-62.0
X144.273Y-62.0
X144.273Y-154.0
X150.778Y-62.0
X150.901Y-154.0
X157.283Y-62.0
X157.406Y-154.0
X163.789Y-62.0
X163.911Y-154.0
X170.294Y-62.0
X170.416Y-154.0
X176.799Y-62.0
X176.922Y-154.0
X183.304Y-62.0
X183.304Y-154.0
X189.809Y-62.0
X189.809Y-154.0
X194.8Y-68.0
X194.8Y-148.0
X196.315Y-62.0
X196.315Y-154.0
X196.9Y-64.363
X196.9Y-71.637
X196.9Y-144.363
X196.9Y-151.637
X201.1Y-64.363
X201.1Y-71.637
X201.1Y-144.363
X201.1Y-151.637
X203.0Y-75.474
X203.0Y-81.979
X203.0Y-88.484
X203.0Y-94.99
X203.0Y-101.495
X203.0Y-108.0
X203.0Y-114.628
X203.0Y-121.133
X203.0Y-127.638
X203.0Y-134.144
X203.0Y-140.649
X203.2Y-68.0
X203.2Y-148.0
T4
X120.5Y-146.45
X122.0Y-146.45
X123.5Y-146.45
X125.0Y-146.45
X132.5Y-146.5
X134.0Y-146.5
X135.5Y-146.5
X137.0Y-146.5
X144.5Y-146.5
X146.0Y-146.5
X147.5Y-146.5
X149.0Y-146.5
X150.5Y-146.5
X152.0Y-146.5
X159.5Y-146.5
X161.0Y-146.5
X162.5Y-146.5
X164.0Y-146.5
X171.508Y-146.5
X173.008Y-146.5
X174.508Y-146.5
X176.008Y-146.5
X183.5Y-146.5
X185.0Y-146.5
X186.5Y-146.5
X188.0Y-146.5
T5
X109.0Y-108.0
X111.5Y-104.5
X111.5Y-111.5
X120.5Y-141.25
X121.0Y-80.25
X121.0Y-84.599
X121.0Y-88.9
X121.0Y-93.5
X121.0Y-98.0
X125.0Y-141.25
X130.25Y-141.25
X131.5Y-122.25
X132.0Y-80.0
X134.75Y-141.25
X136.5Y-80.0
X141.0Y-80.0
X141.5Y-141.25
X145.5Y-80.0
X146.0Y-141.25
X150.0Y-80.0
X150.5Y-141.25
X155.0Y-141.25
X159.0Y-86.75
X159.0Y-91.25
X161.75Y-141.25
X163.25Y-128.0
X164.0Y-82.75
X164.0Y-95.25
X164.0Y-103.25
X164.0Y-107.75
X164.0Y-112.25
X164.0Y-116.75
X166.25Y-141.25
X169.25Y-95.239
X170.5Y-103.25
X171.5Y-141.25
X173.0Y-116.5
X173.85Y-82.75
X175.5Y-103.25
X176.0Y-141.25
X177.5Y-132.0
X178.15Y-82.75
X181.5Y-88.75
X181.5Y-93.25
X181.5Y-110.5
X181.5Y-114.75
X183.5Y-141.25
X186.75Y-130.0
X188.0Y-141.25
X190.5Y-127.5
X195.25Y-127.75
T6
X127.142Y-71.75
X131.102Y-71.75
X135.062Y-71.75
X139.022Y-71.75
X142.982Y-71.75
X146.942Y-71.75
X150.902Y-71.75
X154.862Y-71.75
X170.04Y-71.75
X174.0Y-71.75
X177.96Y-71.75
X181.92Y-71.75
X189.75Y-81.08
X189.75Y-85.04
X189.75Y-89.0
X189.75Y-92.96
X189.8Y-102.58
X189.8Y-106.54
X189.8Y-110.5
X189.8Y-114.46
T7
X109.0Y-68.0
X109.0Y-148.0
X199.0Y-68.0
X199.0Y-148.0
T3
X106.49Y-82.427G85X105.71Y-82.427
G05
X106.5Y-91.077G85X105.72Y-91.077
G05
X110.83Y-82.427G85X109.75Y-82.427
G05
X110.83Y-91.077G85X109.75Y-91.077
G05
M30
