%TF.GenerationSoftware,KiCad,Pcbnew,8.0.3+1*%
%TF.CreationDate,2024-08-22T20:15:40+00:00*%
%TF.ProjectId,AstraControl,41737472-6143-46f6-9e74-726f6c2e6b69,rev?*%
%TF.SameCoordinates,Original*%
%TF.FileFunction,Drillmap*%
%TF.FilePolarity,Positive*%
%FSLAX45Y45*%
G04 Gerber Fmt 4.5, Leading zero omitted, Abs format (unit mm)*
G04 Created by KiCad (PCBNEW 8.0.3+1) date 2024-08-22 20:15:40*
%MOMM*%
%LPD*%
G01*
G04 APERTURE LIST*
%ADD10C,0.100000*%
%ADD11C,0.200000*%
%ADD12C,0.170000*%
%ADD13C,0.580000*%
G04 APERTURE END LIST*
D10*
X10300000Y-6350000D02*
X10300000Y-15250000D01*
X10650000Y-15600000D02*
X20150000Y-15600000D01*
X20150000Y-6000000D02*
X10650000Y-6000000D01*
X20500000Y-15250000D02*
X20500000Y-6350000D01*
X10300000Y-6350000D02*
G75*
G02*
X10650000Y-6000000I350000J0D01*
G01*
X10650000Y-15600000D02*
G75*
G02*
X10300000Y-15250000I0J350000D01*
G01*
X20150000Y-6000000D02*
G75*
G02*
X20500000Y-6350000I0J-350000D01*
G01*
X20500000Y-15250000D02*
G75*
G02*
X20150000Y-15600000I-350000J0D01*
G01*
D11*
D10*
X10730000Y-10205000D02*
X10770000Y-10245000D01*
X10770000Y-10205000D02*
X10730000Y-10245000D01*
X10755000Y-9380000D02*
X10795000Y-9420000D01*
X10795000Y-9380000D02*
X10755000Y-9420000D01*
X10780000Y-11780000D02*
X10820000Y-11820000D01*
X10820000Y-11780000D02*
X10780000Y-11820000D01*
X10805000Y-9730000D02*
X10845000Y-9770000D01*
X10845000Y-9730000D02*
X10805000Y-9770000D01*
X10830000Y-12180000D02*
X10870000Y-12220000D01*
X10870000Y-12180000D02*
X10830000Y-12220000D01*
X10880000Y-12330000D02*
X10920000Y-12370000D01*
X10920000Y-12330000D02*
X10880000Y-12370000D01*
X10905000Y-7805000D02*
X10945000Y-7845000D01*
X10945000Y-7805000D02*
X10905000Y-7845000D01*
X10930000Y-13755000D02*
X10970000Y-13795000D01*
X10970000Y-13755000D02*
X10930000Y-13795000D01*
X11005000Y-12405000D02*
X11045000Y-12445000D01*
X11045000Y-12405000D02*
X11005000Y-12445000D01*
X11030000Y-7805000D02*
X11070000Y-7845000D01*
X11070000Y-7805000D02*
X11030000Y-7845000D01*
X11030000Y-13755000D02*
X11070000Y-13795000D01*
X11070000Y-13755000D02*
X11030000Y-13795000D01*
X11130000Y-9727348D02*
X11170000Y-9767348D01*
X11170000Y-9727348D02*
X11130000Y-9767348D01*
X11130000Y-11780000D02*
X11170000Y-11820000D01*
X11170000Y-11780000D02*
X11130000Y-11820000D01*
X11130000Y-12477348D02*
X11170000Y-12517348D01*
X11170000Y-12477348D02*
X11130000Y-12517348D01*
X11200000Y-8330000D02*
X11240000Y-8370000D01*
X11240000Y-8330000D02*
X11200000Y-8370000D01*
X11200000Y-8980000D02*
X11240000Y-9020000D01*
X11240000Y-8980000D02*
X11200000Y-9020000D01*
X11230000Y-7480000D02*
X11270000Y-7520000D01*
X11270000Y-7480000D02*
X11230000Y-7520000D01*
X11230000Y-7805000D02*
X11270000Y-7845000D01*
X11270000Y-7805000D02*
X11230000Y-7845000D01*
X11230000Y-8180000D02*
X11270000Y-8220000D01*
X11270000Y-8180000D02*
X11230000Y-8220000D01*
X11230000Y-9130000D02*
X11270000Y-9170000D01*
X11270000Y-9130000D02*
X11230000Y-9170000D01*
X11230000Y-13155000D02*
X11270000Y-13195000D01*
X11270000Y-13155000D02*
X11230000Y-13195000D01*
X11231879Y-8505000D02*
X11271879Y-8545000D01*
X11271879Y-8505000D02*
X11231879Y-8545000D01*
X11240000Y-8805000D02*
X11280000Y-8845000D01*
X11280000Y-8805000D02*
X11240000Y-8845000D01*
X11260000Y-8655000D02*
X11300000Y-8695000D01*
X11300000Y-8655000D02*
X11260000Y-8695000D01*
X11305000Y-8330000D02*
X11345000Y-8370000D01*
X11345000Y-8330000D02*
X11305000Y-8370000D01*
X11310000Y-8985000D02*
X11350000Y-9025000D01*
X11350000Y-8985000D02*
X11310000Y-9025000D01*
X11330000Y-11355000D02*
X11370000Y-11395000D01*
X11370000Y-11355000D02*
X11330000Y-11395000D01*
X11355000Y-10605000D02*
X11395000Y-10645000D01*
X11395000Y-10605000D02*
X11355000Y-10645000D01*
X11380000Y-10227348D02*
X11420000Y-10267348D01*
X11420000Y-10227348D02*
X11380000Y-10267348D01*
X11380000Y-12477348D02*
X11420000Y-12517348D01*
X11420000Y-12477348D02*
X11380000Y-12517348D01*
X11380000Y-13727348D02*
X11420000Y-13767348D01*
X11420000Y-13727348D02*
X11380000Y-13767348D01*
X11430000Y-7505000D02*
X11470000Y-7545000D01*
X11470000Y-7505000D02*
X11430000Y-7545000D01*
X11430000Y-7805000D02*
X11470000Y-7845000D01*
X11470000Y-7805000D02*
X11430000Y-7845000D01*
X11430000Y-12180000D02*
X11470000Y-12220000D01*
X11470000Y-12180000D02*
X11430000Y-12220000D01*
X11480000Y-7255000D02*
X11520000Y-7295000D01*
X11520000Y-7255000D02*
X11480000Y-7295000D01*
X11480000Y-9730000D02*
X11520000Y-9770000D01*
X11520000Y-9730000D02*
X11480000Y-9770000D01*
X11480000Y-11780000D02*
X11520000Y-11820000D01*
X11520000Y-11780000D02*
X11480000Y-11820000D01*
X11505000Y-9380000D02*
X11545000Y-9420000D01*
X11545000Y-9380000D02*
X11505000Y-9420000D01*
X11505000Y-11355000D02*
X11545000Y-11395000D01*
X11545000Y-11355000D02*
X11505000Y-11395000D01*
X11605000Y-7805000D02*
X11645000Y-7845000D01*
X11645000Y-7805000D02*
X11605000Y-7845000D01*
X11605000Y-8030000D02*
X11645000Y-8070000D01*
X11645000Y-8030000D02*
X11605000Y-8070000D01*
X11630000Y-8205000D02*
X11670000Y-8245000D01*
X11670000Y-8205000D02*
X11630000Y-8245000D01*
X11630000Y-10227348D02*
X11670000Y-10267348D01*
X11670000Y-10227348D02*
X11630000Y-10267348D01*
X11630000Y-11727348D02*
X11670000Y-11767348D01*
X11670000Y-11727348D02*
X11630000Y-11767348D01*
X11630000Y-12227348D02*
X11670000Y-12267348D01*
X11670000Y-12227348D02*
X11630000Y-12267348D01*
X11630000Y-13977348D02*
X11670000Y-14017348D01*
X11670000Y-13977348D02*
X11630000Y-14017348D01*
X11655000Y-9380000D02*
X11695000Y-9420000D01*
X11695000Y-9380000D02*
X11655000Y-9420000D01*
X11655000Y-9555000D02*
X11695000Y-9595000D01*
X11695000Y-9555000D02*
X11655000Y-9595000D01*
X11655000Y-9730000D02*
X11695000Y-9770000D01*
X11695000Y-9730000D02*
X11655000Y-9770000D01*
X11655000Y-11977348D02*
X11695000Y-12017348D01*
X11695000Y-11977348D02*
X11655000Y-12017348D01*
X11730000Y-8405000D02*
X11770000Y-8445000D01*
X11770000Y-8405000D02*
X11730000Y-8445000D01*
X11730000Y-10430000D02*
X11770000Y-10470000D01*
X11770000Y-10430000D02*
X11730000Y-10470000D01*
X11730000Y-11130000D02*
X11770000Y-11170000D01*
X11770000Y-11130000D02*
X11730000Y-11170000D01*
X11735000Y-8657000D02*
X11775000Y-8697000D01*
X11775000Y-8657000D02*
X11735000Y-8697000D01*
X11740000Y-10160000D02*
X11780000Y-10200000D01*
X11780000Y-10160000D02*
X11740000Y-10200000D01*
X11800000Y-10280000D02*
X11840000Y-10320000D01*
X11840000Y-10280000D02*
X11800000Y-10320000D01*
X11805000Y-8980000D02*
X11845000Y-9020000D01*
X11845000Y-8980000D02*
X11805000Y-9020000D01*
X11805000Y-9130000D02*
X11845000Y-9170000D01*
X11845000Y-9130000D02*
X11805000Y-9170000D01*
X11805000Y-9280000D02*
X11845000Y-9320000D01*
X11845000Y-9280000D02*
X11805000Y-9320000D01*
X11805000Y-9555000D02*
X11845000Y-9595000D01*
X11845000Y-9555000D02*
X11805000Y-9595000D01*
X11805000Y-11355000D02*
X11845000Y-11395000D01*
X11845000Y-11355000D02*
X11805000Y-11395000D01*
X11980000Y-11880000D02*
X12020000Y-11920000D01*
X12020000Y-11880000D02*
X11980000Y-11920000D01*
X12000000Y-10340000D02*
X12040000Y-10380000D01*
X12040000Y-10340000D02*
X12000000Y-10380000D01*
X12055000Y-11957465D02*
X12095000Y-11997465D01*
X12095000Y-11957465D02*
X12055000Y-11997465D01*
X12205000Y-7727348D02*
X12245000Y-7767348D01*
X12245000Y-7727348D02*
X12205000Y-7767348D01*
X12255000Y-13880000D02*
X12295000Y-13920000D01*
X12295000Y-13880000D02*
X12255000Y-13920000D01*
X12280000Y-8205000D02*
X12320000Y-8245000D01*
X12320000Y-8205000D02*
X12280000Y-8245000D01*
X12305000Y-7180000D02*
X12345000Y-7220000D01*
X12345000Y-7180000D02*
X12305000Y-7220000D01*
X12305000Y-9130000D02*
X12345000Y-9170000D01*
X12345000Y-9130000D02*
X12305000Y-9170000D01*
X12355000Y-9505000D02*
X12395000Y-9545000D01*
X12395000Y-9505000D02*
X12355000Y-9545000D01*
X12380000Y-7727348D02*
X12420000Y-7767348D01*
X12420000Y-7727348D02*
X12380000Y-7767348D01*
X12380000Y-9977348D02*
X12420000Y-10017348D01*
X12420000Y-9977348D02*
X12380000Y-10017348D01*
X12505000Y-8155000D02*
X12545000Y-8195000D01*
X12545000Y-8155000D02*
X12505000Y-8195000D01*
X12531000Y-12881000D02*
X12571000Y-12921000D01*
X12571000Y-12881000D02*
X12531000Y-12921000D01*
X12630000Y-7727348D02*
X12670000Y-7767348D01*
X12670000Y-7727348D02*
X12630000Y-7767348D01*
X12655000Y-8705000D02*
X12695000Y-8745000D01*
X12695000Y-8705000D02*
X12655000Y-8745000D01*
X12680000Y-12930000D02*
X12720000Y-12970000D01*
X12720000Y-12930000D02*
X12680000Y-12970000D01*
X12705000Y-8405000D02*
X12745000Y-8445000D01*
X12745000Y-8405000D02*
X12705000Y-8445000D01*
X12730000Y-10130000D02*
X12770000Y-10170000D01*
X12770000Y-10130000D02*
X12730000Y-10170000D01*
X12755000Y-9505000D02*
X12795000Y-9545000D01*
X12795000Y-9505000D02*
X12755000Y-9545000D01*
X12780000Y-10230000D02*
X12820000Y-10270000D01*
X12820000Y-10230000D02*
X12780000Y-10270000D01*
X12805000Y-13430000D02*
X12845000Y-13470000D01*
X12845000Y-13430000D02*
X12805000Y-13470000D01*
X12855000Y-7830000D02*
X12895000Y-7870000D01*
X12895000Y-7830000D02*
X12855000Y-7870000D01*
X12880000Y-8227348D02*
X12920000Y-8267348D01*
X12920000Y-8227348D02*
X12880000Y-8267348D01*
X12880000Y-8477348D02*
X12920000Y-8517348D01*
X12920000Y-8477348D02*
X12880000Y-8517348D01*
X12880000Y-14477348D02*
X12920000Y-14517348D01*
X12920000Y-14477348D02*
X12880000Y-14517348D01*
X12880000Y-14727348D02*
X12920000Y-14767348D01*
X12920000Y-14727348D02*
X12880000Y-14767348D01*
X13005000Y-8805000D02*
X13045000Y-8845000D01*
X13045000Y-8805000D02*
X13005000Y-8845000D01*
X13005000Y-9030000D02*
X13045000Y-9070000D01*
X13045000Y-9030000D02*
X13005000Y-9070000D01*
X13005000Y-11957465D02*
X13045000Y-11997465D01*
X13045000Y-11957465D02*
X13005000Y-11997465D01*
X13105000Y-11880000D02*
X13145000Y-11920000D01*
X13145000Y-11880000D02*
X13105000Y-11920000D01*
X13180000Y-8630000D02*
X13220000Y-8670000D01*
X13220000Y-8630000D02*
X13180000Y-8670000D01*
X13180000Y-9205000D02*
X13220000Y-9245000D01*
X13220000Y-9205000D02*
X13180000Y-9245000D01*
X13280000Y-11955000D02*
X13320000Y-11995000D01*
X13320000Y-11955000D02*
X13280000Y-11995000D01*
X13380000Y-8727348D02*
X13420000Y-8767348D01*
X13420000Y-8727348D02*
X13380000Y-8767348D01*
X13380000Y-8977348D02*
X13420000Y-9017348D01*
X13420000Y-8977348D02*
X13380000Y-9017348D01*
X13380000Y-9227348D02*
X13420000Y-9267348D01*
X13420000Y-9227348D02*
X13380000Y-9267348D01*
X13380000Y-10477348D02*
X13420000Y-10517348D01*
X13420000Y-10477348D02*
X13380000Y-10517348D01*
X13380000Y-10727348D02*
X13420000Y-10767348D01*
X13420000Y-10727348D02*
X13380000Y-10767348D01*
X13380000Y-10977348D02*
X13420000Y-11017348D01*
X13420000Y-10977348D02*
X13380000Y-11017348D01*
X13380000Y-11227348D02*
X13420000Y-11267348D01*
X13420000Y-11227348D02*
X13380000Y-11267348D01*
X13380000Y-11430000D02*
X13420000Y-11470000D01*
X13420000Y-11430000D02*
X13380000Y-11470000D01*
X13405000Y-8180000D02*
X13445000Y-8220000D01*
X13445000Y-8180000D02*
X13405000Y-8220000D01*
X13405000Y-9405000D02*
X13445000Y-9445000D01*
X13445000Y-9405000D02*
X13405000Y-9445000D01*
X13630000Y-10477348D02*
X13670000Y-10517348D01*
X13670000Y-10477348D02*
X13630000Y-10517348D01*
X13630000Y-10727348D02*
X13670000Y-10767348D01*
X13670000Y-10727348D02*
X13630000Y-10767348D01*
X13630000Y-10977348D02*
X13670000Y-11017348D01*
X13670000Y-10977348D02*
X13630000Y-11017348D01*
X13630000Y-11227348D02*
X13670000Y-11267348D01*
X13670000Y-11227348D02*
X13630000Y-11267348D01*
X13630000Y-11430000D02*
X13670000Y-11470000D01*
X13670000Y-11430000D02*
X13630000Y-11470000D01*
X13705000Y-14280000D02*
X13745000Y-14320000D01*
X13745000Y-14280000D02*
X13705000Y-14320000D01*
X13730000Y-14005000D02*
X13770000Y-14045000D01*
X13770000Y-14005000D02*
X13730000Y-14045000D01*
X13830000Y-8655000D02*
X13870000Y-8695000D01*
X13870000Y-8655000D02*
X13830000Y-8695000D01*
X13855000Y-8180000D02*
X13895000Y-8220000D01*
X13895000Y-8180000D02*
X13855000Y-8220000D01*
X13855000Y-10500000D02*
X13895000Y-10540000D01*
X13895000Y-10500000D02*
X13855000Y-10540000D01*
X13855000Y-10640000D02*
X13895000Y-10680000D01*
X13895000Y-10640000D02*
X13855000Y-10680000D01*
X13855000Y-10780000D02*
X13895000Y-10820000D01*
X13895000Y-10780000D02*
X13855000Y-10820000D01*
X13880000Y-11227348D02*
X13920000Y-11267348D01*
X13920000Y-11227348D02*
X13880000Y-11267348D01*
X13880000Y-11430000D02*
X13920000Y-11470000D01*
X13920000Y-11430000D02*
X13880000Y-11470000D01*
X13880000Y-14280000D02*
X13920000Y-14320000D01*
X13920000Y-14280000D02*
X13880000Y-14320000D01*
X13990000Y-10380000D02*
X14030000Y-10420000D01*
X14030000Y-10380000D02*
X13990000Y-10420000D01*
X13990000Y-10880000D02*
X14030000Y-10920000D01*
X14030000Y-10880000D02*
X13990000Y-10920000D01*
X14130000Y-10380000D02*
X14170000Y-10420000D01*
X14170000Y-10380000D02*
X14130000Y-10420000D01*
X14130000Y-10880000D02*
X14170000Y-10920000D01*
X14170000Y-10880000D02*
X14130000Y-10920000D01*
X14130000Y-11227348D02*
X14170000Y-11267348D01*
X14170000Y-11227348D02*
X14130000Y-11267348D01*
X14130000Y-11430000D02*
X14170000Y-11470000D01*
X14170000Y-11430000D02*
X14130000Y-11470000D01*
X14130000Y-14477348D02*
X14170000Y-14517348D01*
X14170000Y-14477348D02*
X14130000Y-14517348D01*
X14130000Y-14727348D02*
X14170000Y-14767348D01*
X14170000Y-14727348D02*
X14130000Y-14767348D01*
X14255000Y-12480000D02*
X14295000Y-12520000D01*
X14295000Y-12480000D02*
X14255000Y-12520000D01*
X14270000Y-10380000D02*
X14310000Y-10420000D01*
X14310000Y-10380000D02*
X14270000Y-10420000D01*
X14270000Y-10880000D02*
X14310000Y-10920000D01*
X14310000Y-10880000D02*
X14270000Y-10920000D01*
X14355000Y-11880000D02*
X14395000Y-11920000D01*
X14395000Y-11880000D02*
X14355000Y-11920000D01*
X14380000Y-10500000D02*
X14420000Y-10540000D01*
X14420000Y-10500000D02*
X14380000Y-10540000D01*
X14380000Y-10640000D02*
X14420000Y-10680000D01*
X14420000Y-10640000D02*
X14380000Y-10680000D01*
X14380000Y-10780000D02*
X14420000Y-10820000D01*
X14420000Y-10780000D02*
X14380000Y-10820000D01*
X14380000Y-11227348D02*
X14420000Y-11267348D01*
X14420000Y-11227348D02*
X14380000Y-11267348D01*
X14380000Y-11430000D02*
X14420000Y-11470000D01*
X14420000Y-11430000D02*
X14380000Y-11470000D01*
X14455000Y-11930000D02*
X14495000Y-11970000D01*
X14495000Y-11930000D02*
X14455000Y-11970000D01*
X14472500Y-13187500D02*
X14512500Y-13227500D01*
X14512500Y-13187500D02*
X14472500Y-13227500D01*
X14530000Y-10080000D02*
X14570000Y-10120000D01*
X14570000Y-10080000D02*
X14530000Y-10120000D01*
X14555000Y-11880000D02*
X14595000Y-11920000D01*
X14595000Y-11880000D02*
X14555000Y-11920000D01*
X14630000Y-9727348D02*
X14670000Y-9767348D01*
X14670000Y-9727348D02*
X14630000Y-9767348D01*
X14630000Y-10727348D02*
X14670000Y-10767348D01*
X14670000Y-10727348D02*
X14630000Y-10767348D01*
X14630000Y-10977348D02*
X14670000Y-11017348D01*
X14670000Y-10977348D02*
X14630000Y-11017348D01*
X14630000Y-11227348D02*
X14670000Y-11267348D01*
X14670000Y-11227348D02*
X14630000Y-11267348D01*
X14630000Y-11430000D02*
X14670000Y-11470000D01*
X14670000Y-11430000D02*
X14630000Y-11470000D01*
X14648000Y-10080000D02*
X14688000Y-10120000D01*
X14688000Y-10080000D02*
X14648000Y-10120000D01*
X14680000Y-12480000D02*
X14720000Y-12520000D01*
X14720000Y-12480000D02*
X14680000Y-12520000D01*
X14805000Y-11880000D02*
X14845000Y-11920000D01*
X14845000Y-11880000D02*
X14805000Y-11920000D01*
X14805000Y-12480000D02*
X14845000Y-12520000D01*
X14845000Y-12480000D02*
X14805000Y-12520000D01*
X14880000Y-7477348D02*
X14920000Y-7517348D01*
X14920000Y-7477348D02*
X14880000Y-7517348D01*
X14880000Y-10727348D02*
X14920000Y-10767348D01*
X14920000Y-10727348D02*
X14880000Y-10767348D01*
X14880000Y-10977348D02*
X14920000Y-11017348D01*
X14920000Y-10977348D02*
X14880000Y-11017348D01*
X14880000Y-11227348D02*
X14920000Y-11267348D01*
X14920000Y-11227348D02*
X14880000Y-11267348D01*
X14880000Y-11430000D02*
X14920000Y-11470000D01*
X14920000Y-11430000D02*
X14880000Y-11470000D01*
X14902000Y-11827000D02*
X14942000Y-11867000D01*
X14942000Y-11827000D02*
X14902000Y-11867000D01*
X14980000Y-9730000D02*
X15020000Y-9770000D01*
X15020000Y-9730000D02*
X14980000Y-9770000D01*
X15080000Y-9705000D02*
X15120000Y-9745000D01*
X15120000Y-9705000D02*
X15080000Y-9745000D01*
X15130000Y-12977348D02*
X15170000Y-13017348D01*
X15170000Y-12977348D02*
X15130000Y-13017348D01*
X15155000Y-9455000D02*
X15195000Y-9495000D01*
X15195000Y-9455000D02*
X15155000Y-9495000D01*
X15255000Y-10130000D02*
X15295000Y-10170000D01*
X15295000Y-10130000D02*
X15255000Y-10170000D01*
X15255000Y-10230000D02*
X15295000Y-10270000D01*
X15295000Y-10230000D02*
X15255000Y-10270000D01*
X15355000Y-12780000D02*
X15395000Y-12820000D01*
X15395000Y-12780000D02*
X15355000Y-12820000D01*
X15380000Y-7477348D02*
X15420000Y-7517348D01*
X15420000Y-7477348D02*
X15380000Y-7517348D01*
X15380000Y-8155000D02*
X15420000Y-8195000D01*
X15420000Y-8155000D02*
X15380000Y-8195000D01*
X15405000Y-10555000D02*
X15445000Y-10595000D01*
X15445000Y-10555000D02*
X15405000Y-10595000D01*
X15405000Y-10776250D02*
X15445000Y-10816250D01*
X15445000Y-10776250D02*
X15405000Y-10816250D01*
X15405000Y-11705000D02*
X15445000Y-11745000D01*
X15445000Y-11705000D02*
X15405000Y-11745000D01*
X15555000Y-8455000D02*
X15595000Y-8495000D01*
X15595000Y-8455000D02*
X15555000Y-8495000D01*
X15555000Y-8905000D02*
X15595000Y-8945000D01*
X15595000Y-8905000D02*
X15555000Y-8945000D01*
X15580000Y-7480000D02*
X15620000Y-7520000D01*
X15620000Y-7480000D02*
X15580000Y-7520000D01*
X15605000Y-10280000D02*
X15645000Y-10320000D01*
X15645000Y-10280000D02*
X15605000Y-10320000D01*
X15605000Y-10477348D02*
X15645000Y-10517348D01*
X15645000Y-10477348D02*
X15605000Y-10517348D01*
X15605000Y-10727348D02*
X15645000Y-10767348D01*
X15645000Y-10727348D02*
X15605000Y-10767348D01*
X15630000Y-7727348D02*
X15670000Y-7767348D01*
X15670000Y-7727348D02*
X15630000Y-7767348D01*
X15630000Y-14477348D02*
X15670000Y-14517348D01*
X15670000Y-14477348D02*
X15630000Y-14517348D01*
X15630000Y-14727348D02*
X15670000Y-14767348D01*
X15670000Y-14727348D02*
X15630000Y-14767348D01*
X15780000Y-12780000D02*
X15820000Y-12820000D01*
X15820000Y-12780000D02*
X15780000Y-12820000D01*
X15880000Y-7227348D02*
X15920000Y-7267348D01*
X15920000Y-7227348D02*
X15880000Y-7267348D01*
X15880000Y-7477348D02*
X15920000Y-7517348D01*
X15920000Y-7477348D02*
X15880000Y-7517348D01*
X15880000Y-7727348D02*
X15920000Y-7767348D01*
X15920000Y-7727348D02*
X15880000Y-7767348D01*
X15880000Y-9830000D02*
X15920000Y-9870000D01*
X15920000Y-9830000D02*
X15880000Y-9870000D01*
X15905000Y-11380000D02*
X15945000Y-11420000D01*
X15945000Y-11380000D02*
X15905000Y-11420000D01*
X16005000Y-10130000D02*
X16045000Y-10170000D01*
X16045000Y-10130000D02*
X16005000Y-10170000D01*
X16130000Y-7227348D02*
X16170000Y-7267348D01*
X16170000Y-7227348D02*
X16130000Y-7267348D01*
X16130000Y-7477348D02*
X16170000Y-7517348D01*
X16170000Y-7477348D02*
X16130000Y-7517348D01*
X16130000Y-7727348D02*
X16170000Y-7767348D01*
X16170000Y-7727348D02*
X16130000Y-7767348D01*
X16130000Y-8477348D02*
X16170000Y-8517348D01*
X16170000Y-8477348D02*
X16130000Y-8517348D01*
X16130000Y-9227348D02*
X16170000Y-9267348D01*
X16170000Y-9227348D02*
X16130000Y-9267348D01*
X16130000Y-9727348D02*
X16170000Y-9767348D01*
X16170000Y-9727348D02*
X16130000Y-9767348D01*
X16180000Y-13230000D02*
X16220000Y-13270000D01*
X16220000Y-13230000D02*
X16180000Y-13270000D01*
X16380000Y-7227348D02*
X16420000Y-7267348D01*
X16420000Y-7227348D02*
X16380000Y-7267348D01*
X16380000Y-7477348D02*
X16420000Y-7517348D01*
X16420000Y-7477348D02*
X16380000Y-7517348D01*
X16380000Y-7727348D02*
X16420000Y-7767348D01*
X16420000Y-7727348D02*
X16380000Y-7767348D01*
X16430000Y-13230000D02*
X16470000Y-13270000D01*
X16470000Y-13230000D02*
X16430000Y-13270000D01*
X16630000Y-7477348D02*
X16670000Y-7517348D01*
X16670000Y-7477348D02*
X16630000Y-7517348D01*
X16630000Y-7727348D02*
X16670000Y-7767348D01*
X16670000Y-7727348D02*
X16630000Y-7767348D01*
X16630000Y-8727348D02*
X16670000Y-8767348D01*
X16670000Y-8727348D02*
X16630000Y-8767348D01*
X16630000Y-9227348D02*
X16670000Y-9267348D01*
X16670000Y-9227348D02*
X16630000Y-9267348D01*
X16630000Y-9477348D02*
X16670000Y-9517348D01*
X16670000Y-9477348D02*
X16630000Y-9517348D01*
X16630000Y-9727348D02*
X16670000Y-9767348D01*
X16670000Y-9727348D02*
X16630000Y-9767348D01*
X16630000Y-9855000D02*
X16670000Y-9895000D01*
X16670000Y-9855000D02*
X16630000Y-9895000D01*
X16630000Y-10227348D02*
X16670000Y-10267348D01*
X16670000Y-10227348D02*
X16630000Y-10267348D01*
X16630000Y-12330000D02*
X16670000Y-12370000D01*
X16670000Y-12330000D02*
X16630000Y-12370000D01*
X16630000Y-13230000D02*
X16670000Y-13270000D01*
X16670000Y-13230000D02*
X16630000Y-13270000D01*
X16630000Y-14477348D02*
X16670000Y-14517348D01*
X16670000Y-14477348D02*
X16630000Y-14517348D01*
X16630000Y-14727348D02*
X16670000Y-14767348D01*
X16670000Y-14727348D02*
X16630000Y-14767348D01*
X16655000Y-9055000D02*
X16695000Y-9095000D01*
X16695000Y-9055000D02*
X16655000Y-9095000D01*
X16730000Y-8405000D02*
X16770000Y-8445000D01*
X16770000Y-8405000D02*
X16730000Y-8445000D01*
X16730000Y-8530000D02*
X16770000Y-8570000D01*
X16770000Y-8530000D02*
X16730000Y-8570000D01*
X16830000Y-11180000D02*
X16870000Y-11220000D01*
X16870000Y-11180000D02*
X16830000Y-11220000D01*
X16880000Y-7477348D02*
X16920000Y-7517348D01*
X16920000Y-7477348D02*
X16880000Y-7517348D01*
X16880000Y-7727348D02*
X16920000Y-7767348D01*
X16920000Y-7727348D02*
X16880000Y-7767348D01*
X16880000Y-9780000D02*
X16920000Y-9820000D01*
X16920000Y-9780000D02*
X16880000Y-9820000D01*
X16880000Y-12227348D02*
X16920000Y-12267348D01*
X16920000Y-12227348D02*
X16880000Y-12267348D01*
X16880000Y-13227348D02*
X16920000Y-13267348D01*
X16920000Y-13227348D02*
X16880000Y-13267348D01*
X16905000Y-11355000D02*
X16945000Y-11395000D01*
X16945000Y-11355000D02*
X16905000Y-11395000D01*
X16920000Y-9180000D02*
X16960000Y-9220000D01*
X16960000Y-9180000D02*
X16920000Y-9220000D01*
X17080000Y-11980000D02*
X17120000Y-12020000D01*
X17120000Y-11980000D02*
X17080000Y-12020000D01*
X17130000Y-7477348D02*
X17170000Y-7517348D01*
X17170000Y-7477348D02*
X17130000Y-7517348D01*
X17130000Y-7727348D02*
X17170000Y-7767348D01*
X17170000Y-7727348D02*
X17130000Y-7767348D01*
X17130000Y-9227348D02*
X17170000Y-9267348D01*
X17170000Y-9227348D02*
X17130000Y-9267348D01*
X17130000Y-9727348D02*
X17170000Y-9767348D01*
X17170000Y-9727348D02*
X17130000Y-9767348D01*
X17130000Y-12227348D02*
X17170000Y-12267348D01*
X17170000Y-12227348D02*
X17130000Y-12267348D01*
X17205000Y-10605000D02*
X17245000Y-10645000D01*
X17245000Y-10605000D02*
X17205000Y-10645000D01*
X17280000Y-10980000D02*
X17320000Y-11020000D01*
X17320000Y-10980000D02*
X17280000Y-11020000D01*
X17305000Y-9980000D02*
X17345000Y-10020000D01*
X17345000Y-9980000D02*
X17305000Y-10020000D01*
X17305000Y-10105000D02*
X17345000Y-10145000D01*
X17345000Y-10105000D02*
X17305000Y-10145000D01*
X17328000Y-7955000D02*
X17368000Y-7995000D01*
X17368000Y-7955000D02*
X17328000Y-7995000D01*
X17355000Y-10605000D02*
X17395000Y-10645000D01*
X17395000Y-10605000D02*
X17355000Y-10645000D01*
X17355000Y-11330000D02*
X17395000Y-11370000D01*
X17395000Y-11330000D02*
X17355000Y-11370000D01*
X17355000Y-12580000D02*
X17395000Y-12620000D01*
X17395000Y-12580000D02*
X17355000Y-12620000D01*
X17380000Y-9227348D02*
X17420000Y-9267348D01*
X17420000Y-9227348D02*
X17380000Y-9267348D01*
X17380000Y-9355000D02*
X17420000Y-9395000D01*
X17420000Y-9355000D02*
X17380000Y-9395000D01*
X17380000Y-9730000D02*
X17420000Y-9770000D01*
X17420000Y-9730000D02*
X17380000Y-9770000D01*
X17380000Y-12105000D02*
X17420000Y-12145000D01*
X17420000Y-12105000D02*
X17380000Y-12145000D01*
X17480000Y-11977348D02*
X17520000Y-12017348D01*
X17520000Y-11977348D02*
X17480000Y-12017348D01*
X17530000Y-12130000D02*
X17570000Y-12170000D01*
X17570000Y-12130000D02*
X17530000Y-12170000D01*
X17630000Y-8977348D02*
X17670000Y-9017348D01*
X17670000Y-8977348D02*
X17630000Y-9017348D01*
X17630000Y-9227348D02*
X17670000Y-9267348D01*
X17670000Y-9227348D02*
X17630000Y-9267348D01*
X17630000Y-9355000D02*
X17670000Y-9395000D01*
X17670000Y-9355000D02*
X17630000Y-9395000D01*
X17630000Y-9730000D02*
X17670000Y-9770000D01*
X17670000Y-9730000D02*
X17630000Y-9770000D01*
X17630000Y-11727348D02*
X17670000Y-11767348D01*
X17670000Y-11727348D02*
X17630000Y-11767348D01*
X17630000Y-11977348D02*
X17670000Y-12017348D01*
X17670000Y-11977348D02*
X17630000Y-12017348D01*
X17827000Y-7955000D02*
X17867000Y-7995000D01*
X17867000Y-7955000D02*
X17827000Y-7995000D01*
X17855000Y-12227348D02*
X17895000Y-12267348D01*
X17895000Y-12227348D02*
X17855000Y-12267348D01*
X17880000Y-8727348D02*
X17920000Y-8767348D01*
X17920000Y-8727348D02*
X17880000Y-8767348D01*
X17880000Y-11977348D02*
X17920000Y-12017348D01*
X17920000Y-11977348D02*
X17880000Y-12017348D01*
X17880000Y-14227348D02*
X17920000Y-14267348D01*
X17920000Y-14227348D02*
X17880000Y-14267348D01*
X17880000Y-14477348D02*
X17920000Y-14517348D01*
X17920000Y-14477348D02*
X17880000Y-14517348D01*
X17930000Y-9730000D02*
X17970000Y-9770000D01*
X17970000Y-9730000D02*
X17930000Y-9770000D01*
X17930000Y-10280000D02*
X17970000Y-10320000D01*
X17970000Y-10280000D02*
X17930000Y-10320000D01*
X17930000Y-13705000D02*
X17970000Y-13745000D01*
X17970000Y-13705000D02*
X17930000Y-13745000D01*
X18005000Y-12980000D02*
X18045000Y-13020000D01*
X18045000Y-12980000D02*
X18005000Y-13020000D01*
X18080000Y-13830000D02*
X18120000Y-13870000D01*
X18120000Y-13830000D02*
X18080000Y-13870000D01*
X18130000Y-7477348D02*
X18170000Y-7517348D01*
X18170000Y-7477348D02*
X18130000Y-7517348D01*
X18130000Y-7727348D02*
X18170000Y-7767348D01*
X18170000Y-7727348D02*
X18130000Y-7767348D01*
X18130000Y-7977348D02*
X18170000Y-8017348D01*
X18170000Y-7977348D02*
X18130000Y-8017348D01*
X18130000Y-8477348D02*
X18170000Y-8517348D01*
X18170000Y-8477348D02*
X18130000Y-8517348D01*
X18230000Y-8230000D02*
X18270000Y-8270000D01*
X18270000Y-8230000D02*
X18230000Y-8270000D01*
X18230000Y-12080000D02*
X18270000Y-12120000D01*
X18270000Y-12080000D02*
X18230000Y-12120000D01*
X18255000Y-12505000D02*
X18295000Y-12545000D01*
X18295000Y-12505000D02*
X18255000Y-12545000D01*
X18255000Y-12605000D02*
X18295000Y-12645000D01*
X18295000Y-12605000D02*
X18255000Y-12645000D01*
X18380000Y-7727348D02*
X18420000Y-7767348D01*
X18420000Y-7727348D02*
X18380000Y-7767348D01*
X18380000Y-7977348D02*
X18420000Y-8017348D01*
X18420000Y-7977348D02*
X18380000Y-8017348D01*
X18380000Y-8227348D02*
X18420000Y-8267348D01*
X18420000Y-8227348D02*
X18380000Y-8267348D01*
X18380000Y-8477348D02*
X18420000Y-8517348D01*
X18420000Y-8477348D02*
X18380000Y-8517348D01*
X18380000Y-8727348D02*
X18420000Y-8767348D01*
X18420000Y-8727348D02*
X18380000Y-8767348D01*
X18380000Y-9727348D02*
X18420000Y-9767348D01*
X18420000Y-9727348D02*
X18380000Y-9767348D01*
X18380000Y-9977348D02*
X18420000Y-10017348D01*
X18420000Y-9977348D02*
X18380000Y-10017348D01*
X18380000Y-10227348D02*
X18420000Y-10267348D01*
X18420000Y-10227348D02*
X18380000Y-10267348D01*
X18380000Y-10477348D02*
X18420000Y-10517348D01*
X18420000Y-10477348D02*
X18380000Y-10517348D01*
X18380000Y-10727348D02*
X18420000Y-10767348D01*
X18420000Y-10727348D02*
X18380000Y-10767348D01*
X18380000Y-11227348D02*
X18420000Y-11267348D01*
X18420000Y-11227348D02*
X18380000Y-11267348D01*
X18380000Y-12730000D02*
X18420000Y-12770000D01*
X18420000Y-12730000D02*
X18380000Y-12770000D01*
X18380000Y-12905000D02*
X18420000Y-12945000D01*
X18420000Y-12905000D02*
X18380000Y-12945000D01*
X18380000Y-13477348D02*
X18420000Y-13517348D01*
X18420000Y-13477348D02*
X18380000Y-13517348D01*
X18430000Y-12580000D02*
X18470000Y-12620000D01*
X18470000Y-12580000D02*
X18430000Y-12620000D01*
X18430000Y-13105000D02*
X18470000Y-13145000D01*
X18470000Y-13105000D02*
X18430000Y-13145000D01*
X18430000Y-13230000D02*
X18470000Y-13270000D01*
X18470000Y-13230000D02*
X18430000Y-13270000D01*
X18430000Y-13355000D02*
X18470000Y-13395000D01*
X18470000Y-13355000D02*
X18430000Y-13395000D01*
X18630000Y-7227348D02*
X18670000Y-7267348D01*
X18670000Y-7227348D02*
X18630000Y-7267348D01*
X18630000Y-7477348D02*
X18670000Y-7517348D01*
X18670000Y-7477348D02*
X18630000Y-7517348D01*
X18630000Y-7727348D02*
X18670000Y-7767348D01*
X18670000Y-7727348D02*
X18630000Y-7767348D01*
X18630000Y-7977348D02*
X18670000Y-8017348D01*
X18670000Y-7977348D02*
X18630000Y-8017348D01*
X18630000Y-8227348D02*
X18670000Y-8267348D01*
X18670000Y-8227348D02*
X18630000Y-8267348D01*
X18630000Y-8477348D02*
X18670000Y-8517348D01*
X18670000Y-8477348D02*
X18630000Y-8517348D01*
X18630000Y-8727348D02*
X18670000Y-8767348D01*
X18670000Y-8727348D02*
X18630000Y-8767348D01*
X18630000Y-9727348D02*
X18670000Y-9767348D01*
X18670000Y-9727348D02*
X18630000Y-9767348D01*
X18630000Y-9977348D02*
X18670000Y-10017348D01*
X18670000Y-9977348D02*
X18630000Y-10017348D01*
X18630000Y-10227348D02*
X18670000Y-10267348D01*
X18670000Y-10227348D02*
X18630000Y-10267348D01*
X18630000Y-10477348D02*
X18670000Y-10517348D01*
X18670000Y-10477348D02*
X18630000Y-10517348D01*
X18630000Y-10727348D02*
X18670000Y-10767348D01*
X18670000Y-10727348D02*
X18630000Y-10767348D01*
X18630000Y-11227348D02*
X18670000Y-11267348D01*
X18670000Y-11227348D02*
X18630000Y-11267348D01*
X18680000Y-12680000D02*
X18720000Y-12720000D01*
X18720000Y-12680000D02*
X18680000Y-12720000D01*
X18730000Y-11830000D02*
X18770000Y-11870000D01*
X18770000Y-11830000D02*
X18730000Y-11870000D01*
X18730000Y-11930000D02*
X18770000Y-11970000D01*
X18770000Y-11930000D02*
X18730000Y-11970000D01*
X18805000Y-13505000D02*
X18845000Y-13545000D01*
X18845000Y-13505000D02*
X18805000Y-13545000D01*
X18830000Y-13371634D02*
X18870000Y-13411634D01*
X18870000Y-13371634D02*
X18830000Y-13411634D01*
X18880000Y-7477348D02*
X18920000Y-7517348D01*
X18920000Y-7477348D02*
X18880000Y-7517348D01*
X18880000Y-9727348D02*
X18920000Y-9767348D01*
X18920000Y-9727348D02*
X18880000Y-9767348D01*
X18880000Y-9977348D02*
X18920000Y-10017348D01*
X18920000Y-9977348D02*
X18880000Y-10017348D01*
X19030000Y-12230000D02*
X19070000Y-12270000D01*
X19070000Y-12230000D02*
X19030000Y-12270000D01*
X19030000Y-13855000D02*
X19070000Y-13895000D01*
X19070000Y-13855000D02*
X19030000Y-13895000D01*
X19130000Y-7727348D02*
X19170000Y-7767348D01*
X19170000Y-7727348D02*
X19130000Y-7767348D01*
X19130000Y-9727348D02*
X19170000Y-9767348D01*
X19170000Y-9727348D02*
X19130000Y-9767348D01*
X19130000Y-9977348D02*
X19170000Y-10017348D01*
X19170000Y-9977348D02*
X19130000Y-10017348D01*
X19130000Y-11727348D02*
X19170000Y-11767348D01*
X19170000Y-11727348D02*
X19130000Y-11767348D01*
X19130000Y-11977348D02*
X19170000Y-12017348D01*
X19170000Y-11977348D02*
X19130000Y-12017348D01*
X19205000Y-13580000D02*
X19245000Y-13620000D01*
X19245000Y-13580000D02*
X19205000Y-13620000D01*
X19380000Y-11905000D02*
X19420000Y-11945000D01*
X19420000Y-11905000D02*
X19380000Y-11945000D01*
X19505000Y-14130000D02*
X19545000Y-14170000D01*
X19545000Y-14130000D02*
X19505000Y-14170000D01*
X19555000Y-12155000D02*
X19595000Y-12195000D01*
X19595000Y-12155000D02*
X19555000Y-12195000D01*
X19630000Y-12230000D02*
X19670000Y-12270000D01*
X19670000Y-12230000D02*
X19630000Y-12270000D01*
X19730000Y-13755000D02*
X19770000Y-13795000D01*
X19770000Y-13755000D02*
X19730000Y-13795000D01*
X19830000Y-13755000D02*
X19870000Y-13795000D01*
X19870000Y-13755000D02*
X19830000Y-13795000D01*
X19880000Y-13227348D02*
X19920000Y-13267348D01*
X19920000Y-13227348D02*
X19880000Y-13267348D01*
X19905000Y-8005000D02*
X19945000Y-8045000D01*
X19945000Y-8005000D02*
X19905000Y-8045000D01*
X20005000Y-8005000D02*
X20045000Y-8045000D01*
X20045000Y-8005000D02*
X20005000Y-8045000D01*
X10500000Y-6800000D02*
G75*
G02*
X10460000Y-6800000I-20000J0D01*
G01*
X10460000Y-6800000D02*
G75*
G02*
X10500000Y-6800000I20000J0D01*
G01*
X10500000Y-14800000D02*
G75*
G02*
X10460000Y-14800000I-20000J0D01*
G01*
X10460000Y-14800000D02*
G75*
G02*
X10500000Y-14800000I20000J0D01*
G01*
X10520000Y-7541262D02*
G75*
G02*
X10480000Y-7541262I-20000J0D01*
G01*
X10480000Y-7541262D02*
G75*
G02*
X10520000Y-7541262I20000J0D01*
G01*
X10520000Y-8842303D02*
G75*
G02*
X10480000Y-8842303I-20000J0D01*
G01*
X10480000Y-8842303D02*
G75*
G02*
X10520000Y-8842303I20000J0D01*
G01*
X10520000Y-9492824D02*
G75*
G02*
X10480000Y-9492824I-20000J0D01*
G01*
X10480000Y-9492824D02*
G75*
G02*
X10520000Y-9492824I20000J0D01*
G01*
X10520000Y-10143344D02*
G75*
G02*
X10480000Y-10143344I-20000J0D01*
G01*
X10480000Y-10143344D02*
G75*
G02*
X10520000Y-10143344I20000J0D01*
G01*
X10520000Y-10793865D02*
G75*
G02*
X10480000Y-10793865I-20000J0D01*
G01*
X10480000Y-10793865D02*
G75*
G02*
X10520000Y-10793865I20000J0D01*
G01*
X10520000Y-11456656D02*
G75*
G02*
X10480000Y-11456656I-20000J0D01*
G01*
X10480000Y-11456656D02*
G75*
G02*
X10520000Y-11456656I20000J0D01*
G01*
X10520000Y-12107176D02*
G75*
G02*
X10480000Y-12107176I-20000J0D01*
G01*
X10480000Y-12107176D02*
G75*
G02*
X10520000Y-12107176I20000J0D01*
G01*
X10520000Y-12757697D02*
G75*
G02*
X10480000Y-12757697I-20000J0D01*
G01*
X10480000Y-12757697D02*
G75*
G02*
X10520000Y-12757697I20000J0D01*
G01*
X10520000Y-13408217D02*
G75*
G02*
X10480000Y-13408217I-20000J0D01*
G01*
X10480000Y-13408217D02*
G75*
G02*
X10520000Y-13408217I20000J0D01*
G01*
X10520000Y-14058738D02*
G75*
G02*
X10480000Y-14058738I-20000J0D01*
G01*
X10480000Y-14058738D02*
G75*
G02*
X10520000Y-14058738I20000J0D01*
G01*
X10710000Y-6436269D02*
G75*
G02*
X10670000Y-6436269I-20000J0D01*
G01*
X10670000Y-6436269D02*
G75*
G02*
X10710000Y-6436269I20000J0D01*
G01*
X10710000Y-7163731D02*
G75*
G02*
X10670000Y-7163731I-20000J0D01*
G01*
X10670000Y-7163731D02*
G75*
G02*
X10710000Y-7163731I20000J0D01*
G01*
X10710000Y-14436269D02*
G75*
G02*
X10670000Y-14436269I-20000J0D01*
G01*
X10670000Y-14436269D02*
G75*
G02*
X10710000Y-14436269I20000J0D01*
G01*
X10710000Y-15163731D02*
G75*
G02*
X10670000Y-15163731I-20000J0D01*
G01*
X10670000Y-15163731D02*
G75*
G02*
X10710000Y-15163731I20000J0D01*
G01*
X11130000Y-6436269D02*
G75*
G02*
X11090000Y-6436269I-20000J0D01*
G01*
X11090000Y-6436269D02*
G75*
G02*
X11130000Y-6436269I20000J0D01*
G01*
X11130000Y-7163731D02*
G75*
G02*
X11090000Y-7163731I-20000J0D01*
G01*
X11090000Y-7163731D02*
G75*
G02*
X11130000Y-7163731I20000J0D01*
G01*
X11130000Y-14436269D02*
G75*
G02*
X11090000Y-14436269I-20000J0D01*
G01*
X11090000Y-14436269D02*
G75*
G02*
X11130000Y-14436269I20000J0D01*
G01*
X11130000Y-15163731D02*
G75*
G02*
X11090000Y-15163731I-20000J0D01*
G01*
X11090000Y-15163731D02*
G75*
G02*
X11130000Y-15163731I20000J0D01*
G01*
X11194690Y-15400000D02*
G75*
G02*
X11154690Y-15400000I-20000J0D01*
G01*
X11154690Y-15400000D02*
G75*
G02*
X11194690Y-15400000I20000J0D01*
G01*
X11194690Y-6200000D02*
G75*
G02*
X11154690Y-6200000I-20000J0D01*
G01*
X11154690Y-6200000D02*
G75*
G02*
X11194690Y-6200000I20000J0D01*
G01*
X11340000Y-6800000D02*
G75*
G02*
X11300000Y-6800000I-20000J0D01*
G01*
X11300000Y-6800000D02*
G75*
G02*
X11340000Y-6800000I20000J0D01*
G01*
X11340000Y-14800000D02*
G75*
G02*
X11300000Y-14800000I-20000J0D01*
G01*
X11300000Y-14800000D02*
G75*
G02*
X11340000Y-14800000I20000J0D01*
G01*
X11845210Y-6200000D02*
G75*
G02*
X11805210Y-6200000I-20000J0D01*
G01*
X11805210Y-6200000D02*
G75*
G02*
X11845210Y-6200000I20000J0D01*
G01*
X11845210Y-15400000D02*
G75*
G02*
X11805210Y-15400000I-20000J0D01*
G01*
X11805210Y-15400000D02*
G75*
G02*
X11845210Y-15400000I20000J0D01*
G01*
X12495731Y-15400000D02*
G75*
G02*
X12455731Y-15400000I-20000J0D01*
G01*
X12455731Y-15400000D02*
G75*
G02*
X12495731Y-15400000I20000J0D01*
G01*
X12495731Y-6200000D02*
G75*
G02*
X12455731Y-6200000I-20000J0D01*
G01*
X12455731Y-6200000D02*
G75*
G02*
X12495731Y-6200000I20000J0D01*
G01*
X13146251Y-6200000D02*
G75*
G02*
X13106251Y-6200000I-20000J0D01*
G01*
X13106251Y-6200000D02*
G75*
G02*
X13146251Y-6200000I20000J0D01*
G01*
X13146251Y-15400000D02*
G75*
G02*
X13106251Y-15400000I-20000J0D01*
G01*
X13106251Y-15400000D02*
G75*
G02*
X13146251Y-15400000I20000J0D01*
G01*
X13796772Y-15400000D02*
G75*
G02*
X13756772Y-15400000I-20000J0D01*
G01*
X13756772Y-15400000D02*
G75*
G02*
X13796772Y-15400000I20000J0D01*
G01*
X13796772Y-6200000D02*
G75*
G02*
X13756772Y-6200000I-20000J0D01*
G01*
X13756772Y-6200000D02*
G75*
G02*
X13796772Y-6200000I20000J0D01*
G01*
X14447292Y-6200000D02*
G75*
G02*
X14407292Y-6200000I-20000J0D01*
G01*
X14407292Y-6200000D02*
G75*
G02*
X14447292Y-6200000I20000J0D01*
G01*
X14447292Y-15400000D02*
G75*
G02*
X14407292Y-15400000I-20000J0D01*
G01*
X14407292Y-15400000D02*
G75*
G02*
X14447292Y-15400000I20000J0D01*
G01*
X15097813Y-6200000D02*
G75*
G02*
X15057813Y-6200000I-20000J0D01*
G01*
X15057813Y-6200000D02*
G75*
G02*
X15097813Y-6200000I20000J0D01*
G01*
X15110084Y-15400000D02*
G75*
G02*
X15070084Y-15400000I-20000J0D01*
G01*
X15070084Y-15400000D02*
G75*
G02*
X15110084Y-15400000I20000J0D01*
G01*
X15748333Y-6200000D02*
G75*
G02*
X15708333Y-6200000I-20000J0D01*
G01*
X15708333Y-6200000D02*
G75*
G02*
X15748333Y-6200000I20000J0D01*
G01*
X15760604Y-15400000D02*
G75*
G02*
X15720604Y-15400000I-20000J0D01*
G01*
X15720604Y-15400000D02*
G75*
G02*
X15760604Y-15400000I20000J0D01*
G01*
X16398854Y-6200000D02*
G75*
G02*
X16358854Y-6200000I-20000J0D01*
G01*
X16358854Y-6200000D02*
G75*
G02*
X16398854Y-6200000I20000J0D01*
G01*
X16411124Y-15400000D02*
G75*
G02*
X16371124Y-15400000I-20000J0D01*
G01*
X16371124Y-15400000D02*
G75*
G02*
X16411124Y-15400000I20000J0D01*
G01*
X17049374Y-6200000D02*
G75*
G02*
X17009374Y-6200000I-20000J0D01*
G01*
X17009374Y-6200000D02*
G75*
G02*
X17049374Y-6200000I20000J0D01*
G01*
X17061645Y-15400000D02*
G75*
G02*
X17021645Y-15400000I-20000J0D01*
G01*
X17021645Y-15400000D02*
G75*
G02*
X17061645Y-15400000I20000J0D01*
G01*
X17699895Y-6200000D02*
G75*
G02*
X17659895Y-6200000I-20000J0D01*
G01*
X17659895Y-6200000D02*
G75*
G02*
X17699895Y-6200000I20000J0D01*
G01*
X17712165Y-15400000D02*
G75*
G02*
X17672165Y-15400000I-20000J0D01*
G01*
X17672165Y-15400000D02*
G75*
G02*
X17712165Y-15400000I20000J0D01*
G01*
X18350415Y-6200000D02*
G75*
G02*
X18310415Y-6200000I-20000J0D01*
G01*
X18310415Y-6200000D02*
G75*
G02*
X18350415Y-6200000I20000J0D01*
G01*
X18350415Y-15400000D02*
G75*
G02*
X18310415Y-15400000I-20000J0D01*
G01*
X18310415Y-15400000D02*
G75*
G02*
X18350415Y-15400000I20000J0D01*
G01*
X19000935Y-6200000D02*
G75*
G02*
X18960935Y-6200000I-20000J0D01*
G01*
X18960935Y-6200000D02*
G75*
G02*
X19000935Y-6200000I20000J0D01*
G01*
X19000935Y-15400000D02*
G75*
G02*
X18960935Y-15400000I-20000J0D01*
G01*
X18960935Y-15400000D02*
G75*
G02*
X19000935Y-15400000I20000J0D01*
G01*
X19500000Y-6800000D02*
G75*
G02*
X19460000Y-6800000I-20000J0D01*
G01*
X19460000Y-6800000D02*
G75*
G02*
X19500000Y-6800000I20000J0D01*
G01*
X19500000Y-14800000D02*
G75*
G02*
X19460000Y-14800000I-20000J0D01*
G01*
X19460000Y-14800000D02*
G75*
G02*
X19500000Y-14800000I20000J0D01*
G01*
X19651456Y-6200000D02*
G75*
G02*
X19611456Y-6200000I-20000J0D01*
G01*
X19611456Y-6200000D02*
G75*
G02*
X19651456Y-6200000I20000J0D01*
G01*
X19651456Y-15400000D02*
G75*
G02*
X19611456Y-15400000I-20000J0D01*
G01*
X19611456Y-15400000D02*
G75*
G02*
X19651456Y-15400000I20000J0D01*
G01*
X19710000Y-6436269D02*
G75*
G02*
X19670000Y-6436269I-20000J0D01*
G01*
X19670000Y-6436269D02*
G75*
G02*
X19710000Y-6436269I20000J0D01*
G01*
X19710000Y-7163731D02*
G75*
G02*
X19670000Y-7163731I-20000J0D01*
G01*
X19670000Y-7163731D02*
G75*
G02*
X19710000Y-7163731I20000J0D01*
G01*
X19710000Y-14436269D02*
G75*
G02*
X19670000Y-14436269I-20000J0D01*
G01*
X19670000Y-14436269D02*
G75*
G02*
X19710000Y-14436269I20000J0D01*
G01*
X19710000Y-15163731D02*
G75*
G02*
X19670000Y-15163731I-20000J0D01*
G01*
X19670000Y-15163731D02*
G75*
G02*
X19710000Y-15163731I20000J0D01*
G01*
X20130000Y-6436269D02*
G75*
G02*
X20090000Y-6436269I-20000J0D01*
G01*
X20090000Y-6436269D02*
G75*
G02*
X20130000Y-6436269I20000J0D01*
G01*
X20130000Y-7163731D02*
G75*
G02*
X20090000Y-7163731I-20000J0D01*
G01*
X20090000Y-7163731D02*
G75*
G02*
X20130000Y-7163731I20000J0D01*
G01*
X20130000Y-14436269D02*
G75*
G02*
X20090000Y-14436269I-20000J0D01*
G01*
X20090000Y-14436269D02*
G75*
G02*
X20130000Y-14436269I20000J0D01*
G01*
X20130000Y-15163731D02*
G75*
G02*
X20090000Y-15163731I-20000J0D01*
G01*
X20090000Y-15163731D02*
G75*
G02*
X20130000Y-15163731I20000J0D01*
G01*
X20320000Y-7547398D02*
G75*
G02*
X20280000Y-7547398I-20000J0D01*
G01*
X20280000Y-7547398D02*
G75*
G02*
X20320000Y-7547398I20000J0D01*
G01*
X20320000Y-8197918D02*
G75*
G02*
X20280000Y-8197918I-20000J0D01*
G01*
X20280000Y-8197918D02*
G75*
G02*
X20320000Y-8197918I20000J0D01*
G01*
X20320000Y-8848439D02*
G75*
G02*
X20280000Y-8848439I-20000J0D01*
G01*
X20280000Y-8848439D02*
G75*
G02*
X20320000Y-8848439I20000J0D01*
G01*
X20320000Y-9498959D02*
G75*
G02*
X20280000Y-9498959I-20000J0D01*
G01*
X20280000Y-9498959D02*
G75*
G02*
X20320000Y-9498959I20000J0D01*
G01*
X20320000Y-10149480D02*
G75*
G02*
X20280000Y-10149480I-20000J0D01*
G01*
X20280000Y-10149480D02*
G75*
G02*
X20320000Y-10149480I20000J0D01*
G01*
X20320000Y-10800000D02*
G75*
G02*
X20280000Y-10800000I-20000J0D01*
G01*
X20280000Y-10800000D02*
G75*
G02*
X20320000Y-10800000I20000J0D01*
G01*
X20320000Y-11462791D02*
G75*
G02*
X20280000Y-11462791I-20000J0D01*
G01*
X20280000Y-11462791D02*
G75*
G02*
X20320000Y-11462791I20000J0D01*
G01*
X20320000Y-12113312D02*
G75*
G02*
X20280000Y-12113312I-20000J0D01*
G01*
X20280000Y-12113312D02*
G75*
G02*
X20320000Y-12113312I20000J0D01*
G01*
X20320000Y-12763832D02*
G75*
G02*
X20280000Y-12763832I-20000J0D01*
G01*
X20280000Y-12763832D02*
G75*
G02*
X20320000Y-12763832I20000J0D01*
G01*
X20320000Y-13414353D02*
G75*
G02*
X20280000Y-13414353I-20000J0D01*
G01*
X20280000Y-13414353D02*
G75*
G02*
X20320000Y-13414353I20000J0D01*
G01*
X20320000Y-14064873D02*
G75*
G02*
X20280000Y-14064873I-20000J0D01*
G01*
X20280000Y-14064873D02*
G75*
G02*
X20320000Y-14064873I20000J0D01*
G01*
X20340000Y-6800000D02*
G75*
G02*
X20300000Y-6800000I-20000J0D01*
G01*
X20300000Y-6800000D02*
G75*
G02*
X20340000Y-6800000I20000J0D01*
G01*
X20340000Y-14800000D02*
G75*
G02*
X20300000Y-14800000I-20000J0D01*
G01*
X20300000Y-14800000D02*
G75*
G02*
X20340000Y-14800000I20000J0D01*
G01*
X10610000Y-8211700D02*
X10610000Y-8273700D01*
X10579000Y-8242700D02*
X10641000Y-8242700D01*
X10649000Y-8211700D02*
X10571000Y-8211700D01*
X10571000Y-8273700D02*
G75*
G02*
X10571000Y-8211700I0J31000D01*
G01*
X10571000Y-8273700D02*
X10649000Y-8273700D01*
X10649000Y-8273700D02*
G75*
G03*
X10649000Y-8211700I0J31000D01*
G01*
X10611000Y-9076700D02*
X10611000Y-9138700D01*
X10580000Y-9107700D02*
X10642000Y-9107700D01*
X10650000Y-9076700D02*
X10572000Y-9076700D01*
X10572000Y-9138700D02*
G75*
G02*
X10572000Y-9076700I0J31000D01*
G01*
X10572000Y-9138700D02*
X10650000Y-9138700D01*
X10650000Y-9138700D02*
G75*
G03*
X10650000Y-9076700I0J31000D01*
G01*
X11029000Y-8211700D02*
X11029000Y-8273700D01*
X10998000Y-8242700D02*
X11060000Y-8242700D01*
X11083000Y-8211700D02*
X10975000Y-8211700D01*
X10975000Y-8273700D02*
G75*
G02*
X10975000Y-8211700I0J31000D01*
G01*
X10975000Y-8273700D02*
X11083000Y-8273700D01*
X11083000Y-8273700D02*
G75*
G03*
X11083000Y-8211700I0J31000D01*
G01*
X11029000Y-9076700D02*
X11029000Y-9138700D01*
X10998000Y-9107700D02*
X11060000Y-9107700D01*
X11083000Y-9076700D02*
X10975000Y-9076700D01*
X10975000Y-9138700D02*
G75*
G02*
X10975000Y-9076700I0J31000D01*
G01*
X10975000Y-9138700D02*
X11083000Y-9138700D01*
X11083000Y-9138700D02*
G75*
G03*
X11083000Y-9076700I0J31000D01*
G01*
X12075810Y-14670810D02*
X12075810Y-14619190D01*
X12024190Y-14619190D01*
X12024190Y-14670810D01*
X12075810Y-14670810D01*
X12225810Y-14670810D02*
X12225810Y-14619190D01*
X12174190Y-14619190D01*
X12174190Y-14670810D01*
X12225810Y-14670810D01*
X12375810Y-14670810D02*
X12375810Y-14619190D01*
X12324190Y-14619190D01*
X12324190Y-14670810D01*
X12375810Y-14670810D01*
X12525810Y-14670810D02*
X12525810Y-14619190D01*
X12474190Y-14619190D01*
X12474190Y-14670810D01*
X12525810Y-14670810D01*
X13275810Y-14675810D02*
X13275810Y-14624190D01*
X13224190Y-14624190D01*
X13224190Y-14675810D01*
X13275810Y-14675810D01*
X13425810Y-14675810D02*
X13425810Y-14624190D01*
X13374190Y-14624190D01*
X13374190Y-14675810D01*
X13425810Y-14675810D01*
X13575810Y-14675810D02*
X13575810Y-14624190D01*
X13524190Y-14624190D01*
X13524190Y-14675810D01*
X13575810Y-14675810D01*
X13725810Y-14675810D02*
X13725810Y-14624190D01*
X13674190Y-14624190D01*
X13674190Y-14675810D01*
X13725810Y-14675810D01*
X14475810Y-14675810D02*
X14475810Y-14624190D01*
X14424190Y-14624190D01*
X14424190Y-14675810D01*
X14475810Y-14675810D01*
X14625810Y-14675810D02*
X14625810Y-14624190D01*
X14574190Y-14624190D01*
X14574190Y-14675810D01*
X14625810Y-14675810D01*
X14775810Y-14675810D02*
X14775810Y-14624190D01*
X14724190Y-14624190D01*
X14724190Y-14675810D01*
X14775810Y-14675810D01*
X14925810Y-14675810D02*
X14925810Y-14624190D01*
X14874190Y-14624190D01*
X14874190Y-14675810D01*
X14925810Y-14675810D01*
X15075810Y-14675810D02*
X15075810Y-14624190D01*
X15024190Y-14624190D01*
X15024190Y-14675810D01*
X15075810Y-14675810D01*
X15225810Y-14675810D02*
X15225810Y-14624190D01*
X15174190Y-14624190D01*
X15174190Y-14675810D01*
X15225810Y-14675810D01*
X15975810Y-14675810D02*
X15975810Y-14624190D01*
X15924190Y-14624190D01*
X15924190Y-14675810D01*
X15975810Y-14675810D01*
X16125810Y-14675810D02*
X16125810Y-14624190D01*
X16074190Y-14624190D01*
X16074190Y-14675810D01*
X16125810Y-14675810D01*
X16275810Y-14675810D02*
X16275810Y-14624190D01*
X16224190Y-14624190D01*
X16224190Y-14675810D01*
X16275810Y-14675810D01*
X16425810Y-14675810D02*
X16425810Y-14624190D01*
X16374190Y-14624190D01*
X16374190Y-14675810D01*
X16425810Y-14675810D01*
X17176643Y-14675810D02*
X17176643Y-14624190D01*
X17125024Y-14624190D01*
X17125024Y-14675810D01*
X17176643Y-14675810D01*
X17326643Y-14675810D02*
X17326643Y-14624190D01*
X17275024Y-14624190D01*
X17275024Y-14675810D01*
X17326643Y-14675810D01*
X17476643Y-14675810D02*
X17476643Y-14624190D01*
X17425024Y-14624190D01*
X17425024Y-14675810D01*
X17476643Y-14675810D01*
X17626643Y-14675810D02*
X17626643Y-14624190D01*
X17575024Y-14624190D01*
X17575024Y-14675810D01*
X17626643Y-14675810D01*
X18375810Y-14675810D02*
X18375810Y-14624190D01*
X18324190Y-14624190D01*
X18324190Y-14675810D01*
X18375810Y-14675810D01*
X18525810Y-14675810D02*
X18525810Y-14624190D01*
X18474190Y-14624190D01*
X18474190Y-14675810D01*
X18525810Y-14675810D01*
X18675810Y-14675810D02*
X18675810Y-14624190D01*
X18624190Y-14624190D01*
X18624190Y-14675810D01*
X18675810Y-14675810D01*
X18825810Y-14675810D02*
X18825810Y-14624190D01*
X18774190Y-14624190D01*
X18774190Y-14675810D01*
X18825810Y-14675810D01*
X10900000Y-10845000D02*
X10945000Y-10800000D01*
X10900000Y-10755000D01*
X10855000Y-10800000D01*
X10900000Y-10845000D01*
X11150000Y-10495000D02*
X11195000Y-10450000D01*
X11150000Y-10405000D01*
X11105000Y-10450000D01*
X11150000Y-10495000D01*
X11150000Y-11195000D02*
X11195000Y-11150000D01*
X11150000Y-11105000D01*
X11105000Y-11150000D01*
X11150000Y-11195000D01*
X12050000Y-14170000D02*
X12095000Y-14125000D01*
X12050000Y-14080000D01*
X12005000Y-14125000D01*
X12050000Y-14170000D01*
X12100000Y-8070000D02*
X12145000Y-8025000D01*
X12100000Y-7980000D01*
X12055000Y-8025000D01*
X12100000Y-8070000D01*
X12100000Y-8504859D02*
X12145000Y-8459859D01*
X12100000Y-8414859D01*
X12055000Y-8459859D01*
X12100000Y-8504859D01*
X12100000Y-8935000D02*
X12145000Y-8890000D01*
X12100000Y-8845000D01*
X12055000Y-8890000D01*
X12100000Y-8935000D01*
X12100000Y-9395000D02*
X12145000Y-9350000D01*
X12100000Y-9305000D01*
X12055000Y-9350000D01*
X12100000Y-9395000D01*
X12100000Y-9845000D02*
X12145000Y-9800000D01*
X12100000Y-9755000D01*
X12055000Y-9800000D01*
X12100000Y-9845000D01*
X12500000Y-14170000D02*
X12545000Y-14125000D01*
X12500000Y-14080000D01*
X12455000Y-14125000D01*
X12500000Y-14170000D01*
X13025000Y-14170000D02*
X13070000Y-14125000D01*
X13025000Y-14080000D01*
X12980000Y-14125000D01*
X13025000Y-14170000D01*
X13150000Y-12270000D02*
X13195000Y-12225000D01*
X13150000Y-12180000D01*
X13105000Y-12225000D01*
X13150000Y-12270000D01*
X13200000Y-8045000D02*
X13245000Y-8000000D01*
X13200000Y-7955000D01*
X13155000Y-8000000D01*
X13200000Y-8045000D01*
X13475000Y-14170000D02*
X13520000Y-14125000D01*
X13475000Y-14080000D01*
X13430000Y-14125000D01*
X13475000Y-14170000D01*
X13650000Y-8045000D02*
X13695000Y-8000000D01*
X13650000Y-7955000D01*
X13605000Y-8000000D01*
X13650000Y-8045000D01*
X14100000Y-8045000D02*
X14145000Y-8000000D01*
X14100000Y-7955000D01*
X14055000Y-8000000D01*
X14100000Y-8045000D01*
X14150000Y-14170000D02*
X14195000Y-14125000D01*
X14150000Y-14080000D01*
X14105000Y-14125000D01*
X14150000Y-14170000D01*
X14550000Y-8045000D02*
X14595000Y-8000000D01*
X14550000Y-7955000D01*
X14505000Y-8000000D01*
X14550000Y-8045000D01*
X14600000Y-14170000D02*
X14645000Y-14125000D01*
X14600000Y-14080000D01*
X14555000Y-14125000D01*
X14600000Y-14170000D01*
X15000000Y-8045000D02*
X15045000Y-8000000D01*
X15000000Y-7955000D01*
X14955000Y-8000000D01*
X15000000Y-8045000D01*
X15050000Y-14170000D02*
X15095000Y-14125000D01*
X15050000Y-14080000D01*
X15005000Y-14125000D01*
X15050000Y-14170000D01*
X15500000Y-14170000D02*
X15545000Y-14125000D01*
X15500000Y-14080000D01*
X15455000Y-14125000D01*
X15500000Y-14170000D01*
X15900000Y-8720000D02*
X15945000Y-8675000D01*
X15900000Y-8630000D01*
X15855000Y-8675000D01*
X15900000Y-8720000D01*
X15900000Y-9170000D02*
X15945000Y-9125000D01*
X15900000Y-9080000D01*
X15855000Y-9125000D01*
X15900000Y-9170000D01*
X16175000Y-14170000D02*
X16220000Y-14125000D01*
X16175000Y-14080000D01*
X16130000Y-14125000D01*
X16175000Y-14170000D01*
X16325000Y-12845000D02*
X16370000Y-12800000D01*
X16325000Y-12755000D01*
X16280000Y-12800000D01*
X16325000Y-12845000D01*
X16400000Y-8320000D02*
X16445000Y-8275000D01*
X16400000Y-8230000D01*
X16355000Y-8275000D01*
X16400000Y-8320000D01*
X16400000Y-9570000D02*
X16445000Y-9525000D01*
X16400000Y-9480000D01*
X16355000Y-9525000D01*
X16400000Y-9570000D01*
X16400000Y-10370000D02*
X16445000Y-10325000D01*
X16400000Y-10280000D01*
X16355000Y-10325000D01*
X16400000Y-10370000D01*
X16400000Y-10820000D02*
X16445000Y-10775000D01*
X16400000Y-10730000D01*
X16355000Y-10775000D01*
X16400000Y-10820000D01*
X16400000Y-11270000D02*
X16445000Y-11225000D01*
X16400000Y-11180000D01*
X16355000Y-11225000D01*
X16400000Y-11270000D01*
X16400000Y-11720000D02*
X16445000Y-11675000D01*
X16400000Y-11630000D01*
X16355000Y-11675000D01*
X16400000Y-11720000D01*
X16625000Y-14170000D02*
X16670000Y-14125000D01*
X16625000Y-14080000D01*
X16580000Y-14125000D01*
X16625000Y-14170000D01*
X16925000Y-9568937D02*
X16970000Y-9523937D01*
X16925000Y-9478937D01*
X16880000Y-9523937D01*
X16925000Y-9568937D01*
X17050000Y-10370000D02*
X17095000Y-10325000D01*
X17050000Y-10280000D01*
X17005000Y-10325000D01*
X17050000Y-10370000D01*
X17150000Y-14170000D02*
X17195000Y-14125000D01*
X17150000Y-14080000D01*
X17105000Y-14125000D01*
X17150000Y-14170000D01*
X17300000Y-11695000D02*
X17345000Y-11650000D01*
X17300000Y-11605000D01*
X17255000Y-11650000D01*
X17300000Y-11695000D01*
X17385000Y-8320000D02*
X17430000Y-8275000D01*
X17385000Y-8230000D01*
X17340000Y-8275000D01*
X17385000Y-8320000D01*
X17550000Y-10370000D02*
X17595000Y-10325000D01*
X17550000Y-10280000D01*
X17505000Y-10325000D01*
X17550000Y-10370000D01*
X17600000Y-14170000D02*
X17645000Y-14125000D01*
X17600000Y-14080000D01*
X17555000Y-14125000D01*
X17600000Y-14170000D01*
X17750000Y-13245000D02*
X17795000Y-13200000D01*
X17750000Y-13155000D01*
X17705000Y-13200000D01*
X17750000Y-13245000D01*
X17815000Y-8320000D02*
X17860000Y-8275000D01*
X17815000Y-8230000D01*
X17770000Y-8275000D01*
X17815000Y-8320000D01*
X18150000Y-8920000D02*
X18195000Y-8875000D01*
X18150000Y-8830000D01*
X18105000Y-8875000D01*
X18150000Y-8920000D01*
X18150000Y-9370000D02*
X18195000Y-9325000D01*
X18150000Y-9280000D01*
X18105000Y-9325000D01*
X18150000Y-9370000D01*
X18150000Y-11095000D02*
X18195000Y-11050000D01*
X18150000Y-11005000D01*
X18105000Y-11050000D01*
X18150000Y-11095000D01*
X18150000Y-11520000D02*
X18195000Y-11475000D01*
X18150000Y-11430000D01*
X18105000Y-11475000D01*
X18150000Y-11520000D01*
X18350000Y-14170000D02*
X18395000Y-14125000D01*
X18350000Y-14080000D01*
X18305000Y-14125000D01*
X18350000Y-14170000D01*
X18675000Y-13045000D02*
X18720000Y-13000000D01*
X18675000Y-12955000D01*
X18630000Y-13000000D01*
X18675000Y-13045000D01*
X18800000Y-14170000D02*
X18845000Y-14125000D01*
X18800000Y-14080000D01*
X18755000Y-14125000D01*
X18800000Y-14170000D01*
X19050000Y-12795000D02*
X19095000Y-12750000D01*
X19050000Y-12705000D01*
X19005000Y-12750000D01*
X19050000Y-12795000D01*
X19525000Y-12820000D02*
X19570000Y-12775000D01*
X19525000Y-12730000D01*
X19480000Y-12775000D01*
X19525000Y-12820000D01*
D12*
X12629167Y-7090000D02*
X12799167Y-7260000D01*
X12799167Y-7090000D02*
X12629167Y-7260000D01*
X12799167Y-7175000D02*
G75*
G02*
X12629167Y-7175000I-85000J0D01*
G01*
X12629167Y-7175000D02*
G75*
G02*
X12799167Y-7175000I85000J0D01*
G01*
X13025167Y-7090000D02*
X13195167Y-7260000D01*
X13195167Y-7090000D02*
X13025167Y-7260000D01*
X13195167Y-7175000D02*
G75*
G02*
X13025167Y-7175000I-85000J0D01*
G01*
X13025167Y-7175000D02*
G75*
G02*
X13195167Y-7175000I85000J0D01*
G01*
X13421167Y-7090000D02*
X13591167Y-7260000D01*
X13591167Y-7090000D02*
X13421167Y-7260000D01*
X13591167Y-7175000D02*
G75*
G02*
X13421167Y-7175000I-85000J0D01*
G01*
X13421167Y-7175000D02*
G75*
G02*
X13591167Y-7175000I85000J0D01*
G01*
X13817167Y-7090000D02*
X13987167Y-7260000D01*
X13987167Y-7090000D02*
X13817167Y-7260000D01*
X13987167Y-7175000D02*
G75*
G02*
X13817167Y-7175000I-85000J0D01*
G01*
X13817167Y-7175000D02*
G75*
G02*
X13987167Y-7175000I85000J0D01*
G01*
X14213167Y-7090000D02*
X14383167Y-7260000D01*
X14383167Y-7090000D02*
X14213167Y-7260000D01*
X14383167Y-7175000D02*
G75*
G02*
X14213167Y-7175000I-85000J0D01*
G01*
X14213167Y-7175000D02*
G75*
G02*
X14383167Y-7175000I85000J0D01*
G01*
X14609167Y-7090000D02*
X14779167Y-7260000D01*
X14779167Y-7090000D02*
X14609167Y-7260000D01*
X14779167Y-7175000D02*
G75*
G02*
X14609167Y-7175000I-85000J0D01*
G01*
X14609167Y-7175000D02*
G75*
G02*
X14779167Y-7175000I85000J0D01*
G01*
X15005167Y-7090000D02*
X15175167Y-7260000D01*
X15175167Y-7090000D02*
X15005167Y-7260000D01*
X15175167Y-7175000D02*
G75*
G02*
X15005167Y-7175000I-85000J0D01*
G01*
X15005167Y-7175000D02*
G75*
G02*
X15175167Y-7175000I85000J0D01*
G01*
X15401167Y-7090000D02*
X15571167Y-7260000D01*
X15571167Y-7090000D02*
X15401167Y-7260000D01*
X15571167Y-7175000D02*
G75*
G02*
X15401167Y-7175000I-85000J0D01*
G01*
X15401167Y-7175000D02*
G75*
G02*
X15571167Y-7175000I85000J0D01*
G01*
X16919000Y-7090000D02*
X17089000Y-7260000D01*
X17089000Y-7090000D02*
X16919000Y-7260000D01*
X17089000Y-7175000D02*
G75*
G02*
X16919000Y-7175000I-85000J0D01*
G01*
X16919000Y-7175000D02*
G75*
G02*
X17089000Y-7175000I85000J0D01*
G01*
X17315000Y-7090000D02*
X17485000Y-7260000D01*
X17485000Y-7090000D02*
X17315000Y-7260000D01*
X17485000Y-7175000D02*
G75*
G02*
X17315000Y-7175000I-85000J0D01*
G01*
X17315000Y-7175000D02*
G75*
G02*
X17485000Y-7175000I85000J0D01*
G01*
X17711000Y-7090000D02*
X17881000Y-7260000D01*
X17881000Y-7090000D02*
X17711000Y-7260000D01*
X17881000Y-7175000D02*
G75*
G02*
X17711000Y-7175000I-85000J0D01*
G01*
X17711000Y-7175000D02*
G75*
G02*
X17881000Y-7175000I85000J0D01*
G01*
X18107000Y-7090000D02*
X18277000Y-7260000D01*
X18277000Y-7090000D02*
X18107000Y-7260000D01*
X18277000Y-7175000D02*
G75*
G02*
X18107000Y-7175000I-85000J0D01*
G01*
X18107000Y-7175000D02*
G75*
G02*
X18277000Y-7175000I85000J0D01*
G01*
X18890000Y-8023000D02*
X19060000Y-8193000D01*
X19060000Y-8023000D02*
X18890000Y-8193000D01*
X19060000Y-8108000D02*
G75*
G02*
X18890000Y-8108000I-85000J0D01*
G01*
X18890000Y-8108000D02*
G75*
G02*
X19060000Y-8108000I85000J0D01*
G01*
X18890000Y-8419000D02*
X19060000Y-8589000D01*
X19060000Y-8419000D02*
X18890000Y-8589000D01*
X19060000Y-8504000D02*
G75*
G02*
X18890000Y-8504000I-85000J0D01*
G01*
X18890000Y-8504000D02*
G75*
G02*
X19060000Y-8504000I85000J0D01*
G01*
X18890000Y-8815000D02*
X19060000Y-8985000D01*
X19060000Y-8815000D02*
X18890000Y-8985000D01*
X19060000Y-8900000D02*
G75*
G02*
X18890000Y-8900000I-85000J0D01*
G01*
X18890000Y-8900000D02*
G75*
G02*
X19060000Y-8900000I85000J0D01*
G01*
X18890000Y-9211000D02*
X19060000Y-9381000D01*
X19060000Y-9211000D02*
X18890000Y-9381000D01*
X19060000Y-9296000D02*
G75*
G02*
X18890000Y-9296000I-85000J0D01*
G01*
X18890000Y-9296000D02*
G75*
G02*
X19060000Y-9296000I85000J0D01*
G01*
X18895000Y-10173000D02*
X19065000Y-10343000D01*
X19065000Y-10173000D02*
X18895000Y-10343000D01*
X19065000Y-10258000D02*
G75*
G02*
X18895000Y-10258000I-85000J0D01*
G01*
X18895000Y-10258000D02*
G75*
G02*
X19065000Y-10258000I85000J0D01*
G01*
X18895000Y-10569000D02*
X19065000Y-10739000D01*
X19065000Y-10569000D02*
X18895000Y-10739000D01*
X19065000Y-10654000D02*
G75*
G02*
X18895000Y-10654000I-85000J0D01*
G01*
X18895000Y-10654000D02*
G75*
G02*
X19065000Y-10654000I85000J0D01*
G01*
X18895000Y-10965000D02*
X19065000Y-11135000D01*
X19065000Y-10965000D02*
X18895000Y-11135000D01*
X19065000Y-11050000D02*
G75*
G02*
X18895000Y-11050000I-85000J0D01*
G01*
X18895000Y-11050000D02*
G75*
G02*
X19065000Y-11050000I85000J0D01*
G01*
X18895000Y-11361000D02*
X19065000Y-11531000D01*
X19065000Y-11361000D02*
X18895000Y-11531000D01*
X19065000Y-11446000D02*
G75*
G02*
X18895000Y-11446000I-85000J0D01*
G01*
X18895000Y-11446000D02*
G75*
G02*
X19065000Y-11446000I85000J0D01*
G01*
D13*
X10610000Y-6510000D02*
X11190000Y-7090000D01*
X11190000Y-6510000D02*
X10610000Y-7090000D01*
X10900000Y-6510000D02*
X10900000Y-7090000D01*
X10610000Y-6800000D02*
X11190000Y-6800000D01*
X10610000Y-14510000D02*
X11190000Y-15090000D01*
X11190000Y-14510000D02*
X10610000Y-15090000D01*
X10900000Y-14510000D02*
X10900000Y-15090000D01*
X10610000Y-14800000D02*
X11190000Y-14800000D01*
X19610000Y-6510000D02*
X20190000Y-7090000D01*
X20190000Y-6510000D02*
X19610000Y-7090000D01*
X19900000Y-6510000D02*
X19900000Y-7090000D01*
X19610000Y-6800000D02*
X20190000Y-6800000D01*
X19610000Y-14510000D02*
X20190000Y-15090000D01*
X20190000Y-14510000D02*
X19610000Y-15090000D01*
X19900000Y-14510000D02*
X19900000Y-15090000D01*
X19610000Y-14800000D02*
X20190000Y-14800000D01*
D11*
X10555777Y-15916484D02*
X10555777Y-15716484D01*
X10555777Y-15716484D02*
X10603396Y-15716484D01*
X10603396Y-15716484D02*
X10631967Y-15726008D01*
X10631967Y-15726008D02*
X10651015Y-15745055D01*
X10651015Y-15745055D02*
X10660539Y-15764103D01*
X10660539Y-15764103D02*
X10670063Y-15802198D01*
X10670063Y-15802198D02*
X10670063Y-15830769D01*
X10670063Y-15830769D02*
X10660539Y-15868865D01*
X10660539Y-15868865D02*
X10651015Y-15887912D01*
X10651015Y-15887912D02*
X10631967Y-15906960D01*
X10631967Y-15906960D02*
X10603396Y-15916484D01*
X10603396Y-15916484D02*
X10555777Y-15916484D01*
X10755777Y-15916484D02*
X10755777Y-15783150D01*
X10755777Y-15821246D02*
X10765301Y-15802198D01*
X10765301Y-15802198D02*
X10774824Y-15792674D01*
X10774824Y-15792674D02*
X10793872Y-15783150D01*
X10793872Y-15783150D02*
X10812920Y-15783150D01*
X10879586Y-15916484D02*
X10879586Y-15783150D01*
X10879586Y-15716484D02*
X10870063Y-15726008D01*
X10870063Y-15726008D02*
X10879586Y-15735531D01*
X10879586Y-15735531D02*
X10889110Y-15726008D01*
X10889110Y-15726008D02*
X10879586Y-15716484D01*
X10879586Y-15716484D02*
X10879586Y-15735531D01*
X11003396Y-15916484D02*
X10984348Y-15906960D01*
X10984348Y-15906960D02*
X10974824Y-15887912D01*
X10974824Y-15887912D02*
X10974824Y-15716484D01*
X11108158Y-15916484D02*
X11089110Y-15906960D01*
X11089110Y-15906960D02*
X11079586Y-15887912D01*
X11079586Y-15887912D02*
X11079586Y-15716484D01*
X11336729Y-15916484D02*
X11336729Y-15716484D01*
X11336729Y-15716484D02*
X11403396Y-15859341D01*
X11403396Y-15859341D02*
X11470062Y-15716484D01*
X11470062Y-15716484D02*
X11470062Y-15916484D01*
X11651015Y-15916484D02*
X11651015Y-15811722D01*
X11651015Y-15811722D02*
X11641491Y-15792674D01*
X11641491Y-15792674D02*
X11622443Y-15783150D01*
X11622443Y-15783150D02*
X11584348Y-15783150D01*
X11584348Y-15783150D02*
X11565301Y-15792674D01*
X11651015Y-15906960D02*
X11631967Y-15916484D01*
X11631967Y-15916484D02*
X11584348Y-15916484D01*
X11584348Y-15916484D02*
X11565301Y-15906960D01*
X11565301Y-15906960D02*
X11555777Y-15887912D01*
X11555777Y-15887912D02*
X11555777Y-15868865D01*
X11555777Y-15868865D02*
X11565301Y-15849817D01*
X11565301Y-15849817D02*
X11584348Y-15840293D01*
X11584348Y-15840293D02*
X11631967Y-15840293D01*
X11631967Y-15840293D02*
X11651015Y-15830769D01*
X11746253Y-15783150D02*
X11746253Y-15983150D01*
X11746253Y-15792674D02*
X11765301Y-15783150D01*
X11765301Y-15783150D02*
X11803396Y-15783150D01*
X11803396Y-15783150D02*
X11822443Y-15792674D01*
X11822443Y-15792674D02*
X11831967Y-15802198D01*
X11831967Y-15802198D02*
X11841491Y-15821246D01*
X11841491Y-15821246D02*
X11841491Y-15878388D01*
X11841491Y-15878388D02*
X11831967Y-15897436D01*
X11831967Y-15897436D02*
X11822443Y-15906960D01*
X11822443Y-15906960D02*
X11803396Y-15916484D01*
X11803396Y-15916484D02*
X11765301Y-15916484D01*
X11765301Y-15916484D02*
X11746253Y-15906960D01*
X11927205Y-15897436D02*
X11936729Y-15906960D01*
X11936729Y-15906960D02*
X11927205Y-15916484D01*
X11927205Y-15916484D02*
X11917682Y-15906960D01*
X11917682Y-15906960D02*
X11927205Y-15897436D01*
X11927205Y-15897436D02*
X11927205Y-15916484D01*
X11927205Y-15792674D02*
X11936729Y-15802198D01*
X11936729Y-15802198D02*
X11927205Y-15811722D01*
X11927205Y-15811722D02*
X11917682Y-15802198D01*
X11917682Y-15802198D02*
X11927205Y-15792674D01*
X11927205Y-15792674D02*
X11927205Y-15811722D01*
D10*
X10255000Y-16225000D02*
X10295000Y-16265000D01*
X10295000Y-16225000D02*
X10255000Y-16265000D01*
D11*
X10593872Y-16136484D02*
X10612920Y-16136484D01*
X10612920Y-16136484D02*
X10631967Y-16146008D01*
X10631967Y-16146008D02*
X10641491Y-16155531D01*
X10641491Y-16155531D02*
X10651015Y-16174579D01*
X10651015Y-16174579D02*
X10660539Y-16212674D01*
X10660539Y-16212674D02*
X10660539Y-16260293D01*
X10660539Y-16260293D02*
X10651015Y-16298388D01*
X10651015Y-16298388D02*
X10641491Y-16317436D01*
X10641491Y-16317436D02*
X10631967Y-16326960D01*
X10631967Y-16326960D02*
X10612920Y-16336484D01*
X10612920Y-16336484D02*
X10593872Y-16336484D01*
X10593872Y-16336484D02*
X10574824Y-16326960D01*
X10574824Y-16326960D02*
X10565301Y-16317436D01*
X10565301Y-16317436D02*
X10555777Y-16298388D01*
X10555777Y-16298388D02*
X10546253Y-16260293D01*
X10546253Y-16260293D02*
X10546253Y-16212674D01*
X10546253Y-16212674D02*
X10555777Y-16174579D01*
X10555777Y-16174579D02*
X10565301Y-16155531D01*
X10565301Y-16155531D02*
X10574824Y-16146008D01*
X10574824Y-16146008D02*
X10593872Y-16136484D01*
X10746253Y-16317436D02*
X10755777Y-16326960D01*
X10755777Y-16326960D02*
X10746253Y-16336484D01*
X10746253Y-16336484D02*
X10736729Y-16326960D01*
X10736729Y-16326960D02*
X10746253Y-16317436D01*
X10746253Y-16317436D02*
X10746253Y-16336484D01*
X10927205Y-16203150D02*
X10927205Y-16336484D01*
X10879586Y-16126960D02*
X10831967Y-16269817D01*
X10831967Y-16269817D02*
X10955777Y-16269817D01*
X11070063Y-16136484D02*
X11089110Y-16136484D01*
X11089110Y-16136484D02*
X11108158Y-16146008D01*
X11108158Y-16146008D02*
X11117682Y-16155531D01*
X11117682Y-16155531D02*
X11127205Y-16174579D01*
X11127205Y-16174579D02*
X11136729Y-16212674D01*
X11136729Y-16212674D02*
X11136729Y-16260293D01*
X11136729Y-16260293D02*
X11127205Y-16298388D01*
X11127205Y-16298388D02*
X11117682Y-16317436D01*
X11117682Y-16317436D02*
X11108158Y-16326960D01*
X11108158Y-16326960D02*
X11089110Y-16336484D01*
X11089110Y-16336484D02*
X11070063Y-16336484D01*
X11070063Y-16336484D02*
X11051015Y-16326960D01*
X11051015Y-16326960D02*
X11041491Y-16317436D01*
X11041491Y-16317436D02*
X11031967Y-16298388D01*
X11031967Y-16298388D02*
X11022444Y-16260293D01*
X11022444Y-16260293D02*
X11022444Y-16212674D01*
X11022444Y-16212674D02*
X11031967Y-16174579D01*
X11031967Y-16174579D02*
X11041491Y-16155531D01*
X11041491Y-16155531D02*
X11051015Y-16146008D01*
X11051015Y-16146008D02*
X11070063Y-16136484D01*
X11260539Y-16136484D02*
X11279586Y-16136484D01*
X11279586Y-16136484D02*
X11298634Y-16146008D01*
X11298634Y-16146008D02*
X11308158Y-16155531D01*
X11308158Y-16155531D02*
X11317682Y-16174579D01*
X11317682Y-16174579D02*
X11327205Y-16212674D01*
X11327205Y-16212674D02*
X11327205Y-16260293D01*
X11327205Y-16260293D02*
X11317682Y-16298388D01*
X11317682Y-16298388D02*
X11308158Y-16317436D01*
X11308158Y-16317436D02*
X11298634Y-16326960D01*
X11298634Y-16326960D02*
X11279586Y-16336484D01*
X11279586Y-16336484D02*
X11260539Y-16336484D01*
X11260539Y-16336484D02*
X11241491Y-16326960D01*
X11241491Y-16326960D02*
X11231967Y-16317436D01*
X11231967Y-16317436D02*
X11222443Y-16298388D01*
X11222443Y-16298388D02*
X11212920Y-16260293D01*
X11212920Y-16260293D02*
X11212920Y-16212674D01*
X11212920Y-16212674D02*
X11222443Y-16174579D01*
X11222443Y-16174579D02*
X11231967Y-16155531D01*
X11231967Y-16155531D02*
X11241491Y-16146008D01*
X11241491Y-16146008D02*
X11260539Y-16136484D01*
X11412920Y-16336484D02*
X11412920Y-16203150D01*
X11412920Y-16222198D02*
X11422443Y-16212674D01*
X11422443Y-16212674D02*
X11441491Y-16203150D01*
X11441491Y-16203150D02*
X11470063Y-16203150D01*
X11470063Y-16203150D02*
X11489110Y-16212674D01*
X11489110Y-16212674D02*
X11498634Y-16231722D01*
X11498634Y-16231722D02*
X11498634Y-16336484D01*
X11498634Y-16231722D02*
X11508158Y-16212674D01*
X11508158Y-16212674D02*
X11527205Y-16203150D01*
X11527205Y-16203150D02*
X11555777Y-16203150D01*
X11555777Y-16203150D02*
X11574824Y-16212674D01*
X11574824Y-16212674D02*
X11584348Y-16231722D01*
X11584348Y-16231722D02*
X11584348Y-16336484D01*
X11679586Y-16336484D02*
X11679586Y-16203150D01*
X11679586Y-16222198D02*
X11689110Y-16212674D01*
X11689110Y-16212674D02*
X11708158Y-16203150D01*
X11708158Y-16203150D02*
X11736729Y-16203150D01*
X11736729Y-16203150D02*
X11755777Y-16212674D01*
X11755777Y-16212674D02*
X11765301Y-16231722D01*
X11765301Y-16231722D02*
X11765301Y-16336484D01*
X11765301Y-16231722D02*
X11774824Y-16212674D01*
X11774824Y-16212674D02*
X11793872Y-16203150D01*
X11793872Y-16203150D02*
X11822443Y-16203150D01*
X11822443Y-16203150D02*
X11841491Y-16212674D01*
X11841491Y-16212674D02*
X11851015Y-16231722D01*
X11851015Y-16231722D02*
X11851015Y-16336484D01*
X12241491Y-16126960D02*
X12070063Y-16384103D01*
X12498634Y-16136484D02*
X12517682Y-16136484D01*
X12517682Y-16136484D02*
X12536729Y-16146008D01*
X12536729Y-16146008D02*
X12546253Y-16155531D01*
X12546253Y-16155531D02*
X12555777Y-16174579D01*
X12555777Y-16174579D02*
X12565301Y-16212674D01*
X12565301Y-16212674D02*
X12565301Y-16260293D01*
X12565301Y-16260293D02*
X12555777Y-16298388D01*
X12555777Y-16298388D02*
X12546253Y-16317436D01*
X12546253Y-16317436D02*
X12536729Y-16326960D01*
X12536729Y-16326960D02*
X12517682Y-16336484D01*
X12517682Y-16336484D02*
X12498634Y-16336484D01*
X12498634Y-16336484D02*
X12479586Y-16326960D01*
X12479586Y-16326960D02*
X12470063Y-16317436D01*
X12470063Y-16317436D02*
X12460539Y-16298388D01*
X12460539Y-16298388D02*
X12451015Y-16260293D01*
X12451015Y-16260293D02*
X12451015Y-16212674D01*
X12451015Y-16212674D02*
X12460539Y-16174579D01*
X12460539Y-16174579D02*
X12470063Y-16155531D01*
X12470063Y-16155531D02*
X12479586Y-16146008D01*
X12479586Y-16146008D02*
X12498634Y-16136484D01*
X12651015Y-16317436D02*
X12660539Y-16326960D01*
X12660539Y-16326960D02*
X12651015Y-16336484D01*
X12651015Y-16336484D02*
X12641491Y-16326960D01*
X12641491Y-16326960D02*
X12651015Y-16317436D01*
X12651015Y-16317436D02*
X12651015Y-16336484D01*
X12784348Y-16136484D02*
X12803396Y-16136484D01*
X12803396Y-16136484D02*
X12822444Y-16146008D01*
X12822444Y-16146008D02*
X12831967Y-16155531D01*
X12831967Y-16155531D02*
X12841491Y-16174579D01*
X12841491Y-16174579D02*
X12851015Y-16212674D01*
X12851015Y-16212674D02*
X12851015Y-16260293D01*
X12851015Y-16260293D02*
X12841491Y-16298388D01*
X12841491Y-16298388D02*
X12831967Y-16317436D01*
X12831967Y-16317436D02*
X12822444Y-16326960D01*
X12822444Y-16326960D02*
X12803396Y-16336484D01*
X12803396Y-16336484D02*
X12784348Y-16336484D01*
X12784348Y-16336484D02*
X12765301Y-16326960D01*
X12765301Y-16326960D02*
X12755777Y-16317436D01*
X12755777Y-16317436D02*
X12746253Y-16298388D01*
X12746253Y-16298388D02*
X12736729Y-16260293D01*
X12736729Y-16260293D02*
X12736729Y-16212674D01*
X12736729Y-16212674D02*
X12746253Y-16174579D01*
X12746253Y-16174579D02*
X12755777Y-16155531D01*
X12755777Y-16155531D02*
X12765301Y-16146008D01*
X12765301Y-16146008D02*
X12784348Y-16136484D01*
X13041491Y-16336484D02*
X12927206Y-16336484D01*
X12984348Y-16336484D02*
X12984348Y-16136484D01*
X12984348Y-16136484D02*
X12965301Y-16165055D01*
X12965301Y-16165055D02*
X12946253Y-16184103D01*
X12946253Y-16184103D02*
X12927206Y-16193627D01*
X13222444Y-16136484D02*
X13127206Y-16136484D01*
X13127206Y-16136484D02*
X13117682Y-16231722D01*
X13117682Y-16231722D02*
X13127206Y-16222198D01*
X13127206Y-16222198D02*
X13146253Y-16212674D01*
X13146253Y-16212674D02*
X13193872Y-16212674D01*
X13193872Y-16212674D02*
X13212920Y-16222198D01*
X13212920Y-16222198D02*
X13222444Y-16231722D01*
X13222444Y-16231722D02*
X13231967Y-16250769D01*
X13231967Y-16250769D02*
X13231967Y-16298388D01*
X13231967Y-16298388D02*
X13222444Y-16317436D01*
X13222444Y-16317436D02*
X13212920Y-16326960D01*
X13212920Y-16326960D02*
X13193872Y-16336484D01*
X13193872Y-16336484D02*
X13146253Y-16336484D01*
X13146253Y-16336484D02*
X13127206Y-16326960D01*
X13127206Y-16326960D02*
X13117682Y-16317436D01*
X13298634Y-16136484D02*
X13431967Y-16136484D01*
X13431967Y-16136484D02*
X13346253Y-16336484D01*
X13498634Y-16136484D02*
X13498634Y-16174579D01*
X13574825Y-16136484D02*
X13574825Y-16174579D01*
X13870063Y-16412674D02*
X13860539Y-16403150D01*
X13860539Y-16403150D02*
X13841491Y-16374579D01*
X13841491Y-16374579D02*
X13831968Y-16355531D01*
X13831968Y-16355531D02*
X13822444Y-16326960D01*
X13822444Y-16326960D02*
X13812920Y-16279341D01*
X13812920Y-16279341D02*
X13812920Y-16241246D01*
X13812920Y-16241246D02*
X13822444Y-16193627D01*
X13822444Y-16193627D02*
X13831968Y-16165055D01*
X13831968Y-16165055D02*
X13841491Y-16146008D01*
X13841491Y-16146008D02*
X13860539Y-16117436D01*
X13860539Y-16117436D02*
X13870063Y-16107912D01*
X13927206Y-16136484D02*
X14051015Y-16136484D01*
X14051015Y-16136484D02*
X13984348Y-16212674D01*
X13984348Y-16212674D02*
X14012920Y-16212674D01*
X14012920Y-16212674D02*
X14031968Y-16222198D01*
X14031968Y-16222198D02*
X14041491Y-16231722D01*
X14041491Y-16231722D02*
X14051015Y-16250769D01*
X14051015Y-16250769D02*
X14051015Y-16298388D01*
X14051015Y-16298388D02*
X14041491Y-16317436D01*
X14041491Y-16317436D02*
X14031968Y-16326960D01*
X14031968Y-16326960D02*
X14012920Y-16336484D01*
X14012920Y-16336484D02*
X13955777Y-16336484D01*
X13955777Y-16336484D02*
X13936729Y-16326960D01*
X13936729Y-16326960D02*
X13927206Y-16317436D01*
X14241491Y-16336484D02*
X14127206Y-16336484D01*
X14184348Y-16336484D02*
X14184348Y-16136484D01*
X14184348Y-16136484D02*
X14165301Y-16165055D01*
X14165301Y-16165055D02*
X14146253Y-16184103D01*
X14146253Y-16184103D02*
X14127206Y-16193627D01*
X14355777Y-16222198D02*
X14336729Y-16212674D01*
X14336729Y-16212674D02*
X14327206Y-16203150D01*
X14327206Y-16203150D02*
X14317682Y-16184103D01*
X14317682Y-16184103D02*
X14317682Y-16174579D01*
X14317682Y-16174579D02*
X14327206Y-16155531D01*
X14327206Y-16155531D02*
X14336729Y-16146008D01*
X14336729Y-16146008D02*
X14355777Y-16136484D01*
X14355777Y-16136484D02*
X14393872Y-16136484D01*
X14393872Y-16136484D02*
X14412920Y-16146008D01*
X14412920Y-16146008D02*
X14422444Y-16155531D01*
X14422444Y-16155531D02*
X14431968Y-16174579D01*
X14431968Y-16174579D02*
X14431968Y-16184103D01*
X14431968Y-16184103D02*
X14422444Y-16203150D01*
X14422444Y-16203150D02*
X14412920Y-16212674D01*
X14412920Y-16212674D02*
X14393872Y-16222198D01*
X14393872Y-16222198D02*
X14355777Y-16222198D01*
X14355777Y-16222198D02*
X14336729Y-16231722D01*
X14336729Y-16231722D02*
X14327206Y-16241246D01*
X14327206Y-16241246D02*
X14317682Y-16260293D01*
X14317682Y-16260293D02*
X14317682Y-16298388D01*
X14317682Y-16298388D02*
X14327206Y-16317436D01*
X14327206Y-16317436D02*
X14336729Y-16326960D01*
X14336729Y-16326960D02*
X14355777Y-16336484D01*
X14355777Y-16336484D02*
X14393872Y-16336484D01*
X14393872Y-16336484D02*
X14412920Y-16326960D01*
X14412920Y-16326960D02*
X14422444Y-16317436D01*
X14422444Y-16317436D02*
X14431968Y-16298388D01*
X14431968Y-16298388D02*
X14431968Y-16260293D01*
X14431968Y-16260293D02*
X14422444Y-16241246D01*
X14422444Y-16241246D02*
X14412920Y-16231722D01*
X14412920Y-16231722D02*
X14393872Y-16222198D01*
X14670063Y-16336484D02*
X14670063Y-16136484D01*
X14755777Y-16336484D02*
X14755777Y-16231722D01*
X14755777Y-16231722D02*
X14746253Y-16212674D01*
X14746253Y-16212674D02*
X14727206Y-16203150D01*
X14727206Y-16203150D02*
X14698634Y-16203150D01*
X14698634Y-16203150D02*
X14679587Y-16212674D01*
X14679587Y-16212674D02*
X14670063Y-16222198D01*
X14879587Y-16336484D02*
X14860539Y-16326960D01*
X14860539Y-16326960D02*
X14851015Y-16317436D01*
X14851015Y-16317436D02*
X14841491Y-16298388D01*
X14841491Y-16298388D02*
X14841491Y-16241246D01*
X14841491Y-16241246D02*
X14851015Y-16222198D01*
X14851015Y-16222198D02*
X14860539Y-16212674D01*
X14860539Y-16212674D02*
X14879587Y-16203150D01*
X14879587Y-16203150D02*
X14908158Y-16203150D01*
X14908158Y-16203150D02*
X14927206Y-16212674D01*
X14927206Y-16212674D02*
X14936730Y-16222198D01*
X14936730Y-16222198D02*
X14946253Y-16241246D01*
X14946253Y-16241246D02*
X14946253Y-16298388D01*
X14946253Y-16298388D02*
X14936730Y-16317436D01*
X14936730Y-16317436D02*
X14927206Y-16326960D01*
X14927206Y-16326960D02*
X14908158Y-16336484D01*
X14908158Y-16336484D02*
X14879587Y-16336484D01*
X15060539Y-16336484D02*
X15041491Y-16326960D01*
X15041491Y-16326960D02*
X15031968Y-16307912D01*
X15031968Y-16307912D02*
X15031968Y-16136484D01*
X15212920Y-16326960D02*
X15193872Y-16336484D01*
X15193872Y-16336484D02*
X15155777Y-16336484D01*
X15155777Y-16336484D02*
X15136730Y-16326960D01*
X15136730Y-16326960D02*
X15127206Y-16307912D01*
X15127206Y-16307912D02*
X15127206Y-16231722D01*
X15127206Y-16231722D02*
X15136730Y-16212674D01*
X15136730Y-16212674D02*
X15155777Y-16203150D01*
X15155777Y-16203150D02*
X15193872Y-16203150D01*
X15193872Y-16203150D02*
X15212920Y-16212674D01*
X15212920Y-16212674D02*
X15222444Y-16231722D01*
X15222444Y-16231722D02*
X15222444Y-16250769D01*
X15222444Y-16250769D02*
X15127206Y-16269817D01*
X15298634Y-16326960D02*
X15317682Y-16336484D01*
X15317682Y-16336484D02*
X15355777Y-16336484D01*
X15355777Y-16336484D02*
X15374825Y-16326960D01*
X15374825Y-16326960D02*
X15384349Y-16307912D01*
X15384349Y-16307912D02*
X15384349Y-16298388D01*
X15384349Y-16298388D02*
X15374825Y-16279341D01*
X15374825Y-16279341D02*
X15355777Y-16269817D01*
X15355777Y-16269817D02*
X15327206Y-16269817D01*
X15327206Y-16269817D02*
X15308158Y-16260293D01*
X15308158Y-16260293D02*
X15298634Y-16241246D01*
X15298634Y-16241246D02*
X15298634Y-16231722D01*
X15298634Y-16231722D02*
X15308158Y-16212674D01*
X15308158Y-16212674D02*
X15327206Y-16203150D01*
X15327206Y-16203150D02*
X15355777Y-16203150D01*
X15355777Y-16203150D02*
X15374825Y-16212674D01*
X15451015Y-16412674D02*
X15460539Y-16403150D01*
X15460539Y-16403150D02*
X15479587Y-16374579D01*
X15479587Y-16374579D02*
X15489111Y-16355531D01*
X15489111Y-16355531D02*
X15498634Y-16326960D01*
X15498634Y-16326960D02*
X15508158Y-16279341D01*
X15508158Y-16279341D02*
X15508158Y-16241246D01*
X15508158Y-16241246D02*
X15498634Y-16193627D01*
X15498634Y-16193627D02*
X15489111Y-16165055D01*
X15489111Y-16165055D02*
X15479587Y-16146008D01*
X15479587Y-16146008D02*
X15460539Y-16117436D01*
X15460539Y-16117436D02*
X15451015Y-16107912D01*
D10*
X10295000Y-16509000D02*
G75*
G02*
X10255000Y-16509000I-20000J0D01*
G01*
X10255000Y-16509000D02*
G75*
G02*
X10295000Y-16509000I20000J0D01*
G01*
D11*
X10593872Y-16400484D02*
X10612920Y-16400484D01*
X10612920Y-16400484D02*
X10631967Y-16410008D01*
X10631967Y-16410008D02*
X10641491Y-16419531D01*
X10641491Y-16419531D02*
X10651015Y-16438579D01*
X10651015Y-16438579D02*
X10660539Y-16476674D01*
X10660539Y-16476674D02*
X10660539Y-16524293D01*
X10660539Y-16524293D02*
X10651015Y-16562388D01*
X10651015Y-16562388D02*
X10641491Y-16581436D01*
X10641491Y-16581436D02*
X10631967Y-16590960D01*
X10631967Y-16590960D02*
X10612920Y-16600484D01*
X10612920Y-16600484D02*
X10593872Y-16600484D01*
X10593872Y-16600484D02*
X10574824Y-16590960D01*
X10574824Y-16590960D02*
X10565301Y-16581436D01*
X10565301Y-16581436D02*
X10555777Y-16562388D01*
X10555777Y-16562388D02*
X10546253Y-16524293D01*
X10546253Y-16524293D02*
X10546253Y-16476674D01*
X10546253Y-16476674D02*
X10555777Y-16438579D01*
X10555777Y-16438579D02*
X10565301Y-16419531D01*
X10565301Y-16419531D02*
X10574824Y-16410008D01*
X10574824Y-16410008D02*
X10593872Y-16400484D01*
X10746253Y-16581436D02*
X10755777Y-16590960D01*
X10755777Y-16590960D02*
X10746253Y-16600484D01*
X10746253Y-16600484D02*
X10736729Y-16590960D01*
X10736729Y-16590960D02*
X10746253Y-16581436D01*
X10746253Y-16581436D02*
X10746253Y-16600484D01*
X10927205Y-16467150D02*
X10927205Y-16600484D01*
X10879586Y-16390960D02*
X10831967Y-16533817D01*
X10831967Y-16533817D02*
X10955777Y-16533817D01*
X11070063Y-16400484D02*
X11089110Y-16400484D01*
X11089110Y-16400484D02*
X11108158Y-16410008D01*
X11108158Y-16410008D02*
X11117682Y-16419531D01*
X11117682Y-16419531D02*
X11127205Y-16438579D01*
X11127205Y-16438579D02*
X11136729Y-16476674D01*
X11136729Y-16476674D02*
X11136729Y-16524293D01*
X11136729Y-16524293D02*
X11127205Y-16562388D01*
X11127205Y-16562388D02*
X11117682Y-16581436D01*
X11117682Y-16581436D02*
X11108158Y-16590960D01*
X11108158Y-16590960D02*
X11089110Y-16600484D01*
X11089110Y-16600484D02*
X11070063Y-16600484D01*
X11070063Y-16600484D02*
X11051015Y-16590960D01*
X11051015Y-16590960D02*
X11041491Y-16581436D01*
X11041491Y-16581436D02*
X11031967Y-16562388D01*
X11031967Y-16562388D02*
X11022444Y-16524293D01*
X11022444Y-16524293D02*
X11022444Y-16476674D01*
X11022444Y-16476674D02*
X11031967Y-16438579D01*
X11031967Y-16438579D02*
X11041491Y-16419531D01*
X11041491Y-16419531D02*
X11051015Y-16410008D01*
X11051015Y-16410008D02*
X11070063Y-16400484D01*
X11260539Y-16400484D02*
X11279586Y-16400484D01*
X11279586Y-16400484D02*
X11298634Y-16410008D01*
X11298634Y-16410008D02*
X11308158Y-16419531D01*
X11308158Y-16419531D02*
X11317682Y-16438579D01*
X11317682Y-16438579D02*
X11327205Y-16476674D01*
X11327205Y-16476674D02*
X11327205Y-16524293D01*
X11327205Y-16524293D02*
X11317682Y-16562388D01*
X11317682Y-16562388D02*
X11308158Y-16581436D01*
X11308158Y-16581436D02*
X11298634Y-16590960D01*
X11298634Y-16590960D02*
X11279586Y-16600484D01*
X11279586Y-16600484D02*
X11260539Y-16600484D01*
X11260539Y-16600484D02*
X11241491Y-16590960D01*
X11241491Y-16590960D02*
X11231967Y-16581436D01*
X11231967Y-16581436D02*
X11222443Y-16562388D01*
X11222443Y-16562388D02*
X11212920Y-16524293D01*
X11212920Y-16524293D02*
X11212920Y-16476674D01*
X11212920Y-16476674D02*
X11222443Y-16438579D01*
X11222443Y-16438579D02*
X11231967Y-16419531D01*
X11231967Y-16419531D02*
X11241491Y-16410008D01*
X11241491Y-16410008D02*
X11260539Y-16400484D01*
X11412920Y-16600484D02*
X11412920Y-16467150D01*
X11412920Y-16486198D02*
X11422443Y-16476674D01*
X11422443Y-16476674D02*
X11441491Y-16467150D01*
X11441491Y-16467150D02*
X11470063Y-16467150D01*
X11470063Y-16467150D02*
X11489110Y-16476674D01*
X11489110Y-16476674D02*
X11498634Y-16495722D01*
X11498634Y-16495722D02*
X11498634Y-16600484D01*
X11498634Y-16495722D02*
X11508158Y-16476674D01*
X11508158Y-16476674D02*
X11527205Y-16467150D01*
X11527205Y-16467150D02*
X11555777Y-16467150D01*
X11555777Y-16467150D02*
X11574824Y-16476674D01*
X11574824Y-16476674D02*
X11584348Y-16495722D01*
X11584348Y-16495722D02*
X11584348Y-16600484D01*
X11679586Y-16600484D02*
X11679586Y-16467150D01*
X11679586Y-16486198D02*
X11689110Y-16476674D01*
X11689110Y-16476674D02*
X11708158Y-16467150D01*
X11708158Y-16467150D02*
X11736729Y-16467150D01*
X11736729Y-16467150D02*
X11755777Y-16476674D01*
X11755777Y-16476674D02*
X11765301Y-16495722D01*
X11765301Y-16495722D02*
X11765301Y-16600484D01*
X11765301Y-16495722D02*
X11774824Y-16476674D01*
X11774824Y-16476674D02*
X11793872Y-16467150D01*
X11793872Y-16467150D02*
X11822443Y-16467150D01*
X11822443Y-16467150D02*
X11841491Y-16476674D01*
X11841491Y-16476674D02*
X11851015Y-16495722D01*
X11851015Y-16495722D02*
X11851015Y-16600484D01*
X12241491Y-16390960D02*
X12070063Y-16648103D01*
X12498634Y-16400484D02*
X12517682Y-16400484D01*
X12517682Y-16400484D02*
X12536729Y-16410008D01*
X12536729Y-16410008D02*
X12546253Y-16419531D01*
X12546253Y-16419531D02*
X12555777Y-16438579D01*
X12555777Y-16438579D02*
X12565301Y-16476674D01*
X12565301Y-16476674D02*
X12565301Y-16524293D01*
X12565301Y-16524293D02*
X12555777Y-16562388D01*
X12555777Y-16562388D02*
X12546253Y-16581436D01*
X12546253Y-16581436D02*
X12536729Y-16590960D01*
X12536729Y-16590960D02*
X12517682Y-16600484D01*
X12517682Y-16600484D02*
X12498634Y-16600484D01*
X12498634Y-16600484D02*
X12479586Y-16590960D01*
X12479586Y-16590960D02*
X12470063Y-16581436D01*
X12470063Y-16581436D02*
X12460539Y-16562388D01*
X12460539Y-16562388D02*
X12451015Y-16524293D01*
X12451015Y-16524293D02*
X12451015Y-16476674D01*
X12451015Y-16476674D02*
X12460539Y-16438579D01*
X12460539Y-16438579D02*
X12470063Y-16419531D01*
X12470063Y-16419531D02*
X12479586Y-16410008D01*
X12479586Y-16410008D02*
X12498634Y-16400484D01*
X12651015Y-16581436D02*
X12660539Y-16590960D01*
X12660539Y-16590960D02*
X12651015Y-16600484D01*
X12651015Y-16600484D02*
X12641491Y-16590960D01*
X12641491Y-16590960D02*
X12651015Y-16581436D01*
X12651015Y-16581436D02*
X12651015Y-16600484D01*
X12784348Y-16400484D02*
X12803396Y-16400484D01*
X12803396Y-16400484D02*
X12822444Y-16410008D01*
X12822444Y-16410008D02*
X12831967Y-16419531D01*
X12831967Y-16419531D02*
X12841491Y-16438579D01*
X12841491Y-16438579D02*
X12851015Y-16476674D01*
X12851015Y-16476674D02*
X12851015Y-16524293D01*
X12851015Y-16524293D02*
X12841491Y-16562388D01*
X12841491Y-16562388D02*
X12831967Y-16581436D01*
X12831967Y-16581436D02*
X12822444Y-16590960D01*
X12822444Y-16590960D02*
X12803396Y-16600484D01*
X12803396Y-16600484D02*
X12784348Y-16600484D01*
X12784348Y-16600484D02*
X12765301Y-16590960D01*
X12765301Y-16590960D02*
X12755777Y-16581436D01*
X12755777Y-16581436D02*
X12746253Y-16562388D01*
X12746253Y-16562388D02*
X12736729Y-16524293D01*
X12736729Y-16524293D02*
X12736729Y-16476674D01*
X12736729Y-16476674D02*
X12746253Y-16438579D01*
X12746253Y-16438579D02*
X12755777Y-16419531D01*
X12755777Y-16419531D02*
X12765301Y-16410008D01*
X12765301Y-16410008D02*
X12784348Y-16400484D01*
X13041491Y-16600484D02*
X12927206Y-16600484D01*
X12984348Y-16600484D02*
X12984348Y-16400484D01*
X12984348Y-16400484D02*
X12965301Y-16429055D01*
X12965301Y-16429055D02*
X12946253Y-16448103D01*
X12946253Y-16448103D02*
X12927206Y-16457627D01*
X13222444Y-16400484D02*
X13127206Y-16400484D01*
X13127206Y-16400484D02*
X13117682Y-16495722D01*
X13117682Y-16495722D02*
X13127206Y-16486198D01*
X13127206Y-16486198D02*
X13146253Y-16476674D01*
X13146253Y-16476674D02*
X13193872Y-16476674D01*
X13193872Y-16476674D02*
X13212920Y-16486198D01*
X13212920Y-16486198D02*
X13222444Y-16495722D01*
X13222444Y-16495722D02*
X13231967Y-16514769D01*
X13231967Y-16514769D02*
X13231967Y-16562388D01*
X13231967Y-16562388D02*
X13222444Y-16581436D01*
X13222444Y-16581436D02*
X13212920Y-16590960D01*
X13212920Y-16590960D02*
X13193872Y-16600484D01*
X13193872Y-16600484D02*
X13146253Y-16600484D01*
X13146253Y-16600484D02*
X13127206Y-16590960D01*
X13127206Y-16590960D02*
X13117682Y-16581436D01*
X13298634Y-16400484D02*
X13431967Y-16400484D01*
X13431967Y-16400484D02*
X13346253Y-16600484D01*
X13498634Y-16400484D02*
X13498634Y-16438579D01*
X13574825Y-16400484D02*
X13574825Y-16438579D01*
X13870063Y-16676674D02*
X13860539Y-16667150D01*
X13860539Y-16667150D02*
X13841491Y-16638579D01*
X13841491Y-16638579D02*
X13831968Y-16619531D01*
X13831968Y-16619531D02*
X13822444Y-16590960D01*
X13822444Y-16590960D02*
X13812920Y-16543341D01*
X13812920Y-16543341D02*
X13812920Y-16505246D01*
X13812920Y-16505246D02*
X13822444Y-16457627D01*
X13822444Y-16457627D02*
X13831968Y-16429055D01*
X13831968Y-16429055D02*
X13841491Y-16410008D01*
X13841491Y-16410008D02*
X13860539Y-16381436D01*
X13860539Y-16381436D02*
X13870063Y-16371912D01*
X13927206Y-16400484D02*
X14060539Y-16400484D01*
X14060539Y-16400484D02*
X13974825Y-16600484D01*
X14117682Y-16400484D02*
X14241491Y-16400484D01*
X14241491Y-16400484D02*
X14174825Y-16476674D01*
X14174825Y-16476674D02*
X14203396Y-16476674D01*
X14203396Y-16476674D02*
X14222444Y-16486198D01*
X14222444Y-16486198D02*
X14231968Y-16495722D01*
X14231968Y-16495722D02*
X14241491Y-16514769D01*
X14241491Y-16514769D02*
X14241491Y-16562388D01*
X14241491Y-16562388D02*
X14231968Y-16581436D01*
X14231968Y-16581436D02*
X14222444Y-16590960D01*
X14222444Y-16590960D02*
X14203396Y-16600484D01*
X14203396Y-16600484D02*
X14146253Y-16600484D01*
X14146253Y-16600484D02*
X14127206Y-16590960D01*
X14127206Y-16590960D02*
X14117682Y-16581436D01*
X14479587Y-16600484D02*
X14479587Y-16400484D01*
X14565301Y-16600484D02*
X14565301Y-16495722D01*
X14565301Y-16495722D02*
X14555777Y-16476674D01*
X14555777Y-16476674D02*
X14536730Y-16467150D01*
X14536730Y-16467150D02*
X14508158Y-16467150D01*
X14508158Y-16467150D02*
X14489110Y-16476674D01*
X14489110Y-16476674D02*
X14479587Y-16486198D01*
X14689110Y-16600484D02*
X14670063Y-16590960D01*
X14670063Y-16590960D02*
X14660539Y-16581436D01*
X14660539Y-16581436D02*
X14651015Y-16562388D01*
X14651015Y-16562388D02*
X14651015Y-16505246D01*
X14651015Y-16505246D02*
X14660539Y-16486198D01*
X14660539Y-16486198D02*
X14670063Y-16476674D01*
X14670063Y-16476674D02*
X14689110Y-16467150D01*
X14689110Y-16467150D02*
X14717682Y-16467150D01*
X14717682Y-16467150D02*
X14736730Y-16476674D01*
X14736730Y-16476674D02*
X14746253Y-16486198D01*
X14746253Y-16486198D02*
X14755777Y-16505246D01*
X14755777Y-16505246D02*
X14755777Y-16562388D01*
X14755777Y-16562388D02*
X14746253Y-16581436D01*
X14746253Y-16581436D02*
X14736730Y-16590960D01*
X14736730Y-16590960D02*
X14717682Y-16600484D01*
X14717682Y-16600484D02*
X14689110Y-16600484D01*
X14870063Y-16600484D02*
X14851015Y-16590960D01*
X14851015Y-16590960D02*
X14841491Y-16571912D01*
X14841491Y-16571912D02*
X14841491Y-16400484D01*
X15022444Y-16590960D02*
X15003396Y-16600484D01*
X15003396Y-16600484D02*
X14965301Y-16600484D01*
X14965301Y-16600484D02*
X14946253Y-16590960D01*
X14946253Y-16590960D02*
X14936730Y-16571912D01*
X14936730Y-16571912D02*
X14936730Y-16495722D01*
X14936730Y-16495722D02*
X14946253Y-16476674D01*
X14946253Y-16476674D02*
X14965301Y-16467150D01*
X14965301Y-16467150D02*
X15003396Y-16467150D01*
X15003396Y-16467150D02*
X15022444Y-16476674D01*
X15022444Y-16476674D02*
X15031968Y-16495722D01*
X15031968Y-16495722D02*
X15031968Y-16514769D01*
X15031968Y-16514769D02*
X14936730Y-16533817D01*
X15108158Y-16590960D02*
X15127206Y-16600484D01*
X15127206Y-16600484D02*
X15165301Y-16600484D01*
X15165301Y-16600484D02*
X15184349Y-16590960D01*
X15184349Y-16590960D02*
X15193872Y-16571912D01*
X15193872Y-16571912D02*
X15193872Y-16562388D01*
X15193872Y-16562388D02*
X15184349Y-16543341D01*
X15184349Y-16543341D02*
X15165301Y-16533817D01*
X15165301Y-16533817D02*
X15136730Y-16533817D01*
X15136730Y-16533817D02*
X15117682Y-16524293D01*
X15117682Y-16524293D02*
X15108158Y-16505246D01*
X15108158Y-16505246D02*
X15108158Y-16495722D01*
X15108158Y-16495722D02*
X15117682Y-16476674D01*
X15117682Y-16476674D02*
X15136730Y-16467150D01*
X15136730Y-16467150D02*
X15165301Y-16467150D01*
X15165301Y-16467150D02*
X15184349Y-16476674D01*
X15260539Y-16676674D02*
X15270063Y-16667150D01*
X15270063Y-16667150D02*
X15289111Y-16638579D01*
X15289111Y-16638579D02*
X15298634Y-16619531D01*
X15298634Y-16619531D02*
X15308158Y-16590960D01*
X15308158Y-16590960D02*
X15317682Y-16543341D01*
X15317682Y-16543341D02*
X15317682Y-16505246D01*
X15317682Y-16505246D02*
X15308158Y-16457627D01*
X15308158Y-16457627D02*
X15298634Y-16429055D01*
X15298634Y-16429055D02*
X15289111Y-16410008D01*
X15289111Y-16410008D02*
X15270063Y-16381436D01*
X15270063Y-16381436D02*
X15260539Y-16371912D01*
D10*
X10264000Y-16742000D02*
X10264000Y-16804000D01*
X10233000Y-16773000D02*
X10295000Y-16773000D01*
D11*
X10593872Y-16664484D02*
X10612920Y-16664484D01*
X10612920Y-16664484D02*
X10631967Y-16674008D01*
X10631967Y-16674008D02*
X10641491Y-16683531D01*
X10641491Y-16683531D02*
X10651015Y-16702579D01*
X10651015Y-16702579D02*
X10660539Y-16740674D01*
X10660539Y-16740674D02*
X10660539Y-16788293D01*
X10660539Y-16788293D02*
X10651015Y-16826389D01*
X10651015Y-16826389D02*
X10641491Y-16845436D01*
X10641491Y-16845436D02*
X10631967Y-16854960D01*
X10631967Y-16854960D02*
X10612920Y-16864484D01*
X10612920Y-16864484D02*
X10593872Y-16864484D01*
X10593872Y-16864484D02*
X10574824Y-16854960D01*
X10574824Y-16854960D02*
X10565301Y-16845436D01*
X10565301Y-16845436D02*
X10555777Y-16826389D01*
X10555777Y-16826389D02*
X10546253Y-16788293D01*
X10546253Y-16788293D02*
X10546253Y-16740674D01*
X10546253Y-16740674D02*
X10555777Y-16702579D01*
X10555777Y-16702579D02*
X10565301Y-16683531D01*
X10565301Y-16683531D02*
X10574824Y-16674008D01*
X10574824Y-16674008D02*
X10593872Y-16664484D01*
X10746253Y-16845436D02*
X10755777Y-16854960D01*
X10755777Y-16854960D02*
X10746253Y-16864484D01*
X10746253Y-16864484D02*
X10736729Y-16854960D01*
X10736729Y-16854960D02*
X10746253Y-16845436D01*
X10746253Y-16845436D02*
X10746253Y-16864484D01*
X10927205Y-16664484D02*
X10889110Y-16664484D01*
X10889110Y-16664484D02*
X10870063Y-16674008D01*
X10870063Y-16674008D02*
X10860539Y-16683531D01*
X10860539Y-16683531D02*
X10841491Y-16712103D01*
X10841491Y-16712103D02*
X10831967Y-16750198D01*
X10831967Y-16750198D02*
X10831967Y-16826389D01*
X10831967Y-16826389D02*
X10841491Y-16845436D01*
X10841491Y-16845436D02*
X10851015Y-16854960D01*
X10851015Y-16854960D02*
X10870063Y-16864484D01*
X10870063Y-16864484D02*
X10908158Y-16864484D01*
X10908158Y-16864484D02*
X10927205Y-16854960D01*
X10927205Y-16854960D02*
X10936729Y-16845436D01*
X10936729Y-16845436D02*
X10946253Y-16826389D01*
X10946253Y-16826389D02*
X10946253Y-16778770D01*
X10946253Y-16778770D02*
X10936729Y-16759722D01*
X10936729Y-16759722D02*
X10927205Y-16750198D01*
X10927205Y-16750198D02*
X10908158Y-16740674D01*
X10908158Y-16740674D02*
X10870063Y-16740674D01*
X10870063Y-16740674D02*
X10851015Y-16750198D01*
X10851015Y-16750198D02*
X10841491Y-16759722D01*
X10841491Y-16759722D02*
X10831967Y-16778770D01*
X11022444Y-16683531D02*
X11031967Y-16674008D01*
X11031967Y-16674008D02*
X11051015Y-16664484D01*
X11051015Y-16664484D02*
X11098634Y-16664484D01*
X11098634Y-16664484D02*
X11117682Y-16674008D01*
X11117682Y-16674008D02*
X11127205Y-16683531D01*
X11127205Y-16683531D02*
X11136729Y-16702579D01*
X11136729Y-16702579D02*
X11136729Y-16721627D01*
X11136729Y-16721627D02*
X11127205Y-16750198D01*
X11127205Y-16750198D02*
X11012920Y-16864484D01*
X11012920Y-16864484D02*
X11136729Y-16864484D01*
X11260539Y-16664484D02*
X11279586Y-16664484D01*
X11279586Y-16664484D02*
X11298634Y-16674008D01*
X11298634Y-16674008D02*
X11308158Y-16683531D01*
X11308158Y-16683531D02*
X11317682Y-16702579D01*
X11317682Y-16702579D02*
X11327205Y-16740674D01*
X11327205Y-16740674D02*
X11327205Y-16788293D01*
X11327205Y-16788293D02*
X11317682Y-16826389D01*
X11317682Y-16826389D02*
X11308158Y-16845436D01*
X11308158Y-16845436D02*
X11298634Y-16854960D01*
X11298634Y-16854960D02*
X11279586Y-16864484D01*
X11279586Y-16864484D02*
X11260539Y-16864484D01*
X11260539Y-16864484D02*
X11241491Y-16854960D01*
X11241491Y-16854960D02*
X11231967Y-16845436D01*
X11231967Y-16845436D02*
X11222443Y-16826389D01*
X11222443Y-16826389D02*
X11212920Y-16788293D01*
X11212920Y-16788293D02*
X11212920Y-16740674D01*
X11212920Y-16740674D02*
X11222443Y-16702579D01*
X11222443Y-16702579D02*
X11231967Y-16683531D01*
X11231967Y-16683531D02*
X11241491Y-16674008D01*
X11241491Y-16674008D02*
X11260539Y-16664484D01*
X11412920Y-16864484D02*
X11412920Y-16731150D01*
X11412920Y-16750198D02*
X11422443Y-16740674D01*
X11422443Y-16740674D02*
X11441491Y-16731150D01*
X11441491Y-16731150D02*
X11470063Y-16731150D01*
X11470063Y-16731150D02*
X11489110Y-16740674D01*
X11489110Y-16740674D02*
X11498634Y-16759722D01*
X11498634Y-16759722D02*
X11498634Y-16864484D01*
X11498634Y-16759722D02*
X11508158Y-16740674D01*
X11508158Y-16740674D02*
X11527205Y-16731150D01*
X11527205Y-16731150D02*
X11555777Y-16731150D01*
X11555777Y-16731150D02*
X11574824Y-16740674D01*
X11574824Y-16740674D02*
X11584348Y-16759722D01*
X11584348Y-16759722D02*
X11584348Y-16864484D01*
X11679586Y-16864484D02*
X11679586Y-16731150D01*
X11679586Y-16750198D02*
X11689110Y-16740674D01*
X11689110Y-16740674D02*
X11708158Y-16731150D01*
X11708158Y-16731150D02*
X11736729Y-16731150D01*
X11736729Y-16731150D02*
X11755777Y-16740674D01*
X11755777Y-16740674D02*
X11765301Y-16759722D01*
X11765301Y-16759722D02*
X11765301Y-16864484D01*
X11765301Y-16759722D02*
X11774824Y-16740674D01*
X11774824Y-16740674D02*
X11793872Y-16731150D01*
X11793872Y-16731150D02*
X11822443Y-16731150D01*
X11822443Y-16731150D02*
X11841491Y-16740674D01*
X11841491Y-16740674D02*
X11851015Y-16759722D01*
X11851015Y-16759722D02*
X11851015Y-16864484D01*
X12241491Y-16654960D02*
X12070063Y-16912103D01*
X12498634Y-16664484D02*
X12517682Y-16664484D01*
X12517682Y-16664484D02*
X12536729Y-16674008D01*
X12536729Y-16674008D02*
X12546253Y-16683531D01*
X12546253Y-16683531D02*
X12555777Y-16702579D01*
X12555777Y-16702579D02*
X12565301Y-16740674D01*
X12565301Y-16740674D02*
X12565301Y-16788293D01*
X12565301Y-16788293D02*
X12555777Y-16826389D01*
X12555777Y-16826389D02*
X12546253Y-16845436D01*
X12546253Y-16845436D02*
X12536729Y-16854960D01*
X12536729Y-16854960D02*
X12517682Y-16864484D01*
X12517682Y-16864484D02*
X12498634Y-16864484D01*
X12498634Y-16864484D02*
X12479586Y-16854960D01*
X12479586Y-16854960D02*
X12470063Y-16845436D01*
X12470063Y-16845436D02*
X12460539Y-16826389D01*
X12460539Y-16826389D02*
X12451015Y-16788293D01*
X12451015Y-16788293D02*
X12451015Y-16740674D01*
X12451015Y-16740674D02*
X12460539Y-16702579D01*
X12460539Y-16702579D02*
X12470063Y-16683531D01*
X12470063Y-16683531D02*
X12479586Y-16674008D01*
X12479586Y-16674008D02*
X12498634Y-16664484D01*
X12651015Y-16845436D02*
X12660539Y-16854960D01*
X12660539Y-16854960D02*
X12651015Y-16864484D01*
X12651015Y-16864484D02*
X12641491Y-16854960D01*
X12641491Y-16854960D02*
X12651015Y-16845436D01*
X12651015Y-16845436D02*
X12651015Y-16864484D01*
X12784348Y-16664484D02*
X12803396Y-16664484D01*
X12803396Y-16664484D02*
X12822444Y-16674008D01*
X12822444Y-16674008D02*
X12831967Y-16683531D01*
X12831967Y-16683531D02*
X12841491Y-16702579D01*
X12841491Y-16702579D02*
X12851015Y-16740674D01*
X12851015Y-16740674D02*
X12851015Y-16788293D01*
X12851015Y-16788293D02*
X12841491Y-16826389D01*
X12841491Y-16826389D02*
X12831967Y-16845436D01*
X12831967Y-16845436D02*
X12822444Y-16854960D01*
X12822444Y-16854960D02*
X12803396Y-16864484D01*
X12803396Y-16864484D02*
X12784348Y-16864484D01*
X12784348Y-16864484D02*
X12765301Y-16854960D01*
X12765301Y-16854960D02*
X12755777Y-16845436D01*
X12755777Y-16845436D02*
X12746253Y-16826389D01*
X12746253Y-16826389D02*
X12736729Y-16788293D01*
X12736729Y-16788293D02*
X12736729Y-16740674D01*
X12736729Y-16740674D02*
X12746253Y-16702579D01*
X12746253Y-16702579D02*
X12755777Y-16683531D01*
X12755777Y-16683531D02*
X12765301Y-16674008D01*
X12765301Y-16674008D02*
X12784348Y-16664484D01*
X12927206Y-16683531D02*
X12936729Y-16674008D01*
X12936729Y-16674008D02*
X12955777Y-16664484D01*
X12955777Y-16664484D02*
X13003396Y-16664484D01*
X13003396Y-16664484D02*
X13022444Y-16674008D01*
X13022444Y-16674008D02*
X13031967Y-16683531D01*
X13031967Y-16683531D02*
X13041491Y-16702579D01*
X13041491Y-16702579D02*
X13041491Y-16721627D01*
X13041491Y-16721627D02*
X13031967Y-16750198D01*
X13031967Y-16750198D02*
X12917682Y-16864484D01*
X12917682Y-16864484D02*
X13041491Y-16864484D01*
X13212920Y-16731150D02*
X13212920Y-16864484D01*
X13165301Y-16654960D02*
X13117682Y-16797817D01*
X13117682Y-16797817D02*
X13241491Y-16797817D01*
X13403396Y-16731150D02*
X13403396Y-16864484D01*
X13355777Y-16654960D02*
X13308158Y-16797817D01*
X13308158Y-16797817D02*
X13431967Y-16797817D01*
X13498634Y-16664484D02*
X13498634Y-16702579D01*
X13574825Y-16664484D02*
X13574825Y-16702579D01*
X13870063Y-16940674D02*
X13860539Y-16931150D01*
X13860539Y-16931150D02*
X13841491Y-16902579D01*
X13841491Y-16902579D02*
X13831968Y-16883531D01*
X13831968Y-16883531D02*
X13822444Y-16854960D01*
X13822444Y-16854960D02*
X13812920Y-16807341D01*
X13812920Y-16807341D02*
X13812920Y-16769246D01*
X13812920Y-16769246D02*
X13822444Y-16721627D01*
X13822444Y-16721627D02*
X13831968Y-16693055D01*
X13831968Y-16693055D02*
X13841491Y-16674008D01*
X13841491Y-16674008D02*
X13860539Y-16645436D01*
X13860539Y-16645436D02*
X13870063Y-16635912D01*
X13984348Y-16664484D02*
X14003396Y-16664484D01*
X14003396Y-16664484D02*
X14022444Y-16674008D01*
X14022444Y-16674008D02*
X14031968Y-16683531D01*
X14031968Y-16683531D02*
X14041491Y-16702579D01*
X14041491Y-16702579D02*
X14051015Y-16740674D01*
X14051015Y-16740674D02*
X14051015Y-16788293D01*
X14051015Y-16788293D02*
X14041491Y-16826389D01*
X14041491Y-16826389D02*
X14031968Y-16845436D01*
X14031968Y-16845436D02*
X14022444Y-16854960D01*
X14022444Y-16854960D02*
X14003396Y-16864484D01*
X14003396Y-16864484D02*
X13984348Y-16864484D01*
X13984348Y-16864484D02*
X13965301Y-16854960D01*
X13965301Y-16854960D02*
X13955777Y-16845436D01*
X13955777Y-16845436D02*
X13946253Y-16826389D01*
X13946253Y-16826389D02*
X13936729Y-16788293D01*
X13936729Y-16788293D02*
X13936729Y-16740674D01*
X13936729Y-16740674D02*
X13946253Y-16702579D01*
X13946253Y-16702579D02*
X13955777Y-16683531D01*
X13955777Y-16683531D02*
X13965301Y-16674008D01*
X13965301Y-16674008D02*
X13984348Y-16664484D01*
X14289110Y-16864484D02*
X14289110Y-16664484D01*
X14374825Y-16864484D02*
X14374825Y-16759722D01*
X14374825Y-16759722D02*
X14365301Y-16740674D01*
X14365301Y-16740674D02*
X14346253Y-16731150D01*
X14346253Y-16731150D02*
X14317682Y-16731150D01*
X14317682Y-16731150D02*
X14298634Y-16740674D01*
X14298634Y-16740674D02*
X14289110Y-16750198D01*
X14498634Y-16864484D02*
X14479587Y-16854960D01*
X14479587Y-16854960D02*
X14470063Y-16845436D01*
X14470063Y-16845436D02*
X14460539Y-16826389D01*
X14460539Y-16826389D02*
X14460539Y-16769246D01*
X14460539Y-16769246D02*
X14470063Y-16750198D01*
X14470063Y-16750198D02*
X14479587Y-16740674D01*
X14479587Y-16740674D02*
X14498634Y-16731150D01*
X14498634Y-16731150D02*
X14527206Y-16731150D01*
X14527206Y-16731150D02*
X14546253Y-16740674D01*
X14546253Y-16740674D02*
X14555777Y-16750198D01*
X14555777Y-16750198D02*
X14565301Y-16769246D01*
X14565301Y-16769246D02*
X14565301Y-16826389D01*
X14565301Y-16826389D02*
X14555777Y-16845436D01*
X14555777Y-16845436D02*
X14546253Y-16854960D01*
X14546253Y-16854960D02*
X14527206Y-16864484D01*
X14527206Y-16864484D02*
X14498634Y-16864484D01*
X14679587Y-16864484D02*
X14660539Y-16854960D01*
X14660539Y-16854960D02*
X14651015Y-16835912D01*
X14651015Y-16835912D02*
X14651015Y-16664484D01*
X14831968Y-16854960D02*
X14812920Y-16864484D01*
X14812920Y-16864484D02*
X14774825Y-16864484D01*
X14774825Y-16864484D02*
X14755777Y-16854960D01*
X14755777Y-16854960D02*
X14746253Y-16835912D01*
X14746253Y-16835912D02*
X14746253Y-16759722D01*
X14746253Y-16759722D02*
X14755777Y-16740674D01*
X14755777Y-16740674D02*
X14774825Y-16731150D01*
X14774825Y-16731150D02*
X14812920Y-16731150D01*
X14812920Y-16731150D02*
X14831968Y-16740674D01*
X14831968Y-16740674D02*
X14841491Y-16759722D01*
X14841491Y-16759722D02*
X14841491Y-16778770D01*
X14841491Y-16778770D02*
X14746253Y-16797817D01*
X14917682Y-16854960D02*
X14936730Y-16864484D01*
X14936730Y-16864484D02*
X14974825Y-16864484D01*
X14974825Y-16864484D02*
X14993872Y-16854960D01*
X14993872Y-16854960D02*
X15003396Y-16835912D01*
X15003396Y-16835912D02*
X15003396Y-16826389D01*
X15003396Y-16826389D02*
X14993872Y-16807341D01*
X14993872Y-16807341D02*
X14974825Y-16797817D01*
X14974825Y-16797817D02*
X14946253Y-16797817D01*
X14946253Y-16797817D02*
X14927206Y-16788293D01*
X14927206Y-16788293D02*
X14917682Y-16769246D01*
X14917682Y-16769246D02*
X14917682Y-16759722D01*
X14917682Y-16759722D02*
X14927206Y-16740674D01*
X14927206Y-16740674D02*
X14946253Y-16731150D01*
X14946253Y-16731150D02*
X14974825Y-16731150D01*
X14974825Y-16731150D02*
X14993872Y-16740674D01*
X15241492Y-16788293D02*
X15393873Y-16788293D01*
X15317682Y-16864484D02*
X15317682Y-16712103D01*
X15727206Y-16731150D02*
X15727206Y-16864484D01*
X15679587Y-16654960D02*
X15631968Y-16797817D01*
X15631968Y-16797817D02*
X15755777Y-16797817D01*
X15974825Y-16854960D02*
X15993873Y-16864484D01*
X15993873Y-16864484D02*
X16031968Y-16864484D01*
X16031968Y-16864484D02*
X16051015Y-16854960D01*
X16051015Y-16854960D02*
X16060539Y-16835912D01*
X16060539Y-16835912D02*
X16060539Y-16826389D01*
X16060539Y-16826389D02*
X16051015Y-16807341D01*
X16051015Y-16807341D02*
X16031968Y-16797817D01*
X16031968Y-16797817D02*
X16003396Y-16797817D01*
X16003396Y-16797817D02*
X15984349Y-16788293D01*
X15984349Y-16788293D02*
X15974825Y-16769246D01*
X15974825Y-16769246D02*
X15974825Y-16759722D01*
X15974825Y-16759722D02*
X15984349Y-16740674D01*
X15984349Y-16740674D02*
X16003396Y-16731150D01*
X16003396Y-16731150D02*
X16031968Y-16731150D01*
X16031968Y-16731150D02*
X16051015Y-16740674D01*
X16174825Y-16864484D02*
X16155777Y-16854960D01*
X16155777Y-16854960D02*
X16146254Y-16835912D01*
X16146254Y-16835912D02*
X16146254Y-16664484D01*
X16279587Y-16864484D02*
X16260539Y-16854960D01*
X16260539Y-16854960D02*
X16251015Y-16845436D01*
X16251015Y-16845436D02*
X16241492Y-16826389D01*
X16241492Y-16826389D02*
X16241492Y-16769246D01*
X16241492Y-16769246D02*
X16251015Y-16750198D01*
X16251015Y-16750198D02*
X16260539Y-16740674D01*
X16260539Y-16740674D02*
X16279587Y-16731150D01*
X16279587Y-16731150D02*
X16308158Y-16731150D01*
X16308158Y-16731150D02*
X16327206Y-16740674D01*
X16327206Y-16740674D02*
X16336730Y-16750198D01*
X16336730Y-16750198D02*
X16346254Y-16769246D01*
X16346254Y-16769246D02*
X16346254Y-16826389D01*
X16346254Y-16826389D02*
X16336730Y-16845436D01*
X16336730Y-16845436D02*
X16327206Y-16854960D01*
X16327206Y-16854960D02*
X16308158Y-16864484D01*
X16308158Y-16864484D02*
X16279587Y-16864484D01*
X16403396Y-16731150D02*
X16479587Y-16731150D01*
X16431968Y-16664484D02*
X16431968Y-16835912D01*
X16431968Y-16835912D02*
X16441492Y-16854960D01*
X16441492Y-16854960D02*
X16460539Y-16864484D01*
X16460539Y-16864484D02*
X16479587Y-16864484D01*
X16536730Y-16854960D02*
X16555777Y-16864484D01*
X16555777Y-16864484D02*
X16593873Y-16864484D01*
X16593873Y-16864484D02*
X16612920Y-16854960D01*
X16612920Y-16854960D02*
X16622444Y-16835912D01*
X16622444Y-16835912D02*
X16622444Y-16826389D01*
X16622444Y-16826389D02*
X16612920Y-16807341D01*
X16612920Y-16807341D02*
X16593873Y-16797817D01*
X16593873Y-16797817D02*
X16565301Y-16797817D01*
X16565301Y-16797817D02*
X16546254Y-16788293D01*
X16546254Y-16788293D02*
X16536730Y-16769246D01*
X16536730Y-16769246D02*
X16536730Y-16759722D01*
X16536730Y-16759722D02*
X16546254Y-16740674D01*
X16546254Y-16740674D02*
X16565301Y-16731150D01*
X16565301Y-16731150D02*
X16593873Y-16731150D01*
X16593873Y-16731150D02*
X16612920Y-16740674D01*
X16689111Y-16940674D02*
X16698635Y-16931150D01*
X16698635Y-16931150D02*
X16717682Y-16902579D01*
X16717682Y-16902579D02*
X16727206Y-16883531D01*
X16727206Y-16883531D02*
X16736730Y-16854960D01*
X16736730Y-16854960D02*
X16746254Y-16807341D01*
X16746254Y-16807341D02*
X16746254Y-16769246D01*
X16746254Y-16769246D02*
X16736730Y-16721627D01*
X16736730Y-16721627D02*
X16727206Y-16693055D01*
X16727206Y-16693055D02*
X16717682Y-16674008D01*
X16717682Y-16674008D02*
X16698635Y-16645436D01*
X16698635Y-16645436D02*
X16689111Y-16635912D01*
D10*
X10284310Y-17062810D02*
X10284310Y-17011190D01*
X10232690Y-17011190D01*
X10232690Y-17062810D01*
X10284310Y-17062810D01*
D11*
X10593872Y-16928484D02*
X10612920Y-16928484D01*
X10612920Y-16928484D02*
X10631967Y-16938008D01*
X10631967Y-16938008D02*
X10641491Y-16947531D01*
X10641491Y-16947531D02*
X10651015Y-16966579D01*
X10651015Y-16966579D02*
X10660539Y-17004674D01*
X10660539Y-17004674D02*
X10660539Y-17052293D01*
X10660539Y-17052293D02*
X10651015Y-17090389D01*
X10651015Y-17090389D02*
X10641491Y-17109436D01*
X10641491Y-17109436D02*
X10631967Y-17118960D01*
X10631967Y-17118960D02*
X10612920Y-17128484D01*
X10612920Y-17128484D02*
X10593872Y-17128484D01*
X10593872Y-17128484D02*
X10574824Y-17118960D01*
X10574824Y-17118960D02*
X10565301Y-17109436D01*
X10565301Y-17109436D02*
X10555777Y-17090389D01*
X10555777Y-17090389D02*
X10546253Y-17052293D01*
X10546253Y-17052293D02*
X10546253Y-17004674D01*
X10546253Y-17004674D02*
X10555777Y-16966579D01*
X10555777Y-16966579D02*
X10565301Y-16947531D01*
X10565301Y-16947531D02*
X10574824Y-16938008D01*
X10574824Y-16938008D02*
X10593872Y-16928484D01*
X10746253Y-17109436D02*
X10755777Y-17118960D01*
X10755777Y-17118960D02*
X10746253Y-17128484D01*
X10746253Y-17128484D02*
X10736729Y-17118960D01*
X10736729Y-17118960D02*
X10746253Y-17109436D01*
X10746253Y-17109436D02*
X10746253Y-17128484D01*
X10822444Y-16928484D02*
X10955777Y-16928484D01*
X10955777Y-16928484D02*
X10870063Y-17128484D01*
X11012920Y-16928484D02*
X11136729Y-16928484D01*
X11136729Y-16928484D02*
X11070063Y-17004674D01*
X11070063Y-17004674D02*
X11098634Y-17004674D01*
X11098634Y-17004674D02*
X11117682Y-17014198D01*
X11117682Y-17014198D02*
X11127205Y-17023722D01*
X11127205Y-17023722D02*
X11136729Y-17042770D01*
X11136729Y-17042770D02*
X11136729Y-17090389D01*
X11136729Y-17090389D02*
X11127205Y-17109436D01*
X11127205Y-17109436D02*
X11117682Y-17118960D01*
X11117682Y-17118960D02*
X11098634Y-17128484D01*
X11098634Y-17128484D02*
X11041491Y-17128484D01*
X11041491Y-17128484D02*
X11022444Y-17118960D01*
X11022444Y-17118960D02*
X11012920Y-17109436D01*
X11260539Y-16928484D02*
X11279586Y-16928484D01*
X11279586Y-16928484D02*
X11298634Y-16938008D01*
X11298634Y-16938008D02*
X11308158Y-16947531D01*
X11308158Y-16947531D02*
X11317682Y-16966579D01*
X11317682Y-16966579D02*
X11327205Y-17004674D01*
X11327205Y-17004674D02*
X11327205Y-17052293D01*
X11327205Y-17052293D02*
X11317682Y-17090389D01*
X11317682Y-17090389D02*
X11308158Y-17109436D01*
X11308158Y-17109436D02*
X11298634Y-17118960D01*
X11298634Y-17118960D02*
X11279586Y-17128484D01*
X11279586Y-17128484D02*
X11260539Y-17128484D01*
X11260539Y-17128484D02*
X11241491Y-17118960D01*
X11241491Y-17118960D02*
X11231967Y-17109436D01*
X11231967Y-17109436D02*
X11222443Y-17090389D01*
X11222443Y-17090389D02*
X11212920Y-17052293D01*
X11212920Y-17052293D02*
X11212920Y-17004674D01*
X11212920Y-17004674D02*
X11222443Y-16966579D01*
X11222443Y-16966579D02*
X11231967Y-16947531D01*
X11231967Y-16947531D02*
X11241491Y-16938008D01*
X11241491Y-16938008D02*
X11260539Y-16928484D01*
X11412920Y-17128484D02*
X11412920Y-16995150D01*
X11412920Y-17014198D02*
X11422443Y-17004674D01*
X11422443Y-17004674D02*
X11441491Y-16995150D01*
X11441491Y-16995150D02*
X11470063Y-16995150D01*
X11470063Y-16995150D02*
X11489110Y-17004674D01*
X11489110Y-17004674D02*
X11498634Y-17023722D01*
X11498634Y-17023722D02*
X11498634Y-17128484D01*
X11498634Y-17023722D02*
X11508158Y-17004674D01*
X11508158Y-17004674D02*
X11527205Y-16995150D01*
X11527205Y-16995150D02*
X11555777Y-16995150D01*
X11555777Y-16995150D02*
X11574824Y-17004674D01*
X11574824Y-17004674D02*
X11584348Y-17023722D01*
X11584348Y-17023722D02*
X11584348Y-17128484D01*
X11679586Y-17128484D02*
X11679586Y-16995150D01*
X11679586Y-17014198D02*
X11689110Y-17004674D01*
X11689110Y-17004674D02*
X11708158Y-16995150D01*
X11708158Y-16995150D02*
X11736729Y-16995150D01*
X11736729Y-16995150D02*
X11755777Y-17004674D01*
X11755777Y-17004674D02*
X11765301Y-17023722D01*
X11765301Y-17023722D02*
X11765301Y-17128484D01*
X11765301Y-17023722D02*
X11774824Y-17004674D01*
X11774824Y-17004674D02*
X11793872Y-16995150D01*
X11793872Y-16995150D02*
X11822443Y-16995150D01*
X11822443Y-16995150D02*
X11841491Y-17004674D01*
X11841491Y-17004674D02*
X11851015Y-17023722D01*
X11851015Y-17023722D02*
X11851015Y-17128484D01*
X12241491Y-16918960D02*
X12070063Y-17176103D01*
X12498634Y-16928484D02*
X12517682Y-16928484D01*
X12517682Y-16928484D02*
X12536729Y-16938008D01*
X12536729Y-16938008D02*
X12546253Y-16947531D01*
X12546253Y-16947531D02*
X12555777Y-16966579D01*
X12555777Y-16966579D02*
X12565301Y-17004674D01*
X12565301Y-17004674D02*
X12565301Y-17052293D01*
X12565301Y-17052293D02*
X12555777Y-17090389D01*
X12555777Y-17090389D02*
X12546253Y-17109436D01*
X12546253Y-17109436D02*
X12536729Y-17118960D01*
X12536729Y-17118960D02*
X12517682Y-17128484D01*
X12517682Y-17128484D02*
X12498634Y-17128484D01*
X12498634Y-17128484D02*
X12479586Y-17118960D01*
X12479586Y-17118960D02*
X12470063Y-17109436D01*
X12470063Y-17109436D02*
X12460539Y-17090389D01*
X12460539Y-17090389D02*
X12451015Y-17052293D01*
X12451015Y-17052293D02*
X12451015Y-17004674D01*
X12451015Y-17004674D02*
X12460539Y-16966579D01*
X12460539Y-16966579D02*
X12470063Y-16947531D01*
X12470063Y-16947531D02*
X12479586Y-16938008D01*
X12479586Y-16938008D02*
X12498634Y-16928484D01*
X12651015Y-17109436D02*
X12660539Y-17118960D01*
X12660539Y-17118960D02*
X12651015Y-17128484D01*
X12651015Y-17128484D02*
X12641491Y-17118960D01*
X12641491Y-17118960D02*
X12651015Y-17109436D01*
X12651015Y-17109436D02*
X12651015Y-17128484D01*
X12784348Y-16928484D02*
X12803396Y-16928484D01*
X12803396Y-16928484D02*
X12822444Y-16938008D01*
X12822444Y-16938008D02*
X12831967Y-16947531D01*
X12831967Y-16947531D02*
X12841491Y-16966579D01*
X12841491Y-16966579D02*
X12851015Y-17004674D01*
X12851015Y-17004674D02*
X12851015Y-17052293D01*
X12851015Y-17052293D02*
X12841491Y-17090389D01*
X12841491Y-17090389D02*
X12831967Y-17109436D01*
X12831967Y-17109436D02*
X12822444Y-17118960D01*
X12822444Y-17118960D02*
X12803396Y-17128484D01*
X12803396Y-17128484D02*
X12784348Y-17128484D01*
X12784348Y-17128484D02*
X12765301Y-17118960D01*
X12765301Y-17118960D02*
X12755777Y-17109436D01*
X12755777Y-17109436D02*
X12746253Y-17090389D01*
X12746253Y-17090389D02*
X12736729Y-17052293D01*
X12736729Y-17052293D02*
X12736729Y-17004674D01*
X12736729Y-17004674D02*
X12746253Y-16966579D01*
X12746253Y-16966579D02*
X12755777Y-16947531D01*
X12755777Y-16947531D02*
X12765301Y-16938008D01*
X12765301Y-16938008D02*
X12784348Y-16928484D01*
X12927206Y-16947531D02*
X12936729Y-16938008D01*
X12936729Y-16938008D02*
X12955777Y-16928484D01*
X12955777Y-16928484D02*
X13003396Y-16928484D01*
X13003396Y-16928484D02*
X13022444Y-16938008D01*
X13022444Y-16938008D02*
X13031967Y-16947531D01*
X13031967Y-16947531D02*
X13041491Y-16966579D01*
X13041491Y-16966579D02*
X13041491Y-16985627D01*
X13041491Y-16985627D02*
X13031967Y-17014198D01*
X13031967Y-17014198D02*
X12917682Y-17128484D01*
X12917682Y-17128484D02*
X13041491Y-17128484D01*
X13155777Y-17014198D02*
X13136729Y-17004674D01*
X13136729Y-17004674D02*
X13127206Y-16995150D01*
X13127206Y-16995150D02*
X13117682Y-16976103D01*
X13117682Y-16976103D02*
X13117682Y-16966579D01*
X13117682Y-16966579D02*
X13127206Y-16947531D01*
X13127206Y-16947531D02*
X13136729Y-16938008D01*
X13136729Y-16938008D02*
X13155777Y-16928484D01*
X13155777Y-16928484D02*
X13193872Y-16928484D01*
X13193872Y-16928484D02*
X13212920Y-16938008D01*
X13212920Y-16938008D02*
X13222444Y-16947531D01*
X13222444Y-16947531D02*
X13231967Y-16966579D01*
X13231967Y-16966579D02*
X13231967Y-16976103D01*
X13231967Y-16976103D02*
X13222444Y-16995150D01*
X13222444Y-16995150D02*
X13212920Y-17004674D01*
X13212920Y-17004674D02*
X13193872Y-17014198D01*
X13193872Y-17014198D02*
X13155777Y-17014198D01*
X13155777Y-17014198D02*
X13136729Y-17023722D01*
X13136729Y-17023722D02*
X13127206Y-17033246D01*
X13127206Y-17033246D02*
X13117682Y-17052293D01*
X13117682Y-17052293D02*
X13117682Y-17090389D01*
X13117682Y-17090389D02*
X13127206Y-17109436D01*
X13127206Y-17109436D02*
X13136729Y-17118960D01*
X13136729Y-17118960D02*
X13155777Y-17128484D01*
X13155777Y-17128484D02*
X13193872Y-17128484D01*
X13193872Y-17128484D02*
X13212920Y-17118960D01*
X13212920Y-17118960D02*
X13222444Y-17109436D01*
X13222444Y-17109436D02*
X13231967Y-17090389D01*
X13231967Y-17090389D02*
X13231967Y-17052293D01*
X13231967Y-17052293D02*
X13222444Y-17033246D01*
X13222444Y-17033246D02*
X13212920Y-17023722D01*
X13212920Y-17023722D02*
X13193872Y-17014198D01*
X13298634Y-16928484D02*
X13431967Y-16928484D01*
X13431967Y-16928484D02*
X13346253Y-17128484D01*
X13498634Y-16928484D02*
X13498634Y-16966579D01*
X13574825Y-16928484D02*
X13574825Y-16966579D01*
X13870063Y-17204674D02*
X13860539Y-17195150D01*
X13860539Y-17195150D02*
X13841491Y-17166579D01*
X13841491Y-17166579D02*
X13831968Y-17147531D01*
X13831968Y-17147531D02*
X13822444Y-17118960D01*
X13822444Y-17118960D02*
X13812920Y-17071341D01*
X13812920Y-17071341D02*
X13812920Y-17033246D01*
X13812920Y-17033246D02*
X13822444Y-16985627D01*
X13822444Y-16985627D02*
X13831968Y-16957055D01*
X13831968Y-16957055D02*
X13841491Y-16938008D01*
X13841491Y-16938008D02*
X13860539Y-16909436D01*
X13860539Y-16909436D02*
X13870063Y-16899912D01*
X13936729Y-16947531D02*
X13946253Y-16938008D01*
X13946253Y-16938008D02*
X13965301Y-16928484D01*
X13965301Y-16928484D02*
X14012920Y-16928484D01*
X14012920Y-16928484D02*
X14031968Y-16938008D01*
X14031968Y-16938008D02*
X14041491Y-16947531D01*
X14041491Y-16947531D02*
X14051015Y-16966579D01*
X14051015Y-16966579D02*
X14051015Y-16985627D01*
X14051015Y-16985627D02*
X14041491Y-17014198D01*
X14041491Y-17014198D02*
X13927206Y-17128484D01*
X13927206Y-17128484D02*
X14051015Y-17128484D01*
X14222444Y-16928484D02*
X14184348Y-16928484D01*
X14184348Y-16928484D02*
X14165301Y-16938008D01*
X14165301Y-16938008D02*
X14155777Y-16947531D01*
X14155777Y-16947531D02*
X14136729Y-16976103D01*
X14136729Y-16976103D02*
X14127206Y-17014198D01*
X14127206Y-17014198D02*
X14127206Y-17090389D01*
X14127206Y-17090389D02*
X14136729Y-17109436D01*
X14136729Y-17109436D02*
X14146253Y-17118960D01*
X14146253Y-17118960D02*
X14165301Y-17128484D01*
X14165301Y-17128484D02*
X14203396Y-17128484D01*
X14203396Y-17128484D02*
X14222444Y-17118960D01*
X14222444Y-17118960D02*
X14231968Y-17109436D01*
X14231968Y-17109436D02*
X14241491Y-17090389D01*
X14241491Y-17090389D02*
X14241491Y-17042770D01*
X14241491Y-17042770D02*
X14231968Y-17023722D01*
X14231968Y-17023722D02*
X14222444Y-17014198D01*
X14222444Y-17014198D02*
X14203396Y-17004674D01*
X14203396Y-17004674D02*
X14165301Y-17004674D01*
X14165301Y-17004674D02*
X14146253Y-17014198D01*
X14146253Y-17014198D02*
X14136729Y-17023722D01*
X14136729Y-17023722D02*
X14127206Y-17042770D01*
X14479587Y-17128484D02*
X14479587Y-16928484D01*
X14565301Y-17128484D02*
X14565301Y-17023722D01*
X14565301Y-17023722D02*
X14555777Y-17004674D01*
X14555777Y-17004674D02*
X14536730Y-16995150D01*
X14536730Y-16995150D02*
X14508158Y-16995150D01*
X14508158Y-16995150D02*
X14489110Y-17004674D01*
X14489110Y-17004674D02*
X14479587Y-17014198D01*
X14689110Y-17128484D02*
X14670063Y-17118960D01*
X14670063Y-17118960D02*
X14660539Y-17109436D01*
X14660539Y-17109436D02*
X14651015Y-17090389D01*
X14651015Y-17090389D02*
X14651015Y-17033246D01*
X14651015Y-17033246D02*
X14660539Y-17014198D01*
X14660539Y-17014198D02*
X14670063Y-17004674D01*
X14670063Y-17004674D02*
X14689110Y-16995150D01*
X14689110Y-16995150D02*
X14717682Y-16995150D01*
X14717682Y-16995150D02*
X14736730Y-17004674D01*
X14736730Y-17004674D02*
X14746253Y-17014198D01*
X14746253Y-17014198D02*
X14755777Y-17033246D01*
X14755777Y-17033246D02*
X14755777Y-17090389D01*
X14755777Y-17090389D02*
X14746253Y-17109436D01*
X14746253Y-17109436D02*
X14736730Y-17118960D01*
X14736730Y-17118960D02*
X14717682Y-17128484D01*
X14717682Y-17128484D02*
X14689110Y-17128484D01*
X14870063Y-17128484D02*
X14851015Y-17118960D01*
X14851015Y-17118960D02*
X14841491Y-17099912D01*
X14841491Y-17099912D02*
X14841491Y-16928484D01*
X15022444Y-17118960D02*
X15003396Y-17128484D01*
X15003396Y-17128484D02*
X14965301Y-17128484D01*
X14965301Y-17128484D02*
X14946253Y-17118960D01*
X14946253Y-17118960D02*
X14936730Y-17099912D01*
X14936730Y-17099912D02*
X14936730Y-17023722D01*
X14936730Y-17023722D02*
X14946253Y-17004674D01*
X14946253Y-17004674D02*
X14965301Y-16995150D01*
X14965301Y-16995150D02*
X15003396Y-16995150D01*
X15003396Y-16995150D02*
X15022444Y-17004674D01*
X15022444Y-17004674D02*
X15031968Y-17023722D01*
X15031968Y-17023722D02*
X15031968Y-17042770D01*
X15031968Y-17042770D02*
X14936730Y-17061817D01*
X15108158Y-17118960D02*
X15127206Y-17128484D01*
X15127206Y-17128484D02*
X15165301Y-17128484D01*
X15165301Y-17128484D02*
X15184349Y-17118960D01*
X15184349Y-17118960D02*
X15193872Y-17099912D01*
X15193872Y-17099912D02*
X15193872Y-17090389D01*
X15193872Y-17090389D02*
X15184349Y-17071341D01*
X15184349Y-17071341D02*
X15165301Y-17061817D01*
X15165301Y-17061817D02*
X15136730Y-17061817D01*
X15136730Y-17061817D02*
X15117682Y-17052293D01*
X15117682Y-17052293D02*
X15108158Y-17033246D01*
X15108158Y-17033246D02*
X15108158Y-17023722D01*
X15108158Y-17023722D02*
X15117682Y-17004674D01*
X15117682Y-17004674D02*
X15136730Y-16995150D01*
X15136730Y-16995150D02*
X15165301Y-16995150D01*
X15165301Y-16995150D02*
X15184349Y-17004674D01*
X15260539Y-17204674D02*
X15270063Y-17195150D01*
X15270063Y-17195150D02*
X15289111Y-17166579D01*
X15289111Y-17166579D02*
X15298634Y-17147531D01*
X15298634Y-17147531D02*
X15308158Y-17118960D01*
X15308158Y-17118960D02*
X15317682Y-17071341D01*
X15317682Y-17071341D02*
X15317682Y-17033246D01*
X15317682Y-17033246D02*
X15308158Y-16985627D01*
X15308158Y-16985627D02*
X15298634Y-16957055D01*
X15298634Y-16957055D02*
X15289111Y-16938008D01*
X15289111Y-16938008D02*
X15270063Y-16909436D01*
X15270063Y-16909436D02*
X15260539Y-16899912D01*
D10*
X10250000Y-17346000D02*
X10295000Y-17301000D01*
X10250000Y-17256000D01*
X10205000Y-17301000D01*
X10250000Y-17346000D01*
D11*
X10593872Y-17192484D02*
X10612920Y-17192484D01*
X10612920Y-17192484D02*
X10631967Y-17202008D01*
X10631967Y-17202008D02*
X10641491Y-17211531D01*
X10641491Y-17211531D02*
X10651015Y-17230579D01*
X10651015Y-17230579D02*
X10660539Y-17268674D01*
X10660539Y-17268674D02*
X10660539Y-17316293D01*
X10660539Y-17316293D02*
X10651015Y-17354389D01*
X10651015Y-17354389D02*
X10641491Y-17373436D01*
X10641491Y-17373436D02*
X10631967Y-17382960D01*
X10631967Y-17382960D02*
X10612920Y-17392484D01*
X10612920Y-17392484D02*
X10593872Y-17392484D01*
X10593872Y-17392484D02*
X10574824Y-17382960D01*
X10574824Y-17382960D02*
X10565301Y-17373436D01*
X10565301Y-17373436D02*
X10555777Y-17354389D01*
X10555777Y-17354389D02*
X10546253Y-17316293D01*
X10546253Y-17316293D02*
X10546253Y-17268674D01*
X10546253Y-17268674D02*
X10555777Y-17230579D01*
X10555777Y-17230579D02*
X10565301Y-17211531D01*
X10565301Y-17211531D02*
X10574824Y-17202008D01*
X10574824Y-17202008D02*
X10593872Y-17192484D01*
X10746253Y-17373436D02*
X10755777Y-17382960D01*
X10755777Y-17382960D02*
X10746253Y-17392484D01*
X10746253Y-17392484D02*
X10736729Y-17382960D01*
X10736729Y-17382960D02*
X10746253Y-17373436D01*
X10746253Y-17373436D02*
X10746253Y-17392484D01*
X10851015Y-17392484D02*
X10889110Y-17392484D01*
X10889110Y-17392484D02*
X10908158Y-17382960D01*
X10908158Y-17382960D02*
X10917682Y-17373436D01*
X10917682Y-17373436D02*
X10936729Y-17344865D01*
X10936729Y-17344865D02*
X10946253Y-17306770D01*
X10946253Y-17306770D02*
X10946253Y-17230579D01*
X10946253Y-17230579D02*
X10936729Y-17211531D01*
X10936729Y-17211531D02*
X10927205Y-17202008D01*
X10927205Y-17202008D02*
X10908158Y-17192484D01*
X10908158Y-17192484D02*
X10870063Y-17192484D01*
X10870063Y-17192484D02*
X10851015Y-17202008D01*
X10851015Y-17202008D02*
X10841491Y-17211531D01*
X10841491Y-17211531D02*
X10831967Y-17230579D01*
X10831967Y-17230579D02*
X10831967Y-17278198D01*
X10831967Y-17278198D02*
X10841491Y-17297246D01*
X10841491Y-17297246D02*
X10851015Y-17306770D01*
X10851015Y-17306770D02*
X10870063Y-17316293D01*
X10870063Y-17316293D02*
X10908158Y-17316293D01*
X10908158Y-17316293D02*
X10927205Y-17306770D01*
X10927205Y-17306770D02*
X10936729Y-17297246D01*
X10936729Y-17297246D02*
X10946253Y-17278198D01*
X11070063Y-17192484D02*
X11089110Y-17192484D01*
X11089110Y-17192484D02*
X11108158Y-17202008D01*
X11108158Y-17202008D02*
X11117682Y-17211531D01*
X11117682Y-17211531D02*
X11127205Y-17230579D01*
X11127205Y-17230579D02*
X11136729Y-17268674D01*
X11136729Y-17268674D02*
X11136729Y-17316293D01*
X11136729Y-17316293D02*
X11127205Y-17354389D01*
X11127205Y-17354389D02*
X11117682Y-17373436D01*
X11117682Y-17373436D02*
X11108158Y-17382960D01*
X11108158Y-17382960D02*
X11089110Y-17392484D01*
X11089110Y-17392484D02*
X11070063Y-17392484D01*
X11070063Y-17392484D02*
X11051015Y-17382960D01*
X11051015Y-17382960D02*
X11041491Y-17373436D01*
X11041491Y-17373436D02*
X11031967Y-17354389D01*
X11031967Y-17354389D02*
X11022444Y-17316293D01*
X11022444Y-17316293D02*
X11022444Y-17268674D01*
X11022444Y-17268674D02*
X11031967Y-17230579D01*
X11031967Y-17230579D02*
X11041491Y-17211531D01*
X11041491Y-17211531D02*
X11051015Y-17202008D01*
X11051015Y-17202008D02*
X11070063Y-17192484D01*
X11260539Y-17192484D02*
X11279586Y-17192484D01*
X11279586Y-17192484D02*
X11298634Y-17202008D01*
X11298634Y-17202008D02*
X11308158Y-17211531D01*
X11308158Y-17211531D02*
X11317682Y-17230579D01*
X11317682Y-17230579D02*
X11327205Y-17268674D01*
X11327205Y-17268674D02*
X11327205Y-17316293D01*
X11327205Y-17316293D02*
X11317682Y-17354389D01*
X11317682Y-17354389D02*
X11308158Y-17373436D01*
X11308158Y-17373436D02*
X11298634Y-17382960D01*
X11298634Y-17382960D02*
X11279586Y-17392484D01*
X11279586Y-17392484D02*
X11260539Y-17392484D01*
X11260539Y-17392484D02*
X11241491Y-17382960D01*
X11241491Y-17382960D02*
X11231967Y-17373436D01*
X11231967Y-17373436D02*
X11222443Y-17354389D01*
X11222443Y-17354389D02*
X11212920Y-17316293D01*
X11212920Y-17316293D02*
X11212920Y-17268674D01*
X11212920Y-17268674D02*
X11222443Y-17230579D01*
X11222443Y-17230579D02*
X11231967Y-17211531D01*
X11231967Y-17211531D02*
X11241491Y-17202008D01*
X11241491Y-17202008D02*
X11260539Y-17192484D01*
X11412920Y-17392484D02*
X11412920Y-17259150D01*
X11412920Y-17278198D02*
X11422443Y-17268674D01*
X11422443Y-17268674D02*
X11441491Y-17259150D01*
X11441491Y-17259150D02*
X11470063Y-17259150D01*
X11470063Y-17259150D02*
X11489110Y-17268674D01*
X11489110Y-17268674D02*
X11498634Y-17287722D01*
X11498634Y-17287722D02*
X11498634Y-17392484D01*
X11498634Y-17287722D02*
X11508158Y-17268674D01*
X11508158Y-17268674D02*
X11527205Y-17259150D01*
X11527205Y-17259150D02*
X11555777Y-17259150D01*
X11555777Y-17259150D02*
X11574824Y-17268674D01*
X11574824Y-17268674D02*
X11584348Y-17287722D01*
X11584348Y-17287722D02*
X11584348Y-17392484D01*
X11679586Y-17392484D02*
X11679586Y-17259150D01*
X11679586Y-17278198D02*
X11689110Y-17268674D01*
X11689110Y-17268674D02*
X11708158Y-17259150D01*
X11708158Y-17259150D02*
X11736729Y-17259150D01*
X11736729Y-17259150D02*
X11755777Y-17268674D01*
X11755777Y-17268674D02*
X11765301Y-17287722D01*
X11765301Y-17287722D02*
X11765301Y-17392484D01*
X11765301Y-17287722D02*
X11774824Y-17268674D01*
X11774824Y-17268674D02*
X11793872Y-17259150D01*
X11793872Y-17259150D02*
X11822443Y-17259150D01*
X11822443Y-17259150D02*
X11841491Y-17268674D01*
X11841491Y-17268674D02*
X11851015Y-17287722D01*
X11851015Y-17287722D02*
X11851015Y-17392484D01*
X12241491Y-17182960D02*
X12070063Y-17440103D01*
X12498634Y-17192484D02*
X12517682Y-17192484D01*
X12517682Y-17192484D02*
X12536729Y-17202008D01*
X12536729Y-17202008D02*
X12546253Y-17211531D01*
X12546253Y-17211531D02*
X12555777Y-17230579D01*
X12555777Y-17230579D02*
X12565301Y-17268674D01*
X12565301Y-17268674D02*
X12565301Y-17316293D01*
X12565301Y-17316293D02*
X12555777Y-17354389D01*
X12555777Y-17354389D02*
X12546253Y-17373436D01*
X12546253Y-17373436D02*
X12536729Y-17382960D01*
X12536729Y-17382960D02*
X12517682Y-17392484D01*
X12517682Y-17392484D02*
X12498634Y-17392484D01*
X12498634Y-17392484D02*
X12479586Y-17382960D01*
X12479586Y-17382960D02*
X12470063Y-17373436D01*
X12470063Y-17373436D02*
X12460539Y-17354389D01*
X12460539Y-17354389D02*
X12451015Y-17316293D01*
X12451015Y-17316293D02*
X12451015Y-17268674D01*
X12451015Y-17268674D02*
X12460539Y-17230579D01*
X12460539Y-17230579D02*
X12470063Y-17211531D01*
X12470063Y-17211531D02*
X12479586Y-17202008D01*
X12479586Y-17202008D02*
X12498634Y-17192484D01*
X12651015Y-17373436D02*
X12660539Y-17382960D01*
X12660539Y-17382960D02*
X12651015Y-17392484D01*
X12651015Y-17392484D02*
X12641491Y-17382960D01*
X12641491Y-17382960D02*
X12651015Y-17373436D01*
X12651015Y-17373436D02*
X12651015Y-17392484D01*
X12784348Y-17192484D02*
X12803396Y-17192484D01*
X12803396Y-17192484D02*
X12822444Y-17202008D01*
X12822444Y-17202008D02*
X12831967Y-17211531D01*
X12831967Y-17211531D02*
X12841491Y-17230579D01*
X12841491Y-17230579D02*
X12851015Y-17268674D01*
X12851015Y-17268674D02*
X12851015Y-17316293D01*
X12851015Y-17316293D02*
X12841491Y-17354389D01*
X12841491Y-17354389D02*
X12831967Y-17373436D01*
X12831967Y-17373436D02*
X12822444Y-17382960D01*
X12822444Y-17382960D02*
X12803396Y-17392484D01*
X12803396Y-17392484D02*
X12784348Y-17392484D01*
X12784348Y-17392484D02*
X12765301Y-17382960D01*
X12765301Y-17382960D02*
X12755777Y-17373436D01*
X12755777Y-17373436D02*
X12746253Y-17354389D01*
X12746253Y-17354389D02*
X12736729Y-17316293D01*
X12736729Y-17316293D02*
X12736729Y-17268674D01*
X12736729Y-17268674D02*
X12746253Y-17230579D01*
X12746253Y-17230579D02*
X12755777Y-17211531D01*
X12755777Y-17211531D02*
X12765301Y-17202008D01*
X12765301Y-17202008D02*
X12784348Y-17192484D01*
X12917682Y-17192484D02*
X13041491Y-17192484D01*
X13041491Y-17192484D02*
X12974825Y-17268674D01*
X12974825Y-17268674D02*
X13003396Y-17268674D01*
X13003396Y-17268674D02*
X13022444Y-17278198D01*
X13022444Y-17278198D02*
X13031967Y-17287722D01*
X13031967Y-17287722D02*
X13041491Y-17306770D01*
X13041491Y-17306770D02*
X13041491Y-17354389D01*
X13041491Y-17354389D02*
X13031967Y-17373436D01*
X13031967Y-17373436D02*
X13022444Y-17382960D01*
X13022444Y-17382960D02*
X13003396Y-17392484D01*
X13003396Y-17392484D02*
X12946253Y-17392484D01*
X12946253Y-17392484D02*
X12927206Y-17382960D01*
X12927206Y-17382960D02*
X12917682Y-17373436D01*
X13222444Y-17192484D02*
X13127206Y-17192484D01*
X13127206Y-17192484D02*
X13117682Y-17287722D01*
X13117682Y-17287722D02*
X13127206Y-17278198D01*
X13127206Y-17278198D02*
X13146253Y-17268674D01*
X13146253Y-17268674D02*
X13193872Y-17268674D01*
X13193872Y-17268674D02*
X13212920Y-17278198D01*
X13212920Y-17278198D02*
X13222444Y-17287722D01*
X13222444Y-17287722D02*
X13231967Y-17306770D01*
X13231967Y-17306770D02*
X13231967Y-17354389D01*
X13231967Y-17354389D02*
X13222444Y-17373436D01*
X13222444Y-17373436D02*
X13212920Y-17382960D01*
X13212920Y-17382960D02*
X13193872Y-17392484D01*
X13193872Y-17392484D02*
X13146253Y-17392484D01*
X13146253Y-17392484D02*
X13127206Y-17382960D01*
X13127206Y-17382960D02*
X13117682Y-17373436D01*
X13403396Y-17259150D02*
X13403396Y-17392484D01*
X13355777Y-17182960D02*
X13308158Y-17325817D01*
X13308158Y-17325817D02*
X13431967Y-17325817D01*
X13498634Y-17192484D02*
X13498634Y-17230579D01*
X13574825Y-17192484D02*
X13574825Y-17230579D01*
X13870063Y-17468674D02*
X13860539Y-17459150D01*
X13860539Y-17459150D02*
X13841491Y-17430579D01*
X13841491Y-17430579D02*
X13831968Y-17411531D01*
X13831968Y-17411531D02*
X13822444Y-17382960D01*
X13822444Y-17382960D02*
X13812920Y-17335341D01*
X13812920Y-17335341D02*
X13812920Y-17297246D01*
X13812920Y-17297246D02*
X13822444Y-17249627D01*
X13822444Y-17249627D02*
X13831968Y-17221055D01*
X13831968Y-17221055D02*
X13841491Y-17202008D01*
X13841491Y-17202008D02*
X13860539Y-17173436D01*
X13860539Y-17173436D02*
X13870063Y-17163912D01*
X14041491Y-17192484D02*
X13946253Y-17192484D01*
X13946253Y-17192484D02*
X13936729Y-17287722D01*
X13936729Y-17287722D02*
X13946253Y-17278198D01*
X13946253Y-17278198D02*
X13965301Y-17268674D01*
X13965301Y-17268674D02*
X14012920Y-17268674D01*
X14012920Y-17268674D02*
X14031968Y-17278198D01*
X14031968Y-17278198D02*
X14041491Y-17287722D01*
X14041491Y-17287722D02*
X14051015Y-17306770D01*
X14051015Y-17306770D02*
X14051015Y-17354389D01*
X14051015Y-17354389D02*
X14041491Y-17373436D01*
X14041491Y-17373436D02*
X14031968Y-17382960D01*
X14031968Y-17382960D02*
X14012920Y-17392484D01*
X14012920Y-17392484D02*
X13965301Y-17392484D01*
X13965301Y-17392484D02*
X13946253Y-17382960D01*
X13946253Y-17382960D02*
X13936729Y-17373436D01*
X14241491Y-17392484D02*
X14127206Y-17392484D01*
X14184348Y-17392484D02*
X14184348Y-17192484D01*
X14184348Y-17192484D02*
X14165301Y-17221055D01*
X14165301Y-17221055D02*
X14146253Y-17240103D01*
X14146253Y-17240103D02*
X14127206Y-17249627D01*
X14479587Y-17392484D02*
X14479587Y-17192484D01*
X14565301Y-17392484D02*
X14565301Y-17287722D01*
X14565301Y-17287722D02*
X14555777Y-17268674D01*
X14555777Y-17268674D02*
X14536730Y-17259150D01*
X14536730Y-17259150D02*
X14508158Y-17259150D01*
X14508158Y-17259150D02*
X14489110Y-17268674D01*
X14489110Y-17268674D02*
X14479587Y-17278198D01*
X14689110Y-17392484D02*
X14670063Y-17382960D01*
X14670063Y-17382960D02*
X14660539Y-17373436D01*
X14660539Y-17373436D02*
X14651015Y-17354389D01*
X14651015Y-17354389D02*
X14651015Y-17297246D01*
X14651015Y-17297246D02*
X14660539Y-17278198D01*
X14660539Y-17278198D02*
X14670063Y-17268674D01*
X14670063Y-17268674D02*
X14689110Y-17259150D01*
X14689110Y-17259150D02*
X14717682Y-17259150D01*
X14717682Y-17259150D02*
X14736730Y-17268674D01*
X14736730Y-17268674D02*
X14746253Y-17278198D01*
X14746253Y-17278198D02*
X14755777Y-17297246D01*
X14755777Y-17297246D02*
X14755777Y-17354389D01*
X14755777Y-17354389D02*
X14746253Y-17373436D01*
X14746253Y-17373436D02*
X14736730Y-17382960D01*
X14736730Y-17382960D02*
X14717682Y-17392484D01*
X14717682Y-17392484D02*
X14689110Y-17392484D01*
X14870063Y-17392484D02*
X14851015Y-17382960D01*
X14851015Y-17382960D02*
X14841491Y-17363912D01*
X14841491Y-17363912D02*
X14841491Y-17192484D01*
X15022444Y-17382960D02*
X15003396Y-17392484D01*
X15003396Y-17392484D02*
X14965301Y-17392484D01*
X14965301Y-17392484D02*
X14946253Y-17382960D01*
X14946253Y-17382960D02*
X14936730Y-17363912D01*
X14936730Y-17363912D02*
X14936730Y-17287722D01*
X14936730Y-17287722D02*
X14946253Y-17268674D01*
X14946253Y-17268674D02*
X14965301Y-17259150D01*
X14965301Y-17259150D02*
X15003396Y-17259150D01*
X15003396Y-17259150D02*
X15022444Y-17268674D01*
X15022444Y-17268674D02*
X15031968Y-17287722D01*
X15031968Y-17287722D02*
X15031968Y-17306770D01*
X15031968Y-17306770D02*
X14936730Y-17325817D01*
X15108158Y-17382960D02*
X15127206Y-17392484D01*
X15127206Y-17392484D02*
X15165301Y-17392484D01*
X15165301Y-17392484D02*
X15184349Y-17382960D01*
X15184349Y-17382960D02*
X15193872Y-17363912D01*
X15193872Y-17363912D02*
X15193872Y-17354389D01*
X15193872Y-17354389D02*
X15184349Y-17335341D01*
X15184349Y-17335341D02*
X15165301Y-17325817D01*
X15165301Y-17325817D02*
X15136730Y-17325817D01*
X15136730Y-17325817D02*
X15117682Y-17316293D01*
X15117682Y-17316293D02*
X15108158Y-17297246D01*
X15108158Y-17297246D02*
X15108158Y-17287722D01*
X15108158Y-17287722D02*
X15117682Y-17268674D01*
X15117682Y-17268674D02*
X15136730Y-17259150D01*
X15136730Y-17259150D02*
X15165301Y-17259150D01*
X15165301Y-17259150D02*
X15184349Y-17268674D01*
X15260539Y-17468674D02*
X15270063Y-17459150D01*
X15270063Y-17459150D02*
X15289111Y-17430579D01*
X15289111Y-17430579D02*
X15298634Y-17411531D01*
X15298634Y-17411531D02*
X15308158Y-17382960D01*
X15308158Y-17382960D02*
X15317682Y-17335341D01*
X15317682Y-17335341D02*
X15317682Y-17297246D01*
X15317682Y-17297246D02*
X15308158Y-17249627D01*
X15308158Y-17249627D02*
X15298634Y-17221055D01*
X15298634Y-17221055D02*
X15289111Y-17202008D01*
X15289111Y-17202008D02*
X15270063Y-17173436D01*
X15270063Y-17173436D02*
X15260539Y-17163912D01*
D12*
X10125000Y-17480000D02*
X10295000Y-17650000D01*
X10295000Y-17480000D02*
X10125000Y-17650000D01*
X10295000Y-17565000D02*
G75*
G02*
X10125000Y-17565000I-85000J0D01*
G01*
X10125000Y-17565000D02*
G75*
G02*
X10295000Y-17565000I85000J0D01*
G01*
D11*
X10660539Y-17656484D02*
X10546253Y-17656484D01*
X10603396Y-17656484D02*
X10603396Y-17456484D01*
X10603396Y-17456484D02*
X10584348Y-17485055D01*
X10584348Y-17485055D02*
X10565301Y-17504103D01*
X10565301Y-17504103D02*
X10546253Y-17513627D01*
X10746253Y-17637436D02*
X10755777Y-17646960D01*
X10755777Y-17646960D02*
X10746253Y-17656484D01*
X10746253Y-17656484D02*
X10736729Y-17646960D01*
X10736729Y-17646960D02*
X10746253Y-17637436D01*
X10746253Y-17637436D02*
X10746253Y-17656484D01*
X10822444Y-17456484D02*
X10955777Y-17456484D01*
X10955777Y-17456484D02*
X10870063Y-17656484D01*
X11070063Y-17456484D02*
X11089110Y-17456484D01*
X11089110Y-17456484D02*
X11108158Y-17466008D01*
X11108158Y-17466008D02*
X11117682Y-17475531D01*
X11117682Y-17475531D02*
X11127205Y-17494579D01*
X11127205Y-17494579D02*
X11136729Y-17532674D01*
X11136729Y-17532674D02*
X11136729Y-17580293D01*
X11136729Y-17580293D02*
X11127205Y-17618389D01*
X11127205Y-17618389D02*
X11117682Y-17637436D01*
X11117682Y-17637436D02*
X11108158Y-17646960D01*
X11108158Y-17646960D02*
X11089110Y-17656484D01*
X11089110Y-17656484D02*
X11070063Y-17656484D01*
X11070063Y-17656484D02*
X11051015Y-17646960D01*
X11051015Y-17646960D02*
X11041491Y-17637436D01*
X11041491Y-17637436D02*
X11031967Y-17618389D01*
X11031967Y-17618389D02*
X11022444Y-17580293D01*
X11022444Y-17580293D02*
X11022444Y-17532674D01*
X11022444Y-17532674D02*
X11031967Y-17494579D01*
X11031967Y-17494579D02*
X11041491Y-17475531D01*
X11041491Y-17475531D02*
X11051015Y-17466008D01*
X11051015Y-17466008D02*
X11070063Y-17456484D01*
X11260539Y-17456484D02*
X11279586Y-17456484D01*
X11279586Y-17456484D02*
X11298634Y-17466008D01*
X11298634Y-17466008D02*
X11308158Y-17475531D01*
X11308158Y-17475531D02*
X11317682Y-17494579D01*
X11317682Y-17494579D02*
X11327205Y-17532674D01*
X11327205Y-17532674D02*
X11327205Y-17580293D01*
X11327205Y-17580293D02*
X11317682Y-17618389D01*
X11317682Y-17618389D02*
X11308158Y-17637436D01*
X11308158Y-17637436D02*
X11298634Y-17646960D01*
X11298634Y-17646960D02*
X11279586Y-17656484D01*
X11279586Y-17656484D02*
X11260539Y-17656484D01*
X11260539Y-17656484D02*
X11241491Y-17646960D01*
X11241491Y-17646960D02*
X11231967Y-17637436D01*
X11231967Y-17637436D02*
X11222443Y-17618389D01*
X11222443Y-17618389D02*
X11212920Y-17580293D01*
X11212920Y-17580293D02*
X11212920Y-17532674D01*
X11212920Y-17532674D02*
X11222443Y-17494579D01*
X11222443Y-17494579D02*
X11231967Y-17475531D01*
X11231967Y-17475531D02*
X11241491Y-17466008D01*
X11241491Y-17466008D02*
X11260539Y-17456484D01*
X11412920Y-17656484D02*
X11412920Y-17523150D01*
X11412920Y-17542198D02*
X11422443Y-17532674D01*
X11422443Y-17532674D02*
X11441491Y-17523150D01*
X11441491Y-17523150D02*
X11470063Y-17523150D01*
X11470063Y-17523150D02*
X11489110Y-17532674D01*
X11489110Y-17532674D02*
X11498634Y-17551722D01*
X11498634Y-17551722D02*
X11498634Y-17656484D01*
X11498634Y-17551722D02*
X11508158Y-17532674D01*
X11508158Y-17532674D02*
X11527205Y-17523150D01*
X11527205Y-17523150D02*
X11555777Y-17523150D01*
X11555777Y-17523150D02*
X11574824Y-17532674D01*
X11574824Y-17532674D02*
X11584348Y-17551722D01*
X11584348Y-17551722D02*
X11584348Y-17656484D01*
X11679586Y-17656484D02*
X11679586Y-17523150D01*
X11679586Y-17542198D02*
X11689110Y-17532674D01*
X11689110Y-17532674D02*
X11708158Y-17523150D01*
X11708158Y-17523150D02*
X11736729Y-17523150D01*
X11736729Y-17523150D02*
X11755777Y-17532674D01*
X11755777Y-17532674D02*
X11765301Y-17551722D01*
X11765301Y-17551722D02*
X11765301Y-17656484D01*
X11765301Y-17551722D02*
X11774824Y-17532674D01*
X11774824Y-17532674D02*
X11793872Y-17523150D01*
X11793872Y-17523150D02*
X11822443Y-17523150D01*
X11822443Y-17523150D02*
X11841491Y-17532674D01*
X11841491Y-17532674D02*
X11851015Y-17551722D01*
X11851015Y-17551722D02*
X11851015Y-17656484D01*
X12241491Y-17446960D02*
X12070063Y-17704103D01*
X12498634Y-17456484D02*
X12517682Y-17456484D01*
X12517682Y-17456484D02*
X12536729Y-17466008D01*
X12536729Y-17466008D02*
X12546253Y-17475531D01*
X12546253Y-17475531D02*
X12555777Y-17494579D01*
X12555777Y-17494579D02*
X12565301Y-17532674D01*
X12565301Y-17532674D02*
X12565301Y-17580293D01*
X12565301Y-17580293D02*
X12555777Y-17618389D01*
X12555777Y-17618389D02*
X12546253Y-17637436D01*
X12546253Y-17637436D02*
X12536729Y-17646960D01*
X12536729Y-17646960D02*
X12517682Y-17656484D01*
X12517682Y-17656484D02*
X12498634Y-17656484D01*
X12498634Y-17656484D02*
X12479586Y-17646960D01*
X12479586Y-17646960D02*
X12470063Y-17637436D01*
X12470063Y-17637436D02*
X12460539Y-17618389D01*
X12460539Y-17618389D02*
X12451015Y-17580293D01*
X12451015Y-17580293D02*
X12451015Y-17532674D01*
X12451015Y-17532674D02*
X12460539Y-17494579D01*
X12460539Y-17494579D02*
X12470063Y-17475531D01*
X12470063Y-17475531D02*
X12479586Y-17466008D01*
X12479586Y-17466008D02*
X12498634Y-17456484D01*
X12651015Y-17637436D02*
X12660539Y-17646960D01*
X12660539Y-17646960D02*
X12651015Y-17656484D01*
X12651015Y-17656484D02*
X12641491Y-17646960D01*
X12641491Y-17646960D02*
X12651015Y-17637436D01*
X12651015Y-17637436D02*
X12651015Y-17656484D01*
X12784348Y-17456484D02*
X12803396Y-17456484D01*
X12803396Y-17456484D02*
X12822444Y-17466008D01*
X12822444Y-17466008D02*
X12831967Y-17475531D01*
X12831967Y-17475531D02*
X12841491Y-17494579D01*
X12841491Y-17494579D02*
X12851015Y-17532674D01*
X12851015Y-17532674D02*
X12851015Y-17580293D01*
X12851015Y-17580293D02*
X12841491Y-17618389D01*
X12841491Y-17618389D02*
X12831967Y-17637436D01*
X12831967Y-17637436D02*
X12822444Y-17646960D01*
X12822444Y-17646960D02*
X12803396Y-17656484D01*
X12803396Y-17656484D02*
X12784348Y-17656484D01*
X12784348Y-17656484D02*
X12765301Y-17646960D01*
X12765301Y-17646960D02*
X12755777Y-17637436D01*
X12755777Y-17637436D02*
X12746253Y-17618389D01*
X12746253Y-17618389D02*
X12736729Y-17580293D01*
X12736729Y-17580293D02*
X12736729Y-17532674D01*
X12736729Y-17532674D02*
X12746253Y-17494579D01*
X12746253Y-17494579D02*
X12755777Y-17475531D01*
X12755777Y-17475531D02*
X12765301Y-17466008D01*
X12765301Y-17466008D02*
X12784348Y-17456484D01*
X13022444Y-17456484D02*
X12984348Y-17456484D01*
X12984348Y-17456484D02*
X12965301Y-17466008D01*
X12965301Y-17466008D02*
X12955777Y-17475531D01*
X12955777Y-17475531D02*
X12936729Y-17504103D01*
X12936729Y-17504103D02*
X12927206Y-17542198D01*
X12927206Y-17542198D02*
X12927206Y-17618389D01*
X12927206Y-17618389D02*
X12936729Y-17637436D01*
X12936729Y-17637436D02*
X12946253Y-17646960D01*
X12946253Y-17646960D02*
X12965301Y-17656484D01*
X12965301Y-17656484D02*
X13003396Y-17656484D01*
X13003396Y-17656484D02*
X13022444Y-17646960D01*
X13022444Y-17646960D02*
X13031967Y-17637436D01*
X13031967Y-17637436D02*
X13041491Y-17618389D01*
X13041491Y-17618389D02*
X13041491Y-17570770D01*
X13041491Y-17570770D02*
X13031967Y-17551722D01*
X13031967Y-17551722D02*
X13022444Y-17542198D01*
X13022444Y-17542198D02*
X13003396Y-17532674D01*
X13003396Y-17532674D02*
X12965301Y-17532674D01*
X12965301Y-17532674D02*
X12946253Y-17542198D01*
X12946253Y-17542198D02*
X12936729Y-17551722D01*
X12936729Y-17551722D02*
X12927206Y-17570770D01*
X13212920Y-17456484D02*
X13174825Y-17456484D01*
X13174825Y-17456484D02*
X13155777Y-17466008D01*
X13155777Y-17466008D02*
X13146253Y-17475531D01*
X13146253Y-17475531D02*
X13127206Y-17504103D01*
X13127206Y-17504103D02*
X13117682Y-17542198D01*
X13117682Y-17542198D02*
X13117682Y-17618389D01*
X13117682Y-17618389D02*
X13127206Y-17637436D01*
X13127206Y-17637436D02*
X13136729Y-17646960D01*
X13136729Y-17646960D02*
X13155777Y-17656484D01*
X13155777Y-17656484D02*
X13193872Y-17656484D01*
X13193872Y-17656484D02*
X13212920Y-17646960D01*
X13212920Y-17646960D02*
X13222444Y-17637436D01*
X13222444Y-17637436D02*
X13231967Y-17618389D01*
X13231967Y-17618389D02*
X13231967Y-17570770D01*
X13231967Y-17570770D02*
X13222444Y-17551722D01*
X13222444Y-17551722D02*
X13212920Y-17542198D01*
X13212920Y-17542198D02*
X13193872Y-17532674D01*
X13193872Y-17532674D02*
X13155777Y-17532674D01*
X13155777Y-17532674D02*
X13136729Y-17542198D01*
X13136729Y-17542198D02*
X13127206Y-17551722D01*
X13127206Y-17551722D02*
X13117682Y-17570770D01*
X13327206Y-17656484D02*
X13365301Y-17656484D01*
X13365301Y-17656484D02*
X13384348Y-17646960D01*
X13384348Y-17646960D02*
X13393872Y-17637436D01*
X13393872Y-17637436D02*
X13412920Y-17608865D01*
X13412920Y-17608865D02*
X13422444Y-17570770D01*
X13422444Y-17570770D02*
X13422444Y-17494579D01*
X13422444Y-17494579D02*
X13412920Y-17475531D01*
X13412920Y-17475531D02*
X13403396Y-17466008D01*
X13403396Y-17466008D02*
X13384348Y-17456484D01*
X13384348Y-17456484D02*
X13346253Y-17456484D01*
X13346253Y-17456484D02*
X13327206Y-17466008D01*
X13327206Y-17466008D02*
X13317682Y-17475531D01*
X13317682Y-17475531D02*
X13308158Y-17494579D01*
X13308158Y-17494579D02*
X13308158Y-17542198D01*
X13308158Y-17542198D02*
X13317682Y-17561246D01*
X13317682Y-17561246D02*
X13327206Y-17570770D01*
X13327206Y-17570770D02*
X13346253Y-17580293D01*
X13346253Y-17580293D02*
X13384348Y-17580293D01*
X13384348Y-17580293D02*
X13403396Y-17570770D01*
X13403396Y-17570770D02*
X13412920Y-17561246D01*
X13412920Y-17561246D02*
X13422444Y-17542198D01*
X13498634Y-17456484D02*
X13498634Y-17494579D01*
X13574825Y-17456484D02*
X13574825Y-17494579D01*
X13870063Y-17732674D02*
X13860539Y-17723150D01*
X13860539Y-17723150D02*
X13841491Y-17694579D01*
X13841491Y-17694579D02*
X13831968Y-17675531D01*
X13831968Y-17675531D02*
X13822444Y-17646960D01*
X13822444Y-17646960D02*
X13812920Y-17599341D01*
X13812920Y-17599341D02*
X13812920Y-17561246D01*
X13812920Y-17561246D02*
X13822444Y-17513627D01*
X13822444Y-17513627D02*
X13831968Y-17485055D01*
X13831968Y-17485055D02*
X13841491Y-17466008D01*
X13841491Y-17466008D02*
X13860539Y-17437436D01*
X13860539Y-17437436D02*
X13870063Y-17427912D01*
X13936729Y-17475531D02*
X13946253Y-17466008D01*
X13946253Y-17466008D02*
X13965301Y-17456484D01*
X13965301Y-17456484D02*
X14012920Y-17456484D01*
X14012920Y-17456484D02*
X14031968Y-17466008D01*
X14031968Y-17466008D02*
X14041491Y-17475531D01*
X14041491Y-17475531D02*
X14051015Y-17494579D01*
X14051015Y-17494579D02*
X14051015Y-17513627D01*
X14051015Y-17513627D02*
X14041491Y-17542198D01*
X14041491Y-17542198D02*
X13927206Y-17656484D01*
X13927206Y-17656484D02*
X14051015Y-17656484D01*
X14174825Y-17456484D02*
X14193872Y-17456484D01*
X14193872Y-17456484D02*
X14212920Y-17466008D01*
X14212920Y-17466008D02*
X14222444Y-17475531D01*
X14222444Y-17475531D02*
X14231968Y-17494579D01*
X14231968Y-17494579D02*
X14241491Y-17532674D01*
X14241491Y-17532674D02*
X14241491Y-17580293D01*
X14241491Y-17580293D02*
X14231968Y-17618389D01*
X14231968Y-17618389D02*
X14222444Y-17637436D01*
X14222444Y-17637436D02*
X14212920Y-17646960D01*
X14212920Y-17646960D02*
X14193872Y-17656484D01*
X14193872Y-17656484D02*
X14174825Y-17656484D01*
X14174825Y-17656484D02*
X14155777Y-17646960D01*
X14155777Y-17646960D02*
X14146253Y-17637436D01*
X14146253Y-17637436D02*
X14136729Y-17618389D01*
X14136729Y-17618389D02*
X14127206Y-17580293D01*
X14127206Y-17580293D02*
X14127206Y-17532674D01*
X14127206Y-17532674D02*
X14136729Y-17494579D01*
X14136729Y-17494579D02*
X14146253Y-17475531D01*
X14146253Y-17475531D02*
X14155777Y-17466008D01*
X14155777Y-17466008D02*
X14174825Y-17456484D01*
X14479587Y-17656484D02*
X14479587Y-17456484D01*
X14565301Y-17656484D02*
X14565301Y-17551722D01*
X14565301Y-17551722D02*
X14555777Y-17532674D01*
X14555777Y-17532674D02*
X14536730Y-17523150D01*
X14536730Y-17523150D02*
X14508158Y-17523150D01*
X14508158Y-17523150D02*
X14489110Y-17532674D01*
X14489110Y-17532674D02*
X14479587Y-17542198D01*
X14689110Y-17656484D02*
X14670063Y-17646960D01*
X14670063Y-17646960D02*
X14660539Y-17637436D01*
X14660539Y-17637436D02*
X14651015Y-17618389D01*
X14651015Y-17618389D02*
X14651015Y-17561246D01*
X14651015Y-17561246D02*
X14660539Y-17542198D01*
X14660539Y-17542198D02*
X14670063Y-17532674D01*
X14670063Y-17532674D02*
X14689110Y-17523150D01*
X14689110Y-17523150D02*
X14717682Y-17523150D01*
X14717682Y-17523150D02*
X14736730Y-17532674D01*
X14736730Y-17532674D02*
X14746253Y-17542198D01*
X14746253Y-17542198D02*
X14755777Y-17561246D01*
X14755777Y-17561246D02*
X14755777Y-17618389D01*
X14755777Y-17618389D02*
X14746253Y-17637436D01*
X14746253Y-17637436D02*
X14736730Y-17646960D01*
X14736730Y-17646960D02*
X14717682Y-17656484D01*
X14717682Y-17656484D02*
X14689110Y-17656484D01*
X14870063Y-17656484D02*
X14851015Y-17646960D01*
X14851015Y-17646960D02*
X14841491Y-17627912D01*
X14841491Y-17627912D02*
X14841491Y-17456484D01*
X15022444Y-17646960D02*
X15003396Y-17656484D01*
X15003396Y-17656484D02*
X14965301Y-17656484D01*
X14965301Y-17656484D02*
X14946253Y-17646960D01*
X14946253Y-17646960D02*
X14936730Y-17627912D01*
X14936730Y-17627912D02*
X14936730Y-17551722D01*
X14936730Y-17551722D02*
X14946253Y-17532674D01*
X14946253Y-17532674D02*
X14965301Y-17523150D01*
X14965301Y-17523150D02*
X15003396Y-17523150D01*
X15003396Y-17523150D02*
X15022444Y-17532674D01*
X15022444Y-17532674D02*
X15031968Y-17551722D01*
X15031968Y-17551722D02*
X15031968Y-17570770D01*
X15031968Y-17570770D02*
X14936730Y-17589817D01*
X15108158Y-17646960D02*
X15127206Y-17656484D01*
X15127206Y-17656484D02*
X15165301Y-17656484D01*
X15165301Y-17656484D02*
X15184349Y-17646960D01*
X15184349Y-17646960D02*
X15193872Y-17627912D01*
X15193872Y-17627912D02*
X15193872Y-17618389D01*
X15193872Y-17618389D02*
X15184349Y-17599341D01*
X15184349Y-17599341D02*
X15165301Y-17589817D01*
X15165301Y-17589817D02*
X15136730Y-17589817D01*
X15136730Y-17589817D02*
X15117682Y-17580293D01*
X15117682Y-17580293D02*
X15108158Y-17561246D01*
X15108158Y-17561246D02*
X15108158Y-17551722D01*
X15108158Y-17551722D02*
X15117682Y-17532674D01*
X15117682Y-17532674D02*
X15136730Y-17523150D01*
X15136730Y-17523150D02*
X15165301Y-17523150D01*
X15165301Y-17523150D02*
X15184349Y-17532674D01*
X15260539Y-17732674D02*
X15270063Y-17723150D01*
X15270063Y-17723150D02*
X15289111Y-17694579D01*
X15289111Y-17694579D02*
X15298634Y-17675531D01*
X15298634Y-17675531D02*
X15308158Y-17646960D01*
X15308158Y-17646960D02*
X15317682Y-17599341D01*
X15317682Y-17599341D02*
X15317682Y-17561246D01*
X15317682Y-17561246D02*
X15308158Y-17513627D01*
X15308158Y-17513627D02*
X15298634Y-17485055D01*
X15298634Y-17485055D02*
X15289111Y-17466008D01*
X15289111Y-17466008D02*
X15270063Y-17437436D01*
X15270063Y-17437436D02*
X15260539Y-17427912D01*
X10095000Y-17755000D02*
X10295000Y-17955000D01*
X10295000Y-17755000D02*
X10095000Y-17955000D01*
X10195000Y-17755000D02*
X10195000Y-17955000D01*
X10095000Y-17855000D02*
X10295000Y-17855000D01*
X10651015Y-17746484D02*
X10555777Y-17746484D01*
X10555777Y-17746484D02*
X10546253Y-17841722D01*
X10546253Y-17841722D02*
X10555777Y-17832198D01*
X10555777Y-17832198D02*
X10574824Y-17822674D01*
X10574824Y-17822674D02*
X10622444Y-17822674D01*
X10622444Y-17822674D02*
X10641491Y-17832198D01*
X10641491Y-17832198D02*
X10651015Y-17841722D01*
X10651015Y-17841722D02*
X10660539Y-17860770D01*
X10660539Y-17860770D02*
X10660539Y-17908389D01*
X10660539Y-17908389D02*
X10651015Y-17927436D01*
X10651015Y-17927436D02*
X10641491Y-17936960D01*
X10641491Y-17936960D02*
X10622444Y-17946484D01*
X10622444Y-17946484D02*
X10574824Y-17946484D01*
X10574824Y-17946484D02*
X10555777Y-17936960D01*
X10555777Y-17936960D02*
X10546253Y-17927436D01*
X10746253Y-17927436D02*
X10755777Y-17936960D01*
X10755777Y-17936960D02*
X10746253Y-17946484D01*
X10746253Y-17946484D02*
X10736729Y-17936960D01*
X10736729Y-17936960D02*
X10746253Y-17927436D01*
X10746253Y-17927436D02*
X10746253Y-17946484D01*
X10870063Y-17832198D02*
X10851015Y-17822674D01*
X10851015Y-17822674D02*
X10841491Y-17813150D01*
X10841491Y-17813150D02*
X10831967Y-17794103D01*
X10831967Y-17794103D02*
X10831967Y-17784579D01*
X10831967Y-17784579D02*
X10841491Y-17765531D01*
X10841491Y-17765531D02*
X10851015Y-17756008D01*
X10851015Y-17756008D02*
X10870063Y-17746484D01*
X10870063Y-17746484D02*
X10908158Y-17746484D01*
X10908158Y-17746484D02*
X10927205Y-17756008D01*
X10927205Y-17756008D02*
X10936729Y-17765531D01*
X10936729Y-17765531D02*
X10946253Y-17784579D01*
X10946253Y-17784579D02*
X10946253Y-17794103D01*
X10946253Y-17794103D02*
X10936729Y-17813150D01*
X10936729Y-17813150D02*
X10927205Y-17822674D01*
X10927205Y-17822674D02*
X10908158Y-17832198D01*
X10908158Y-17832198D02*
X10870063Y-17832198D01*
X10870063Y-17832198D02*
X10851015Y-17841722D01*
X10851015Y-17841722D02*
X10841491Y-17851246D01*
X10841491Y-17851246D02*
X10831967Y-17870293D01*
X10831967Y-17870293D02*
X10831967Y-17908389D01*
X10831967Y-17908389D02*
X10841491Y-17927436D01*
X10841491Y-17927436D02*
X10851015Y-17936960D01*
X10851015Y-17936960D02*
X10870063Y-17946484D01*
X10870063Y-17946484D02*
X10908158Y-17946484D01*
X10908158Y-17946484D02*
X10927205Y-17936960D01*
X10927205Y-17936960D02*
X10936729Y-17927436D01*
X10936729Y-17927436D02*
X10946253Y-17908389D01*
X10946253Y-17908389D02*
X10946253Y-17870293D01*
X10946253Y-17870293D02*
X10936729Y-17851246D01*
X10936729Y-17851246D02*
X10927205Y-17841722D01*
X10927205Y-17841722D02*
X10908158Y-17832198D01*
X11070063Y-17746484D02*
X11089110Y-17746484D01*
X11089110Y-17746484D02*
X11108158Y-17756008D01*
X11108158Y-17756008D02*
X11117682Y-17765531D01*
X11117682Y-17765531D02*
X11127205Y-17784579D01*
X11127205Y-17784579D02*
X11136729Y-17822674D01*
X11136729Y-17822674D02*
X11136729Y-17870293D01*
X11136729Y-17870293D02*
X11127205Y-17908389D01*
X11127205Y-17908389D02*
X11117682Y-17927436D01*
X11117682Y-17927436D02*
X11108158Y-17936960D01*
X11108158Y-17936960D02*
X11089110Y-17946484D01*
X11089110Y-17946484D02*
X11070063Y-17946484D01*
X11070063Y-17946484D02*
X11051015Y-17936960D01*
X11051015Y-17936960D02*
X11041491Y-17927436D01*
X11041491Y-17927436D02*
X11031967Y-17908389D01*
X11031967Y-17908389D02*
X11022444Y-17870293D01*
X11022444Y-17870293D02*
X11022444Y-17822674D01*
X11022444Y-17822674D02*
X11031967Y-17784579D01*
X11031967Y-17784579D02*
X11041491Y-17765531D01*
X11041491Y-17765531D02*
X11051015Y-17756008D01*
X11051015Y-17756008D02*
X11070063Y-17746484D01*
X11260539Y-17746484D02*
X11279586Y-17746484D01*
X11279586Y-17746484D02*
X11298634Y-17756008D01*
X11298634Y-17756008D02*
X11308158Y-17765531D01*
X11308158Y-17765531D02*
X11317682Y-17784579D01*
X11317682Y-17784579D02*
X11327205Y-17822674D01*
X11327205Y-17822674D02*
X11327205Y-17870293D01*
X11327205Y-17870293D02*
X11317682Y-17908389D01*
X11317682Y-17908389D02*
X11308158Y-17927436D01*
X11308158Y-17927436D02*
X11298634Y-17936960D01*
X11298634Y-17936960D02*
X11279586Y-17946484D01*
X11279586Y-17946484D02*
X11260539Y-17946484D01*
X11260539Y-17946484D02*
X11241491Y-17936960D01*
X11241491Y-17936960D02*
X11231967Y-17927436D01*
X11231967Y-17927436D02*
X11222443Y-17908389D01*
X11222443Y-17908389D02*
X11212920Y-17870293D01*
X11212920Y-17870293D02*
X11212920Y-17822674D01*
X11212920Y-17822674D02*
X11222443Y-17784579D01*
X11222443Y-17784579D02*
X11231967Y-17765531D01*
X11231967Y-17765531D02*
X11241491Y-17756008D01*
X11241491Y-17756008D02*
X11260539Y-17746484D01*
X11412920Y-17946484D02*
X11412920Y-17813150D01*
X11412920Y-17832198D02*
X11422443Y-17822674D01*
X11422443Y-17822674D02*
X11441491Y-17813150D01*
X11441491Y-17813150D02*
X11470063Y-17813150D01*
X11470063Y-17813150D02*
X11489110Y-17822674D01*
X11489110Y-17822674D02*
X11498634Y-17841722D01*
X11498634Y-17841722D02*
X11498634Y-17946484D01*
X11498634Y-17841722D02*
X11508158Y-17822674D01*
X11508158Y-17822674D02*
X11527205Y-17813150D01*
X11527205Y-17813150D02*
X11555777Y-17813150D01*
X11555777Y-17813150D02*
X11574824Y-17822674D01*
X11574824Y-17822674D02*
X11584348Y-17841722D01*
X11584348Y-17841722D02*
X11584348Y-17946484D01*
X11679586Y-17946484D02*
X11679586Y-17813150D01*
X11679586Y-17832198D02*
X11689110Y-17822674D01*
X11689110Y-17822674D02*
X11708158Y-17813150D01*
X11708158Y-17813150D02*
X11736729Y-17813150D01*
X11736729Y-17813150D02*
X11755777Y-17822674D01*
X11755777Y-17822674D02*
X11765301Y-17841722D01*
X11765301Y-17841722D02*
X11765301Y-17946484D01*
X11765301Y-17841722D02*
X11774824Y-17822674D01*
X11774824Y-17822674D02*
X11793872Y-17813150D01*
X11793872Y-17813150D02*
X11822443Y-17813150D01*
X11822443Y-17813150D02*
X11841491Y-17822674D01*
X11841491Y-17822674D02*
X11851015Y-17841722D01*
X11851015Y-17841722D02*
X11851015Y-17946484D01*
X12241491Y-17736960D02*
X12070063Y-17994103D01*
X12498634Y-17746484D02*
X12517682Y-17746484D01*
X12517682Y-17746484D02*
X12536729Y-17756008D01*
X12536729Y-17756008D02*
X12546253Y-17765531D01*
X12546253Y-17765531D02*
X12555777Y-17784579D01*
X12555777Y-17784579D02*
X12565301Y-17822674D01*
X12565301Y-17822674D02*
X12565301Y-17870293D01*
X12565301Y-17870293D02*
X12555777Y-17908389D01*
X12555777Y-17908389D02*
X12546253Y-17927436D01*
X12546253Y-17927436D02*
X12536729Y-17936960D01*
X12536729Y-17936960D02*
X12517682Y-17946484D01*
X12517682Y-17946484D02*
X12498634Y-17946484D01*
X12498634Y-17946484D02*
X12479586Y-17936960D01*
X12479586Y-17936960D02*
X12470063Y-17927436D01*
X12470063Y-17927436D02*
X12460539Y-17908389D01*
X12460539Y-17908389D02*
X12451015Y-17870293D01*
X12451015Y-17870293D02*
X12451015Y-17822674D01*
X12451015Y-17822674D02*
X12460539Y-17784579D01*
X12460539Y-17784579D02*
X12470063Y-17765531D01*
X12470063Y-17765531D02*
X12479586Y-17756008D01*
X12479586Y-17756008D02*
X12498634Y-17746484D01*
X12651015Y-17927436D02*
X12660539Y-17936960D01*
X12660539Y-17936960D02*
X12651015Y-17946484D01*
X12651015Y-17946484D02*
X12641491Y-17936960D01*
X12641491Y-17936960D02*
X12651015Y-17927436D01*
X12651015Y-17927436D02*
X12651015Y-17946484D01*
X12736729Y-17765531D02*
X12746253Y-17756008D01*
X12746253Y-17756008D02*
X12765301Y-17746484D01*
X12765301Y-17746484D02*
X12812920Y-17746484D01*
X12812920Y-17746484D02*
X12831967Y-17756008D01*
X12831967Y-17756008D02*
X12841491Y-17765531D01*
X12841491Y-17765531D02*
X12851015Y-17784579D01*
X12851015Y-17784579D02*
X12851015Y-17803627D01*
X12851015Y-17803627D02*
X12841491Y-17832198D01*
X12841491Y-17832198D02*
X12727206Y-17946484D01*
X12727206Y-17946484D02*
X12851015Y-17946484D01*
X12927206Y-17765531D02*
X12936729Y-17756008D01*
X12936729Y-17756008D02*
X12955777Y-17746484D01*
X12955777Y-17746484D02*
X13003396Y-17746484D01*
X13003396Y-17746484D02*
X13022444Y-17756008D01*
X13022444Y-17756008D02*
X13031967Y-17765531D01*
X13031967Y-17765531D02*
X13041491Y-17784579D01*
X13041491Y-17784579D02*
X13041491Y-17803627D01*
X13041491Y-17803627D02*
X13031967Y-17832198D01*
X13031967Y-17832198D02*
X12917682Y-17946484D01*
X12917682Y-17946484D02*
X13041491Y-17946484D01*
X13155777Y-17832198D02*
X13136729Y-17822674D01*
X13136729Y-17822674D02*
X13127206Y-17813150D01*
X13127206Y-17813150D02*
X13117682Y-17794103D01*
X13117682Y-17794103D02*
X13117682Y-17784579D01*
X13117682Y-17784579D02*
X13127206Y-17765531D01*
X13127206Y-17765531D02*
X13136729Y-17756008D01*
X13136729Y-17756008D02*
X13155777Y-17746484D01*
X13155777Y-17746484D02*
X13193872Y-17746484D01*
X13193872Y-17746484D02*
X13212920Y-17756008D01*
X13212920Y-17756008D02*
X13222444Y-17765531D01*
X13222444Y-17765531D02*
X13231967Y-17784579D01*
X13231967Y-17784579D02*
X13231967Y-17794103D01*
X13231967Y-17794103D02*
X13222444Y-17813150D01*
X13222444Y-17813150D02*
X13212920Y-17822674D01*
X13212920Y-17822674D02*
X13193872Y-17832198D01*
X13193872Y-17832198D02*
X13155777Y-17832198D01*
X13155777Y-17832198D02*
X13136729Y-17841722D01*
X13136729Y-17841722D02*
X13127206Y-17851246D01*
X13127206Y-17851246D02*
X13117682Y-17870293D01*
X13117682Y-17870293D02*
X13117682Y-17908389D01*
X13117682Y-17908389D02*
X13127206Y-17927436D01*
X13127206Y-17927436D02*
X13136729Y-17936960D01*
X13136729Y-17936960D02*
X13155777Y-17946484D01*
X13155777Y-17946484D02*
X13193872Y-17946484D01*
X13193872Y-17946484D02*
X13212920Y-17936960D01*
X13212920Y-17936960D02*
X13222444Y-17927436D01*
X13222444Y-17927436D02*
X13231967Y-17908389D01*
X13231967Y-17908389D02*
X13231967Y-17870293D01*
X13231967Y-17870293D02*
X13222444Y-17851246D01*
X13222444Y-17851246D02*
X13212920Y-17841722D01*
X13212920Y-17841722D02*
X13193872Y-17832198D01*
X13298634Y-17746484D02*
X13422444Y-17746484D01*
X13422444Y-17746484D02*
X13355777Y-17822674D01*
X13355777Y-17822674D02*
X13384348Y-17822674D01*
X13384348Y-17822674D02*
X13403396Y-17832198D01*
X13403396Y-17832198D02*
X13412920Y-17841722D01*
X13412920Y-17841722D02*
X13422444Y-17860770D01*
X13422444Y-17860770D02*
X13422444Y-17908389D01*
X13422444Y-17908389D02*
X13412920Y-17927436D01*
X13412920Y-17927436D02*
X13403396Y-17936960D01*
X13403396Y-17936960D02*
X13384348Y-17946484D01*
X13384348Y-17946484D02*
X13327206Y-17946484D01*
X13327206Y-17946484D02*
X13308158Y-17936960D01*
X13308158Y-17936960D02*
X13298634Y-17927436D01*
X13498634Y-17746484D02*
X13498634Y-17784579D01*
X13574825Y-17746484D02*
X13574825Y-17784579D01*
X13870063Y-18022674D02*
X13860539Y-18013150D01*
X13860539Y-18013150D02*
X13841491Y-17984579D01*
X13841491Y-17984579D02*
X13831968Y-17965531D01*
X13831968Y-17965531D02*
X13822444Y-17936960D01*
X13822444Y-17936960D02*
X13812920Y-17889341D01*
X13812920Y-17889341D02*
X13812920Y-17851246D01*
X13812920Y-17851246D02*
X13822444Y-17803627D01*
X13822444Y-17803627D02*
X13831968Y-17775055D01*
X13831968Y-17775055D02*
X13841491Y-17756008D01*
X13841491Y-17756008D02*
X13860539Y-17727436D01*
X13860539Y-17727436D02*
X13870063Y-17717912D01*
X14031968Y-17813150D02*
X14031968Y-17946484D01*
X13984348Y-17736960D02*
X13936729Y-17879817D01*
X13936729Y-17879817D02*
X14060539Y-17879817D01*
X14289110Y-17946484D02*
X14289110Y-17746484D01*
X14374825Y-17946484D02*
X14374825Y-17841722D01*
X14374825Y-17841722D02*
X14365301Y-17822674D01*
X14365301Y-17822674D02*
X14346253Y-17813150D01*
X14346253Y-17813150D02*
X14317682Y-17813150D01*
X14317682Y-17813150D02*
X14298634Y-17822674D01*
X14298634Y-17822674D02*
X14289110Y-17832198D01*
X14498634Y-17946484D02*
X14479587Y-17936960D01*
X14479587Y-17936960D02*
X14470063Y-17927436D01*
X14470063Y-17927436D02*
X14460539Y-17908389D01*
X14460539Y-17908389D02*
X14460539Y-17851246D01*
X14460539Y-17851246D02*
X14470063Y-17832198D01*
X14470063Y-17832198D02*
X14479587Y-17822674D01*
X14479587Y-17822674D02*
X14498634Y-17813150D01*
X14498634Y-17813150D02*
X14527206Y-17813150D01*
X14527206Y-17813150D02*
X14546253Y-17822674D01*
X14546253Y-17822674D02*
X14555777Y-17832198D01*
X14555777Y-17832198D02*
X14565301Y-17851246D01*
X14565301Y-17851246D02*
X14565301Y-17908389D01*
X14565301Y-17908389D02*
X14555777Y-17927436D01*
X14555777Y-17927436D02*
X14546253Y-17936960D01*
X14546253Y-17936960D02*
X14527206Y-17946484D01*
X14527206Y-17946484D02*
X14498634Y-17946484D01*
X14679587Y-17946484D02*
X14660539Y-17936960D01*
X14660539Y-17936960D02*
X14651015Y-17917912D01*
X14651015Y-17917912D02*
X14651015Y-17746484D01*
X14831968Y-17936960D02*
X14812920Y-17946484D01*
X14812920Y-17946484D02*
X14774825Y-17946484D01*
X14774825Y-17946484D02*
X14755777Y-17936960D01*
X14755777Y-17936960D02*
X14746253Y-17917912D01*
X14746253Y-17917912D02*
X14746253Y-17841722D01*
X14746253Y-17841722D02*
X14755777Y-17822674D01*
X14755777Y-17822674D02*
X14774825Y-17813150D01*
X14774825Y-17813150D02*
X14812920Y-17813150D01*
X14812920Y-17813150D02*
X14831968Y-17822674D01*
X14831968Y-17822674D02*
X14841491Y-17841722D01*
X14841491Y-17841722D02*
X14841491Y-17860770D01*
X14841491Y-17860770D02*
X14746253Y-17879817D01*
X14917682Y-17936960D02*
X14936730Y-17946484D01*
X14936730Y-17946484D02*
X14974825Y-17946484D01*
X14974825Y-17946484D02*
X14993872Y-17936960D01*
X14993872Y-17936960D02*
X15003396Y-17917912D01*
X15003396Y-17917912D02*
X15003396Y-17908389D01*
X15003396Y-17908389D02*
X14993872Y-17889341D01*
X14993872Y-17889341D02*
X14974825Y-17879817D01*
X14974825Y-17879817D02*
X14946253Y-17879817D01*
X14946253Y-17879817D02*
X14927206Y-17870293D01*
X14927206Y-17870293D02*
X14917682Y-17851246D01*
X14917682Y-17851246D02*
X14917682Y-17841722D01*
X14917682Y-17841722D02*
X14927206Y-17822674D01*
X14927206Y-17822674D02*
X14946253Y-17813150D01*
X14946253Y-17813150D02*
X14974825Y-17813150D01*
X14974825Y-17813150D02*
X14993872Y-17822674D01*
X15070063Y-18022674D02*
X15079587Y-18013150D01*
X15079587Y-18013150D02*
X15098634Y-17984579D01*
X15098634Y-17984579D02*
X15108158Y-17965531D01*
X15108158Y-17965531D02*
X15117682Y-17936960D01*
X15117682Y-17936960D02*
X15127206Y-17889341D01*
X15127206Y-17889341D02*
X15127206Y-17851246D01*
X15127206Y-17851246D02*
X15117682Y-17803627D01*
X15117682Y-17803627D02*
X15108158Y-17775055D01*
X15108158Y-17775055D02*
X15098634Y-17756008D01*
X15098634Y-17756008D02*
X15079587Y-17727436D01*
X15079587Y-17727436D02*
X15070063Y-17717912D01*
M02*
