G04 #@! TF.GenerationSoftware,KiCad,Pcbnew,8.0.3+1*
G04 #@! TF.CreationDate,2024-08-22T20:15:40+00:00*
G04 #@! TF.ProjectId,AstraControl,41737472-6143-46f6-9e74-726f6c2e6b69,rev?*
G04 #@! TF.SameCoordinates,Original*
G04 #@! TF.FileFunction,Legend,Bot*
G04 #@! TF.FilePolarity,Positive*
%FSLAX46Y46*%
G04 Gerber Fmt 4.6, Leading zero omitted, Abs format (unit mm)*
G04 Created by KiCad (PCBNEW 8.0.3+1) date 2024-08-22 20:15:40*
%MOMM*%
%LPD*%
G01*
G04 APERTURE LIST*
%ADD10C,1.880000*%
%ADD11O,1.110000X1.810000*%
%ADD12C,2.780000*%
%ADD13C,0.880000*%
%ADD14C,11.080000*%
%ADD15C,0.680000*%
%ADD16O,2.080000X0.980000*%
%ADD17O,1.780000X0.980000*%
G04 APERTURE END LIST*
%LPC*%
D10*
X173850000Y-82750000D03*
X134750000Y-141250000D03*
X146000000Y-141250000D03*
G36*
G01*
X125555000Y-145814417D02*
X125555000Y-147085583D01*
G75*
G02*
X125285583Y-147355000I-269417J0D01*
G01*
X124714417Y-147355000D01*
G75*
G02*
X124445000Y-147085583I0J269417D01*
G01*
X124445000Y-145814417D01*
G75*
G02*
X124714417Y-145545000I269417J0D01*
G01*
X125285583Y-145545000D01*
G75*
G02*
X125555000Y-145814417I0J-269417D01*
G01*
G37*
D11*
X123500000Y-146450000D03*
X122000000Y-146450000D03*
X120500000Y-146450000D03*
D10*
X190500000Y-127500000D03*
X169250000Y-95239370D03*
X121000000Y-93500000D03*
X164000000Y-95250000D03*
X171500000Y-141250000D03*
X195250000Y-127750000D03*
G36*
G01*
X188617409Y-79690000D02*
X190882591Y-79690000D01*
G75*
G02*
X191140000Y-79947409I0J-257409D01*
G01*
X191140000Y-82212591D01*
G75*
G02*
X190882591Y-82470000I-257409J0D01*
G01*
X188617409Y-82470000D01*
G75*
G02*
X188360000Y-82212591I0J257409D01*
G01*
X188360000Y-79947409D01*
G75*
G02*
X188617409Y-79690000I257409J0D01*
G01*
G37*
D12*
X189750000Y-85040000D03*
X189750000Y-89000000D03*
X189750000Y-92960000D03*
D10*
X173000000Y-116500000D03*
D13*
X104800000Y-68000000D03*
X104800000Y-148000000D03*
X105000000Y-75412623D03*
X105000000Y-88423032D03*
X105000000Y-94928237D03*
X105000000Y-101433441D03*
X105000000Y-107938646D03*
X105000000Y-114566559D03*
X105000000Y-121071763D03*
X105000000Y-127576968D03*
X105000000Y-134082172D03*
X105000000Y-140587377D03*
X106900000Y-64362693D03*
X106900000Y-71637307D03*
X106900000Y-144362693D03*
X106900000Y-151637307D03*
G36*
X201500551Y-60460004D02*
G01*
X201668897Y-60462324D01*
X201672825Y-60462572D01*
X202007400Y-60500270D01*
X202011822Y-60501021D01*
X202340073Y-60575942D01*
X202344383Y-60577184D01*
X202662181Y-60688386D01*
X202666325Y-60690102D01*
X202969674Y-60836188D01*
X202973600Y-60838358D01*
X203258685Y-61017489D01*
X203262344Y-61020085D01*
X203525581Y-61230009D01*
X203528925Y-61232998D01*
X203767002Y-61471075D01*
X203769991Y-61474419D01*
X203979915Y-61737656D01*
X203982511Y-61741315D01*
X204161642Y-62026400D01*
X204163812Y-62030326D01*
X204309898Y-62333675D01*
X204311614Y-62337819D01*
X204422816Y-62655617D01*
X204424058Y-62659927D01*
X204498979Y-62988178D01*
X204499730Y-62992600D01*
X204537428Y-63327175D01*
X204537676Y-63331103D01*
X204539996Y-63499449D01*
X204540000Y-63500000D01*
X204540000Y-152500000D01*
X204539996Y-152500551D01*
X204537676Y-152668897D01*
X204537428Y-152672825D01*
X204499730Y-153007400D01*
X204498979Y-153011822D01*
X204424058Y-153340073D01*
X204422816Y-153344383D01*
X204311614Y-153662181D01*
X204309898Y-153666325D01*
X204163812Y-153969674D01*
X204161642Y-153973600D01*
X203982511Y-154258685D01*
X203979915Y-154262344D01*
X203769991Y-154525581D01*
X203767002Y-154528925D01*
X203528925Y-154767002D01*
X203525581Y-154769991D01*
X203262344Y-154979915D01*
X203258685Y-154982511D01*
X202973600Y-155161642D01*
X202969674Y-155163812D01*
X202666325Y-155309898D01*
X202662181Y-155311614D01*
X202344383Y-155422816D01*
X202340073Y-155424058D01*
X202011822Y-155498979D01*
X202007400Y-155499730D01*
X201672825Y-155537428D01*
X201668897Y-155537676D01*
X201500551Y-155539996D01*
X201500000Y-155540000D01*
X106499999Y-155540000D01*
X106499448Y-155539996D01*
X106331102Y-155537676D01*
X106327174Y-155537428D01*
X105992599Y-155499730D01*
X105988177Y-155498979D01*
X105659927Y-155424058D01*
X105655617Y-155422816D01*
X105337819Y-155311614D01*
X105333675Y-155309898D01*
X105030326Y-155163813D01*
X105026400Y-155161643D01*
X104741314Y-154982512D01*
X104737655Y-154979916D01*
X104474419Y-154769992D01*
X104471075Y-154767003D01*
X104232998Y-154528926D01*
X104230009Y-154525582D01*
X104020085Y-154262345D01*
X104017489Y-154258686D01*
X103838358Y-153973601D01*
X103836188Y-153969675D01*
X103690103Y-153666326D01*
X103688387Y-153662182D01*
X103577184Y-153344384D01*
X103575942Y-153340074D01*
X103501021Y-153011824D01*
X103500270Y-153007402D01*
X103462572Y-152672827D01*
X103462324Y-152668899D01*
X103460004Y-152500553D01*
X103460000Y-152500002D01*
X103460000Y-78000359D01*
X106540000Y-78000359D01*
X106540000Y-137999504D01*
X106544860Y-138191946D01*
X106549484Y-138293181D01*
X106556396Y-138412664D01*
X106566049Y-138548670D01*
X106578896Y-138699451D01*
X106595386Y-138863312D01*
X106615980Y-139038681D01*
X106641132Y-139223873D01*
X106671294Y-139417250D01*
X106706913Y-139617111D01*
X106748448Y-139821856D01*
X106796341Y-140029789D01*
X106851039Y-140239267D01*
X106912986Y-140448624D01*
X106982616Y-140656198D01*
X107060355Y-140860300D01*
X107146648Y-141059328D01*
X107241890Y-141251565D01*
X107346505Y-141435391D01*
X107460873Y-141609134D01*
X107585413Y-141771210D01*
X107720477Y-141919967D01*
X107866492Y-142053872D01*
X108023870Y-142171380D01*
X108193090Y-142270987D01*
X108374697Y-142351201D01*
X108569278Y-142410492D01*
X108777504Y-142447289D01*
X109001348Y-142460011D01*
X109227795Y-142462330D01*
X109230688Y-142462465D01*
X109683906Y-142500020D01*
X109687187Y-142500429D01*
X110135755Y-142575282D01*
X110138990Y-142575960D01*
X110579845Y-142687599D01*
X110583014Y-142688542D01*
X111013144Y-142836206D01*
X111016224Y-142837408D01*
X111432691Y-143020087D01*
X111435661Y-143021539D01*
X111835620Y-143237986D01*
X111838460Y-143239678D01*
X112219179Y-143488415D01*
X112221870Y-143490336D01*
X112580748Y-143769662D01*
X112583270Y-143771799D01*
X112917856Y-144079806D01*
X112920194Y-144082144D01*
X113228201Y-144416730D01*
X113230338Y-144419252D01*
X113509664Y-144778130D01*
X113511585Y-144780821D01*
X113760322Y-145161540D01*
X113762014Y-145164380D01*
X113978461Y-145564339D01*
X113979913Y-145567309D01*
X114162592Y-145983776D01*
X114163794Y-145986856D01*
X114311458Y-146416986D01*
X114312401Y-146420155D01*
X114424040Y-146861010D01*
X114424718Y-146864245D01*
X114499571Y-147312813D01*
X114499980Y-147316094D01*
X114537535Y-147769312D01*
X114537670Y-147772205D01*
X114539990Y-147998881D01*
X114548715Y-148190806D01*
X114556998Y-148291566D01*
X114569403Y-148410699D01*
X114586713Y-148546193D01*
X114609767Y-148696518D01*
X114639372Y-148859959D01*
X114676332Y-149034801D01*
X114721482Y-149219493D01*
X114775617Y-149412307D01*
X114839561Y-149611637D01*
X114914110Y-149815794D01*
X115000075Y-150023149D01*
X115098278Y-150232085D01*
X115209494Y-150440904D01*
X115334552Y-150648017D01*
X115474233Y-150851759D01*
X115629358Y-151050526D01*
X115800731Y-151242692D01*
X115989191Y-151426668D01*
X116195537Y-151600819D01*
X116420621Y-151763554D01*
X116665319Y-151913280D01*
X116930468Y-152048368D01*
X117216940Y-152167199D01*
X117525643Y-152268150D01*
X117857442Y-152349568D01*
X118213180Y-152409789D01*
X118593766Y-152447153D01*
X119000629Y-152460000D01*
X188999085Y-152460000D01*
X189190806Y-152451284D01*
X189291566Y-152443001D01*
X189410699Y-152430596D01*
X189546193Y-152413286D01*
X189696518Y-152390232D01*
X189859959Y-152360627D01*
X190034801Y-152323667D01*
X190219493Y-152278517D01*
X190412307Y-152224382D01*
X190611637Y-152160438D01*
X190815794Y-152085889D01*
X191023149Y-151999924D01*
X191232085Y-151901721D01*
X191440904Y-151790505D01*
X191648017Y-151665447D01*
X191851759Y-151525766D01*
X192050526Y-151370641D01*
X192242692Y-151199268D01*
X192426668Y-151010808D01*
X192600819Y-150804462D01*
X192763554Y-150579378D01*
X192913280Y-150334680D01*
X193048368Y-150069531D01*
X193167199Y-149783059D01*
X193268150Y-149474356D01*
X193349568Y-149142557D01*
X193409789Y-148786819D01*
X193447153Y-148406233D01*
X193460006Y-147999172D01*
X193462330Y-147772205D01*
X193462465Y-147769312D01*
X193500020Y-147316094D01*
X193500429Y-147312813D01*
X193575281Y-146864245D01*
X193575959Y-146861010D01*
X193687599Y-146420155D01*
X193688542Y-146416986D01*
X193836206Y-145986856D01*
X193837408Y-145983776D01*
X194020087Y-145567309D01*
X194021539Y-145564339D01*
X194237986Y-145164380D01*
X194239678Y-145161540D01*
X194488414Y-144780821D01*
X194490335Y-144778130D01*
X194769661Y-144419252D01*
X194771798Y-144416730D01*
X195079806Y-144082144D01*
X195082144Y-144079806D01*
X195416730Y-143771798D01*
X195419252Y-143769661D01*
X195778130Y-143490335D01*
X195780821Y-143488414D01*
X196161540Y-143239678D01*
X196164380Y-143237986D01*
X196564339Y-143021539D01*
X196567309Y-143020087D01*
X196983776Y-142837408D01*
X196986856Y-142836206D01*
X197416986Y-142688542D01*
X197420155Y-142687599D01*
X197861010Y-142575959D01*
X197864245Y-142575281D01*
X198312813Y-142500429D01*
X198316094Y-142500020D01*
X198769312Y-142462465D01*
X198772205Y-142462330D01*
X198997706Y-142460021D01*
X199157821Y-142443264D01*
X199296639Y-142414104D01*
X199469114Y-142362001D01*
X199564659Y-142325645D01*
X199666039Y-142281035D01*
X199771977Y-142227498D01*
X199881559Y-142164222D01*
X199993869Y-142090402D01*
X200108073Y-142005178D01*
X200223208Y-141907771D01*
X200338444Y-141797297D01*
X200452875Y-141672928D01*
X200565573Y-141533853D01*
X200675685Y-141379168D01*
X200782272Y-141208073D01*
X200884446Y-141019677D01*
X200981277Y-140813157D01*
X201071852Y-140587661D01*
X201155245Y-140342334D01*
X201230532Y-140076352D01*
X201296777Y-139788890D01*
X201353066Y-139479057D01*
X201398454Y-139146106D01*
X201432023Y-138789167D01*
X201452847Y-138407382D01*
X201460000Y-137999640D01*
X201460000Y-78000495D01*
X201455140Y-77808053D01*
X201450516Y-77706818D01*
X201443604Y-77587335D01*
X201433951Y-77451329D01*
X201421104Y-77300548D01*
X201404614Y-77136687D01*
X201384020Y-76961318D01*
X201358868Y-76776126D01*
X201328706Y-76582749D01*
X201293087Y-76382888D01*
X201251552Y-76178143D01*
X201203659Y-75970210D01*
X201148961Y-75760732D01*
X201087014Y-75551375D01*
X201017384Y-75343801D01*
X200939645Y-75139699D01*
X200853352Y-74940671D01*
X200758110Y-74748434D01*
X200653495Y-74564608D01*
X200539127Y-74390865D01*
X200414587Y-74228789D01*
X200279523Y-74080032D01*
X200133508Y-73946127D01*
X199976130Y-73828619D01*
X199806910Y-73729012D01*
X199625303Y-73648798D01*
X199430722Y-73589507D01*
X199222496Y-73552710D01*
X198998651Y-73539988D01*
X198772205Y-73537670D01*
X198769312Y-73537535D01*
X198316094Y-73499980D01*
X198312813Y-73499571D01*
X197864245Y-73424719D01*
X197861010Y-73424041D01*
X197420155Y-73312401D01*
X197416986Y-73311458D01*
X196986856Y-73163794D01*
X196983776Y-73162592D01*
X196567309Y-72979913D01*
X196564339Y-72978461D01*
X196164380Y-72762014D01*
X196161540Y-72760322D01*
X195780821Y-72511586D01*
X195778130Y-72509665D01*
X195419252Y-72230339D01*
X195416730Y-72228202D01*
X195082144Y-71920194D01*
X195079806Y-71917856D01*
X194771798Y-71583270D01*
X194769661Y-71580748D01*
X194490335Y-71221870D01*
X194488414Y-71219179D01*
X194239678Y-70838460D01*
X194237986Y-70835620D01*
X194021539Y-70435661D01*
X194020087Y-70432691D01*
X193837408Y-70016224D01*
X193836206Y-70013144D01*
X193688542Y-69583014D01*
X193687599Y-69579845D01*
X193575959Y-69138990D01*
X193575281Y-69135755D01*
X193500429Y-68687187D01*
X193500020Y-68683906D01*
X193462465Y-68230688D01*
X193462330Y-68227795D01*
X193460009Y-68001118D01*
X193451284Y-67809194D01*
X193443001Y-67708434D01*
X193430596Y-67589301D01*
X193413286Y-67453807D01*
X193390232Y-67303482D01*
X193360627Y-67140041D01*
X193323667Y-66965199D01*
X193278517Y-66780507D01*
X193224382Y-66587693D01*
X193160438Y-66388363D01*
X193085889Y-66184206D01*
X192999924Y-65976851D01*
X192901721Y-65767915D01*
X192790505Y-65559096D01*
X192665447Y-65351983D01*
X192525766Y-65148241D01*
X192370641Y-64949474D01*
X192199268Y-64757308D01*
X192010808Y-64573332D01*
X191804462Y-64399181D01*
X191579378Y-64236446D01*
X191334680Y-64086720D01*
X191069531Y-63951632D01*
X190783059Y-63832801D01*
X190474356Y-63731850D01*
X190142557Y-63650432D01*
X189786819Y-63590211D01*
X189406233Y-63552847D01*
X188999371Y-63540000D01*
X119000915Y-63540000D01*
X118809193Y-63548716D01*
X118708433Y-63556999D01*
X118589300Y-63569404D01*
X118453806Y-63586714D01*
X118303481Y-63609768D01*
X118140040Y-63639373D01*
X117965198Y-63676333D01*
X117780506Y-63721483D01*
X117587692Y-63775618D01*
X117388362Y-63839562D01*
X117184205Y-63914111D01*
X116976850Y-64000076D01*
X116767914Y-64098279D01*
X116559095Y-64209495D01*
X116351982Y-64334553D01*
X116148240Y-64474234D01*
X115949473Y-64629359D01*
X115757307Y-64800732D01*
X115573331Y-64989192D01*
X115399180Y-65195538D01*
X115236445Y-65420622D01*
X115086719Y-65665320D01*
X114951631Y-65930469D01*
X114832800Y-66216941D01*
X114731849Y-66525644D01*
X114650431Y-66857443D01*
X114590210Y-67213181D01*
X114552846Y-67593767D01*
X114539993Y-68000827D01*
X114537670Y-68227795D01*
X114537535Y-68230688D01*
X114522558Y-68411419D01*
X114520150Y-68468130D01*
X114519862Y-68471514D01*
X114513393Y-68522023D01*
X114499980Y-68683906D01*
X114499571Y-68687187D01*
X114468073Y-68875936D01*
X114460564Y-68934585D01*
X114459990Y-68937932D01*
X114449972Y-68984410D01*
X114424718Y-69135755D01*
X114424040Y-69138990D01*
X114374475Y-69334715D01*
X114361633Y-69394306D01*
X114360777Y-69397593D01*
X114347929Y-69439540D01*
X114312401Y-69579845D01*
X114311458Y-69583014D01*
X114242297Y-69784468D01*
X114224073Y-69843981D01*
X114222941Y-69847184D01*
X114208023Y-69884305D01*
X114163794Y-70013144D01*
X114162592Y-70016224D01*
X114072304Y-70222056D01*
X114048873Y-70280371D01*
X114047474Y-70283466D01*
X114031282Y-70315578D01*
X113979913Y-70432691D01*
X113978461Y-70435661D01*
X113865456Y-70644474D01*
X113837295Y-70700330D01*
X113835639Y-70703295D01*
X113819002Y-70730313D01*
X113762014Y-70835620D01*
X113760322Y-70838460D01*
X113622942Y-71048732D01*
X113590864Y-71100833D01*
X113588963Y-71103647D01*
X113572698Y-71125637D01*
X113511585Y-71219179D01*
X113509664Y-71221870D01*
X113346132Y-71431973D01*
X113311357Y-71478995D01*
X113309223Y-71481638D01*
X113294129Y-71498786D01*
X113230338Y-71580747D01*
X113228201Y-71583270D01*
X113036467Y-71791547D01*
X113000786Y-71832091D01*
X112998437Y-71834542D01*
X112985292Y-71847140D01*
X112920194Y-71917856D01*
X112917856Y-71920194D01*
X112695418Y-72124961D01*
X112661389Y-72157576D01*
X112658837Y-72159822D01*
X112648366Y-72168274D01*
X112583271Y-72228201D01*
X112580747Y-72230338D01*
X112324354Y-72429895D01*
X112295611Y-72453105D01*
X112292880Y-72455125D01*
X112285750Y-72459943D01*
X112221870Y-72509664D01*
X112219179Y-72511585D01*
X111924408Y-72704168D01*
X111906090Y-72716550D01*
X111903192Y-72718334D01*
X111899971Y-72720132D01*
X111838460Y-72760321D01*
X111835620Y-72762014D01*
X111495940Y-72945838D01*
X111495672Y-72945989D01*
X111495053Y-72946300D01*
X111495061Y-72946315D01*
X111435661Y-72978461D01*
X111432691Y-72979913D01*
X111016224Y-73162592D01*
X111013144Y-73163794D01*
X110583014Y-73311458D01*
X110579845Y-73312401D01*
X110138990Y-73424040D01*
X110135755Y-73424718D01*
X109687187Y-73499571D01*
X109683906Y-73499980D01*
X109230688Y-73537535D01*
X109227795Y-73537670D01*
X109002293Y-73539978D01*
X108842179Y-73556735D01*
X108703361Y-73585895D01*
X108530886Y-73637998D01*
X108435341Y-73674354D01*
X108333961Y-73718964D01*
X108228023Y-73772501D01*
X108118441Y-73835777D01*
X108006131Y-73909597D01*
X107891927Y-73994821D01*
X107776792Y-74092228D01*
X107661556Y-74202702D01*
X107547125Y-74327071D01*
X107434427Y-74466146D01*
X107324315Y-74620831D01*
X107217728Y-74791926D01*
X107115554Y-74980322D01*
X107018723Y-75186842D01*
X106928148Y-75412338D01*
X106844755Y-75657665D01*
X106769468Y-75923647D01*
X106703223Y-76211109D01*
X106646934Y-76520942D01*
X106601546Y-76853893D01*
X106567977Y-77210832D01*
X106547153Y-77592617D01*
X106540000Y-78000359D01*
X103460000Y-78000359D01*
X103460000Y-63500262D01*
X103460004Y-63499732D01*
X103462236Y-63331366D01*
X103462484Y-63327417D01*
X103500186Y-62992803D01*
X103500937Y-62988381D01*
X103575867Y-62660092D01*
X103577109Y-62655782D01*
X103688324Y-62337947D01*
X103690040Y-62333803D01*
X103836143Y-62030418D01*
X103838313Y-62026492D01*
X104017464Y-61741373D01*
X104020060Y-61737714D01*
X104230009Y-61474447D01*
X104232998Y-61471103D01*
X104471103Y-61232998D01*
X104474447Y-61230009D01*
X104737714Y-61020060D01*
X104741373Y-61017464D01*
X105026492Y-60838313D01*
X105030418Y-60836143D01*
X105333803Y-60690040D01*
X105337947Y-60688324D01*
X105655782Y-60577109D01*
X105660092Y-60575867D01*
X105988381Y-60500937D01*
X105992803Y-60500186D01*
X106327417Y-60462484D01*
X106331366Y-60462236D01*
X106499732Y-60460004D01*
X106500262Y-60460000D01*
X201500000Y-60460000D01*
X201500551Y-60460004D01*
G37*
D14*
X109000000Y-148000000D03*
D13*
X111100000Y-64362693D03*
X111100000Y-71637307D03*
X111100000Y-144362693D03*
X111100000Y-151637307D03*
X111746900Y-154000000D03*
X111746901Y-62000000D03*
X113200000Y-68000000D03*
X113200000Y-148000000D03*
X118252105Y-62000000D03*
X118252105Y-154000000D03*
X124757309Y-154000000D03*
X124757310Y-62000000D03*
X131262514Y-62000000D03*
X131262514Y-154000000D03*
X137767718Y-154000000D03*
X137767719Y-62000000D03*
X144272923Y-62000000D03*
X144272923Y-154000000D03*
X150778127Y-62000000D03*
X150900836Y-154000000D03*
X157283332Y-62000000D03*
X157406040Y-154000000D03*
X163788536Y-62000000D03*
X163911245Y-154000000D03*
X170293741Y-62000000D03*
X170416449Y-154000000D03*
X176798945Y-62000000D03*
X176921654Y-154000000D03*
X183304150Y-62000000D03*
X183304150Y-154000000D03*
X189809354Y-62000000D03*
X189809354Y-154000000D03*
X194800000Y-68000000D03*
X194800000Y-148000000D03*
X196314559Y-62000000D03*
X196314559Y-154000000D03*
X196900000Y-64362693D03*
X196900000Y-71637307D03*
X196900000Y-144362693D03*
X196900000Y-151637307D03*
D14*
X199000000Y-68000000D03*
X199000000Y-148000000D03*
D13*
X201100000Y-64362693D03*
X201100000Y-71637307D03*
X201100000Y-144362693D03*
X201100000Y-151637307D03*
X203000000Y-75473977D03*
X203000000Y-81979182D03*
X203000000Y-88484386D03*
X203000000Y-94989591D03*
X203000000Y-101494795D03*
X203000000Y-108000000D03*
X203000000Y-114627913D03*
X203000000Y-121133117D03*
X203000000Y-127638322D03*
X203000000Y-134143526D03*
X203000000Y-140648731D03*
X203200000Y-68000000D03*
X203200000Y-148000000D03*
D10*
X164000000Y-112250000D03*
X164000000Y-107750000D03*
X109000000Y-108000000D03*
X111500000Y-104500000D03*
X177500000Y-132000000D03*
X125000000Y-141250000D03*
X181500000Y-114750000D03*
X141000000Y-80000000D03*
G36*
G01*
X164555000Y-145864417D02*
X164555000Y-147135583D01*
G75*
G02*
X164285583Y-147405000I-269417J0D01*
G01*
X163714417Y-147405000D01*
G75*
G02*
X163445000Y-147135583I0J269417D01*
G01*
X163445000Y-145864417D01*
G75*
G02*
X163714417Y-145595000I269417J0D01*
G01*
X164285583Y-145595000D01*
G75*
G02*
X164555000Y-145864417I0J-269417D01*
G01*
G37*
D11*
X162500000Y-146500000D03*
X161000000Y-146500000D03*
X159500000Y-146500000D03*
D10*
X145500000Y-80000000D03*
G36*
G01*
X137555000Y-145864417D02*
X137555000Y-147135583D01*
G75*
G02*
X137285583Y-147405000I-269417J0D01*
G01*
X136714417Y-147405000D01*
G75*
G02*
X136445000Y-147135583I0J269417D01*
G01*
X136445000Y-145864417D01*
G75*
G02*
X136714417Y-145595000I269417J0D01*
G01*
X137285583Y-145595000D01*
G75*
G02*
X137555000Y-145864417I0J-269417D01*
G01*
G37*
D11*
X135500000Y-146500000D03*
X134000000Y-146500000D03*
X132500000Y-146500000D03*
D10*
X164000000Y-82750000D03*
X121000000Y-88900000D03*
X181500000Y-88750000D03*
X178150000Y-82750000D03*
G36*
G01*
X188555000Y-145864417D02*
X188555000Y-147135583D01*
G75*
G02*
X188285583Y-147405000I-269417J0D01*
G01*
X187714417Y-147405000D01*
G75*
G02*
X187445000Y-147135583I0J269417D01*
G01*
X187445000Y-145864417D01*
G75*
G02*
X187714417Y-145595000I269417J0D01*
G01*
X188285583Y-145595000D01*
G75*
G02*
X188555000Y-145864417I0J-269417D01*
G01*
G37*
D11*
X186500000Y-146500000D03*
X185000000Y-146500000D03*
X183500000Y-146500000D03*
G36*
G01*
X188667409Y-101190000D02*
X190932591Y-101190000D01*
G75*
G02*
X191190000Y-101447409I0J-257409D01*
G01*
X191190000Y-103712591D01*
G75*
G02*
X190932591Y-103970000I-257409J0D01*
G01*
X188667409Y-103970000D01*
G75*
G02*
X188410000Y-103712591I0J257409D01*
G01*
X188410000Y-101447409D01*
G75*
G02*
X188667409Y-101190000I257409J0D01*
G01*
G37*
D12*
X189800000Y-106540000D03*
X189800000Y-110500000D03*
X189800000Y-114460000D03*
G36*
G01*
X125751666Y-72882591D02*
X125751666Y-70617409D01*
G75*
G02*
X126009075Y-70360000I257409J0D01*
G01*
X128274257Y-70360000D01*
G75*
G02*
X128531666Y-70617409I0J-257409D01*
G01*
X128531666Y-72882591D01*
G75*
G02*
X128274257Y-73140000I-257409J0D01*
G01*
X126009075Y-73140000D01*
G75*
G02*
X125751666Y-72882591I0J257409D01*
G01*
G37*
X131101666Y-71750000D03*
X135061666Y-71750000D03*
X139021666Y-71750000D03*
X142981666Y-71750000D03*
X146941666Y-71750000D03*
X150901666Y-71750000D03*
X154861666Y-71750000D03*
D10*
X121000000Y-80250000D03*
X121000000Y-84598586D03*
X164000000Y-116750000D03*
X163250000Y-128000000D03*
X181500000Y-110500000D03*
X175500000Y-103250000D03*
X131500000Y-122250000D03*
X130250000Y-141250000D03*
G36*
G01*
X168650000Y-72882591D02*
X168650000Y-70617409D01*
G75*
G02*
X168907409Y-70360000I257409J0D01*
G01*
X171172591Y-70360000D01*
G75*
G02*
X171430000Y-70617409I0J-257409D01*
G01*
X171430000Y-72882591D01*
G75*
G02*
X171172591Y-73140000I-257409J0D01*
G01*
X168907409Y-73140000D01*
G75*
G02*
X168650000Y-72882591I0J257409D01*
G01*
G37*
D12*
X174000000Y-71750000D03*
X177960000Y-71750000D03*
X181920000Y-71750000D03*
D10*
X111500000Y-111500000D03*
G36*
G01*
X176563334Y-145864417D02*
X176563334Y-147135583D01*
G75*
G02*
X176293917Y-147405000I-269417J0D01*
G01*
X175722751Y-147405000D01*
G75*
G02*
X175453334Y-147135583I0J269417D01*
G01*
X175453334Y-145864417D01*
G75*
G02*
X175722751Y-145595000I269417J0D01*
G01*
X176293917Y-145595000D01*
G75*
G02*
X176563334Y-145864417I0J-269417D01*
G01*
G37*
D11*
X174508334Y-146500000D03*
X173008334Y-146500000D03*
X171508334Y-146500000D03*
D10*
X159000000Y-91250000D03*
X164000000Y-103250000D03*
X150000000Y-80000000D03*
X150500000Y-141250000D03*
X166250000Y-141250000D03*
X121000000Y-98000000D03*
X120500000Y-141250000D03*
G36*
G01*
X152555000Y-145864417D02*
X152555000Y-147135583D01*
G75*
G02*
X152285583Y-147405000I-269417J0D01*
G01*
X151714417Y-147405000D01*
G75*
G02*
X151445000Y-147135583I0J269417D01*
G01*
X151445000Y-145864417D01*
G75*
G02*
X151714417Y-145595000I269417J0D01*
G01*
X152285583Y-145595000D01*
G75*
G02*
X152555000Y-145864417I0J-269417D01*
G01*
G37*
D11*
X150500000Y-146500000D03*
X149000000Y-146500000D03*
X147500000Y-146500000D03*
X146000000Y-146500000D03*
X144500000Y-146500000D03*
D10*
X176000000Y-141250000D03*
X186750000Y-130000000D03*
X159000000Y-86750000D03*
X188000000Y-141250000D03*
X161750000Y-141250000D03*
X136500000Y-80000000D03*
X183500000Y-141250000D03*
X181500000Y-93250000D03*
X170500000Y-103250000D03*
X132000000Y-80000000D03*
X155000000Y-141250000D03*
X141500000Y-141250000D03*
D15*
X109780000Y-83860000D03*
X109780000Y-89640000D03*
D16*
X110290000Y-82427000D03*
D17*
X106100000Y-82427000D03*
D16*
X110290000Y-91077000D03*
D17*
X106110000Y-91077000D03*
%LPD*%
M02*
