G04 #@! TF.GenerationSoftware,KiCad,Pcbnew,8.0.3+1*
G04 #@! TF.CreationDate,2024-08-22T20:15:40+00:00*
G04 #@! TF.ProjectId,AstraControl,41737472-6143-46f6-9e74-726f6c2e6b69,rev?*
G04 #@! TF.SameCoordinates,Original*
G04 #@! TF.FileFunction,Paste,Top*
G04 #@! TF.FilePolarity,Positive*
%FSLAX46Y46*%
G04 Gerber Fmt 4.6, Leading zero omitted, Abs format (unit mm)*
G04 Created by KiCad (PCBNEW 8.0.3+1) date 2024-08-22 20:15:40*
%MOMM*%
%LPD*%
G01*
G04 APERTURE LIST*
%ADD10R,1.550000X0.300000*%
%ADD11R,1.000000X0.750000*%
%ADD12R,1.100000X3.700000*%
%ADD13R,1.200000X0.600000*%
%ADD14R,2.500000X1.500000*%
%ADD15R,0.550000X0.600000*%
%ADD16R,1.000000X0.700000*%
%ADD17R,0.900000X1.500000*%
%ADD18R,1.500000X0.900000*%
%ADD19R,0.900000X0.900000*%
%ADD20R,1.140000X0.600000*%
%ADD21R,1.190000X0.300000*%
%ADD22R,1.500000X0.550000*%
%ADD23R,1.750000X2.650000*%
G04 APERTURE END LIST*
G36*
G01*
X200200000Y-79350000D02*
X199300000Y-79350000D01*
G75*
G02*
X199050000Y-79100000I0J250000D01*
G01*
X199050000Y-78400000D01*
G75*
G02*
X199300000Y-78150000I250000J0D01*
G01*
X200200000Y-78150000D01*
G75*
G02*
X200450000Y-78400000I0J-250000D01*
G01*
X200450000Y-79100000D01*
G75*
G02*
X200200000Y-79350000I-250000J0D01*
G01*
G37*
G36*
G01*
X200200000Y-77350000D02*
X199300000Y-77350000D01*
G75*
G02*
X199050000Y-77100000I0J250000D01*
G01*
X199050000Y-76400000D01*
G75*
G02*
X199300000Y-76150000I250000J0D01*
G01*
X200200000Y-76150000D01*
G75*
G02*
X200450000Y-76400000I0J-250000D01*
G01*
X200450000Y-77100000D01*
G75*
G02*
X200200000Y-77350000I-250000J0D01*
G01*
G37*
G36*
G01*
X173500000Y-126775000D02*
X174000000Y-126775000D01*
G75*
G02*
X174225000Y-127000000I0J-225000D01*
G01*
X174225000Y-127450000D01*
G75*
G02*
X174000000Y-127675000I-225000J0D01*
G01*
X173500000Y-127675000D01*
G75*
G02*
X173275000Y-127450000I0J225000D01*
G01*
X173275000Y-127000000D01*
G75*
G02*
X173500000Y-126775000I225000J0D01*
G01*
G37*
G36*
G01*
X173500000Y-128325000D02*
X174000000Y-128325000D01*
G75*
G02*
X174225000Y-128550000I0J-225000D01*
G01*
X174225000Y-129000000D01*
G75*
G02*
X174000000Y-129225000I-225000J0D01*
G01*
X173500000Y-129225000D01*
G75*
G02*
X173275000Y-129000000I0J225000D01*
G01*
X173275000Y-128550000D01*
G75*
G02*
X173500000Y-128325000I225000J0D01*
G01*
G37*
G36*
G01*
X149190000Y-96080000D02*
X149190000Y-96420000D01*
G75*
G02*
X149050000Y-96560000I-140000J0D01*
G01*
X148770000Y-96560000D01*
G75*
G02*
X148630000Y-96420000I0J140000D01*
G01*
X148630000Y-96080000D01*
G75*
G02*
X148770000Y-95940000I140000J0D01*
G01*
X149050000Y-95940000D01*
G75*
G02*
X149190000Y-96080000I0J-140000D01*
G01*
G37*
G36*
G01*
X148230000Y-96080000D02*
X148230000Y-96420000D01*
G75*
G02*
X148090000Y-96560000I-140000J0D01*
G01*
X147810000Y-96560000D01*
G75*
G02*
X147670000Y-96420000I0J140000D01*
G01*
X147670000Y-96080000D01*
G75*
G02*
X147810000Y-95940000I140000J0D01*
G01*
X148090000Y-95940000D01*
G75*
G02*
X148230000Y-96080000I0J-140000D01*
G01*
G37*
G36*
G01*
X166975000Y-131625000D02*
X166025000Y-131625000D01*
G75*
G02*
X165775000Y-131375000I0J250000D01*
G01*
X165775000Y-130700000D01*
G75*
G02*
X166025000Y-130450000I250000J0D01*
G01*
X166975000Y-130450000D01*
G75*
G02*
X167225000Y-130700000I0J-250000D01*
G01*
X167225000Y-131375000D01*
G75*
G02*
X166975000Y-131625000I-250000J0D01*
G01*
G37*
G36*
G01*
X166975000Y-129550000D02*
X166025000Y-129550000D01*
G75*
G02*
X165775000Y-129300000I0J250000D01*
G01*
X165775000Y-128625000D01*
G75*
G02*
X166025000Y-128375000I250000J0D01*
G01*
X166975000Y-128375000D01*
G75*
G02*
X167225000Y-128625000I0J-250000D01*
G01*
X167225000Y-129300000D01*
G75*
G02*
X166975000Y-129550000I-250000J0D01*
G01*
G37*
G36*
G01*
X199275000Y-81125000D02*
X200225000Y-81125000D01*
G75*
G02*
X200475000Y-81375000I0J-250000D01*
G01*
X200475000Y-82050000D01*
G75*
G02*
X200225000Y-82300000I-250000J0D01*
G01*
X199275000Y-82300000D01*
G75*
G02*
X199025000Y-82050000I0J250000D01*
G01*
X199025000Y-81375000D01*
G75*
G02*
X199275000Y-81125000I250000J0D01*
G01*
G37*
G36*
G01*
X199275000Y-83200000D02*
X200225000Y-83200000D01*
G75*
G02*
X200475000Y-83450000I0J-250000D01*
G01*
X200475000Y-84125000D01*
G75*
G02*
X200225000Y-84375000I-250000J0D01*
G01*
X199275000Y-84375000D01*
G75*
G02*
X199025000Y-84125000I0J250000D01*
G01*
X199025000Y-83450000D01*
G75*
G02*
X199275000Y-83200000I250000J0D01*
G01*
G37*
G36*
G01*
X183225000Y-129000000D02*
X183225000Y-129500000D01*
G75*
G02*
X183000000Y-129725000I-225000J0D01*
G01*
X182550000Y-129725000D01*
G75*
G02*
X182325000Y-129500000I0J225000D01*
G01*
X182325000Y-129000000D01*
G75*
G02*
X182550000Y-128775000I225000J0D01*
G01*
X183000000Y-128775000D01*
G75*
G02*
X183225000Y-129000000I0J-225000D01*
G01*
G37*
G36*
G01*
X181675000Y-129000000D02*
X181675000Y-129500000D01*
G75*
G02*
X181450000Y-129725000I-225000J0D01*
G01*
X181000000Y-129725000D01*
G75*
G02*
X180775000Y-129500000I0J225000D01*
G01*
X180775000Y-129000000D01*
G75*
G02*
X181000000Y-128775000I225000J0D01*
G01*
X181450000Y-128775000D01*
G75*
G02*
X181675000Y-129000000I0J-225000D01*
G01*
G37*
G36*
G01*
X160280000Y-131815000D02*
X160280000Y-132185000D01*
G75*
G02*
X160145000Y-132320000I-135000J0D01*
G01*
X159875000Y-132320000D01*
G75*
G02*
X159740000Y-132185000I0J135000D01*
G01*
X159740000Y-131815000D01*
G75*
G02*
X159875000Y-131680000I135000J0D01*
G01*
X160145000Y-131680000D01*
G75*
G02*
X160280000Y-131815000I0J-135000D01*
G01*
G37*
G36*
G01*
X159260000Y-131815000D02*
X159260000Y-132185000D01*
G75*
G02*
X159125000Y-132320000I-135000J0D01*
G01*
X158855000Y-132320000D01*
G75*
G02*
X158720000Y-132185000I0J135000D01*
G01*
X158720000Y-131815000D01*
G75*
G02*
X158855000Y-131680000I135000J0D01*
G01*
X159125000Y-131680000D01*
G75*
G02*
X159260000Y-131815000I0J-135000D01*
G01*
G37*
G36*
G01*
X110587500Y-138775000D02*
X110587500Y-139725000D01*
G75*
G02*
X110337500Y-139975000I-250000J0D01*
G01*
X109662500Y-139975000D01*
G75*
G02*
X109412500Y-139725000I0J250000D01*
G01*
X109412500Y-138775000D01*
G75*
G02*
X109662500Y-138525000I250000J0D01*
G01*
X110337500Y-138525000D01*
G75*
G02*
X110587500Y-138775000I0J-250000D01*
G01*
G37*
G36*
G01*
X108512500Y-138775000D02*
X108512500Y-139725000D01*
G75*
G02*
X108262500Y-139975000I-250000J0D01*
G01*
X107587500Y-139975000D01*
G75*
G02*
X107337500Y-139725000I0J250000D01*
G01*
X107337500Y-138775000D01*
G75*
G02*
X107587500Y-138525000I250000J0D01*
G01*
X108262500Y-138525000D01*
G75*
G02*
X108512500Y-138775000I0J-250000D01*
G01*
G37*
G36*
G01*
X168160000Y-85670000D02*
X168160000Y-85330000D01*
G75*
G02*
X168300000Y-85190000I140000J0D01*
G01*
X168580000Y-85190000D01*
G75*
G02*
X168720000Y-85330000I0J-140000D01*
G01*
X168720000Y-85670000D01*
G75*
G02*
X168580000Y-85810000I-140000J0D01*
G01*
X168300000Y-85810000D01*
G75*
G02*
X168160000Y-85670000I0J140000D01*
G01*
G37*
G36*
G01*
X169120000Y-85670000D02*
X169120000Y-85330000D01*
G75*
G02*
X169260000Y-85190000I140000J0D01*
G01*
X169540000Y-85190000D01*
G75*
G02*
X169680000Y-85330000I0J-140000D01*
G01*
X169680000Y-85670000D01*
G75*
G02*
X169540000Y-85810000I-140000J0D01*
G01*
X169260000Y-85810000D01*
G75*
G02*
X169120000Y-85670000I0J140000D01*
G01*
G37*
G36*
G01*
X119900000Y-130450000D02*
X119900000Y-129550000D01*
G75*
G02*
X120150000Y-129300000I250000J0D01*
G01*
X120850000Y-129300000D01*
G75*
G02*
X121100000Y-129550000I0J-250000D01*
G01*
X121100000Y-130450000D01*
G75*
G02*
X120850000Y-130700000I-250000J0D01*
G01*
X120150000Y-130700000D01*
G75*
G02*
X119900000Y-130450000I0J250000D01*
G01*
G37*
G36*
G01*
X121900000Y-130450000D02*
X121900000Y-129550000D01*
G75*
G02*
X122150000Y-129300000I250000J0D01*
G01*
X122850000Y-129300000D01*
G75*
G02*
X123100000Y-129550000I0J-250000D01*
G01*
X123100000Y-130450000D01*
G75*
G02*
X122850000Y-130700000I-250000J0D01*
G01*
X122150000Y-130700000D01*
G75*
G02*
X121900000Y-130450000I0J250000D01*
G01*
G37*
G36*
G01*
X116330000Y-83010000D02*
X116670000Y-83010000D01*
G75*
G02*
X116810000Y-83150000I0J-140000D01*
G01*
X116810000Y-83430000D01*
G75*
G02*
X116670000Y-83570000I-140000J0D01*
G01*
X116330000Y-83570000D01*
G75*
G02*
X116190000Y-83430000I0J140000D01*
G01*
X116190000Y-83150000D01*
G75*
G02*
X116330000Y-83010000I140000J0D01*
G01*
G37*
G36*
G01*
X116330000Y-83970000D02*
X116670000Y-83970000D01*
G75*
G02*
X116810000Y-84110000I0J-140000D01*
G01*
X116810000Y-84390000D01*
G75*
G02*
X116670000Y-84530000I-140000J0D01*
G01*
X116330000Y-84530000D01*
G75*
G02*
X116190000Y-84390000I0J140000D01*
G01*
X116190000Y-84110000D01*
G75*
G02*
X116330000Y-83970000I140000J0D01*
G01*
G37*
G36*
G01*
X110600000Y-76300000D02*
X110600000Y-77200000D01*
G75*
G02*
X110350000Y-77450000I-250000J0D01*
G01*
X109650000Y-77450000D01*
G75*
G02*
X109400000Y-77200000I0J250000D01*
G01*
X109400000Y-76300000D01*
G75*
G02*
X109650000Y-76050000I250000J0D01*
G01*
X110350000Y-76050000D01*
G75*
G02*
X110600000Y-76300000I0J-250000D01*
G01*
G37*
G36*
G01*
X108600000Y-76300000D02*
X108600000Y-77200000D01*
G75*
G02*
X108350000Y-77450000I-250000J0D01*
G01*
X107650000Y-77450000D01*
G75*
G02*
X107400000Y-77200000I0J250000D01*
G01*
X107400000Y-76300000D01*
G75*
G02*
X107650000Y-76050000I250000J0D01*
G01*
X108350000Y-76050000D01*
G75*
G02*
X108600000Y-76300000I0J-250000D01*
G01*
G37*
D10*
X170200000Y-108050000D03*
X170200000Y-108700000D03*
X170200000Y-109350000D03*
X170200000Y-110000000D03*
X170200000Y-110650000D03*
X170200000Y-111300000D03*
X170200000Y-111950000D03*
X175800000Y-111950000D03*
X175800000Y-111300000D03*
X175800000Y-110650000D03*
X175800000Y-110000000D03*
X175800000Y-109350000D03*
X175800000Y-108700000D03*
X175800000Y-108050000D03*
D11*
X114500000Y-99850000D03*
X108500000Y-99850000D03*
X114500000Y-96100000D03*
X108500000Y-96100000D03*
G36*
G01*
X152493750Y-107525000D02*
X153006250Y-107525000D01*
G75*
G02*
X153225000Y-107743750I0J-218750D01*
G01*
X153225000Y-108181250D01*
G75*
G02*
X153006250Y-108400000I-218750J0D01*
G01*
X152493750Y-108400000D01*
G75*
G02*
X152275000Y-108181250I0J218750D01*
G01*
X152275000Y-107743750D01*
G75*
G02*
X152493750Y-107525000I218750J0D01*
G01*
G37*
G36*
G01*
X152493750Y-109100000D02*
X153006250Y-109100000D01*
G75*
G02*
X153225000Y-109318750I0J-218750D01*
G01*
X153225000Y-109756250D01*
G75*
G02*
X153006250Y-109975000I-218750J0D01*
G01*
X152493750Y-109975000D01*
G75*
G02*
X152275000Y-109756250I0J218750D01*
G01*
X152275000Y-109318750D01*
G75*
G02*
X152493750Y-109100000I218750J0D01*
G01*
G37*
D12*
X171750000Y-128000000D03*
X168750000Y-128000000D03*
G36*
G01*
X155565000Y-85460000D02*
X155935000Y-85460000D01*
G75*
G02*
X156070000Y-85595000I0J-135000D01*
G01*
X156070000Y-85865000D01*
G75*
G02*
X155935000Y-86000000I-135000J0D01*
G01*
X155565000Y-86000000D01*
G75*
G02*
X155430000Y-85865000I0J135000D01*
G01*
X155430000Y-85595000D01*
G75*
G02*
X155565000Y-85460000I135000J0D01*
G01*
G37*
G36*
G01*
X155565000Y-86480000D02*
X155935000Y-86480000D01*
G75*
G02*
X156070000Y-86615000I0J-135000D01*
G01*
X156070000Y-86885000D01*
G75*
G02*
X155935000Y-87020000I-135000J0D01*
G01*
X155565000Y-87020000D01*
G75*
G02*
X155430000Y-86885000I0J135000D01*
G01*
X155430000Y-86615000D01*
G75*
G02*
X155565000Y-86480000I135000J0D01*
G01*
G37*
G36*
G01*
X117550000Y-129400000D02*
X118450000Y-129400000D01*
G75*
G02*
X118700000Y-129650000I0J-250000D01*
G01*
X118700000Y-130350000D01*
G75*
G02*
X118450000Y-130600000I-250000J0D01*
G01*
X117550000Y-130600000D01*
G75*
G02*
X117300000Y-130350000I0J250000D01*
G01*
X117300000Y-129650000D01*
G75*
G02*
X117550000Y-129400000I250000J0D01*
G01*
G37*
G36*
G01*
X117550000Y-131400000D02*
X118450000Y-131400000D01*
G75*
G02*
X118700000Y-131650000I0J-250000D01*
G01*
X118700000Y-132350000D01*
G75*
G02*
X118450000Y-132600000I-250000J0D01*
G01*
X117550000Y-132600000D01*
G75*
G02*
X117300000Y-132350000I0J250000D01*
G01*
X117300000Y-131650000D01*
G75*
G02*
X117550000Y-131400000I250000J0D01*
G01*
G37*
G36*
G01*
X108650000Y-130450000D02*
X108650000Y-129550000D01*
G75*
G02*
X108900000Y-129300000I250000J0D01*
G01*
X109600000Y-129300000D01*
G75*
G02*
X109850000Y-129550000I0J-250000D01*
G01*
X109850000Y-130450000D01*
G75*
G02*
X109600000Y-130700000I-250000J0D01*
G01*
X108900000Y-130700000D01*
G75*
G02*
X108650000Y-130450000I0J250000D01*
G01*
G37*
G36*
G01*
X110650000Y-130450000D02*
X110650000Y-129550000D01*
G75*
G02*
X110900000Y-129300000I250000J0D01*
G01*
X111600000Y-129300000D01*
G75*
G02*
X111850000Y-129550000I0J-250000D01*
G01*
X111850000Y-130450000D01*
G75*
G02*
X111600000Y-130700000I-250000J0D01*
G01*
X110900000Y-130700000D01*
G75*
G02*
X110650000Y-130450000I0J250000D01*
G01*
G37*
G36*
G01*
X174560000Y-106420000D02*
X174560000Y-106080000D01*
G75*
G02*
X174700000Y-105940000I140000J0D01*
G01*
X174980000Y-105940000D01*
G75*
G02*
X175120000Y-106080000I0J-140000D01*
G01*
X175120000Y-106420000D01*
G75*
G02*
X174980000Y-106560000I-140000J0D01*
G01*
X174700000Y-106560000D01*
G75*
G02*
X174560000Y-106420000I0J140000D01*
G01*
G37*
G36*
G01*
X175520000Y-106420000D02*
X175520000Y-106080000D01*
G75*
G02*
X175660000Y-105940000I140000J0D01*
G01*
X175940000Y-105940000D01*
G75*
G02*
X176080000Y-106080000I0J-140000D01*
G01*
X176080000Y-106420000D01*
G75*
G02*
X175940000Y-106560000I-140000J0D01*
G01*
X175660000Y-106560000D01*
G75*
G02*
X175520000Y-106420000I0J140000D01*
G01*
G37*
G36*
G01*
X183225000Y-127250000D02*
X183225000Y-127750000D01*
G75*
G02*
X183000000Y-127975000I-225000J0D01*
G01*
X182550000Y-127975000D01*
G75*
G02*
X182325000Y-127750000I0J225000D01*
G01*
X182325000Y-127250000D01*
G75*
G02*
X182550000Y-127025000I225000J0D01*
G01*
X183000000Y-127025000D01*
G75*
G02*
X183225000Y-127250000I0J-225000D01*
G01*
G37*
G36*
G01*
X181675000Y-127250000D02*
X181675000Y-127750000D01*
G75*
G02*
X181450000Y-127975000I-225000J0D01*
G01*
X181000000Y-127975000D01*
G75*
G02*
X180775000Y-127750000I0J225000D01*
G01*
X180775000Y-127250000D01*
G75*
G02*
X181000000Y-127025000I225000J0D01*
G01*
X181450000Y-127025000D01*
G75*
G02*
X181675000Y-127250000I0J-225000D01*
G01*
G37*
G36*
G01*
X115770000Y-131565000D02*
X115770000Y-131935000D01*
G75*
G02*
X115635000Y-132070000I-135000J0D01*
G01*
X115365000Y-132070000D01*
G75*
G02*
X115230000Y-131935000I0J135000D01*
G01*
X115230000Y-131565000D01*
G75*
G02*
X115365000Y-131430000I135000J0D01*
G01*
X115635000Y-131430000D01*
G75*
G02*
X115770000Y-131565000I0J-135000D01*
G01*
G37*
G36*
G01*
X114750000Y-131565000D02*
X114750000Y-131935000D01*
G75*
G02*
X114615000Y-132070000I-135000J0D01*
G01*
X114345000Y-132070000D01*
G75*
G02*
X114210000Y-131935000I0J135000D01*
G01*
X114210000Y-131565000D01*
G75*
G02*
X114345000Y-131430000I135000J0D01*
G01*
X114615000Y-131430000D01*
G75*
G02*
X114750000Y-131565000I0J-135000D01*
G01*
G37*
G36*
G01*
X166737500Y-82975000D02*
X166737500Y-82025000D01*
G75*
G02*
X166987500Y-81775000I250000J0D01*
G01*
X167662500Y-81775000D01*
G75*
G02*
X167912500Y-82025000I0J-250000D01*
G01*
X167912500Y-82975000D01*
G75*
G02*
X167662500Y-83225000I-250000J0D01*
G01*
X166987500Y-83225000D01*
G75*
G02*
X166737500Y-82975000I0J250000D01*
G01*
G37*
G36*
G01*
X168812500Y-82975000D02*
X168812500Y-82025000D01*
G75*
G02*
X169062500Y-81775000I250000J0D01*
G01*
X169737500Y-81775000D01*
G75*
G02*
X169987500Y-82025000I0J-250000D01*
G01*
X169987500Y-82975000D01*
G75*
G02*
X169737500Y-83225000I-250000J0D01*
G01*
X169062500Y-83225000D01*
G75*
G02*
X168812500Y-82975000I0J250000D01*
G01*
G37*
G36*
G01*
X172540000Y-89315000D02*
X172540000Y-89685000D01*
G75*
G02*
X172405000Y-89820000I-135000J0D01*
G01*
X172135000Y-89820000D01*
G75*
G02*
X172000000Y-89685000I0J135000D01*
G01*
X172000000Y-89315000D01*
G75*
G02*
X172135000Y-89180000I135000J0D01*
G01*
X172405000Y-89180000D01*
G75*
G02*
X172540000Y-89315000I0J-135000D01*
G01*
G37*
G36*
G01*
X171520000Y-89315000D02*
X171520000Y-89685000D01*
G75*
G02*
X171385000Y-89820000I-135000J0D01*
G01*
X171115000Y-89820000D01*
G75*
G02*
X170980000Y-89685000I0J135000D01*
G01*
X170980000Y-89315000D01*
G75*
G02*
X171115000Y-89180000I135000J0D01*
G01*
X171385000Y-89180000D01*
G75*
G02*
X171520000Y-89315000I0J-135000D01*
G01*
G37*
G36*
G01*
X115220000Y-111670000D02*
X115220000Y-111330000D01*
G75*
G02*
X115360000Y-111190000I140000J0D01*
G01*
X115640000Y-111190000D01*
G75*
G02*
X115780000Y-111330000I0J-140000D01*
G01*
X115780000Y-111670000D01*
G75*
G02*
X115640000Y-111810000I-140000J0D01*
G01*
X115360000Y-111810000D01*
G75*
G02*
X115220000Y-111670000I0J140000D01*
G01*
G37*
G36*
G01*
X116180000Y-111670000D02*
X116180000Y-111330000D01*
G75*
G02*
X116320000Y-111190000I140000J0D01*
G01*
X116600000Y-111190000D01*
G75*
G02*
X116740000Y-111330000I0J-140000D01*
G01*
X116740000Y-111670000D01*
G75*
G02*
X116600000Y-111810000I-140000J0D01*
G01*
X116320000Y-111810000D01*
G75*
G02*
X116180000Y-111670000I0J140000D01*
G01*
G37*
G36*
G01*
X152935000Y-112502500D02*
X152565000Y-112502500D01*
G75*
G02*
X152430000Y-112367500I0J135000D01*
G01*
X152430000Y-112097500D01*
G75*
G02*
X152565000Y-111962500I135000J0D01*
G01*
X152935000Y-111962500D01*
G75*
G02*
X153070000Y-112097500I0J-135000D01*
G01*
X153070000Y-112367500D01*
G75*
G02*
X152935000Y-112502500I-135000J0D01*
G01*
G37*
G36*
G01*
X152935000Y-111482500D02*
X152565000Y-111482500D01*
G75*
G02*
X152430000Y-111347500I0J135000D01*
G01*
X152430000Y-111077500D01*
G75*
G02*
X152565000Y-110942500I135000J0D01*
G01*
X152935000Y-110942500D01*
G75*
G02*
X153070000Y-111077500I0J-135000D01*
G01*
X153070000Y-111347500D01*
G75*
G02*
X152935000Y-111482500I-135000J0D01*
G01*
G37*
G36*
G01*
X166025000Y-124375000D02*
X166975000Y-124375000D01*
G75*
G02*
X167225000Y-124625000I0J-250000D01*
G01*
X167225000Y-125300000D01*
G75*
G02*
X166975000Y-125550000I-250000J0D01*
G01*
X166025000Y-125550000D01*
G75*
G02*
X165775000Y-125300000I0J250000D01*
G01*
X165775000Y-124625000D01*
G75*
G02*
X166025000Y-124375000I250000J0D01*
G01*
G37*
G36*
G01*
X166025000Y-126450000D02*
X166975000Y-126450000D01*
G75*
G02*
X167225000Y-126700000I0J-250000D01*
G01*
X167225000Y-127375000D01*
G75*
G02*
X166975000Y-127625000I-250000J0D01*
G01*
X166025000Y-127625000D01*
G75*
G02*
X165775000Y-127375000I0J250000D01*
G01*
X165775000Y-126700000D01*
G75*
G02*
X166025000Y-126450000I250000J0D01*
G01*
G37*
G36*
G01*
X148600000Y-129550000D02*
X148600000Y-130450000D01*
G75*
G02*
X148350000Y-130700000I-250000J0D01*
G01*
X147650000Y-130700000D01*
G75*
G02*
X147400000Y-130450000I0J250000D01*
G01*
X147400000Y-129550000D01*
G75*
G02*
X147650000Y-129300000I250000J0D01*
G01*
X148350000Y-129300000D01*
G75*
G02*
X148600000Y-129550000I0J-250000D01*
G01*
G37*
G36*
G01*
X146600000Y-129550000D02*
X146600000Y-130450000D01*
G75*
G02*
X146350000Y-130700000I-250000J0D01*
G01*
X145650000Y-130700000D01*
G75*
G02*
X145400000Y-130450000I0J250000D01*
G01*
X145400000Y-129550000D01*
G75*
G02*
X145650000Y-129300000I250000J0D01*
G01*
X146350000Y-129300000D01*
G75*
G02*
X146600000Y-129550000I0J-250000D01*
G01*
G37*
G36*
G01*
X150450000Y-85850000D02*
X149550000Y-85850000D01*
G75*
G02*
X149300000Y-85600000I0J250000D01*
G01*
X149300000Y-84900000D01*
G75*
G02*
X149550000Y-84650000I250000J0D01*
G01*
X150450000Y-84650000D01*
G75*
G02*
X150700000Y-84900000I0J-250000D01*
G01*
X150700000Y-85600000D01*
G75*
G02*
X150450000Y-85850000I-250000J0D01*
G01*
G37*
G36*
G01*
X150450000Y-83850000D02*
X149550000Y-83850000D01*
G75*
G02*
X149300000Y-83600000I0J250000D01*
G01*
X149300000Y-82900000D01*
G75*
G02*
X149550000Y-82650000I250000J0D01*
G01*
X150450000Y-82650000D01*
G75*
G02*
X150700000Y-82900000I0J-250000D01*
G01*
X150700000Y-83600000D01*
G75*
G02*
X150450000Y-83850000I-250000J0D01*
G01*
G37*
G36*
G01*
X196330000Y-123240000D02*
X196670000Y-123240000D01*
G75*
G02*
X196810000Y-123380000I0J-140000D01*
G01*
X196810000Y-123660000D01*
G75*
G02*
X196670000Y-123800000I-140000J0D01*
G01*
X196330000Y-123800000D01*
G75*
G02*
X196190000Y-123660000I0J140000D01*
G01*
X196190000Y-123380000D01*
G75*
G02*
X196330000Y-123240000I140000J0D01*
G01*
G37*
G36*
G01*
X196330000Y-124200000D02*
X196670000Y-124200000D01*
G75*
G02*
X196810000Y-124340000I0J-140000D01*
G01*
X196810000Y-124620000D01*
G75*
G02*
X196670000Y-124760000I-140000J0D01*
G01*
X196330000Y-124760000D01*
G75*
G02*
X196190000Y-124620000I0J140000D01*
G01*
X196190000Y-124340000D01*
G75*
G02*
X196330000Y-124200000I140000J0D01*
G01*
G37*
G36*
G01*
X186000000Y-126500000D02*
X185500000Y-126500000D01*
G75*
G02*
X185275000Y-126275000I0J225000D01*
G01*
X185275000Y-125825000D01*
G75*
G02*
X185500000Y-125600000I225000J0D01*
G01*
X186000000Y-125600000D01*
G75*
G02*
X186225000Y-125825000I0J-225000D01*
G01*
X186225000Y-126275000D01*
G75*
G02*
X186000000Y-126500000I-225000J0D01*
G01*
G37*
G36*
G01*
X186000000Y-124950000D02*
X185500000Y-124950000D01*
G75*
G02*
X185275000Y-124725000I0J225000D01*
G01*
X185275000Y-124275000D01*
G75*
G02*
X185500000Y-124050000I225000J0D01*
G01*
X186000000Y-124050000D01*
G75*
G02*
X186225000Y-124275000I0J-225000D01*
G01*
X186225000Y-124725000D01*
G75*
G02*
X186000000Y-124950000I-225000J0D01*
G01*
G37*
G36*
G01*
X156080000Y-100720000D02*
X156420000Y-100720000D01*
G75*
G02*
X156560000Y-100860000I0J-140000D01*
G01*
X156560000Y-101140000D01*
G75*
G02*
X156420000Y-101280000I-140000J0D01*
G01*
X156080000Y-101280000D01*
G75*
G02*
X155940000Y-101140000I0J140000D01*
G01*
X155940000Y-100860000D01*
G75*
G02*
X156080000Y-100720000I140000J0D01*
G01*
G37*
G36*
G01*
X156080000Y-101680000D02*
X156420000Y-101680000D01*
G75*
G02*
X156560000Y-101820000I0J-140000D01*
G01*
X156560000Y-102100000D01*
G75*
G02*
X156420000Y-102240000I-140000J0D01*
G01*
X156080000Y-102240000D01*
G75*
G02*
X155940000Y-102100000I0J140000D01*
G01*
X155940000Y-101820000D01*
G75*
G02*
X156080000Y-101680000I140000J0D01*
G01*
G37*
G36*
G01*
X186780000Y-120815000D02*
X186780000Y-121185000D01*
G75*
G02*
X186645000Y-121320000I-135000J0D01*
G01*
X186375000Y-121320000D01*
G75*
G02*
X186240000Y-121185000I0J135000D01*
G01*
X186240000Y-120815000D01*
G75*
G02*
X186375000Y-120680000I135000J0D01*
G01*
X186645000Y-120680000D01*
G75*
G02*
X186780000Y-120815000I0J-135000D01*
G01*
G37*
G36*
G01*
X185760000Y-120815000D02*
X185760000Y-121185000D01*
G75*
G02*
X185625000Y-121320000I-135000J0D01*
G01*
X185355000Y-121320000D01*
G75*
G02*
X185220000Y-121185000I0J135000D01*
G01*
X185220000Y-120815000D01*
G75*
G02*
X185355000Y-120680000I135000J0D01*
G01*
X185625000Y-120680000D01*
G75*
G02*
X185760000Y-120815000I0J-135000D01*
G01*
G37*
G36*
G01*
X141450000Y-85850000D02*
X140550000Y-85850000D01*
G75*
G02*
X140300000Y-85600000I0J250000D01*
G01*
X140300000Y-84900000D01*
G75*
G02*
X140550000Y-84650000I250000J0D01*
G01*
X141450000Y-84650000D01*
G75*
G02*
X141700000Y-84900000I0J-250000D01*
G01*
X141700000Y-85600000D01*
G75*
G02*
X141450000Y-85850000I-250000J0D01*
G01*
G37*
G36*
G01*
X141450000Y-83850000D02*
X140550000Y-83850000D01*
G75*
G02*
X140300000Y-83600000I0J250000D01*
G01*
X140300000Y-82900000D01*
G75*
G02*
X140550000Y-82650000I250000J0D01*
G01*
X141450000Y-82650000D01*
G75*
G02*
X141700000Y-82900000I0J-250000D01*
G01*
X141700000Y-83600000D01*
G75*
G02*
X141450000Y-83850000I-250000J0D01*
G01*
G37*
D13*
X114000000Y-85820000D03*
X114000000Y-86770000D03*
X114000000Y-87720000D03*
X116300000Y-87720000D03*
X116300000Y-86770000D03*
X116300000Y-85820000D03*
D11*
X114500000Y-119850000D03*
X108500000Y-119850000D03*
X114500000Y-116100000D03*
X108500000Y-116100000D03*
G36*
G01*
X113220000Y-91685000D02*
X113220000Y-91315000D01*
G75*
G02*
X113355000Y-91180000I135000J0D01*
G01*
X113625000Y-91180000D01*
G75*
G02*
X113760000Y-91315000I0J-135000D01*
G01*
X113760000Y-91685000D01*
G75*
G02*
X113625000Y-91820000I-135000J0D01*
G01*
X113355000Y-91820000D01*
G75*
G02*
X113220000Y-91685000I0J135000D01*
G01*
G37*
G36*
G01*
X114240000Y-91685000D02*
X114240000Y-91315000D01*
G75*
G02*
X114375000Y-91180000I135000J0D01*
G01*
X114645000Y-91180000D01*
G75*
G02*
X114780000Y-91315000I0J-135000D01*
G01*
X114780000Y-91685000D01*
G75*
G02*
X114645000Y-91820000I-135000J0D01*
G01*
X114375000Y-91820000D01*
G75*
G02*
X114240000Y-91685000I0J135000D01*
G01*
G37*
G36*
G01*
X174510000Y-113685000D02*
X174510000Y-113315000D01*
G75*
G02*
X174645000Y-113180000I135000J0D01*
G01*
X174915000Y-113180000D01*
G75*
G02*
X175050000Y-113315000I0J-135000D01*
G01*
X175050000Y-113685000D01*
G75*
G02*
X174915000Y-113820000I-135000J0D01*
G01*
X174645000Y-113820000D01*
G75*
G02*
X174510000Y-113685000I0J135000D01*
G01*
G37*
G36*
G01*
X175530000Y-113685000D02*
X175530000Y-113315000D01*
G75*
G02*
X175665000Y-113180000I135000J0D01*
G01*
X175935000Y-113180000D01*
G75*
G02*
X176070000Y-113315000I0J-135000D01*
G01*
X176070000Y-113685000D01*
G75*
G02*
X175935000Y-113820000I-135000J0D01*
G01*
X175665000Y-113820000D01*
G75*
G02*
X175530000Y-113685000I0J135000D01*
G01*
G37*
G36*
G01*
X190756250Y-132725000D02*
X190243750Y-132725000D01*
G75*
G02*
X190025000Y-132506250I0J218750D01*
G01*
X190025000Y-132068750D01*
G75*
G02*
X190243750Y-131850000I218750J0D01*
G01*
X190756250Y-131850000D01*
G75*
G02*
X190975000Y-132068750I0J-218750D01*
G01*
X190975000Y-132506250D01*
G75*
G02*
X190756250Y-132725000I-218750J0D01*
G01*
G37*
G36*
G01*
X190756250Y-131150000D02*
X190243750Y-131150000D01*
G75*
G02*
X190025000Y-130931250I0J218750D01*
G01*
X190025000Y-130493750D01*
G75*
G02*
X190243750Y-130275000I218750J0D01*
G01*
X190756250Y-130275000D01*
G75*
G02*
X190975000Y-130493750I0J-218750D01*
G01*
X190975000Y-130931250D01*
G75*
G02*
X190756250Y-131150000I-218750J0D01*
G01*
G37*
G36*
G01*
X153200000Y-100600000D02*
X152300000Y-100600000D01*
G75*
G02*
X152050000Y-100350000I0J250000D01*
G01*
X152050000Y-99650000D01*
G75*
G02*
X152300000Y-99400000I250000J0D01*
G01*
X153200000Y-99400000D01*
G75*
G02*
X153450000Y-99650000I0J-250000D01*
G01*
X153450000Y-100350000D01*
G75*
G02*
X153200000Y-100600000I-250000J0D01*
G01*
G37*
G36*
G01*
X153200000Y-98600000D02*
X152300000Y-98600000D01*
G75*
G02*
X152050000Y-98350000I0J250000D01*
G01*
X152050000Y-97650000D01*
G75*
G02*
X152300000Y-97400000I250000J0D01*
G01*
X153200000Y-97400000D01*
G75*
G02*
X153450000Y-97650000I0J-250000D01*
G01*
X153450000Y-98350000D01*
G75*
G02*
X153200000Y-98600000I-250000J0D01*
G01*
G37*
G36*
G01*
X116100000Y-129550000D02*
X116100000Y-130450000D01*
G75*
G02*
X115850000Y-130700000I-250000J0D01*
G01*
X115150000Y-130700000D01*
G75*
G02*
X114900000Y-130450000I0J250000D01*
G01*
X114900000Y-129550000D01*
G75*
G02*
X115150000Y-129300000I250000J0D01*
G01*
X115850000Y-129300000D01*
G75*
G02*
X116100000Y-129550000I0J-250000D01*
G01*
G37*
G36*
G01*
X114100000Y-129550000D02*
X114100000Y-130450000D01*
G75*
G02*
X113850000Y-130700000I-250000J0D01*
G01*
X113150000Y-130700000D01*
G75*
G02*
X112900000Y-130450000I0J250000D01*
G01*
X112900000Y-129550000D01*
G75*
G02*
X113150000Y-129300000I250000J0D01*
G01*
X113850000Y-129300000D01*
G75*
G02*
X114100000Y-129550000I0J-250000D01*
G01*
G37*
G36*
G01*
X155185000Y-101280000D02*
X154815000Y-101280000D01*
G75*
G02*
X154680000Y-101145000I0J135000D01*
G01*
X154680000Y-100875000D01*
G75*
G02*
X154815000Y-100740000I135000J0D01*
G01*
X155185000Y-100740000D01*
G75*
G02*
X155320000Y-100875000I0J-135000D01*
G01*
X155320000Y-101145000D01*
G75*
G02*
X155185000Y-101280000I-135000J0D01*
G01*
G37*
G36*
G01*
X155185000Y-100260000D02*
X154815000Y-100260000D01*
G75*
G02*
X154680000Y-100125000I0J135000D01*
G01*
X154680000Y-99855000D01*
G75*
G02*
X154815000Y-99720000I135000J0D01*
G01*
X155185000Y-99720000D01*
G75*
G02*
X155320000Y-99855000I0J-135000D01*
G01*
X155320000Y-100125000D01*
G75*
G02*
X155185000Y-100260000I-135000J0D01*
G01*
G37*
G36*
G01*
X116740000Y-104330000D02*
X116740000Y-104670000D01*
G75*
G02*
X116600000Y-104810000I-140000J0D01*
G01*
X116320000Y-104810000D01*
G75*
G02*
X116180000Y-104670000I0J140000D01*
G01*
X116180000Y-104330000D01*
G75*
G02*
X116320000Y-104190000I140000J0D01*
G01*
X116600000Y-104190000D01*
G75*
G02*
X116740000Y-104330000I0J-140000D01*
G01*
G37*
G36*
G01*
X115780000Y-104330000D02*
X115780000Y-104670000D01*
G75*
G02*
X115640000Y-104810000I-140000J0D01*
G01*
X115360000Y-104810000D01*
G75*
G02*
X115220000Y-104670000I0J140000D01*
G01*
X115220000Y-104330000D01*
G75*
G02*
X115360000Y-104190000I140000J0D01*
G01*
X115640000Y-104190000D01*
G75*
G02*
X115780000Y-104330000I0J-140000D01*
G01*
G37*
G36*
G01*
X168160000Y-84420000D02*
X168160000Y-84080000D01*
G75*
G02*
X168300000Y-83940000I140000J0D01*
G01*
X168580000Y-83940000D01*
G75*
G02*
X168720000Y-84080000I0J-140000D01*
G01*
X168720000Y-84420000D01*
G75*
G02*
X168580000Y-84560000I-140000J0D01*
G01*
X168300000Y-84560000D01*
G75*
G02*
X168160000Y-84420000I0J140000D01*
G01*
G37*
G36*
G01*
X169120000Y-84420000D02*
X169120000Y-84080000D01*
G75*
G02*
X169260000Y-83940000I140000J0D01*
G01*
X169540000Y-83940000D01*
G75*
G02*
X169680000Y-84080000I0J-140000D01*
G01*
X169680000Y-84420000D01*
G75*
G02*
X169540000Y-84560000I-140000J0D01*
G01*
X169260000Y-84560000D01*
G75*
G02*
X169120000Y-84420000I0J140000D01*
G01*
G37*
G36*
G01*
X150750000Y-96725000D02*
X150250000Y-96725000D01*
G75*
G02*
X150025000Y-96500000I0J225000D01*
G01*
X150025000Y-96050000D01*
G75*
G02*
X150250000Y-95825000I225000J0D01*
G01*
X150750000Y-95825000D01*
G75*
G02*
X150975000Y-96050000I0J-225000D01*
G01*
X150975000Y-96500000D01*
G75*
G02*
X150750000Y-96725000I-225000J0D01*
G01*
G37*
G36*
G01*
X150750000Y-95175000D02*
X150250000Y-95175000D01*
G75*
G02*
X150025000Y-94950000I0J225000D01*
G01*
X150025000Y-94500000D01*
G75*
G02*
X150250000Y-94275000I225000J0D01*
G01*
X150750000Y-94275000D01*
G75*
G02*
X150975000Y-94500000I0J-225000D01*
G01*
X150975000Y-94950000D01*
G75*
G02*
X150750000Y-95175000I-225000J0D01*
G01*
G37*
G36*
G01*
X110587500Y-79275000D02*
X110587500Y-80225000D01*
G75*
G02*
X110337500Y-80475000I-250000J0D01*
G01*
X109662500Y-80475000D01*
G75*
G02*
X109412500Y-80225000I0J250000D01*
G01*
X109412500Y-79275000D01*
G75*
G02*
X109662500Y-79025000I250000J0D01*
G01*
X110337500Y-79025000D01*
G75*
G02*
X110587500Y-79275000I0J-250000D01*
G01*
G37*
G36*
G01*
X108512500Y-79275000D02*
X108512500Y-80225000D01*
G75*
G02*
X108262500Y-80475000I-250000J0D01*
G01*
X107587500Y-80475000D01*
G75*
G02*
X107337500Y-80225000I0J250000D01*
G01*
X107337500Y-79275000D01*
G75*
G02*
X107587500Y-79025000I250000J0D01*
G01*
X108262500Y-79025000D01*
G75*
G02*
X108512500Y-79275000I0J-250000D01*
G01*
G37*
G36*
G01*
X156435000Y-83020000D02*
X156065000Y-83020000D01*
G75*
G02*
X155930000Y-82885000I0J135000D01*
G01*
X155930000Y-82615000D01*
G75*
G02*
X156065000Y-82480000I135000J0D01*
G01*
X156435000Y-82480000D01*
G75*
G02*
X156570000Y-82615000I0J-135000D01*
G01*
X156570000Y-82885000D01*
G75*
G02*
X156435000Y-83020000I-135000J0D01*
G01*
G37*
G36*
G01*
X156435000Y-82000000D02*
X156065000Y-82000000D01*
G75*
G02*
X155930000Y-81865000I0J135000D01*
G01*
X155930000Y-81595000D01*
G75*
G02*
X156065000Y-81460000I135000J0D01*
G01*
X156435000Y-81460000D01*
G75*
G02*
X156570000Y-81595000I0J-135000D01*
G01*
X156570000Y-81865000D01*
G75*
G02*
X156435000Y-82000000I-135000J0D01*
G01*
G37*
G36*
G01*
X132450000Y-85850000D02*
X131550000Y-85850000D01*
G75*
G02*
X131300000Y-85600000I0J250000D01*
G01*
X131300000Y-84900000D01*
G75*
G02*
X131550000Y-84650000I250000J0D01*
G01*
X132450000Y-84650000D01*
G75*
G02*
X132700000Y-84900000I0J-250000D01*
G01*
X132700000Y-85600000D01*
G75*
G02*
X132450000Y-85850000I-250000J0D01*
G01*
G37*
G36*
G01*
X132450000Y-83850000D02*
X131550000Y-83850000D01*
G75*
G02*
X131300000Y-83600000I0J250000D01*
G01*
X131300000Y-82900000D01*
G75*
G02*
X131550000Y-82650000I250000J0D01*
G01*
X132450000Y-82650000D01*
G75*
G02*
X132700000Y-82900000I0J-250000D01*
G01*
X132700000Y-83600000D01*
G75*
G02*
X132450000Y-83850000I-250000J0D01*
G01*
G37*
G36*
G01*
X141450000Y-132600000D02*
X140550000Y-132600000D01*
G75*
G02*
X140300000Y-132350000I0J250000D01*
G01*
X140300000Y-131650000D01*
G75*
G02*
X140550000Y-131400000I250000J0D01*
G01*
X141450000Y-131400000D01*
G75*
G02*
X141700000Y-131650000I0J-250000D01*
G01*
X141700000Y-132350000D01*
G75*
G02*
X141450000Y-132600000I-250000J0D01*
G01*
G37*
G36*
G01*
X141450000Y-130600000D02*
X140550000Y-130600000D01*
G75*
G02*
X140300000Y-130350000I0J250000D01*
G01*
X140300000Y-129650000D01*
G75*
G02*
X140550000Y-129400000I250000J0D01*
G01*
X141450000Y-129400000D01*
G75*
G02*
X141700000Y-129650000I0J-250000D01*
G01*
X141700000Y-130350000D01*
G75*
G02*
X141450000Y-130600000I-250000J0D01*
G01*
G37*
D13*
X181600000Y-122550000D03*
X181600000Y-123500000D03*
X181600000Y-124450000D03*
X183900000Y-124450000D03*
X183900000Y-122550000D03*
G36*
G01*
X197400000Y-136700000D02*
X197400000Y-135800000D01*
G75*
G02*
X197650000Y-135550000I250000J0D01*
G01*
X198350000Y-135550000D01*
G75*
G02*
X198600000Y-135800000I0J-250000D01*
G01*
X198600000Y-136700000D01*
G75*
G02*
X198350000Y-136950000I-250000J0D01*
G01*
X197650000Y-136950000D01*
G75*
G02*
X197400000Y-136700000I0J250000D01*
G01*
G37*
G36*
G01*
X199400000Y-136700000D02*
X199400000Y-135800000D01*
G75*
G02*
X199650000Y-135550000I250000J0D01*
G01*
X200350000Y-135550000D01*
G75*
G02*
X200600000Y-135800000I0J-250000D01*
G01*
X200600000Y-136700000D01*
G75*
G02*
X200350000Y-136950000I-250000J0D01*
G01*
X199650000Y-136950000D01*
G75*
G02*
X199400000Y-136700000I0J250000D01*
G01*
G37*
G36*
G01*
X183625000Y-130775000D02*
X183625000Y-131725000D01*
G75*
G02*
X183375000Y-131975000I-250000J0D01*
G01*
X182700000Y-131975000D01*
G75*
G02*
X182450000Y-131725000I0J250000D01*
G01*
X182450000Y-130775000D01*
G75*
G02*
X182700000Y-130525000I250000J0D01*
G01*
X183375000Y-130525000D01*
G75*
G02*
X183625000Y-130775000I0J-250000D01*
G01*
G37*
G36*
G01*
X181550000Y-130775000D02*
X181550000Y-131725000D01*
G75*
G02*
X181300000Y-131975000I-250000J0D01*
G01*
X180625000Y-131975000D01*
G75*
G02*
X180375000Y-131725000I0J250000D01*
G01*
X180375000Y-130775000D01*
G75*
G02*
X180625000Y-130525000I250000J0D01*
G01*
X181300000Y-130525000D01*
G75*
G02*
X181550000Y-130775000I0J-250000D01*
G01*
G37*
D14*
X177500000Y-124900000D03*
X177500000Y-128600000D03*
G36*
G01*
X110600000Y-135800000D02*
X110600000Y-136700000D01*
G75*
G02*
X110350000Y-136950000I-250000J0D01*
G01*
X109650000Y-136950000D01*
G75*
G02*
X109400000Y-136700000I0J250000D01*
G01*
X109400000Y-135800000D01*
G75*
G02*
X109650000Y-135550000I250000J0D01*
G01*
X110350000Y-135550000D01*
G75*
G02*
X110600000Y-135800000I0J-250000D01*
G01*
G37*
G36*
G01*
X108600000Y-135800000D02*
X108600000Y-136700000D01*
G75*
G02*
X108350000Y-136950000I-250000J0D01*
G01*
X107650000Y-136950000D01*
G75*
G02*
X107400000Y-136700000I0J250000D01*
G01*
X107400000Y-135800000D01*
G75*
G02*
X107650000Y-135550000I250000J0D01*
G01*
X108350000Y-135550000D01*
G75*
G02*
X108600000Y-135800000I0J-250000D01*
G01*
G37*
G36*
G01*
X152300000Y-103150000D02*
X153200000Y-103150000D01*
G75*
G02*
X153450000Y-103400000I0J-250000D01*
G01*
X153450000Y-104100000D01*
G75*
G02*
X153200000Y-104350000I-250000J0D01*
G01*
X152300000Y-104350000D01*
G75*
G02*
X152050000Y-104100000I0J250000D01*
G01*
X152050000Y-103400000D01*
G75*
G02*
X152300000Y-103150000I250000J0D01*
G01*
G37*
G36*
G01*
X152300000Y-105150000D02*
X153200000Y-105150000D01*
G75*
G02*
X153450000Y-105400000I0J-250000D01*
G01*
X153450000Y-106100000D01*
G75*
G02*
X153200000Y-106350000I-250000J0D01*
G01*
X152300000Y-106350000D01*
G75*
G02*
X152050000Y-106100000I0J250000D01*
G01*
X152050000Y-105400000D01*
G75*
G02*
X152300000Y-105150000I250000J0D01*
G01*
G37*
D15*
X177450000Y-79750000D03*
X176600000Y-79750000D03*
X174550000Y-79750000D03*
X175400000Y-79750000D03*
G36*
G01*
X156020000Y-131815000D02*
X156020000Y-132185000D01*
G75*
G02*
X155885000Y-132320000I-135000J0D01*
G01*
X155615000Y-132320000D01*
G75*
G02*
X155480000Y-132185000I0J135000D01*
G01*
X155480000Y-131815000D01*
G75*
G02*
X155615000Y-131680000I135000J0D01*
G01*
X155885000Y-131680000D01*
G75*
G02*
X156020000Y-131815000I0J-135000D01*
G01*
G37*
G36*
G01*
X155000000Y-131815000D02*
X155000000Y-132185000D01*
G75*
G02*
X154865000Y-132320000I-135000J0D01*
G01*
X154595000Y-132320000D01*
G75*
G02*
X154460000Y-132185000I0J135000D01*
G01*
X154460000Y-131815000D01*
G75*
G02*
X154595000Y-131680000I135000J0D01*
G01*
X154865000Y-131680000D01*
G75*
G02*
X155000000Y-131815000I0J-135000D01*
G01*
G37*
G36*
G01*
X124900000Y-98450000D02*
X124900000Y-97550000D01*
G75*
G02*
X125150000Y-97300000I250000J0D01*
G01*
X125850000Y-97300000D01*
G75*
G02*
X126100000Y-97550000I0J-250000D01*
G01*
X126100000Y-98450000D01*
G75*
G02*
X125850000Y-98700000I-250000J0D01*
G01*
X125150000Y-98700000D01*
G75*
G02*
X124900000Y-98450000I0J250000D01*
G01*
G37*
G36*
G01*
X126900000Y-98450000D02*
X126900000Y-97550000D01*
G75*
G02*
X127150000Y-97300000I250000J0D01*
G01*
X127850000Y-97300000D01*
G75*
G02*
X128100000Y-97550000I0J-250000D01*
G01*
X128100000Y-98450000D01*
G75*
G02*
X127850000Y-98700000I-250000J0D01*
G01*
X127150000Y-98700000D01*
G75*
G02*
X126900000Y-98450000I0J250000D01*
G01*
G37*
G36*
G01*
X172530000Y-88315000D02*
X172530000Y-88685000D01*
G75*
G02*
X172395000Y-88820000I-135000J0D01*
G01*
X172125000Y-88820000D01*
G75*
G02*
X171990000Y-88685000I0J135000D01*
G01*
X171990000Y-88315000D01*
G75*
G02*
X172125000Y-88180000I135000J0D01*
G01*
X172395000Y-88180000D01*
G75*
G02*
X172530000Y-88315000I0J-135000D01*
G01*
G37*
G36*
G01*
X171510000Y-88315000D02*
X171510000Y-88685000D01*
G75*
G02*
X171375000Y-88820000I-135000J0D01*
G01*
X171105000Y-88820000D01*
G75*
G02*
X170970000Y-88685000I0J135000D01*
G01*
X170970000Y-88315000D01*
G75*
G02*
X171105000Y-88180000I135000J0D01*
G01*
X171375000Y-88180000D01*
G75*
G02*
X171510000Y-88315000I0J-135000D01*
G01*
G37*
G36*
G01*
X143975000Y-132662500D02*
X143025000Y-132662500D01*
G75*
G02*
X142775000Y-132412500I0J250000D01*
G01*
X142775000Y-131737500D01*
G75*
G02*
X143025000Y-131487500I250000J0D01*
G01*
X143975000Y-131487500D01*
G75*
G02*
X144225000Y-131737500I0J-250000D01*
G01*
X144225000Y-132412500D01*
G75*
G02*
X143975000Y-132662500I-250000J0D01*
G01*
G37*
G36*
G01*
X143975000Y-130587500D02*
X143025000Y-130587500D01*
G75*
G02*
X142775000Y-130337500I0J250000D01*
G01*
X142775000Y-129662500D01*
G75*
G02*
X143025000Y-129412500I250000J0D01*
G01*
X143975000Y-129412500D01*
G75*
G02*
X144225000Y-129662500I0J-250000D01*
G01*
X144225000Y-130337500D01*
G75*
G02*
X143975000Y-130587500I-250000J0D01*
G01*
G37*
G36*
G01*
X156350000Y-129550000D02*
X156350000Y-130450000D01*
G75*
G02*
X156100000Y-130700000I-250000J0D01*
G01*
X155400000Y-130700000D01*
G75*
G02*
X155150000Y-130450000I0J250000D01*
G01*
X155150000Y-129550000D01*
G75*
G02*
X155400000Y-129300000I250000J0D01*
G01*
X156100000Y-129300000D01*
G75*
G02*
X156350000Y-129550000I0J-250000D01*
G01*
G37*
G36*
G01*
X154350000Y-129550000D02*
X154350000Y-130450000D01*
G75*
G02*
X154100000Y-130700000I-250000J0D01*
G01*
X153400000Y-130700000D01*
G75*
G02*
X153150000Y-130450000I0J250000D01*
G01*
X153150000Y-129550000D01*
G75*
G02*
X153400000Y-129300000I250000J0D01*
G01*
X154100000Y-129300000D01*
G75*
G02*
X154350000Y-129550000I0J-250000D01*
G01*
G37*
G36*
G01*
X145950000Y-85850000D02*
X145050000Y-85850000D01*
G75*
G02*
X144800000Y-85600000I0J250000D01*
G01*
X144800000Y-84900000D01*
G75*
G02*
X145050000Y-84650000I250000J0D01*
G01*
X145950000Y-84650000D01*
G75*
G02*
X146200000Y-84900000I0J-250000D01*
G01*
X146200000Y-85600000D01*
G75*
G02*
X145950000Y-85850000I-250000J0D01*
G01*
G37*
G36*
G01*
X145950000Y-83850000D02*
X145050000Y-83850000D01*
G75*
G02*
X144800000Y-83600000I0J250000D01*
G01*
X144800000Y-82900000D01*
G75*
G02*
X145050000Y-82650000I250000J0D01*
G01*
X145950000Y-82650000D01*
G75*
G02*
X146200000Y-82900000I0J-250000D01*
G01*
X146200000Y-83600000D01*
G75*
G02*
X145950000Y-83850000I-250000J0D01*
G01*
G37*
G36*
G01*
X126830000Y-130260000D02*
X127170000Y-130260000D01*
G75*
G02*
X127310000Y-130400000I0J-140000D01*
G01*
X127310000Y-130680000D01*
G75*
G02*
X127170000Y-130820000I-140000J0D01*
G01*
X126830000Y-130820000D01*
G75*
G02*
X126690000Y-130680000I0J140000D01*
G01*
X126690000Y-130400000D01*
G75*
G02*
X126830000Y-130260000I140000J0D01*
G01*
G37*
G36*
G01*
X126830000Y-131220000D02*
X127170000Y-131220000D01*
G75*
G02*
X127310000Y-131360000I0J-140000D01*
G01*
X127310000Y-131640000D01*
G75*
G02*
X127170000Y-131780000I-140000J0D01*
G01*
X126830000Y-131780000D01*
G75*
G02*
X126690000Y-131640000I0J140000D01*
G01*
X126690000Y-131360000D01*
G75*
G02*
X126830000Y-131220000I140000J0D01*
G01*
G37*
G36*
G01*
X113220000Y-82185000D02*
X113220000Y-81815000D01*
G75*
G02*
X113355000Y-81680000I135000J0D01*
G01*
X113625000Y-81680000D01*
G75*
G02*
X113760000Y-81815000I0J-135000D01*
G01*
X113760000Y-82185000D01*
G75*
G02*
X113625000Y-82320000I-135000J0D01*
G01*
X113355000Y-82320000D01*
G75*
G02*
X113220000Y-82185000I0J135000D01*
G01*
G37*
G36*
G01*
X114240000Y-82185000D02*
X114240000Y-81815000D01*
G75*
G02*
X114375000Y-81680000I135000J0D01*
G01*
X114645000Y-81680000D01*
G75*
G02*
X114780000Y-81815000I0J-135000D01*
G01*
X114780000Y-82185000D01*
G75*
G02*
X114645000Y-82320000I-135000J0D01*
G01*
X114375000Y-82320000D01*
G75*
G02*
X114240000Y-82185000I0J135000D01*
G01*
G37*
G36*
G01*
X125780000Y-129815000D02*
X125780000Y-130185000D01*
G75*
G02*
X125645000Y-130320000I-135000J0D01*
G01*
X125375000Y-130320000D01*
G75*
G02*
X125240000Y-130185000I0J135000D01*
G01*
X125240000Y-129815000D01*
G75*
G02*
X125375000Y-129680000I135000J0D01*
G01*
X125645000Y-129680000D01*
G75*
G02*
X125780000Y-129815000I0J-135000D01*
G01*
G37*
G36*
G01*
X124760000Y-129815000D02*
X124760000Y-130185000D01*
G75*
G02*
X124625000Y-130320000I-135000J0D01*
G01*
X124355000Y-130320000D01*
G75*
G02*
X124220000Y-130185000I0J135000D01*
G01*
X124220000Y-129815000D01*
G75*
G02*
X124355000Y-129680000I135000J0D01*
G01*
X124625000Y-129680000D01*
G75*
G02*
X124760000Y-129815000I0J-135000D01*
G01*
G37*
G36*
G01*
X108980000Y-131935000D02*
X108980000Y-131565000D01*
G75*
G02*
X109115000Y-131430000I135000J0D01*
G01*
X109385000Y-131430000D01*
G75*
G02*
X109520000Y-131565000I0J-135000D01*
G01*
X109520000Y-131935000D01*
G75*
G02*
X109385000Y-132070000I-135000J0D01*
G01*
X109115000Y-132070000D01*
G75*
G02*
X108980000Y-131935000I0J135000D01*
G01*
G37*
G36*
G01*
X110000000Y-131935000D02*
X110000000Y-131565000D01*
G75*
G02*
X110135000Y-131430000I135000J0D01*
G01*
X110405000Y-131430000D01*
G75*
G02*
X110540000Y-131565000I0J-135000D01*
G01*
X110540000Y-131935000D01*
G75*
G02*
X110405000Y-132070000I-135000J0D01*
G01*
X110135000Y-132070000D01*
G75*
G02*
X110000000Y-131935000I0J135000D01*
G01*
G37*
G36*
G01*
X189210000Y-134101339D02*
X189210000Y-133731339D01*
G75*
G02*
X189345000Y-133596339I135000J0D01*
G01*
X189615000Y-133596339D01*
G75*
G02*
X189750000Y-133731339I0J-135000D01*
G01*
X189750000Y-134101339D01*
G75*
G02*
X189615000Y-134236339I-135000J0D01*
G01*
X189345000Y-134236339D01*
G75*
G02*
X189210000Y-134101339I0J135000D01*
G01*
G37*
G36*
G01*
X190230000Y-134101339D02*
X190230000Y-133731339D01*
G75*
G02*
X190365000Y-133596339I135000J0D01*
G01*
X190635000Y-133596339D01*
G75*
G02*
X190770000Y-133731339I0J-135000D01*
G01*
X190770000Y-134101339D01*
G75*
G02*
X190635000Y-134236339I-135000J0D01*
G01*
X190365000Y-134236339D01*
G75*
G02*
X190230000Y-134101339I0J135000D01*
G01*
G37*
G36*
G01*
X184770000Y-120815000D02*
X184770000Y-121185000D01*
G75*
G02*
X184635000Y-121320000I-135000J0D01*
G01*
X184365000Y-121320000D01*
G75*
G02*
X184230000Y-121185000I0J135000D01*
G01*
X184230000Y-120815000D01*
G75*
G02*
X184365000Y-120680000I135000J0D01*
G01*
X184635000Y-120680000D01*
G75*
G02*
X184770000Y-120815000I0J-135000D01*
G01*
G37*
G36*
G01*
X183750000Y-120815000D02*
X183750000Y-121185000D01*
G75*
G02*
X183615000Y-121320000I-135000J0D01*
G01*
X183345000Y-121320000D01*
G75*
G02*
X183210000Y-121185000I0J135000D01*
G01*
X183210000Y-120815000D01*
G75*
G02*
X183345000Y-120680000I135000J0D01*
G01*
X183615000Y-120680000D01*
G75*
G02*
X183750000Y-120815000I0J-135000D01*
G01*
G37*
D16*
X194700000Y-124450000D03*
X194700000Y-123500000D03*
X194700000Y-122550000D03*
X192300000Y-122550000D03*
X192300000Y-124450000D03*
G36*
G01*
X197375000Y-139725000D02*
X197375000Y-138775000D01*
G75*
G02*
X197625000Y-138525000I250000J0D01*
G01*
X198300000Y-138525000D01*
G75*
G02*
X198550000Y-138775000I0J-250000D01*
G01*
X198550000Y-139725000D01*
G75*
G02*
X198300000Y-139975000I-250000J0D01*
G01*
X197625000Y-139975000D01*
G75*
G02*
X197375000Y-139725000I0J250000D01*
G01*
G37*
G36*
G01*
X199450000Y-139725000D02*
X199450000Y-138775000D01*
G75*
G02*
X199700000Y-138525000I250000J0D01*
G01*
X200375000Y-138525000D01*
G75*
G02*
X200625000Y-138775000I0J-250000D01*
G01*
X200625000Y-139725000D01*
G75*
G02*
X200375000Y-139975000I-250000J0D01*
G01*
X199700000Y-139975000D01*
G75*
G02*
X199450000Y-139725000I0J250000D01*
G01*
G37*
G36*
G01*
X160600000Y-82300000D02*
X160600000Y-83200000D01*
G75*
G02*
X160350000Y-83450000I-250000J0D01*
G01*
X159650000Y-83450000D01*
G75*
G02*
X159400000Y-83200000I0J250000D01*
G01*
X159400000Y-82300000D01*
G75*
G02*
X159650000Y-82050000I250000J0D01*
G01*
X160350000Y-82050000D01*
G75*
G02*
X160600000Y-82300000I0J-250000D01*
G01*
G37*
G36*
G01*
X158600000Y-82300000D02*
X158600000Y-83200000D01*
G75*
G02*
X158350000Y-83450000I-250000J0D01*
G01*
X157650000Y-83450000D01*
G75*
G02*
X157400000Y-83200000I0J250000D01*
G01*
X157400000Y-82300000D01*
G75*
G02*
X157650000Y-82050000I250000J0D01*
G01*
X158350000Y-82050000D01*
G75*
G02*
X158600000Y-82300000I0J-250000D01*
G01*
G37*
G36*
G01*
X169450000Y-119100000D02*
X168550000Y-119100000D01*
G75*
G02*
X168300000Y-118850000I0J250000D01*
G01*
X168300000Y-118150000D01*
G75*
G02*
X168550000Y-117900000I250000J0D01*
G01*
X169450000Y-117900000D01*
G75*
G02*
X169700000Y-118150000I0J-250000D01*
G01*
X169700000Y-118850000D01*
G75*
G02*
X169450000Y-119100000I-250000J0D01*
G01*
G37*
G36*
G01*
X169450000Y-117100000D02*
X168550000Y-117100000D01*
G75*
G02*
X168300000Y-116850000I0J250000D01*
G01*
X168300000Y-116150000D01*
G75*
G02*
X168550000Y-115900000I250000J0D01*
G01*
X169450000Y-115900000D01*
G75*
G02*
X169700000Y-116150000I0J-250000D01*
G01*
X169700000Y-116850000D01*
G75*
G02*
X169450000Y-117100000I-250000J0D01*
G01*
G37*
G36*
G01*
X160600000Y-94800000D02*
X160600000Y-95700000D01*
G75*
G02*
X160350000Y-95950000I-250000J0D01*
G01*
X159650000Y-95950000D01*
G75*
G02*
X159400000Y-95700000I0J250000D01*
G01*
X159400000Y-94800000D01*
G75*
G02*
X159650000Y-94550000I250000J0D01*
G01*
X160350000Y-94550000D01*
G75*
G02*
X160600000Y-94800000I0J-250000D01*
G01*
G37*
G36*
G01*
X158600000Y-94800000D02*
X158600000Y-95700000D01*
G75*
G02*
X158350000Y-95950000I-250000J0D01*
G01*
X157650000Y-95950000D01*
G75*
G02*
X157400000Y-95700000I0J250000D01*
G01*
X157400000Y-94800000D01*
G75*
G02*
X157650000Y-94550000I250000J0D01*
G01*
X158350000Y-94550000D01*
G75*
G02*
X158600000Y-94800000I0J-250000D01*
G01*
G37*
G36*
G01*
X160600000Y-129550000D02*
X160600000Y-130450000D01*
G75*
G02*
X160350000Y-130700000I-250000J0D01*
G01*
X159650000Y-130700000D01*
G75*
G02*
X159400000Y-130450000I0J250000D01*
G01*
X159400000Y-129550000D01*
G75*
G02*
X159650000Y-129300000I250000J0D01*
G01*
X160350000Y-129300000D01*
G75*
G02*
X160600000Y-129550000I0J-250000D01*
G01*
G37*
G36*
G01*
X158600000Y-129550000D02*
X158600000Y-130450000D01*
G75*
G02*
X158350000Y-130700000I-250000J0D01*
G01*
X157650000Y-130700000D01*
G75*
G02*
X157400000Y-130450000I0J250000D01*
G01*
X157400000Y-129550000D01*
G75*
G02*
X157650000Y-129300000I250000J0D01*
G01*
X158350000Y-129300000D01*
G75*
G02*
X158600000Y-129550000I0J-250000D01*
G01*
G37*
G36*
G01*
X125780000Y-131315000D02*
X125780000Y-131685000D01*
G75*
G02*
X125645000Y-131820000I-135000J0D01*
G01*
X125375000Y-131820000D01*
G75*
G02*
X125240000Y-131685000I0J135000D01*
G01*
X125240000Y-131315000D01*
G75*
G02*
X125375000Y-131180000I135000J0D01*
G01*
X125645000Y-131180000D01*
G75*
G02*
X125780000Y-131315000I0J-135000D01*
G01*
G37*
G36*
G01*
X124760000Y-131315000D02*
X124760000Y-131685000D01*
G75*
G02*
X124625000Y-131820000I-135000J0D01*
G01*
X124355000Y-131820000D01*
G75*
G02*
X124220000Y-131685000I0J135000D01*
G01*
X124220000Y-131315000D01*
G75*
G02*
X124355000Y-131180000I135000J0D01*
G01*
X124625000Y-131180000D01*
G75*
G02*
X124760000Y-131315000I0J-135000D01*
G01*
G37*
G36*
G01*
X136950000Y-85850000D02*
X136050000Y-85850000D01*
G75*
G02*
X135800000Y-85600000I0J250000D01*
G01*
X135800000Y-84900000D01*
G75*
G02*
X136050000Y-84650000I250000J0D01*
G01*
X136950000Y-84650000D01*
G75*
G02*
X137200000Y-84900000I0J-250000D01*
G01*
X137200000Y-85600000D01*
G75*
G02*
X136950000Y-85850000I-250000J0D01*
G01*
G37*
G36*
G01*
X136950000Y-83850000D02*
X136050000Y-83850000D01*
G75*
G02*
X135800000Y-83600000I0J250000D01*
G01*
X135800000Y-82900000D01*
G75*
G02*
X136050000Y-82650000I250000J0D01*
G01*
X136950000Y-82650000D01*
G75*
G02*
X137200000Y-82900000I0J-250000D01*
G01*
X137200000Y-83600000D01*
G75*
G02*
X136950000Y-83850000I-250000J0D01*
G01*
G37*
G36*
G01*
X149190000Y-97330000D02*
X149190000Y-97670000D01*
G75*
G02*
X149050000Y-97810000I-140000J0D01*
G01*
X148770000Y-97810000D01*
G75*
G02*
X148630000Y-97670000I0J140000D01*
G01*
X148630000Y-97330000D01*
G75*
G02*
X148770000Y-97190000I140000J0D01*
G01*
X149050000Y-97190000D01*
G75*
G02*
X149190000Y-97330000I0J-140000D01*
G01*
G37*
G36*
G01*
X148230000Y-97330000D02*
X148230000Y-97670000D01*
G75*
G02*
X148090000Y-97810000I-140000J0D01*
G01*
X147810000Y-97810000D01*
G75*
G02*
X147670000Y-97670000I0J140000D01*
G01*
X147670000Y-97330000D01*
G75*
G02*
X147810000Y-97190000I140000J0D01*
G01*
X148090000Y-97190000D01*
G75*
G02*
X148230000Y-97330000I0J-140000D01*
G01*
G37*
G36*
G01*
X118100000Y-108800000D02*
X118100000Y-109700000D01*
G75*
G02*
X117850000Y-109950000I-250000J0D01*
G01*
X117150000Y-109950000D01*
G75*
G02*
X116900000Y-109700000I0J250000D01*
G01*
X116900000Y-108800000D01*
G75*
G02*
X117150000Y-108550000I250000J0D01*
G01*
X117850000Y-108550000D01*
G75*
G02*
X118100000Y-108800000I0J-250000D01*
G01*
G37*
G36*
G01*
X116100000Y-108800000D02*
X116100000Y-109700000D01*
G75*
G02*
X115850000Y-109950000I-250000J0D01*
G01*
X115150000Y-109950000D01*
G75*
G02*
X114900000Y-109700000I0J250000D01*
G01*
X114900000Y-108800000D01*
G75*
G02*
X115150000Y-108550000I250000J0D01*
G01*
X115850000Y-108550000D01*
G75*
G02*
X116100000Y-108800000I0J-250000D01*
G01*
G37*
D17*
X149220000Y-99350000D03*
X147950000Y-99350000D03*
X146680000Y-99350000D03*
X145410000Y-99350000D03*
X144140000Y-99350000D03*
X142870000Y-99350000D03*
X141600000Y-99350000D03*
X140330000Y-99350000D03*
X139060000Y-99350000D03*
X137790000Y-99350000D03*
X136520000Y-99350000D03*
X135250000Y-99350000D03*
X133980000Y-99350000D03*
X132710000Y-99350000D03*
D18*
X131440000Y-101110000D03*
X131440000Y-102380000D03*
X131440000Y-103650000D03*
X131440000Y-104920000D03*
X131440000Y-106190000D03*
X131440000Y-107470000D03*
X131440000Y-108730000D03*
X131440000Y-110000000D03*
X131440000Y-111270000D03*
X131440000Y-112550000D03*
X131440000Y-113820000D03*
X131470000Y-115090000D03*
D17*
X132710000Y-116850000D03*
X133980000Y-116850000D03*
X135250000Y-116850000D03*
X136520000Y-116850000D03*
X137790000Y-116850000D03*
X139060000Y-116850000D03*
X140330000Y-116850000D03*
X141600000Y-116850000D03*
X142870000Y-116850000D03*
X144140000Y-116850000D03*
X145410000Y-116850000D03*
X146680000Y-116850000D03*
X147950000Y-116850000D03*
X149220000Y-116850000D03*
D19*
X142900000Y-105200000D03*
X141500000Y-105200000D03*
X140100000Y-105200000D03*
X142900000Y-106600000D03*
X141500000Y-106600000D03*
X140100000Y-106600000D03*
X142900000Y-108000000D03*
X141500000Y-108000000D03*
X140100000Y-108000000D03*
G36*
G01*
X150185000Y-130270000D02*
X149815000Y-130270000D01*
G75*
G02*
X149680000Y-130135000I0J135000D01*
G01*
X149680000Y-129865000D01*
G75*
G02*
X149815000Y-129730000I135000J0D01*
G01*
X150185000Y-129730000D01*
G75*
G02*
X150320000Y-129865000I0J-135000D01*
G01*
X150320000Y-130135000D01*
G75*
G02*
X150185000Y-130270000I-135000J0D01*
G01*
G37*
G36*
G01*
X150185000Y-129250000D02*
X149815000Y-129250000D01*
G75*
G02*
X149680000Y-129115000I0J135000D01*
G01*
X149680000Y-128845000D01*
G75*
G02*
X149815000Y-128710000I135000J0D01*
G01*
X150185000Y-128710000D01*
G75*
G02*
X150320000Y-128845000I0J-135000D01*
G01*
X150320000Y-129115000D01*
G75*
G02*
X150185000Y-129250000I-135000J0D01*
G01*
G37*
G36*
G01*
X190670000Y-124760000D02*
X190330000Y-124760000D01*
G75*
G02*
X190190000Y-124620000I0J140000D01*
G01*
X190190000Y-124340000D01*
G75*
G02*
X190330000Y-124200000I140000J0D01*
G01*
X190670000Y-124200000D01*
G75*
G02*
X190810000Y-124340000I0J-140000D01*
G01*
X190810000Y-124620000D01*
G75*
G02*
X190670000Y-124760000I-140000J0D01*
G01*
G37*
G36*
G01*
X190670000Y-123800000D02*
X190330000Y-123800000D01*
G75*
G02*
X190190000Y-123660000I0J140000D01*
G01*
X190190000Y-123380000D01*
G75*
G02*
X190330000Y-123240000I140000J0D01*
G01*
X190670000Y-123240000D01*
G75*
G02*
X190810000Y-123380000I0J-140000D01*
G01*
X190810000Y-123660000D01*
G75*
G02*
X190670000Y-123800000I-140000J0D01*
G01*
G37*
G36*
G01*
X114900000Y-107200000D02*
X114900000Y-106300000D01*
G75*
G02*
X115150000Y-106050000I250000J0D01*
G01*
X115850000Y-106050000D01*
G75*
G02*
X116100000Y-106300000I0J-250000D01*
G01*
X116100000Y-107200000D01*
G75*
G02*
X115850000Y-107450000I-250000J0D01*
G01*
X115150000Y-107450000D01*
G75*
G02*
X114900000Y-107200000I0J250000D01*
G01*
G37*
G36*
G01*
X116900000Y-107200000D02*
X116900000Y-106300000D01*
G75*
G02*
X117150000Y-106050000I250000J0D01*
G01*
X117850000Y-106050000D01*
G75*
G02*
X118100000Y-106300000I0J-250000D01*
G01*
X118100000Y-107200000D01*
G75*
G02*
X117850000Y-107450000I-250000J0D01*
G01*
X117150000Y-107450000D01*
G75*
G02*
X116900000Y-107200000I0J250000D01*
G01*
G37*
G36*
G01*
X171440000Y-106080000D02*
X171440000Y-106420000D01*
G75*
G02*
X171300000Y-106560000I-140000J0D01*
G01*
X171020000Y-106560000D01*
G75*
G02*
X170880000Y-106420000I0J140000D01*
G01*
X170880000Y-106080000D01*
G75*
G02*
X171020000Y-105940000I140000J0D01*
G01*
X171300000Y-105940000D01*
G75*
G02*
X171440000Y-106080000I0J-140000D01*
G01*
G37*
G36*
G01*
X170480000Y-106080000D02*
X170480000Y-106420000D01*
G75*
G02*
X170340000Y-106560000I-140000J0D01*
G01*
X170060000Y-106560000D01*
G75*
G02*
X169920000Y-106420000I0J140000D01*
G01*
X169920000Y-106080000D01*
G75*
G02*
X170060000Y-105940000I140000J0D01*
G01*
X170340000Y-105940000D01*
G75*
G02*
X170480000Y-106080000I0J-140000D01*
G01*
G37*
G36*
G01*
X150450000Y-134600000D02*
X149550000Y-134600000D01*
G75*
G02*
X149300000Y-134350000I0J250000D01*
G01*
X149300000Y-133650000D01*
G75*
G02*
X149550000Y-133400000I250000J0D01*
G01*
X150450000Y-133400000D01*
G75*
G02*
X150700000Y-133650000I0J-250000D01*
G01*
X150700000Y-134350000D01*
G75*
G02*
X150450000Y-134600000I-250000J0D01*
G01*
G37*
G36*
G01*
X150450000Y-132600000D02*
X149550000Y-132600000D01*
G75*
G02*
X149300000Y-132350000I0J250000D01*
G01*
X149300000Y-131650000D01*
G75*
G02*
X149550000Y-131400000I250000J0D01*
G01*
X150450000Y-131400000D01*
G75*
G02*
X150700000Y-131650000I0J-250000D01*
G01*
X150700000Y-132350000D01*
G75*
G02*
X150450000Y-132600000I-250000J0D01*
G01*
G37*
D20*
X110910000Y-83550000D03*
X110910000Y-84350000D03*
D21*
X110885000Y-85500000D03*
X110885000Y-86500000D03*
X110885000Y-87000000D03*
X110885000Y-88000000D03*
D20*
X110910000Y-89150000D03*
X110910000Y-89950000D03*
X110910000Y-89950000D03*
X110910000Y-89150000D03*
D21*
X110885000Y-88500000D03*
X110885000Y-87500000D03*
X110885000Y-86000000D03*
X110885000Y-85000000D03*
D20*
X110910000Y-84350000D03*
X110910000Y-83550000D03*
D22*
X164000000Y-87095000D03*
X164000000Y-88365000D03*
X164000000Y-89635000D03*
X164000000Y-90905000D03*
X169400000Y-90905000D03*
X169400000Y-89635000D03*
X169400000Y-88365000D03*
X169400000Y-87095000D03*
G36*
G01*
X155565000Y-89970000D02*
X155935000Y-89970000D01*
G75*
G02*
X156070000Y-90105000I0J-135000D01*
G01*
X156070000Y-90375000D01*
G75*
G02*
X155935000Y-90510000I-135000J0D01*
G01*
X155565000Y-90510000D01*
G75*
G02*
X155430000Y-90375000I0J135000D01*
G01*
X155430000Y-90105000D01*
G75*
G02*
X155565000Y-89970000I135000J0D01*
G01*
G37*
G36*
G01*
X155565000Y-90990000D02*
X155935000Y-90990000D01*
G75*
G02*
X156070000Y-91125000I0J-135000D01*
G01*
X156070000Y-91395000D01*
G75*
G02*
X155935000Y-91530000I-135000J0D01*
G01*
X155565000Y-91530000D01*
G75*
G02*
X155430000Y-91395000I0J135000D01*
G01*
X155430000Y-91125000D01*
G75*
G02*
X155565000Y-90990000I135000J0D01*
G01*
G37*
D23*
X119500000Y-72000000D03*
X119500000Y-76300000D03*
G36*
G01*
X183400000Y-119450000D02*
X183400000Y-118550000D01*
G75*
G02*
X183650000Y-118300000I250000J0D01*
G01*
X184350000Y-118300000D01*
G75*
G02*
X184600000Y-118550000I0J-250000D01*
G01*
X184600000Y-119450000D01*
G75*
G02*
X184350000Y-119700000I-250000J0D01*
G01*
X183650000Y-119700000D01*
G75*
G02*
X183400000Y-119450000I0J250000D01*
G01*
G37*
G36*
G01*
X185400000Y-119450000D02*
X185400000Y-118550000D01*
G75*
G02*
X185650000Y-118300000I250000J0D01*
G01*
X186350000Y-118300000D01*
G75*
G02*
X186600000Y-118550000I0J-250000D01*
G01*
X186600000Y-119450000D01*
G75*
G02*
X186350000Y-119700000I-250000J0D01*
G01*
X185650000Y-119700000D01*
G75*
G02*
X185400000Y-119450000I0J250000D01*
G01*
G37*
M02*
