0
SECTION
2
HEADER
9
$INSUNITS
70
4
9
$ACADVER
1
AC1014
9
$HANDSEED
5
FFFF
0
ENDSEC
0
SECTION
2
TABLES
0
TABLE
2
VPORT
5
8
100
AcDbSymbolTable
0
ENDTAB
0
TABLE
2
LTYPE
5
5
100
AcDbSymbolTable
0
LTYPE
5
14
100
AcDbSymbolTableRecord
100
AcDbLinetypeTableRecord
2
BYBLOCK
70
0
0
LTYPE
5
15
100
AcDbSymbolTableRecord
100
AcDbLinetypeTableRecord
2
BYLAYER
70
0
0
ENDTAB
0
TABLE
2
LAYER
5
2
100
AcDbSymbolTable
70
2
0
LAYER
5
50
100
AcDbSymbolTableRecord
100
AcDbLayerTableRecord
2
0
70
0
6
CONTINUOUS
0
ENDTAB
0
TABLE
2
STYLE
5
3
100
AcDbSymbolTable
70
1
0
STYLE
5
11
100
AcDbSymbolTableRecord
100
AcDbTextStyleTableRecord
2
STANDARD
70
0
0
ENDTAB
0
TABLE
2
VIEW
5
6
100
AcDbSymbolTable
70
0
0
ENDTAB
0
TABLE
2
UCS
5
7
100
AcDbSymbolTable
70
0
0
ENDTAB
0
TABLE
2
APPID
5
9
100
AcDbSymbolTable
70
2
0
APPID
5
12
100
AcDbSymbolTableRecord
100
AcDbRegAppTableRecord
2
ACAD
70
0
0
ENDTAB
0
TABLE
2
DIMSTYLE
5
A
100
AcDbSymbolTable
70
1
0
ENDTAB
0
TABLE
2
BLOCK_RECORD
5
1
100
AcDbSymbolTable
70
1
0
BLOCK_RECORD
5
1F
100
AcDbSymbolTableRecord
100
AcDbBlockTableRecord
2
*MODEL_SPACE
0
BLOCK_RECORD
5
1B
100
AcDbSymbolTableRecord
100
AcDbBlockTableRecord
2
*PAPER_SPACE
0
ENDTAB
0
ENDSEC
0
SECTION
2
BLOCKS
0
BLOCK
5
20
100
AcDbEntity
100
AcDbBlockBegin
2
*MODEL_SPACE
0
ENDBLK
5
21
100
AcDbEntity
100
AcDbBlockEnd
0
BLOCK
5
1C
100
AcDbEntity
100
AcDbBlockBegin
2
*PAPER_SPACE
0
ENDBLK
5
1D
100
AcDbEntity
100
AcDbBlockEnd
0
ENDSEC
0
SECTION
2
ENTITIES
0
CIRCLE
5
100
100
AcDbEntity
8
0
100
AcDbCircle
10
-34.706259114842148
20
-94.000000000000028
30
0
40
0.49999999999999822
210
0
220
-0
230
1
0
CIRCLE
5
101
100
AcDbEntity
8
0
100
AcDbCircle
10
-28.201054647755942
20
-94.000000000000028
30
0
40
0.49999999999999822
210
0
220
-0
230
1
0
CIRCLE
5
102
100
AcDbEntity
8
0
100
AcDbCircle
10
-21.695850180669723
20
-94.000000000000028
30
0
40
0.49999999999999822
210
0
220
-0
230
1
0
CIRCLE
5
103
100
AcDbEntity
8
0
100
AcDbCircle
10
-15.190645713583521
20
-94
30
0
40
0.49999999999999822
210
0
220
-0
230
1
0
CIRCLE
5
104
100
AcDbEntity
8
0
100
AcDbCircle
10
-8.6854412464973159
20
-94
30
0
40
0.49999999999999822
210
0
220
-0
230
1
0
CIRCLE
5
105
100
AcDbEntity
8
0
100
AcDbCircle
10
-2.0000000000000018
20
-80.526022335431051
30
0
40
0.49999999999999822
210
0
220
-0
230
1
0
CIRCLE
5
106
100
AcDbEntity
8
0
100
AcDbCircle
10
-2.0000000000000022
20
-74.020817868344835
30
0
40
0.49999999999999822
210
0
220
-0
230
1
0
CIRCLE
5
107
100
AcDbEntity
8
0
100
AcDbCircle
10
-2.0000000000000027
20
-67.515613401258619
30
0
40
0.49999999999999822
210
0
220
-0
230
1
0
CIRCLE
5
108
100
AcDbEntity
8
0
100
AcDbCircle
10
-2.0000000000000036
20
-61.010408934172418
30
0
40
0.49999999999999822
210
0
220
-0
230
1
0
CIRCLE
5
109
100
AcDbEntity
8
0
100
AcDbCircle
10
-2.000000000000004
20
-54.505204467086216
30
0
40
0.49999999999999822
210
0
220
-0
230
1
0
CIRCLE
5
110
100
AcDbEntity
8
0
100
AcDbCircle
10
-41.211463581928356
20
-94.000000000000028
30
0
40
0.49999999999999822
210
0
220
-0
230
1
0
CIRCLE
5
111
100
AcDbEntity
8
0
100
AcDbCircle
10
-99.999999993501163
20
-54.566558742278836
30
0
40
0.49999999999999822
210
0
220
-0
230
1
0
CIRCLE
5
112
100
AcDbEntity
8
0
100
AcDbCircle
10
-99.999999992674333
20
-61.071763209365066
30
0
40
0.49999999999999822
210
0
220
-0
230
1
0
CIRCLE
5
113
100
AcDbEntity
8
0
100
AcDbCircle
10
-99.999999991847517
20
-67.576967676451261
30
0
40
0.49999999999999822
210
0
220
-0
230
1
0
CIRCLE
5
114
100
AcDbEntity
8
0
100
AcDbCircle
10
-99.999999991020715
20
-74.082172143537477
30
0
40
0.49999999999999822
210
0
220
-0
230
1
0
CIRCLE
5
115
100
AcDbEntity
8
0
100
AcDbCircle
10
-99.999999990193885
20
-80.587376610623679
30
0
40
0.49999999999999822
210
0
220
-0
230
1
0
CIRCLE
5
116
100
AcDbEntity
8
0
100
AcDbCircle
10
-93.253099318618013
20
-94.000000000000028
30
0
40
0.49999999999999822
210
0
220
-0
230
1
0
CIRCLE
5
117
100
AcDbEntity
8
0
100
AcDbCircle
10
-86.747894851531782
20
-94.000000000000028
30
0
40
0.49999999999999822
210
0
220
-0
230
1
0
CIRCLE
5
118
100
AcDbEntity
8
0
100
AcDbCircle
10
-80.242690384445595
20
-94.000000000000028
30
0
40
0.49999999999999822
210
0
220
-0
230
1
0
CIRCLE
5
119
100
AcDbEntity
8
0
100
AcDbCircle
10
-73.737485917359379
20
-94.000000000000028
30
0
40
0.49999999999999822
210
0
220
-0
230
1
0
CIRCLE
5
120
100
AcDbEntity
8
0
100
AcDbCircle
10
-67.232281450273177
20
-94.000000000000028
30
0
40
0.49999999999999822
210
0
220
-0
230
1
0
CIRCLE
5
121
100
AcDbEntity
8
0
100
AcDbCircle
10
-60.727076983186983
20
-94.000000000000028
30
0
40
0.49999999999999822
210
0
220
-0
230
1
0
CIRCLE
5
122
100
AcDbEntity
8
0
100
AcDbCircle
10
-54.221872516100774
20
-94.000000000000028
30
0
40
0.49999999999999822
210
0
220
-0
230
1
0
CIRCLE
5
123
100
AcDbEntity
8
0
100
AcDbCircle
10
-47.716668049014565
20
-94.000000000000028
30
0
40
0.49999999999999822
210
0
220
-0
230
1
0
CIRCLE
5
124
100
AcDbEntity
8
0
100
AcDbCircle
10
-28.201054647755942
20
-2.0000000000000018
30
0
40
0.49999999999999822
210
0
220
-0
230
1
0
CIRCLE
5
125
100
AcDbEntity
8
0
100
AcDbCircle
10
-99.999999991020715
20
-21.917827856462541
30
0
40
0.49999999999999822
210
0
220
-0
230
1
0
CIRCLE
5
126
100
AcDbEntity
8
0
100
AcDbCircle
10
-99.999999991847517
20
-28.423032323548764
30
0
40
0.49999999999999822
210
0
220
-0
230
1
0
CIRCLE
5
127
100
AcDbEntity
8
0
100
AcDbCircle
10
-99.999999993501163
20
-41.433441257721178
30
0
40
0.49999999999999822
210
0
220
-0
230
1
0
CIRCLE
5
128
100
AcDbEntity
8
0
100
AcDbCircle
10
-54.221872516100774
20
-2.0000000000000018
30
0
40
0.49999999999999822
210
0
220
-0
230
1
0
CIRCLE
5
129
100
AcDbEntity
8
0
100
AcDbCircle
10
-2.0000000000000036
20
-34.989591065827589
30
0
40
0.49999999999999822
210
0
220
-0
230
1
0
CIRCLE
5
130
100
AcDbEntity
8
0
100
AcDbCircle
10
-2.0000000000000022
20
-21.979182131655179
30
0
40
0.49999999999999822
210
0
220
-0
230
1
0
CIRCLE
5
131
100
AcDbEntity
8
0
100
AcDbCircle
10
-8.6854412464973159
20
-2.0000000000000107
30
0
40
0.49999999999999822
210
0
220
-0
230
1
0
CIRCLE
5
132
100
AcDbEntity
8
0
100
AcDbCircle
10
-2.0000000000000018
20
-15.473977664568972
30
0
40
0.49999999999999822
210
0
220
-0
230
1
0
CIRCLE
5
133
100
AcDbEntity
8
0
100
AcDbCircle
10
-15.190645713583521
20
-2.0000000000000107
30
0
40
0.49999999999999822
210
0
220
-0
230
1
0
CIRCLE
5
134
100
AcDbEntity
8
0
100
AcDbCircle
10
-21.695850180669723
20
-2.0000000000000018
30
0
40
0.49999999999999822
210
0
220
-0
230
1
0
CIRCLE
5
135
100
AcDbEntity
8
0
100
AcDbCircle
10
-34.706259114842148
20
-2.0000000000000018
30
0
40
0.49999999999999822
210
0
220
-0
230
1
0
CIRCLE
5
136
100
AcDbEntity
8
0
100
AcDbCircle
10
-80.242690384445595
20
-2.0000000000000018
30
0
40
0.49999999999999822
210
0
220
-0
230
1
0
CIRCLE
5
137
100
AcDbEntity
8
0
100
AcDbCircle
10
-73.737485917359379
20
-2.0000000000000018
30
0
40
0.49999999999999822
210
0
220
-0
230
1
0
CIRCLE
5
138
100
AcDbEntity
8
0
100
AcDbCircle
10
-41.211463581928356
20
-2.0000000000000018
30
0
40
0.49999999999999822
210
0
220
-0
230
1
0
CIRCLE
5
139
100
AcDbEntity
8
0
100
AcDbCircle
10
-60.727076983186983
20
-2.0000000000000018
30
0
40
0.49999999999999822
210
0
220
-0
230
1
0
CIRCLE
5
140
100
AcDbEntity
8
0
100
AcDbCircle
10
-47.716668049014565
20
-2.0000000000000018
30
0
40
0.49999999999999822
210
0
220
-0
230
1
0
CIRCLE
5
141
100
AcDbEntity
8
0
100
AcDbCircle
10
-86.747894851531782
20
-2.0000000000000018
30
0
40
0.49999999999999822
210
0
220
-0
230
1
0
CIRCLE
5
142
100
AcDbEntity
8
0
100
AcDbCircle
10
-67.232281450273177
20
-2.0000000000000018
30
0
40
0.49999999999999822
210
0
220
-0
230
1
0
CIRCLE
5
143
100
AcDbEntity
8
0
100
AcDbCircle
10
-99.999999990193885
20
-15.412623389376336
30
0
40
0.49999999999999822
210
0
220
-0
230
1
0
CIRCLE
5
144
100
AcDbEntity
8
0
100
AcDbCircle
10
-99.999999992674333
20
-34.928236790634955
30
0
40
0.49999999999999822
210
0
220
-0
230
1
0
CIRCLE
5
145
100
AcDbEntity
8
0
100
AcDbCircle
10
-2.0000000000000044
20
-48.000000000000007
30
0
40
0.49999999999999822
210
0
220
-0
230
1
0
CIRCLE
5
146
100
AcDbEntity
8
0
100
AcDbCircle
10
-2.0000000000000027
20
-28.484386598741388
30
0
40
0.49999999999999822
210
0
220
-0
230
1
0
CIRCLE
5
147
100
AcDbEntity
8
0
100
AcDbCircle
10
-93.253099318618013
20
-2.0000000000000018
30
0
40
0.49999999999999822
210
0
220
-0
230
1
0
CIRCLE
5
148
100
AcDbEntity
8
0
100
AcDbCircle
10
-2.000000000000004
20
-41.494795532913798
30
0
40
0.49999999999999822
210
0
220
-0
230
1
0
CIRCLE
5
149
100
AcDbEntity
8
0
100
AcDbCircle
10
-99.999999994327993
20
-47.938645724807358
30
0
40
0.49999999999999822
210
0
220
-0
230
1
0
CIRCLE
5
150
100
AcDbEntity
8
0
100
AcDbCircle
10
-6.0000000000000053
20
-88
30
0
40
2.8999999999999964
210
0
220
-0
230
1
0
CIRCLE
5
151
100
AcDbEntity
8
0
100
AcDbCircle
10
-6.0000000000000053
20
-8.0000000000000071
30
0
40
2.8999999999999964
210
0
220
-0
230
1
0
CIRCLE
5
152
100
AcDbEntity
8
0
100
AcDbCircle
10
-96.000000000000057
20
-88
30
0
40
2.8999999999999915
210
0
220
-0
230
1
0
CIRCLE
5
153
100
AcDbEntity
8
0
100
AcDbCircle
10
-96.000000000000057
20
-8.0000000000000071
30
0
40
2.8999999999999915
210
0
220
-0
230
1
0
LWPOLYLINE
5
154
100
AcDbEntity
8
0
100
AcDbPolyline
90
8
70
1
43
0.0
10
-0.49999999999999989
20
-3.5000000000000147
42
0.4142135623730957
10
-3.5000000000000009
20
-0.50000000000000711
10
-98.499739264322073
20
-0.49999999999999711
42
0.41421356233581386
10
-101.49999998870609
20
-3.5002607113885862
10
-101.5
20
-92.5
42
0.4142144716505361
10
-98.499990687364516
20
-95.499999999985633
10
-3.5000000000000142
20
-95.5
42
0.41421356237309509
10
-0.50000000000000711
20
-92.5
0
CIRCLE
5
155
100
AcDbEntity
8
0
100
AcDbCircle
10
-6.0000000113285346
20
-48.000000000000007
30
0
40
2.8999999999999977
210
0
220
-0
230
1
0
CIRCLE
5
156
100
AcDbEntity
8
0
100
AcDbCircle
10
-95.999999988671476
20
-48.000000000000007
30
0
40
2.8999999999999915
210
0
220
-0
230
1
0
SPLINE
5
157
100
AcDbEntity
8
0
100
AcDbSpline
70
4
71
2
72
6
73
3
74
0
42
0.000000001
43
0.0000000001
44
0.0000000001
40
0
40
0
40
0
40
0.60729684160893671
40
0.60729684160893671
40
0.60729684160893671
41
1
41
2.333333333333333
41
1
10
-3.4999999999998366
20
-38
30
0
10
-3.499999999999801
20
-42.500000000000007
30
0
10
-6.0000000113285346
20
-42.500000000000007
30
0
0
ARC
5
158
100
AcDbEntity
8
0
100
AcDbCircle
10
-6.0000000113285346
20
-48.000000000000007
30
0
40
5.4999999999999893
210
0
220
-0
230
1
100
AcDbArc
50
90
51
269.99999999999892
0
SPLINE
5
159
100
AcDbEntity
8
0
100
AcDbSpline
70
4
71
2
72
6
73
3
74
0
42
0.000000001
43
0.0000000001
44
0.0000000001
40
-0.60729684160893671
40
-0.60729684160893671
40
-0.60729684160893671
40
0
40
0
40
0
41
1
41
2.333333333333333
41
1
10
-6.0000000113285346
20
-53.500000000000007
30
0
10
-3.499999999999801
20
-53.500000000000007
30
0
10
-3.4999999999998366
20
-58.000000000000014
30
0
0
LINE
5
160
100
AcDbEntity
8
0
100
AcDbLine
10
-3.4999999999998384
20
-58.000000000000057
30
0
11
-3.5000000000000058
21
-78
31
0
0
SPLINE
5
161
100
AcDbEntity
8
0
100
AcDbSpline
70
4
71
2
72
6
73
3
74
0
42
0.000000001
43
0.0000000001
44
0.0000000001
40
-0.60729684067459855
40
-0.60729684067459855
40
-0.60729684067459855
40
0
40
0
40
0
41
1
41
2.333333333333333
41
1
10
-3.5000000000000058
20
-78
30
0
10
-3.5000000000000062
20
-82.499999999999986
30
0
10
-6.0000000000000053
20
-82.499999999999986
30
0
0
ARC
5
162
100
AcDbEntity
8
0
100
AcDbCircle
10
-6.0000000000000053
20
-88
30
0
40
5.4999999999999716
210
0
220
0
230
1
100
AcDbArc
50
90.000000000000014
51
180
0
SPLINE
5
163
100
AcDbEntity
8
0
100
AcDbSpline
70
4
71
2
72
6
73
3
74
0
42
0.000000001
43
0.0000000001
44
0.0000000001
40
0
40
0
40
0
40
0.77682044257344351
40
0.77682044257344351
40
0.77682044257344351
41
1
41
2.333333333333333
41
1
10
-11.500000000000004
20
-88
30
0
10
-11.500000000000004
20
-92.5
30
0
10
-16.000000000000007
20
-92.5
30
0
0
LINE
5
164
100
AcDbEntity
8
0
100
AcDbLine
10
-16.000000000000018
20
-92.500000000000071
30
0
11
-86.000000000000028
21
-92.5
31
0
0
SPLINE
5
165
100
AcDbEntity
8
0
100
AcDbSpline
70
4
71
2
72
6
73
3
74
0
42
0.000000001
43
0.0000000001
44
0.0000000001
40
-0.77682044257344363
40
-0.77682044257344363
40
-0.77682044257344363
40
0
40
0
40
0
41
1
41
2.333333333333333
41
1
10
-86.000000000000028
20
-92.5
30
0
10
-90.500000000000028
20
-92.5
30
0
10
-90.500000000000043
20
-88
30
0
0
ARC
5
166
100
AcDbEntity
8
0
100
AcDbCircle
10
-96.000000000000057
20
-88
30
0
40
5.4999999999999893
210
0
220
-0
230
1
100
AcDbArc
50
0
51
89.999999999999545
0
SPLINE
5
167
100
AcDbEntity
8
0
100
AcDbSpline
70
4
71
2
72
6
73
3
74
0
42
0.000000001
43
0.0000000001
44
0.0000000001
40
0
40
0
40
0
40
0.60729684067460199
40
0.60729684067460199
40
0.60729684067460199
41
1
41
2.333333333333333
41
1
10
-96.000000000000014
20
-82.5
30
0
10
-98.500000000000014
20
-82.5
30
0
10
-98.500000000000014
20
-78
30
0
0
LINE
5
168
100
AcDbEntity
8
0
100
AcDbLine
10
-98.500000000000057
20
-78
30
0
11
-98.500000000000171
21
-58.000000000000014
31
0
0
SPLINE
5
169
100
AcDbEntity
8
0
100
AcDbSpline
70
4
71
2
72
6
73
3
74
0
42
0.000000001
43
0.0000000001
44
0.0000000001
40
0
40
0
40
0
40
0.60729684160893693
40
0.60729684160893693
40
0.60729684160893693
41
1
41
2.333333333333333
41
1
10
-98.500000000000171
20
-58.000000000000014
30
0
10
-98.500000000000213
20
-53.500000000000007
30
0
10
-95.999999988671476
20
-53.500000000000007
30
0
0
ARC
5
170
100
AcDbEntity
8
0
100
AcDbCircle
10
-95.999999988671476
20
-48.000000000000007
30
0
40
5.5000000000000338
210
0
220
0
230
1
100
AcDbArc
50
-90.000000000000611
51
90.000000000000298
0
SPLINE
5
171
100
AcDbEntity
8
0
100
AcDbSpline
70
4
71
2
72
6
73
3
74
0
42
0.000000001
43
0.0000000001
44
0.0000000001
40
-0.60729684160893693
40
-0.60729684160893693
40
-0.60729684160893693
40
0
40
0
40
0
41
1
41
2.333333333333333
41
1
10
-95.999999988671476
20
-42.500000000000007
30
0
10
-98.500000000000213
20
-42.500000000000007
30
0
10
-98.500000000000171
20
-38
30
0
0
LINE
5
172
100
AcDbEntity
8
0
100
AcDbLine
10
-98.500000000000242
20
-38.000000000000007
30
0
11
-98.500000000000014
21
-18.000000000000007
31
0
0
SPLINE
5
173
100
AcDbEntity
8
0
100
AcDbSpline
70
4
71
2
72
6
73
3
74
0
42
0.000000001
43
0.0000000001
44
0.0000000001
40
-0.60729684067460132
40
-0.60729684067460132
40
-0.60729684067460132
40
0
40
0
40
0
41
1
41
2.333333333333333
41
1
10
-98.500000000000014
20
-18.000000000000007
30
0
10
-98.500000000000014
20
-13.500000000000014
30
0
10
-96.000000000000014
20
-13.500000000000014
30
0
0
ARC
5
174
100
AcDbEntity
8
0
100
AcDbCircle
10
-96.000000000000057
20
-8.0000000000000071
30
0
40
5.5000000000000071
210
0
220
0
230
1
100
AcDbArc
50
-90.000000000000142
51
0
0
SPLINE
5
175
100
AcDbEntity
8
0
100
AcDbSpline
70
4
71
2
72
6
73
3
74
0
42
0.000000001
43
0.0000000001
44
0.0000000001
40
0
40
0
40
0
40
0.77682044257344285
40
0.77682044257344285
40
0.77682044257344285
41
1
41
2.333333333333333
41
1
10
-90.500000000000043
20
-8.0000000000000071
30
0
10
-90.500000000000028
20
-3.5000000000000142
30
0
10
-86.000000000000028
20
-3.5000000000000142
30
0
0
LINE
5
176
100
AcDbEntity
8
0
100
AcDbLine
10
-86.000000000000028
20
-3.5000000000000142
30
0
11
-16.000000000000007
21
-3.5000000000000142
31
0
0
SPLINE
5
177
100
AcDbEntity
8
0
100
AcDbSpline
70
4
71
2
72
6
73
3
74
0
42
0.000000001
43
0.0000000001
44
0.0000000001
40
-0.77682044257344274
40
-0.77682044257344274
40
-0.77682044257344274
40
0
40
0
40
0
41
1
41
2.333333333333333
41
1
10
-16.000000000000007
20
-3.5000000000000142
30
0
10
-11.500000000000004
20
-3.5000000000000142
30
0
10
-11.500000000000004
20
-8.0000000000000071
30
0
0
ARC
5
178
100
AcDbEntity
8
0
100
AcDbCircle
10
-6.0000000000000053
20
-8.0000000000000071
30
0
40
5.5
210
0
220
0
230
1
100
AcDbArc
50
180
51
270
0
SPLINE
5
179
100
AcDbEntity
8
0
100
AcDbSpline
70
4
71
2
72
6
73
3
74
0
42
0.000000001
43
0.0000000001
44
0.0000000001
40
0
40
0
40
0
40
0.60729684067459944
40
0.60729684067459944
40
0.60729684067459944
41
1
41
2.333333333333333
41
1
10
-6.0000000000000053
20
-13.500000000000032
30
0
10
-3.5000000000000062
20
-13.500000000000032
30
0
10
-3.5000000000000058
20
-18.000000000000007
30
0
0
LINE
5
180
100
AcDbEntity
8
0
100
AcDbLine
10
-3.5000000000000049
20
-18.000000000000014
30
0
11
-3.4999999999998366
21
-38
31
0
0
CIRCLE
5
181
100
AcDbEntity
8
0
100
AcDbCircle
10
-10.200000011328534
20
-48.000000000000007
30
0
40
0.50000000000000488
210
0
220
-0
230
1
0
CIRCLE
5
182
100
AcDbEntity
8
0
100
AcDbCircle
10
-91.799999988671473
20
-48.000000000000007
30
0
40
0.50000000000000711
210
0
220
-0
230
1
0
CIRCLE
5
183
100
AcDbEntity
8
0
100
AcDbCircle
10
-100.20000000000003
20
-88
30
0
40
0.50000000000000711
210
0
220
-0
230
1
0
CIRCLE
5
184
100
AcDbEntity
8
0
100
AcDbCircle
10
-93.900000000000006
20
-91.637306695894665
30
0
40
0.50000000000000711
210
0
220
-0
230
1
0
CIRCLE
5
185
100
AcDbEntity
8
0
100
AcDbCircle
10
-8.100000000000005
20
-91.637306695894665
30
0
40
0.50000000000000044
210
0
220
-0
230
1
0
CIRCLE
5
186
100
AcDbEntity
8
0
100
AcDbCircle
10
-100.20000000000003
20
-8.0000000000000071
30
0
40
0.50000000000000711
210
0
220
-0
230
1
0
CIRCLE
5
187
100
AcDbEntity
8
0
100
AcDbCircle
10
-93.900000000000006
20
-4.3626933041053562
30
0
40
0.50000000000000711
210
0
220
-0
230
1
0
CIRCLE
5
188
100
AcDbEntity
8
0
100
AcDbCircle
10
-1.7999999999999972
20
-8.0000000000000071
30
0
40
0.50000000000000022
210
0
220
-0
230
1
0
CIRCLE
5
189
100
AcDbEntity
8
0
100
AcDbCircle
10
-10.200000000000014
20
-8.0000000000000071
30
0
40
0.50000000000000044
210
0
220
-0
230
1
0
CIRCLE
5
190
100
AcDbEntity
8
0
100
AcDbCircle
10
-3.9000000000000057
20
-4.3626933041053562
30
0
40
0.50000000000000044
210
0
220
-0
230
1
0
CIRCLE
5
191
100
AcDbEntity
8
0
100
AcDbCircle
10
-91.799999999999997
20
-8.0000000000000071
30
0
40
0.50000000000000711
210
0
220
-0
230
1
0
CIRCLE
5
192
100
AcDbEntity
8
0
100
AcDbCircle
10
-3.9000000000000057
20
-84.362693304105363
30
0
40
0.50000000000000044
210
0
220
-0
230
1
0
CIRCLE
5
193
100
AcDbEntity
8
0
100
AcDbCircle
10
-10.200000000000014
20
-88
30
0
40
0.50000000000000044
210
0
220
-0
230
1
0
CIRCLE
5
194
100
AcDbEntity
8
0
100
AcDbCircle
10
-91.799999999999997
20
-88
30
0
40
0.50000000000000711
210
0
220
-0
230
1
0
CIRCLE
5
195
100
AcDbEntity
8
0
100
AcDbCircle
10
-98.099999988671499
20
-51.637306695894658
30
0
40
0.50000000000000711
210
0
220
-0
230
1
0
CIRCLE
5
196
100
AcDbEntity
8
0
100
AcDbCircle
10
-93.899999988671482
20
-51.637306695894679
30
0
40
0.50000000000000711
210
0
220
-0
230
1
0
CIRCLE
5
197
100
AcDbEntity
8
0
100
AcDbCircle
10
-8.1000000113285253
20
-44.362693304105356
30
0
40
0.50000000000000488
210
0
220
-0
230
1
0
CIRCLE
5
198
100
AcDbEntity
8
0
100
AcDbCircle
10
-8.1000000113285253
20
-51.637306695894679
30
0
40
0.50000000000000488
210
0
220
-0
230
1
0
CIRCLE
5
199
100
AcDbEntity
8
0
100
AcDbCircle
10
-93.899999988671482
20
-44.362693304105356
30
0
40
0.50000000000000711
210
0
220
-0
230
1
0
CIRCLE
5
200
100
AcDbEntity
8
0
100
AcDbCircle
10
-98.100000000000023
20
-84.362693304105363
30
0
40
0.50000000000000711
210
0
220
-0
230
1
0
CIRCLE
5
201
100
AcDbEntity
8
0
100
AcDbCircle
10
-98.100000000000023
20
-91.637306695894665
30
0
40
0.50000000000000711
210
0
220
-0
230
1
0
CIRCLE
5
202
100
AcDbEntity
8
0
100
AcDbCircle
10
-3.9000000000000057
20
-91.637306695894665
30
0
40
0.50000000000000044
210
0
220
-0
230
1
0
CIRCLE
5
203
100
AcDbEntity
8
0
100
AcDbCircle
10
-98.100000000000023
20
-11.637306695894658
30
0
40
0.50000000000000711
210
0
220
-0
230
1
0
CIRCLE
5
204
100
AcDbEntity
8
0
100
AcDbCircle
10
-98.100000000000023
20
-4.3626933041053562
30
0
40
0.50000000000000711
210
0
220
-0
230
1
0
CIRCLE
5
205
100
AcDbEntity
8
0
100
AcDbCircle
10
-3.9000000000000057
20
-11.637306695894658
30
0
40
0.50000000000000044
210
0
220
-0
230
1
0
CIRCLE
5
206
100
AcDbEntity
8
0
100
AcDbCircle
10
-8.1000000000000139
20
-11.637306695894658
30
0
40
0.50000000000000044
210
0
220
-0
230
1
0
CIRCLE
5
207
100
AcDbEntity
8
0
100
AcDbCircle
10
-8.100000000000005
20
-4.3626933041053562
30
0
40
0.50000000000000044
210
0
220
-0
230
1
0
CIRCLE
5
208
100
AcDbEntity
8
0
100
AcDbCircle
10
-93.900000000000006
20
-11.637306695894658
30
0
40
0.50000000000000711
210
0
220
-0
230
1
0
CIRCLE
5
209
100
AcDbEntity
8
0
100
AcDbCircle
10
-1.7999999999999972
20
-88
30
0
40
0.50000000000000022
210
0
220
-0
230
1
0
CIRCLE
5
210
100
AcDbEntity
8
0
100
AcDbCircle
10
-8.1000000000000139
20
-84.362693304105363
30
0
40
0.50000000000000044
210
0
220
-0
230
1
0
CIRCLE
5
211
100
AcDbEntity
8
0
100
AcDbCircle
10
-93.900000000000006
20
-84.362693304105363
30
0
40
0.50000000000000711
210
0
220
-0
230
1
0
CIRCLE
5
212
100
AcDbEntity
8
0
100
AcDbCircle
10
-98.099999988671499
20
-44.362693304105349
30
0
40
0.50000000000000711
210
0
220
-0
230
1
0
CIRCLE
5
213
100
AcDbEntity
8
0
100
AcDbCircle
10
-3.9000000113285083
20
-51.637306695894658
30
0
40
0.50000000000000544
210
0
220
-0
230
1
0
CIRCLE
5
214
100
AcDbEntity
8
0
100
AcDbCircle
10
-3.9000000113285083
20
-44.362693304105349
30
0
40
0.50000000000000544
210
0
220
-0
230
1
0
ENDSEC
0
SECTION
2
OBJECTS
0
DICTIONARY
5
C
100
AcDbDictionary
3
ACAD_GROUP
350
D
3
ACAD_MLINESTYLE
350
17
0
DICTIONARY
5
D
100
AcDbDictionary
0
DICTIONARY
5
1A
330
C
100
AcDbDictionary
0
DICTIONARY
5
17
100
AcDbDictionary
0
ENDSEC
0
EOF
